<svg xmlns="http://www.w3.org/2000/svg" id="Layer_1" viewBox="0 0 270.53 133.01">
  <defs>
    <style>
      .cls-1{fill:#000;stroke-width:0px;}
    </style>
  </defs>
  <path d="M184.21 94.28c0 2.17-.3 4.23-.9 6.19s-1.42 3.77-2.48 5.42a21.206 21.206 0 0 1-3.84 4.48 20.808 20.808 0 0 1-5 3.29l12.21 18.96h-12.21l-10.85-16.83h-7l4.18-10.25h4.44c3.08 0 5.72-1.11 7.94-3.33a11.98 11.98 0 0 0 2.39-3.67c.57-1.37.85-2.79.85-4.27s-.29-2.9-.85-4.27c-.57-1.37-1.37-2.56-2.39-3.59-2.22-2.22-4.87-3.33-7.94-3.33h-12.13v49.54h-10.25V72.83h22.38c2.96 0 5.74.57 8.33 1.71a22.23 22.23 0 0 1 6.79 4.61c1.94 1.94 3.47 4.2 4.61 6.79 1.14 2.59 1.71 5.37 1.71 8.33ZM249.05 97.73l-3.79 10h15.26v9.51c0 1.49-.51 2.73-1.57 3.79s-2.3 1.57-3.79 1.57H237.47c-1.49 0-2.73-.51-3.79-1.57s-1.57-2.3-1.57-3.79V88.21c0-1.49.51-2.73 1.57-3.79s2.3-1.57 3.79-1.57h28.68v-10h-28.68c-4.23 0-7.88 1.51-10.87 4.5-2.99 2.99-4.5 6.64-4.5 10.87v29.03c0 4.23 1.51 7.88 4.5 10.87 2.98 2.99 6.64 4.5 10.87 4.5h17.69c4.23 0 7.88-1.51 10.87-4.5 2.99-2.98 4.5-6.64 4.5-10.87V97.73h-21.48ZM165.56 2.76l-.13-.35h-9.59l-.13.35-21.14 55.96-.28.74h10l.13-.36 3.48-9.24h19.81l-.28-.74-3.61-9.59-.13-.36h-11.76l8.71-23.01 8.99 23.75 3.61 9.59 3.61 9.59.13.36h10l-.28-.74-21.14-55.95ZM228.35 2.4h-11.4l-.13.36-15.33 41.28-16.51-41.29-.14-.34h-11.57l.3.75 22.39 55.96.14.34h11.07l.13-.36 20.77-55.96.27-.74ZM268.37 49h-27.84c-1 0-1.8-.39-2.53-1.24-.77-.89-1.15-1.95-1.15-3.23V17.35c0-1.28.37-2.34 1.15-3.24.73-.85 1.53-1.24 2.53-1.24h27.64V2.4h-27.64c-3.63 0-6.77 1.5-9.31 4.45-2.5 2.89-3.76 6.42-3.76 10.49v27.18c0 4.07 1.27 7.6 3.76 10.49 2.55 2.95 5.68 4.45 9.31 4.45h28.39V49h-.55ZM206.32 132.68h-9.59V72.85h9.59v59.83ZM96.23 67.39s-2.9-2.62-4.31-3.82c-1.34-1.13-2.47-3.75-3.6-5.02-1.7-2.05-4.24-7.35-4.24-7.35l2.12.35 4.52.42s-2.47-2.76-3.6-4.03c-1.13-1.34-2.54-4.24-3.53-5.73-.99-1.48-2.05-5.87-2.05-5.87l1.41-.21 3.04.07s-1.41-1.27-2.47-2.26c-1.2-1.13-3.18-3.68-4.1-5.23-.78-1.41-1.13-3.04-1.84-4.45-.78-1.55-1.77-4.88-1.77-4.88l-1.48-4.45-1.48 4.45s-.92 3.25-1.77 4.88c-.71 1.41-.99 3.04-1.84 4.45-.92 1.55-2.9 4.03-4.1 5.23-.99.99-2.47 2.26-2.47 2.26l3.04-.07 1.41.21s-1.13 4.38-2.05 5.87c-.92 1.41-2.4 4.38-3.53 5.73-1.13 1.27-3.6 4.03-3.6 4.03l4.52-.42 2.12-.35s-2.54 5.3-4.24 7.35c-1.06 1.34-2.26 3.89-3.6 5.02-1.48 1.27-4.31 3.82-4.31 3.82l6.71-1.34 4.88-.99s-.71 2.62-1.77 3.6c-1.63 1.55-2.26 3.18-4.17 4.52-1.34.92-4.38 4.03-4.38 4.03l7.35-.92 7.63-2.12 1.27.92s-.07 5.73.78 13.01c.64 5.44 1.7 11.73 3.6 17.11 1.06 2.9 2.33 5.51 3.89 7.63h3.04l8.76 5.16-.92-5.37h3.25c-3.82-3.82-6.5-8.55-8.41-13.36-.07-.21-.14-.42-.21-.64-.28-.71-.49-1.41-.78-2.12-.14-.35-.21-.64-.35-.99-.28-.92-.57-1.91-.78-2.9-.07-.28-.14-.57-.21-.78-.28-1.06-.49-2.12-.71-3.25 0-.14-.07-.35-.07-.49l-.64-3.82c-.71-5.58-.64-9.47-.64-9.47l1.27-.99 6.36 2.54 7.35.92s-3.04-3.04-4.38-4.03c-1.84-1.34-2.54-2.97-4.17-4.52-.99-.99-1.77-3.6-1.77-3.6l4.88.99 7.14 1.27ZM49.18 41.51l-4.81-2.19-8.66 2.32-8.22-6.28-6.14 6.65-4.29 2.35H11.7v2.1h5.86l4.94-2.72 5.2-5.53 7.54 5.8 8.94-2.41 4.81 2.19 6.04-1.64 4.95.82.38-2.1-5.5-.83-5.68 1.47z" class="cls-1"/>
  <path d="m103.43 39.22 3.53 1.19 4.34 4.85h4.5v-2.11h-3.55l-4.13-4.62-5.24-1.7-5.56 5.13-3.95.13-5.31-1.69-.66 2.08 5.68 1.72 5.1-.15 5.25-4.83zM47.07 63.69c-1.36-.14-3.05-.32-3.85-.32h-.01c-1.35.07-3.14.55-5 1.07l-.55.15c-1.12.3-2.18.58-2.95.7-1.68.24-4.33.17-6.9.1l-1.48-.04c-1.88-.07-3.65-.13-4.95-.06-1.63.05-5.42.37-7.68.57-.87.07-1.63.14-1.71.14h-.3l.19 2.1h.25s.26-.02.67-.06c1.87-.16 6.82-.59 8.67-.65 1.21-.07 2.97 0 4.83.06l1.6.04c2.74.07 5.32.14 7.09-.11.98-.13 2.25-.44 3.79-.93 2.09-.61 3.53-.92 4.54-.98.92-.06 3.71.28 5.06.44l.74.09.25-1.82.1-.44-.42.14c-.15.01-1.11-.09-1.97-.18ZM115.72 62.88c-.06-.01-.2-.04-.4-.09-1.05-.23-3.5-.78-4.54-.84-1.54 0-6.73.69-9.83 1.1-1.25.17-2.34.31-2.47.31h-.31l.29 2.14.27-.04c3.71-.53 10.4-1.41 11.96-1.34.88.07 3.48.61 4.56.84l.26.06.48-2.09-.28-.06Z" class="cls-1"/>
  <path d="M107.33 0H0v92.27c0 22.47 18.28 40.74 40.74 40.74h85.98V19.38C126.63 8.69 117.93 0 107.32 0Zm11.66 75.31c-15.76 1.63-27.07 4.38-36.4 8.48.35 4.31 1.84 10.46 3.53 14.84 9.47-5.8 17.39-10.67 32.87-13.5v40.22H40.67c-4.31 0-8.34-.85-12.16-2.33 21.84-5.09 33.43-10.53 43.89-16.61-1.84-5.23-3.18-12.37-3.82-17.32-11.87 4.24-20 5.37-28.49 7.35-9.47 2.26-17.53 1.48-32.16.99-.28-1.7-.42-3.39-.42-5.16V7.66h99.66c6.43 0 11.73 5.3 11.73 11.73V75.3h.07Z" class="cls-1"/>
</svg>