<svg preserveAspectRatio="xMidYMid meet" data-bbox="16.709 37.49 1042.481 418.997" xmlns="http://www.w3.org/2000/svg" viewBox="0 0 1086 481" height="481" width="1086" data-type="ugc" role="img" aria-label="Driftervans logo">
    <g>
        <path fill="url(#b7ebe216-fb89-40c9-8231-eb68450e908d_comp-lk2j4um4)" d="M32.343 175.239c8.123 6.281 20.385 9.345 36.938 9.345 1.38 0 3.372 0 5.518.153 2.759 0 5.671-.46 8.736-1.379-2.648 7.72-5.137 15.36-7.582 22.864v.001c-.951 2.919-1.896 5.817-2.84 8.691-3.372 10.264-5.824 18.689-7.664 25.429-.46.459-1.073 2.757-1.992 6.74a71.977 71.977 0 0 0-1.686 13.48 81.35 81.35 0 0 0 .306 13.787c.46 4.289 12.569 13.94 18.853 15.778 6.284 1.685 11.495 3.064 15.48 3.983.92.459 2.146.612 3.679.306 1.532-.153 2.759-1.379 3.678-3.676 3.525-7.506 5.365-15.319 5.671-23.438.307-7.965 1.226-15.778 3.066-23.437 2.299-14.706 5.058-28.492 8.43-41.513a768.507 768.507 0 0 1 10.422-36.152 3456.628 3456.628 0 0 1 55.025-24.203c19.772-8.425 40.31-15.012 61.768-19.454 3.679 12.561 4.598 26.501 3.065 41.972-1.532 15.319-5.364 30.944-11.342 46.875-5.977 15.931-13.794 31.096-23.144 45.649-9.349 14.553-20.078 27.114-32.187 37.837-12.108 10.723-25.136 18.841-39.237 24.203-14.101 5.361-28.355 6.74-42.61 3.983-8.583-1.839-17.32-5.209-26.21-10.111-8.889-4.902-14.407-11.335-16.706-19.454-3.985-9.804-8.276-15.012-13.028-15.472-4.598-.306-8.43 1.685-11.342 6.434-2.912 4.596-4.751 10.723-5.364 18.076-.614 7.353 1.072 13.786 5.058 19.148 10.269 16.084 24.523 27.573 42.916 34.466 18.392 7.047 37.858 9.651 58.703 8.119 20.691-1.532 41.076-7.353 61.002-17.463 19.925-10.11 36.478-24.203 49.966-42.585 25.443-34.926 40.77-68.474 45.982-100.642 5.211-32.169 2.605-61.121-7.664-86.55 9.35-1.379 19.006-1.838 29.122-1.379 10.116.46 19.465 3.524 27.895 9.345.46.459.92 1.072 1.38 1.991.919 1.379 1.532 3.677 1.992 6.74l.613.613c.92.919 1.839 1.532 2.759 1.991h1.38c.459 0 1.992-1.072 4.751-3.37 4.445-3.523 8.123-8.425 11.035-14.399 2.913-5.974 3.526-13.94 1.686-23.744-4.444-15.165-15.633-22.977-33.566-23.437-17.933-.46-40.923 3.217-69.125 11.336-14.715-17.463-32.494-29.718-53.339-36.918-20.845-7.046-41.996-9.65-63.761-7.659-21.611 1.991-42.609 7.966-62.688 17.77-20.079 9.803-36.632 22.824-49.66 38.908-.92.92-1.38 1.532-1.38 1.992-6.284 7.965-11.188 17.156-14.713 27.42-3.679 10.263-4.599 19.761-2.76 28.492 1.687 8.732 6.591 16.238 14.715 22.518ZM193.43 63.261c16.86 3.524 30.808 13.174 41.537 28.799-12.875 5.361-27.742 12.255-43.989 20.68-16.554 8.425-32.647 16.238-48.281 23.437 4.445-11.642 8.583-21.599 12.415-29.871 3.832-8.272 6.131-13.48 7.051-15.778.766-2.144 1.073-4.136.613-5.668-.46-1.531-.92-2.757-1.38-3.676l-1.992-1.992c-4.445-1.378-9.043-1.378-13.795 0-4.598 1.226-8.276 2.605-11.035 3.983-2.299.92-3.832 1.992-4.752 3.064-.919 1.225-1.839 2.145-2.759 3.064-4.904 6.28-10.269 15.165-16.093 26.501-5.824 11.489-11.189 23.59-16.094 36.611-3.985 1.378-7.663 2.451-11.035 3.064-3.372.612-6.13.612-8.43 0-2.3-.766-3.985-2.298-5.058-5.056-1.073-2.757-1.226-6.74-.306-12.101 3.984-17.004 13.028-31.863 26.822-44.883 13.948-12.868 29.275-21.906 45.981-27.42 16.707-5.515 33.567-6.28 50.58-2.758Zm130.434 243.412c6.437 2.604 15.327 4.596 26.516 5.974.46.46 1.226.46 2.299 0 1.226-.919 2.606-2.451 3.985-4.748.767-1.685 1.073-3.677.613-5.975-2.299-6.74-2.605-14.246-1.073-22.518 1.533-8.272 4.139-16.391 7.664-24.509 3.678-8.119 7.663-15.625 12.108-22.518 4.445-6.894 8.737-12.408 12.722-16.391.46-.46 1.073-.46 1.992 0v1.532c-4.598 9.038-6.13 14.705-4.751 17.156a51.645 51.645 0 0 0 4.751 7.047c2.759 3.064 6.131 5.055 10.423 5.974 4.292.919 8.736 1.379 13.488 1.072 4.598-.153 9.043-.919 13.028-1.991l1.645-.486.807-.237.017-.005.006-.002c2.987-.879 5.458-1.607 7.641-2.334 2.299-.919 3.219-2.144 2.759-3.983-.46-1.838-1.073-3.37-1.993-4.748-2.605-1.226-3.985-3.37-3.985-5.975 0-2.604.613-5.821 1.993-9.344 1.379-3.523 3.065-7.353 5.364-11.335 2.146-3.983 4.138-8.119 5.978-12.102 2.146-3.983 4.138-9.038 5.671-15.012 1.532-5.974-.153-11.489-5.058-16.391-3.066-3.676-6.744-5.208-11.036-4.749-4.291.46-8.276 1.379-11.802 2.758-.919.919-1.992 1.532-3.372 1.685-1.379.306-2.452.766-3.372 1.685-9.809 4.442-18.239 9.957-25.443 16.391-7.203 6.586-13.181 12.867-18.086 19.148-5.058 6.28-8.889 11.948-11.802 17.156-2.912 5.209-5.058 8.579-6.437 10.417.92-2.298 1.839-4.443 2.759-6.434.306-.715.613-1.413.92-2.111l.001-.002c.612-1.395 1.225-2.79 1.838-4.321 2.759-6.28 5.364-12.101 8.123-17.463 2.606-5.361 5.058-9.957 7.357-13.48 3.066-5.361 3.372-9.957.613-14.093-2.759-4.136-4.904-6.74-6.744-8.119-2.145-1.838-4.138-3.063-5.671-3.676-1.532-.613-2.759-1.226-3.678-1.685-1.38-.919-4.292-1.838-9.043-2.758-4.752-.919-8.124.46-10.423 3.983-5.364 10.264-10.116 19.761-14.407 28.493-4.292 8.731-8.277 17.463-11.802 26.194a205.348 205.348 0 0 0-9.043 27.42c-2.453 9.651-4.598 20.067-6.438 31.25-.459 4.902-.306 9.497.613 13.787.92 4.136 3.219 7.965 6.744 11.335 3.526 3.37 8.584 6.281 15.021 9.038Zm194.349-143.535c2.299 1.379 4.751 3.983 7.357 8.119 2.606 4.136 2.452 8.732-.613 14.093-2.299 3.523-4.751 8.119-7.357 13.48-2.759 5.362-5.365 11.183-8.123 17.463-1.84 3.524-3.372 7.2-4.752 11.03a908.838 908.838 0 0 1-1.504 4.134c-.862 2.36-1.703 4.658-2.481 6.895-4.445 13.48-6.744 26.501-6.744 39.215 0 12.715 2.912 22.978 8.737 30.484.919 1.379 1.686 2.91 2.299 4.749.613 1.838-.154 3.063-2.299 3.983-1.281.426-2.66.853-4.139 1.31-1.707.528-3.546 1.096-5.518 1.753-3.831 1.072-8.123 1.838-12.721 1.992-4.752.153-9.656-.154-15.021-1.073-5.364-.919-10.729-2.91-16.093-5.974-2.299-1.379-3.525-2.91-3.985-4.749-.46-1.838-.92-3.063-1.38-3.982-.919-6.281-.766-15.932.307-28.799 1.073-13.021 5.211-29.105 12.415-48.253 7.663-20.987 14.867-37.684 21.764-49.939 6.898-12.254 10.883-18.841 11.802-19.76 2.299-3.524 5.518-4.902 10.116-3.983 4.445.919 7.664 1.838 9.35 2.757.286.143.588.302.909.47h.001c.708.372 1.512.794 2.462 1.215 1.073.307 2.912 1.532 5.211 3.37Zm131.505 76.13.247-.046c1.03-3.487 2.062-6.692 3.127-9.602.46-1.839 2.453-7.506 5.978-17.157 2.44-6.679 5.246-14.091 8.369-22.339l.006-.014.027-.072c1.38-3.644 2.821-7.451 4.319-11.429a785.83 785.83 0 0 1 4.909-12.675c-6.789 3.576-14.083 5.994-21.771 7.311-15.633 2.757-31.727 3.064-48.28 1.379l-1.993 3.983c-.919 1.378-1.839 3.063-2.758 5.055-.92 1.991-3.372 7.046-3.372 7.046-4.905 10.264-10.576 24.663-17.167 43.198-6.437 18.536-11.802 41.054-15.787 67.401-.46 2.298-.766 4.443-1.073 6.741-.306 2.297-.613 4.442-1.073 6.74-.919 7.659-1.073 13.786-.613 18.841.46 4.902 1.993 8.119 4.752 9.345 3.985 2.297 8.736 0 14.101-6.74 5.364-6.741 10.269-15.625 14.714-26.808a54.127 54.127 0 0 0 2.299-7.046 54.04 54.04 0 0 1 2.299-7.047c3.525-13.48 5.364-26.347 5.364-38.909-7.203-2.297-11.955-5.974-14.407-11.029-2.452-5.208-3.372-10.57-2.759-16.084.613-5.515 2.299-10.57 5.058-15.012 2.759-4.443 5.364-7.2 8.123-8.119 3.526-1.379 6.591-.919 9.043 1.378 2.453 2.298 4.598 5.209 6.438 8.732 1.839 3.983 3.372 8.425 4.751 13.48.46 1.838.613 3.523.613 5.055 0 1.532.154 3.064.613 4.29 1.84.459 3.679.612 5.671.612 1.86 0 3.852.267 5.978.552l.46.061c5.824 0 10.422-.306 13.794-1.072Zm24.41-139.8c-1.484.278-2.969.572-4.456.883-1.121.35-2.306.803-3.554 1.357-5.671 2.451-12.415 7.659-20.538 15.471-8.123 7.813-17.473 20.527-28.202 37.837h6.744c13.028-.459 23.45-2.91 31.574-7.353 8.123-4.442 14.254-9.344 18.852-14.706 4.445-5.361 7.357-10.722 8.737-16.084 1.226-5.361 1.686-9.191 1.226-11.489-.92-1.838-2.759-3.523-5.671-5.055-1.3-.684-2.875-.97-4.712-.86ZM609.562 110.9c.828-.812 1.667-1.62 2.517-2.423-6.303.022-11.918-.403-16.922-1.251-8.89-1.532-15.941-4.136-21.152-7.66-5.211-3.522-8.89-7.659-11.035-12.407-2.299-4.749-3.372-9.498-3.372-14.4 0-2.757.766-7.2 2.299-13.48 1.532-6.28 4.291-9.344 8.43-9.344 1.379 0 3.678 1.072 7.05 3.37s8.43 4.749 15.481 7.66c6.897 2.91 16.246 5.667 27.895 8.118 11.649 2.45 26.363 3.983 44.296 4.29 9.349.459 15.48.612 18.086.612 2.605 0 4.751-.153 6.437-.306 1.533-.154 4.138-.307 7.664-.307 2.104 0 5.684.11 10.707.263 3.389.103 7.436.226 12.13.35 5.824-8.425 10.882-14.706 15.48-18.842 4.445-3.983 12.109-5.974 22.838-5.974h2.759c2.759 0 5.977.613 9.656 1.991 3.832 1.379 7.204 3.524 10.422 6.74 3.066 3.064 4.905 7.66 5.365 13.48 0 1.839-1.38 3.984-3.985 6.74 4.445 0 10.422.46 17.779 1.38 7.357.919 14.561 2.604 21.458 5.055 6.898 2.45 13.028 5.82 18.086 10.11 5.212 4.289 7.664 9.65 7.664 16.391 0 7.659-2.452 12.561-7.357 15.012-4.905 2.451-8.89 4.136-12.109 5.055-2.299 0-3.525-.919-3.985-2.758-.459-4.442-2.759-8.578-7.05-12.407-4.292-3.83-9.35-6.894-15.481-9.345-5.977-2.451-12.415-4.289-19.159-5.668-6.743-1.378-12.721-1.991-18.086-1.531-4.904 6.74-10.269 14.705-16.093 24.203a535.411 535.411 0 0 0-17.78 30.79c-5.977 11.182-11.801 23.131-17.473 35.845-5.671 12.714-10.575 25.888-15.02 39.215-.46.92-.613 1.532-.613 1.685 0 .168-.092.383-.226.693-.111.256-.249.578-.387.992-1.38 3.524-3.679 11.336-7.051 23.131-3.372 11.796-5.058 23.591-5.058 35.233 0 4.902.767 9.191 2.299 12.714 1.533 3.523 2.299 6.893 2.299 10.11 0 2.758-1.072 4.29-3.065 5.055-1.993.613-3.679 1.073-5.058 1.073l-1.305-.259-.06-.012-.016-.003-.004-.001-.006-.001c-2.148-.425-4.903-.969-8.265-1.716-4.292-.919-8.43-2.757-12.722-5.668-4.291-2.91-7.97-6.893-11.035-12.101-3.066-5.208-4.752-12.102-4.752-21.14 0-6.978.662-14.05 2.06-21.069-.675.09-1.362.168-2.062.234-4.904.459-11.035.613-18.086.613.46 20.986-2.299 40.747-8.43 59.282-5.977 18.535-13.794 34.007-23.144 46.568-9.349 12.561-20.078 21.14-31.88 25.888-11.802 4.749-23.451 3.677-34.486-3.063-7.664-4.902-12.569-12.562-14.714-23.131-2.299-10.57-2.453-22.672-.613-36.611.919-17.463 3.678-34.773 8.429-51.93 4.752-17.157 9.81-33.088 15.481-47.64 5.518-14.553 11.036-27.114 16.4-37.837 5.365-10.723 9.35-18.535 12.108-23.437-2.299-.919-4.291-1.379-5.977-1.685-1.839-.154-3.832-.766-5.978-1.685-38.931-12.562-70.811-20.527-95.641-23.744-24.83-3.37-43.223-4.749-55.331-4.289-7.664 0-10.883-1.226-10.116-3.677.919-2.451 2.759-4.748 5.364-7.046 7.664-5.362 17.627-10.723 30.195-16.085 12.568-5.361 26.669-7.352 42.303-5.974 11.189.919 21.611 3.064 31.267 6.434 9.656 3.37 19.006 7.2 28.202 11.336 9.196 4.289 17.933 8.578 26.21 13.02 8.276 4.443 16.706 8.426 25.136 12.102.92-1.379 3.985-5.515 9.35-12.408 5.364-6.893 12.108-14.399 20.538-22.518Zm224.695 161.614.159-.961.063-.375.048-.288.108-.641c-7.408 8.178-15.932 16.01-25.665 23.402-11.342 8.732-23.757 15.472-37.245 20.068-13.487 4.748-26.822 4.748-40.31.306-12.568-3.983-20.845-11.029-24.83-21.139-3.985-10.111-5.058-21.14-3.065-33.242 1.992-12.101 6.437-24.356 13.028-36.917 6.744-12.561 14.561-23.744 23.45-33.547 5.365-5.822 11.342-11.336 17.78-16.391 6.437-5.209 13.334-9.345 20.538-12.715 7.204-3.37 14.254-5.208 21.458-5.361 7.204-.153 13.795 1.685 20.079 5.668 3.985 2.757 6.744 6.434 8.123 11.029 1.38 4.749 1.533 9.804.613 15.472-.919 5.668-2.759 11.335-5.671 17.156-2.912 5.821-6.437 11.336-10.422 16.698-3.066 4.442-6.284 8.118-9.35 10.723l-4.751 4.748c-1.38 1.379-3.066 2.451-5.365 3.37-8.43 6.281-16.86 10.417-25.136 12.408-8.277 1.992-15.021 3.523-20.539 4.289-.46 9.345 1.38 15.778 5.365 19.149 3.985 3.37 9.349 4.901 15.787 4.748 6.437-.153 13.794-2.144 22.071-5.668 8.277-3.523 16.247-7.659 23.757-12.408 7.664-4.748 14.561-9.65 20.845-15.012a145.788 145.788 0 0 0 5.225-4.671 142.262 142.262 0 0 1 .289-1.148 205.492 205.492 0 0 1 9.043-27.42c3.526-8.731 7.511-17.463 11.802-26.194 4.292-8.732 9.043-18.229 14.408-28.493 2.299-3.523 5.671-4.902 10.422-3.983 4.752.92 7.664 1.839 9.043 2.758.92.459 2.146 1.072 3.679 1.685 1.532.613 3.525 1.838 5.671 3.676 1.839 1.379 3.985 3.983 6.744 8.119 2.759 4.136 2.452 8.732-.613 14.093-2.299 3.523-4.752 8.119-7.357 13.48-2.759 5.362-5.365 11.183-8.124 17.463a137.133 137.133 0 0 1-1.839 4.323c-.306.698-.613 1.396-.92 2.111a135.95 135.95 0 0 0-2.759 6.434c1.38-1.838 3.526-5.208 6.438-10.417 2.912-5.208 6.744-10.876 11.802-17.156 4.905-6.281 10.882-12.562 18.086-19.148 7.204-6.434 15.634-11.949 25.443-16.391.46-.46 1.916-1.073 3.372-1.685 1.456-.613 2.912-1.226 3.372-1.685 3.525-1.379 7.51-2.298 11.802-2.758 4.291-.459 7.97 1.073 11.035 4.749 4.905 4.902 6.591 10.417 5.058 16.391-1.532 5.974-3.525 11.029-5.671 15.012-1.839 3.983-3.832 8.119-5.977 12.102-2.299 3.982-3.985 7.812-5.365 11.335-1.379 3.523-1.992 6.74-1.992 9.344 0 2.605 1.379 4.749 3.985 5.975.919 1.378 1.532 2.91 1.992 4.748.46 1.839-.46 3.064-2.759 3.983-2.182.727-4.653 1.455-7.639 2.334l-1.152.339-1.325.391c-3.985 1.072-8.43 1.838-13.028 1.991-4.751.307-9.196-.153-13.488-1.072-4.291-.919-7.663-2.91-10.422-5.974a51.645 51.645 0 0 1-4.751-7.047c-1.38-2.451.153-8.118 4.751-17.156v-1.532c-.92-.46-1.533-.46-1.993 0-3.985 3.983-8.276 9.497-12.721 16.391-4.445 6.893-8.43 14.399-12.109 22.518-3.525 8.118-6.13 16.237-7.663 24.509-1.533 8.272-1.226 15.778 1.073 22.518.46 2.298.153 4.29-.613 5.975-1.38 2.297-2.759 3.829-3.985 4.748-1.226.46-1.84.46-2.299 0-11.189-1.378-20.079-3.37-26.516-5.974-6.438-2.757-11.496-5.668-15.021-9.038-3.525-3.37-5.824-7.199-6.744-11.335-.92-4.29-1.073-8.885-.613-13.787Zm-85.369-37.992c0-1.532.46-3.217 1.379-5.055 1.84-6.74 4.445-13.327 7.971-19.914 3.525-6.434 7.203-11.948 10.729-16.391 3.525-4.442 7.05-7.659 10.422-9.65 3.372-1.992 5.671-1.992 7.051.306 2.145 2.757 2.452 6.587.613 11.795-1.84 5.055-4.292 10.11-7.357 15.012-1.227 2.605-4.445 6.434-9.35 11.336l-4.751 4.749c-2.146 2.298-4.752 4.442-7.664 6.434-2.69 1.981-5.904 3.831-9.52 5.914l-.002.001-.397.228-.503.29c.919-1.838 1.379-3.523 1.379-5.055Zm-54.414 162.682c2.606-22.211 3.525-38.143 2.912-47.64-.153-.919-.613-1.991-1.379-3.064-.767-1.072-1.686-1.838-2.606-2.298-.919-.459-1.992-.765-3.065-.765h-.153c-2.913 0-4.445 1.531-4.905 4.748-1.839 19.148-5.518 42.279-11.036 69.087-5.824-31.863-9.962-54.687-12.261-68.321-.307-1.685-1.227-3.063-2.606-3.983-1.379-.919-3.065-1.225-5.211-.919-1.84.153-3.526.766-4.905 1.838-1.379 1.073-2.146 2.451-2.146 3.83v.153c7.511 55.913 12.722 89.46 15.94 100.796.614 1.838 2.146 3.217 4.599 4.289 2.452 1.072 5.211 1.532 8.123 1.532h.46c5.211-.153 8.277-1.685 8.89-4.749 3.678-14.093 6.744-32.322 9.349-54.534Zm76.18 52.237c0 1.379-.766 2.758-2.146 3.83-1.379 1.072-3.065 1.685-4.904 1.992-1.38.153-2.759 0-3.832-.46s-1.993-.919-2.606-1.838c-.613-.766-1.073-1.838-1.379-2.911-1.226-6.893-3.679-20.527-7.357-40.9h-10.269c-2.606 14.552-4.599 28.492-5.671 41.666-.46 3.217-1.993 4.749-4.905 4.749h-.153c-1.533 0-3.066-.613-4.599-1.838-1.379-1.226-2.299-2.604-2.299-4.29-.613-9.344.307-25.275 2.912-47.64 2.606-22.212 5.671-40.441 9.35-54.534.613-3.063 3.679-4.595 8.89-4.748 1.839 0 3.678.306 5.518.766a15.86 15.86 0 0 1 4.904 2.144c1.38.919 2.299 1.991 2.606 3.217 3.219 11.336 8.43 44.883 15.94 100.795ZM740.46 399.35c2.605-.153 4.751-.153 6.284-.153a2004.808 2004.808 0 0 1-3.219-17.616c-.601 3.072-1.174 5.911-1.704 8.543l-.001.002a714.493 714.493 0 0 0-1.82 9.224h.46Zm110.504-55.451c-1.533-1.379-3.219-2.298-5.365-2.605-1.992-.153-3.678.307-4.751.919-1.533 1.073-2.299 2.298-2.606 3.83-1.839 12.868-2.758 33.394-3.218 61.58-4.292-12.561-8.89-27.573-13.641-45.036-1.84-6.587-3.066-11.029-3.526-13.174-.46-1.225-1.226-2.144-2.299-3.064-1.226-.919-2.452-1.685-3.985-2.144-1.533-.46-3.065-.919-4.751-1.072-1.533-.307-3.219-.307-4.598-.154-4.905.46-7.511 2.145-7.97 5.209-1.533 11.642-1.38 30.024.153 55.146 1.532 25.122 3.218 40.9 4.751 47.487.46 1.685 1.686 2.911 3.525 3.83 1.84.919 3.832 1.226 5.825.766 1.839-.306 3.372-1.072 4.291-2.145.92-1.072 1.38-2.451 1.227-3.982-.46-2.298-.614-8.426-.614-18.689 0-10.11.307-19.454.767-27.726 2.912 9.038 6.591 17.922 10.729 26.501 4.138 8.578 7.204 14.093 9.043 16.544.919 1.378 2.605 2.604 4.905 3.676 2.299 1.072 4.444 1.685 6.59 1.685 1.073 0 1.993-.153 2.759-.613 2.912-.919 4.292-3.217 4.292-7.046-.46-11.795-.613-27.88-.46-48.253 0-20.374.46-35.386.919-45.19.154-2.757-.613-4.749-1.992-6.28Zm60.24 46.258c5.824 5.208 9.809 9.65 12.108 13.02 4.139 5.974 6.131 12.408 6.131 19.301 0 8.119-2.299 15.472-7.05 22.059-5.212 7.047-11.343 10.723-18.393 10.723-8.89 0-15.634-4.289-20.232-12.868-3.065-5.667-4.598-11.335-4.598-17.003 0-1.532.46-2.911 1.226-4.136.767-1.225 1.839-1.838 3.066-1.991 1.226-.154 2.452.306 3.525 1.378 1.073 1.073 1.992 2.758 2.452 5.209 2.759 11.182 6.744 16.85 12.109 16.85 2.145 0 4.138-1.379 5.977-4.289 2.146-3.37 3.219-7.966 3.219-13.481 0-3.676-.766-7.199-2.299-10.416-1.533-3.217-3.066-5.821-4.598-7.659-1.533-1.839-3.832-4.136-7.051-7.2-2.452-2.298-4.445-4.289-5.671-5.668-1.379-1.379-2.912-3.37-4.598-5.821-1.686-2.451-2.912-5.055-3.832-7.659-.766-2.757-1.226-5.668-1.226-8.732 0-7.812 2.146-14.399 6.591-19.76 4.904-6.128 11.342-9.038 19.312-9.038 7.664 0 13.488 3.829 17.626 11.642 2.912 5.208 4.292 10.569 4.292 15.778 0 2.604-.613 4.595-1.993 5.974-1.226 1.379-2.759 1.991-4.598 1.991-1.379 0-2.912-.306-4.292-.919-1.379-.613-2.605-1.532-3.678-2.604-.92-1.072-1.533-2.298-1.533-3.676 0-3.37-.46-6.894-1.226-10.417-.92-3.983-1.992-5.974-3.219-5.974-1.992 0-3.985 1.838-6.284 5.361-2.146 3.524-3.218 7.966-3.218 13.174 0 2.145.613 4.289 1.839 6.281 1.226 2.144 2.605 3.829 3.832 5.208 1.46.796 3.15 2.396 5.269 4.402.327.311.666.631 1.015.96Zm80.692-273.87c0-18.57 15.064-33.628 33.644-33.628s33.65 15.058 33.65 33.628-15.07 33.628-33.65 33.628-33.644-15.058-33.644-33.628Zm5.708 0c0 15.418 12.516 27.923 27.936 27.923 15.43 0 27.94-12.505 27.94-27.923 0-15.418-12.51-27.923-27.94-27.923-15.42 0-27.936 12.505-27.936 27.923Zm40.396-6.148c0 5.27-3.27 7.987-5.89 8.948l6.06 12.325c.04.091.07.192.06.294a.58.58 0 0 1-.08.288.64.64 0 0 1-.22.207.585.585 0 0 1-.29.074h-4.66a.6.6 0 0 1-.54-.345l-5.6-11.95h-6.67v11.695c0 .33-.27.6-.6.6h-4.09c-.33 0-.6-.27-.6-.6v-30.776c0-.33.27-.6.6-.6h11.69c7.42 0 10.83 4.496 10.83 9.84Zm-17.83 5.623h6.12c3.98 0 6.22-1.922 6.22-5.442 0-3.769-2.47-5.668-6.07-5.668h-6.27v11.11Z" clip-rule="evenodd" fill-rule="evenodd"></path>
        <defs fill="none">
            <linearGradient gradientUnits="userSpaceOnUse" y2="184.5" x2="1060" y1="198.5" x1="-4.5" id="b7ebe216-fb89-40c9-8231-eb68450e908d_comp-lk2j4um4">
                <stop stop-color="#E9E19D"></stop>
                <stop stop-color="#E3CC74" offset=".505"></stop>
                <stop stop-color="#B6882C" offset="1"></stop>
            </linearGradient>
        </defs>
    </g>
</svg>
