<svg xmlns="http://www.w3.org/2000/svg" xml:space="preserve" overflow="visible" viewBox="0 0 290.4 65.6">
  <path fill="#615f64" d="M58 38.8c0 2.8-.5 4.7-1.6 5.7s-3 1.5-5.9 1.5H29.8c-2.8 0-4.8-.5-5.9-1.5-1.1-1-1.6-2.9-1.6-5.7V22.9c0-2.8.5-4.7 1.6-5.7s3-1.5 5.9-1.5h20.8c3 0 5 .5 6 1.5s1.5 3 1.5 6l-6.8 1.2V21h-22v19.1h21.9v-6.7H39.8v-5.1H58v10.5zM102 40.1c0 2.3-.5 3.9-1.4 4.7-.9.8-2.6 1.2-5 1.2H76.5c-2.4 0-4.1-.4-5-1.1-1-.9-1.5-2.4-1.5-4.8v-13c0-2.4.5-3.9 1.4-4.7.9-.8 2.6-1.1 5-1.1h19.1c2.4 0 4.1.4 5 1.1.9.8 1.4 2.3 1.4 4.7v13zm-6.1 1.1V25.8H76v15.4h19.9zM146.8 38.8c0 2.8-.5 4.7-1.6 5.7s-3 1.5-5.9 1.5h-18c-2.8 0-4.8-.5-5.9-1.5-1.1-1-1.6-2.9-1.6-5.7V22.9c0-2.8.5-4.7 1.6-5.7s3-1.5 5.9-1.5h18c3.6 0 5.8.8 6.7 2.5.5 1 .8 3.5.8 7.5l-7 1.1v-5.7h-18.9v19.1h18.9v-6.5l7 1.5v3.6zM190.4 40.1c0 2.3-.5 3.9-1.4 4.7-.9.8-2.6 1.2-5 1.2h-19.1c-2.4 0-4.1-.4-5-1.1-.9-.8-1.4-2.3-1.4-4.7v-13c0-2.4.5-3.9 1.4-4.7.9-.8 2.6-1.1 5-1.1H184c2.4 0 4.1.4 5 1.1.9.8 1.4 2.3 1.4 4.7v12.9zm-6 1.1V25.8h-19.9v15.4h19.9zM232.2 33.5c0 8.3-5.4 12.4-16.3 12.4h-15.1V21.2h16.6c4.4 0 7.9.9 10.4 2.7 3 2.2 4.4 5.4 4.4 9.6zm-6.1-.3c0-5-2.9-7.5-8.6-7.5h-10.6v15.6h7.8c3.7 0 6.4-.4 8-1.3 2.2-1.2 3.4-3.5 3.4-6.8zM268.1 45.9h-26.8V21.2h26.5v4.4h-20.4V31h11.9v4.3h-11.9v6.1h20.7v4.5z" />
</svg>
