<svg version="1.1" id="Layer_1" xmlns="http://www.w3.org/2000/svg" xmlns:xlink="http://www.w3.org/1999/xlink" x="0px" y="0px"
	 width="100%" viewBox="0 0 1212 1179" enable-background="new 0 0 1212 1179" xml:space="preserve">
<path fill="#FFFFFF" opacity="1.000000" stroke="none" 
	d="
M1213.000000,432.000000 
	C1213.000000,681.666687 1213.000000,930.833313 1213.000000,1180.000000 
	C809.000000,1180.000000 405.000000,1180.000000 1.000000,1180.000000 
	C1.000000,787.000000 1.000000,394.000000 1.000000,1.000000 
	C405.000000,1.000000 809.000000,1.000000 1213.000000,1.000000 
	C1213.000000,144.500000 1213.000000,288.000000 1213.000000,432.000000 
M98.994576,532.500000 
	C98.994576,558.603027 98.994576,584.706116 98.994576,611.005310 
	C101.438766,611.005310 103.254700,611.005310 105.070633,611.005310 
	C216.555771,611.005310 328.040924,610.994324 439.526031,611.055359 
	C443.075684,611.057312 445.483643,610.306274 448.269592,607.501343 
	C500.173462,555.243225 552.302307,503.208557 602.614197,452.896667 
	C655.663452,505.945068 708.667358,558.948120 760.360779,610.640686 
	C878.459045,610.640686 994.182068,610.640686 1109.651855,610.640686 
	C1109.651855,437.889832 1109.651855,265.503754 1109.651855,92.994576 
	C1107.639038,92.994576 1105.979370,92.994576 1104.319702,92.994576 
	C992.334595,92.994576 880.349548,93.015236 768.364502,92.903152 
	C764.690125,92.899475 762.300781,94.076622 759.788391,96.595947 
	C709.306580,147.216141 658.734802,197.746552 608.212708,248.326569 
	C606.991760,249.548920 606.131348,251.131424 605.072144,252.588043 
	C552.346313,199.855484 500.493317,148.015610 448.695679,96.120476 
	C446.591064,94.011909 444.600769,92.906319 441.433228,92.909180 
	C328.781647,93.011185 216.130005,92.993660 103.478348,93.004829 
	C102.045357,93.004974 100.612381,93.159157 98.994576,93.252052 
	C98.994576,239.576508 98.994576,385.538239 98.994576,532.500000 
M994.500000,944.996399 
	C985.834473,944.996399 977.167664,945.083191 968.504211,944.949768 
	C965.429504,944.902466 962.315613,944.549805 959.304016,943.927734 
	C954.689270,942.974426 952.291016,939.354492 952.252258,935.178650 
	C952.213928,931.049377 954.361572,927.234192 958.951111,926.110840 
	C961.769775,925.421082 964.739868,925.053528 967.642761,925.048645 
	C1007.305054,924.981812 1046.967529,925.003601 1086.630005,925.003601 
	C1088.380493,925.003601 1090.130859,925.003601 1091.643311,925.003601 
	C1091.643311,902.236450 1091.643311,880.167847 1091.643311,857.996399 
	C1043.792969,857.996399 996.302795,858.041077 948.812866,857.958252 
	C939.431152,857.941895 930.396912,859.196960 921.312866,861.790466 
	C898.594421,868.276550 883.705078,882.706543 876.038574,904.729675 
	C870.859253,919.608337 871.073853,934.968079 872.958191,950.406067 
	C874.605835,963.905273 879.444519,976.226501 888.187500,986.477112 
	C902.494629,1003.251160 921.344604,1011.416138 943.214417,1011.904541 
	C963.868591,1012.365845 984.541382,1011.956116 1005.205383,1012.055298 
	C1008.276184,1012.070007 1011.429810,1012.451233 1014.393005,1013.236877 
	C1019.109680,1014.487305 1021.683777,1018.107361 1021.874939,1022.767090 
	C1022.048096,1026.985596 1019.641663,1030.328369 1015.577881,1031.681396 
	C1012.851562,1032.589111 1009.823914,1032.938599 1006.930054,1032.943848 
	C965.101379,1033.020508 923.272400,1032.996460 881.443542,1032.996460 
	C879.686035,1032.996460 877.928528,1032.996460 876.330750,1032.996460 
	C876.330750,1055.711060 876.330750,1077.779175 876.330750,1100.003540 
	C878.485718,1100.003540 880.306946,1100.003540 882.128235,1100.003540 
	C930.623108,1100.003540 979.118164,1100.074463 1027.612549,1099.915039 
	C1033.777100,1099.894775 1040.062744,1099.234985 1046.077759,1097.902710 
	C1068.681641,1092.896484 1085.462646,1079.853149 1095.331665,1058.997192 
	C1104.278809,1040.089478 1105.129272,1019.944580 1100.946777,999.630432 
	C1098.133789,985.968140 1091.865967,973.770203 1081.632935,964.360413 
	C1067.336426,951.213989 1049.702393,945.603394 1030.494507,945.057373 
	C1018.838501,944.726013 1007.165405,944.996399 994.500000,944.996399 
M608.604004,1100.001709 
	C633.016479,1100.001709 657.428894,1100.001709 682.307007,1100.001709 
	C682.307007,1058.726929 682.307007,1018.113831 682.307007,977.404236 
	C695.581543,996.568420 708.718262,1015.400757 721.713562,1034.330200 
	C735.990417,1055.126221 750.224060,1075.953613 764.226135,1096.934448 
	C765.898987,1099.441040 767.474854,1100.044922 770.127258,1100.038696 
	C796.451111,1099.977539 822.775085,1100.005981 849.099060,1099.988525 
	C850.359619,1099.987793 851.620117,1099.794800 852.679199,1099.707886 
	C852.679199,1018.944092 852.679199,938.562500 852.679199,858.326111 
	C826.292847,858.326111 800.230225,858.326111 773.701294,858.326111 
	C773.701294,899.267944 773.701294,939.883179 773.701294,980.796448 
	C758.042908,958.163330 742.618286,935.996887 727.334167,913.733948 
	C715.801758,896.935791 704.394409,880.050720 693.062012,863.117004 
	C690.767456,859.688354 688.509827,857.784912 683.838867,857.845032 
	C658.685303,858.168884 633.525452,857.998169 608.367737,857.998169 
	C606.617981,857.998169 604.868225,857.998169 603.155518,857.998169 
	C603.155518,938.960205 603.155518,1019.223389 603.155518,1100.001709 
	C604.746399,1100.001709 606.187439,1100.001709 608.604004,1100.001709 
M1064.505371,656.992371 
	C1060.839722,656.992371 1057.154297,657.228088 1053.513916,656.924561 
	C1050.037720,656.634705 1048.443359,657.948730 1046.860229,661.102966 
	C1040.005859,674.759338 1032.728149,688.203308 1025.332642,702.240234 
	C1018.073303,688.184570 1010.946472,674.601440 1004.068848,660.893311 
	C1002.631104,658.027649 1001.084595,656.901978 997.758240,656.907837 
	C933.446960,657.021851 869.135376,656.990479 804.823914,657.005737 
	C803.569031,657.006042 802.314209,657.207458 801.362671,657.289062 
	C801.362671,672.790222 801.362671,687.858704 801.362671,703.167236 
	C816.013733,703.167236 830.295410,703.167236 844.991577,703.167236 
	C844.991577,740.475647 844.991577,777.536499 844.991577,814.793335 
	C863.808777,814.793335 882.206787,814.793335 901.023743,814.793335 
	C901.023743,777.521057 901.023743,740.460205 901.023743,702.975098 
	C915.505371,702.975098 929.574280,702.975098 944.068054,702.975098 
	C944.068054,692.208374 944.068054,681.858826 944.068054,671.509277 
	C949.773743,679.550659 954.643921,687.823792 959.551331,696.074829 
	C968.871765,711.746033 977.938538,727.577393 987.643616,743.007080 
	C994.039673,753.175964 999.115173,763.369019 997.058716,775.866516 
	C996.604980,778.624268 996.992371,781.520325 996.992371,784.352722 
	C996.992371,794.460693 996.992371,804.568726 996.992371,814.756104 
	C1016.217712,814.756104 1034.949097,814.756104 1054.007568,814.756104 
	C1054.007568,800.879150 1054.432007,787.233765 1053.862305,773.629944 
	C1053.465454,764.153748 1055.328979,755.891602 1060.481201,747.786072 
	C1070.258423,732.404602 1079.307983,716.559021 1088.594238,700.867371 
	C1097.107788,686.481201 1105.535034,672.043945 1114.374268,656.992371 
	C1097.676147,656.992371 1081.589722,656.992371 1064.505371,656.992371 
M302.500000,857.994690 
	C292.044067,857.994690 281.588135,857.994690 271.371521,857.994690 
	C257.266968,915.284668 243.287048,972.068420 229.307129,1028.852173 
	C228.914566,1028.828491 228.522003,1028.804688 228.129456,1028.780884 
	C214.229126,971.885132 200.328812,914.989441 186.445068,858.161499 
	C157.629379,858.161499 128.996750,858.161499 100.063278,858.161499 
	C100.137512,859.433960 100.012299,860.578369 100.293404,861.612366 
	C104.476540,876.998535 108.811142,892.343994 112.917435,907.750427 
	C121.589867,940.288696 130.146027,972.857910 138.756592,1005.412659 
	C146.831665,1035.942993 154.878967,1066.480835 163.123276,1096.965454 
	C163.467407,1098.237793 165.682541,1099.873657 167.031570,1099.878784 
	C208.027557,1100.033813 249.024338,1100.030396 290.020416,1099.890991 
	C291.334106,1099.886475 293.444061,1098.442993 293.814819,1097.246338 
	C295.482422,1091.864136 296.591614,1086.311768 298.018707,1080.851318 
	C302.786102,1062.609741 307.553558,1044.367920 312.414520,1026.151123 
	C318.228485,1004.362976 324.166229,982.607788 329.998993,960.824585 
	C335.124786,941.681763 340.170471,922.517639 345.268890,903.367493 
	C349.244812,888.433533 353.247437,873.506714 357.393768,857.994690 
	C339.068573,857.994690 321.284302,857.994690 302.500000,857.994690 
M364.044464,970.721863 
	C363.698273,972.300293 363.394226,973.889282 362.999603,975.455505 
	C355.124359,1006.712891 347.222473,1037.963501 339.364502,1069.225098 
	C336.824493,1079.330200 334.394226,1089.462769 331.810730,1100.002930 
	C359.460815,1100.002930 386.593903,1100.041016 413.725555,1099.865112 
	C414.825836,1099.857910 416.557831,1098.003540 416.905151,1096.715698 
	C419.913666,1085.560791 422.672180,1074.338379 425.503601,1063.142090 
	C448.635925,1063.142090 471.596558,1063.142090 494.751373,1063.142090 
	C497.513397,1074.146240 500.443329,1085.026123 502.883179,1096.014648 
	C503.632690,1099.390381 505.078583,1100.073242 508.176514,1100.060913 
	C533.663147,1099.960449 559.150391,1100.008301 584.637451,1099.990234 
	C585.733215,1099.989502 586.828918,1099.785522 588.489624,1099.619873 
	C568.113953,1018.847778 547.828796,938.434631 527.537170,857.995728 
	C512.550964,857.995728 497.897308,857.995728 483.243652,857.995728 
	C454.591553,857.995728 425.939423,857.998230 397.287323,857.991333 
	C394.612885,857.990723 392.560974,857.653381 391.786133,861.705444 
	C389.912354,871.505005 387.075867,881.120911 384.615845,890.807861 
	C377.912018,917.205505 371.202179,943.601685 364.044464,970.721863 
M246.952301,768.664185 
	C256.700287,783.331543 266.408875,798.025513 276.271301,812.615540 
	C277.058655,813.780396 278.903381,814.895264 280.265900,814.906311 
	C298.713745,815.056580 317.163208,815.007263 335.787964,815.007263 
	C335.787964,762.178040 335.787964,709.780823 335.787964,657.221008 
	C317.833344,657.221008 300.099243,657.221008 281.929199,657.221008 
	C281.929199,682.126526 281.929199,706.807129 281.929199,731.467041 
	C281.343445,731.467041 281.104828,731.527954 281.057495,731.458435 
	C265.024994,707.932556 248.953293,684.432800 233.053619,660.817322 
	C231.121918,657.948181 229.189789,656.786621 225.649872,656.888794 
	C215.493103,657.181702 205.322388,656.992065 195.157166,656.992065 
	C187.878891,656.992065 180.600632,656.992004 173.241165,656.992004 
	C173.241165,709.880554 173.241165,762.277893 173.241165,814.749878 
	C191.225769,814.749878 208.960037,814.749878 227.160049,814.749878 
	C227.160049,789.847595 227.160049,765.199524 227.160049,740.171509 
	C233.843002,749.783997 240.192078,758.916260 246.952301,768.664185 
M602.482666,815.006531 
	C606.252014,815.006531 610.021362,815.006531 614.218140,815.006531 
	C614.218140,789.767700 614.218140,765.115723 614.218140,739.572083 
	C631.047424,764.293762 647.392700,788.138000 663.461182,812.167419 
	C665.059448,814.557373 666.510498,815.047485 668.958435,815.037781 
	C684.452942,814.976257 699.947815,815.006470 715.442566,815.006470 
	C717.878052,815.006470 720.313538,815.006531 722.731689,815.006531 
	C722.731689,762.053711 722.731689,709.663818 722.731689,657.274536 
	C705.056763,657.274536 687.658081,657.274536 669.814880,657.274536 
	C669.814880,682.543396 669.814880,707.534485 669.814880,733.598816 
	C664.406860,725.595764 659.632629,718.544556 654.872681,711.483643 
	C643.845154,695.125366 632.813599,678.769653 621.809143,662.395874 
	C619.207581,658.524841 616.138794,656.665833 610.992798,656.825623 
	C595.845825,657.296021 580.674927,656.987000 565.513367,657.003967 
	C564.077576,657.005615 562.641907,657.154724 561.284241,657.230957 
	C561.284241,709.978271 561.284241,762.368286 561.284241,815.006531 
	C574.878662,815.006531 588.183777,815.006531 602.482666,815.006531 
M415.546570,759.005066 
	C435.962158,759.005066 456.377716,759.005066 476.694641,759.005066 
	C476.694641,743.659973 476.694641,728.929382 476.694641,713.790161 
	C453.322174,713.790161 430.257874,713.790161 407.334595,713.790161 
	C407.334595,709.965393 407.334595,706.564880 407.334595,702.762817 
	C430.722778,702.762817 453.783630,702.762817 476.670105,702.762817 
	C476.670105,687.276733 476.670105,672.212402 476.670105,657.317078 
	C434.282562,657.317078 392.230652,657.317078 350.297852,657.317078 
	C350.297852,710.020508 350.297852,762.401306 350.297852,814.700500 
	C369.330841,814.700500 388.059326,814.700500 407.204285,814.700500 
	C407.204285,796.001648 407.204285,777.604004 407.204285,759.005066 
	C409.936890,759.005066 412.250488,759.005066 415.546570,759.005066 
M101.991814,663.578369 
	C101.991814,713.989502 101.991814,764.400696 101.991814,814.685059 
	C121.359970,814.685059 140.093689,814.685059 158.687515,814.685059 
	C158.687515,761.967896 158.687515,709.574219 158.687515,657.319641 
	C139.632111,657.319641 120.898888,657.319641 101.991814,657.319641 
	C101.991814,659.298401 101.991814,660.950256 101.991814,663.578369 
M489.998871,784.500000 
	C489.998871,794.593750 489.998871,804.687561 489.998871,814.694702 
	C508.995361,814.694702 527.392273,814.694702 545.702209,814.694702 
	C545.702209,762.001343 545.702209,709.614990 545.702209,657.305298 
	C527.004822,657.305298 508.607849,657.305298 489.998871,657.305298 
	C489.998871,699.574219 489.998871,741.537109 489.998871,784.500000 
M794.001038,706.500000 
	C794.001038,690.076172 794.001038,673.652344 794.001038,657.302612 
	C775.010315,657.302612 756.613464,657.302612 738.295044,657.302612 
	C738.295044,709.993042 738.295044,762.379333 738.295044,814.697449 
	C756.989563,814.697449 775.386414,814.697449 794.001038,814.697449 
	C794.001038,778.762878 794.001038,743.131470 794.001038,706.500000 
z"/>
<path fill="#3E2515" opacity="1.000000" stroke="none" 
	d="
M98.994576,532.000000 
	C98.994576,385.538239 98.994576,239.576508 98.994576,93.252052 
	C100.612381,93.159157 102.045357,93.004974 103.478348,93.004829 
	C216.130005,92.993660 328.781647,93.011185 441.433228,92.909180 
	C444.600769,92.906319 446.591064,94.011909 448.695679,96.120476 
	C500.493317,148.015610 552.346313,199.855484 605.072144,252.588043 
	C606.131348,251.131424 606.991760,249.548920 608.212708,248.326569 
	C658.734802,197.746552 709.306580,147.216141 759.788391,96.595947 
	C762.300781,94.076622 764.690125,92.899475 768.364502,92.903152 
	C880.349548,93.015236 992.334595,92.994576 1104.319702,92.994576 
	C1105.979370,92.994576 1107.639038,92.994576 1109.651855,92.994576 
	C1109.651855,265.503754 1109.651855,437.889832 1109.651855,610.640686 
	C994.182068,610.640686 878.459045,610.640686 760.360779,610.640686 
	C708.667358,558.948120 655.663452,505.945068 602.614197,452.896667 
	C552.302307,503.208557 500.173462,555.243225 448.269592,607.501343 
	C445.483643,610.306274 443.075684,611.057312 439.526031,611.055359 
	C328.040924,610.994324 216.555771,611.005310 105.070633,611.005310 
	C103.254700,611.005310 101.438766,611.005310 98.994576,611.005310 
	C98.994576,584.706116 98.994576,558.603027 98.994576,532.000000 
M790.500000,604.107117 
	C894.583923,604.107117 998.667847,604.107117 1102.777222,604.107117 
	C1102.777222,435.414398 1102.777222,267.375031 1102.777222,99.317833 
	C1101.982788,99.183525 1101.505981,99.032425 1101.029297,99.032303 
	C991.044128,99.004219 881.058899,98.962334 771.073975,99.115082 
	C768.432678,99.118752 765.155579,100.657173 763.247803,102.557030 
	C711.293518,154.296936 659.480347,206.178528 607.634521,258.027344 
	C606.507507,259.154449 605.275391,260.176483 603.389587,261.883667 
	C602.121277,260.218018 601.249023,258.753510 600.081055,257.584473 
	C549.199341,206.656433 498.255524,155.790329 447.454193,104.782295 
	C443.348541,100.659904 438.911194,98.964806 433.271332,98.967628 
	C325.785706,99.021454 218.300034,99.007446 110.814369,99.007515 
	C109.028557,99.007515 107.242744,99.007515 105.257118,99.007515 
	C105.257118,267.539551 105.257118,435.588348 105.257118,604.107117 
	C107.288010,604.107117 109.075821,604.107117 110.863640,604.107117 
	C219.349167,604.107117 327.834717,604.088440 436.320160,604.184998 
	C440.116974,604.188354 442.759125,603.094666 445.441010,600.404907 
	C496.859436,548.835510 548.382935,497.370758 599.819153,445.819031 
	C601.188904,444.446167 601.828552,442.344879 603.113464,440.035553 
	C605.976501,443.231323 607.136597,444.657227 608.429321,445.950500 
	C658.852478,496.394409 709.360901,546.753723 759.604431,597.375793 
	C764.448608,602.256470 769.094788,605.002930 776.012939,604.203369 
	C780.453003,603.690186 785.000610,604.107178 790.500000,604.107117 
z"/>
<path fill="#3D2514" opacity="1.000000" stroke="none" 
	d="
M995.000000,944.996399 
	C1007.165405,944.996399 1018.838501,944.726013 1030.494507,945.057373 
	C1049.702393,945.603394 1067.336426,951.213989 1081.632935,964.360413 
	C1091.865967,973.770203 1098.133789,985.968140 1100.946777,999.630432 
	C1105.129272,1019.944580 1104.278809,1040.089478 1095.331665,1058.997192 
	C1085.462646,1079.853149 1068.681641,1092.896484 1046.077759,1097.902710 
	C1040.062744,1099.234985 1033.777100,1099.894775 1027.612549,1099.915039 
	C979.118164,1100.074463 930.623108,1100.003540 882.128235,1100.003540 
	C880.306946,1100.003540 878.485718,1100.003540 876.330750,1100.003540 
	C876.330750,1077.779175 876.330750,1055.711060 876.330750,1032.996460 
	C877.928528,1032.996460 879.686035,1032.996460 881.443542,1032.996460 
	C923.272400,1032.996460 965.101379,1033.020508 1006.930054,1032.943848 
	C1009.823914,1032.938599 1012.851562,1032.589111 1015.577881,1031.681396 
	C1019.641663,1030.328369 1022.048096,1026.985596 1021.874939,1022.767090 
	C1021.683777,1018.107361 1019.109680,1014.487305 1014.393005,1013.236877 
	C1011.429810,1012.451233 1008.276184,1012.070007 1005.205383,1012.055298 
	C984.541382,1011.956116 963.868591,1012.365845 943.214417,1011.904541 
	C921.344604,1011.416138 902.494629,1003.251160 888.187500,986.477112 
	C879.444519,976.226501 874.605835,963.905273 872.958191,950.406067 
	C871.073853,934.968079 870.859253,919.608337 876.038574,904.729675 
	C883.705078,882.706543 898.594421,868.276550 921.312866,861.790466 
	C930.396912,859.196960 939.431152,857.941895 948.812866,857.958252 
	C996.302795,858.041077 1043.792969,857.996399 1091.643311,857.996399 
	C1091.643311,880.167847 1091.643311,902.236450 1091.643311,925.003601 
	C1090.130859,925.003601 1088.380493,925.003601 1086.630005,925.003601 
	C1046.967529,925.003601 1007.305054,924.981812 967.642761,925.048645 
	C964.739868,925.053528 961.769775,925.421082 958.951111,926.110840 
	C954.361572,927.234192 952.213928,931.049377 952.252258,935.178650 
	C952.291016,939.354492 954.689270,942.974426 959.304016,943.927734 
	C962.315613,944.549805 965.429504,944.902466 968.504211,944.949768 
	C977.167664,945.083191 985.834473,944.996399 995.000000,944.996399 
M1079.394531,864.002930 
	C1037.062012,864.002930 994.729065,863.913757 952.397217,864.089905 
	C945.279419,864.119568 938.043579,864.675903 931.072876,866.054199 
	C904.641052,871.280273 887.110352,886.511902 880.538391,913.099365 
	C876.538635,929.280579 877.024353,945.515869 882.134827,961.397644 
	C888.036499,979.737915 900.096130,992.617371 917.968811,999.924438 
	C928.272034,1004.136841 939.090271,1005.895935 950.155579,1005.964539 
	C969.154480,1006.082336 988.154724,1005.970886 1007.154236,1006.027344 
	C1009.799500,1006.035217 1012.510681,1006.152954 1015.076233,1006.730774 
	C1024.509766,1008.855286 1028.672485,1014.890747 1027.994873,1025.058716 
	C1027.473389,1032.881226 1021.891174,1038.089722 1012.983704,1038.949951 
	C1010.667969,1039.173462 1008.326904,1039.206421 1005.997498,1039.207397 
	C966.998291,1039.222290 927.999023,1039.218018 888.999817,1039.218018 
	C887.064087,1039.218018 885.128357,1039.218018 883.212402,1039.218018 
	C883.212402,1057.836914 883.212402,1075.749512 883.212402,1093.997314 
	C885.339844,1093.997314 887.145752,1093.997314 888.951599,1093.997314 
	C931.450745,1093.997314 973.950012,1094.037720 1016.449036,1093.955200 
	C1023.095215,1093.942261 1029.801025,1093.833130 1036.374756,1092.971558 
	C1057.447876,1090.210327 1074.661499,1080.754395 1085.918823,1062.238770 
	C1095.051880,1047.217285 1097.599243,1030.660034 1096.293335,1013.278381 
	C1093.613892,977.613586 1069.906738,953.685181 1034.083618,952.014709 
	C1012.135742,950.991333 990.119446,951.440735 968.134094,951.208557 
	C965.637512,951.182190 963.118958,951.209839 960.650513,950.897400 
	C951.468445,949.735229 945.985352,943.698120 945.997742,934.951599 
	C946.010193,926.149109 951.455322,920.218567 960.697998,919.093262 
	C963.004639,918.812439 965.353149,918.795288 967.682495,918.794189 
	C1004.848450,918.776978 1042.014404,918.781982 1079.180298,918.781982 
	C1080.971558,918.781982 1082.762817,918.782043 1084.830200,918.782043 
	C1084.830200,900.369812 1084.830200,882.463623 1084.830200,864.247803 
	C1083.278320,864.162659 1081.823608,864.082825 1079.394531,864.002930 
z"/>
<path fill="#3C2414" opacity="1.000000" stroke="none" 
	d="
M608.116211,1100.001709 
	C606.187439,1100.001709 604.746399,1100.001709 603.155518,1100.001709 
	C603.155518,1019.223389 603.155518,938.960205 603.155518,857.998169 
	C604.868225,857.998169 606.617981,857.998169 608.367737,857.998169 
	C633.525452,857.998169 658.685303,858.168884 683.838867,857.845032 
	C688.509827,857.784912 690.767456,859.688354 693.062012,863.117004 
	C704.394409,880.050720 715.801758,896.935791 727.334167,913.733948 
	C742.618286,935.996887 758.042908,958.163330 773.701294,980.796448 
	C773.701294,939.883179 773.701294,899.267944 773.701294,858.326111 
	C800.230225,858.326111 826.292847,858.326111 852.679199,858.326111 
	C852.679199,938.562500 852.679199,1018.944092 852.679199,1099.707886 
	C851.620117,1099.794800 850.359619,1099.987793 849.099060,1099.988525 
	C822.775085,1100.005981 796.451111,1099.977539 770.127258,1100.038696 
	C767.474854,1100.044922 765.898987,1099.441040 764.226135,1096.934448 
	C750.224060,1075.953613 735.990417,1055.126221 721.713562,1034.330200 
	C708.718262,1015.400757 695.581543,996.568420 682.307007,977.404236 
	C682.307007,1018.113831 682.307007,1058.726929 682.307007,1100.001709 
	C657.428894,1100.001709 633.016479,1100.001709 608.116211,1100.001709 
M846.784485,1087.376465 
	C846.784485,1013.098267 846.784485,938.820129 846.784485,864.363892 
	C824.266235,864.363892 802.240234,864.363892 779.826416,864.363892 
	C779.826416,906.990906 779.826416,949.256226 779.826416,991.407227 
	C775.243958,992.755920 772.546631,991.440125 769.974365,987.649048 
	C742.960571,947.834961 715.715271,908.178040 688.633606,868.409790 
	C686.486755,865.257080 684.254517,863.839539 680.231506,863.888062 
	C659.904175,864.133240 639.572266,864.000854 619.242004,864.000854 
	C615.958435,864.000854 612.674866,864.000854 609.307983,864.000854 
	C609.307983,940.911499 609.307983,1017.291992 609.307983,1093.703613 
	C631.523438,1093.703613 653.430420,1093.703613 675.902344,1093.703613 
	C675.902344,1051.190063 675.902344,1008.968506 675.902344,966.887268 
	C680.615295,965.493469 683.359924,966.601135 685.976196,970.459778 
	C713.070679,1010.420471 740.411438,1050.214111 767.564331,1090.135376 
	C769.442017,1092.895996 771.270325,1094.114502 774.720886,1094.087769 
	C797.049561,1093.915161 819.380188,1094.004517 841.710205,1093.988037 
	C843.302917,1093.986816 844.895569,1093.825806 846.784302,1093.722900 
	C846.784302,1091.626831 846.784302,1089.981812 846.784485,1087.376465 
z"/>
<path fill="#3F2716" opacity="1.000000" stroke="none" 
	d="
M1065.004272,656.992371 
	C1081.589722,656.992371 1097.676147,656.992371 1114.374268,656.992371 
	C1105.535034,672.043945 1097.107788,686.481201 1088.594238,700.867371 
	C1079.307983,716.559021 1070.258423,732.404602 1060.481201,747.786072 
	C1055.328979,755.891602 1053.465454,764.153748 1053.862305,773.629944 
	C1054.432007,787.233765 1054.007568,800.879150 1054.007568,814.756104 
	C1034.949097,814.756104 1016.217712,814.756104 996.992371,814.756104 
	C996.992371,804.568726 996.992371,794.460693 996.992371,784.352722 
	C996.992371,781.520325 996.604980,778.624268 997.058716,775.866516 
	C999.115173,763.369019 994.039673,753.175964 987.643616,743.007080 
	C977.938538,727.577393 968.871765,711.746033 959.551331,696.074829 
	C954.643921,687.823792 949.773743,679.550659 944.068054,671.509277 
	C944.068054,681.858826 944.068054,692.208374 944.068054,702.975098 
	C929.574280,702.975098 915.505371,702.975098 901.023743,702.975098 
	C901.023743,740.460205 901.023743,777.521057 901.023743,814.793335 
	C882.206787,814.793335 863.808777,814.793335 844.991577,814.793335 
	C844.991577,777.536499 844.991577,740.475647 844.991577,703.167236 
	C830.295410,703.167236 816.013733,703.167236 801.362671,703.167236 
	C801.362671,687.858704 801.362671,672.790222 801.362671,657.289062 
	C802.314209,657.207458 803.569031,657.006042 804.823914,657.005737 
	C869.135376,656.990479 933.446960,657.021851 997.758240,656.907837 
	C1001.084595,656.901978 1002.631104,658.027649 1004.068848,660.893311 
	C1010.946472,674.601440 1018.073303,688.184570 1025.332642,702.240234 
	C1032.728149,688.203308 1040.005859,674.759338 1046.860229,661.102966 
	C1048.443359,657.948730 1050.037720,656.634705 1053.513916,656.924561 
	C1057.154297,657.228088 1060.839722,656.992371 1065.004272,656.992371 
M995.019836,663.895996 
	C979.770935,663.895996 964.522095,663.895996 948.527771,663.895996 
	C949.616333,665.905273 950.259155,667.189941 950.988464,668.423523 
	C967.671082,696.641418 984.421021,724.819824 1000.959778,753.121643 
	C1002.541504,755.828308 1003.513000,759.284424 1003.577332,762.416992 
	C1003.857605,776.073730 1003.689575,789.739441 1003.708069,803.401917 
	C1003.710449,805.159668 1003.851379,806.917358 1003.930420,808.728027 
	C1018.496704,808.728027 1032.580444,808.728027 1047.104614,808.728027 
	C1047.104614,793.182800 1046.963257,777.893677 1047.221680,762.611206 
	C1047.274536,759.484192 1048.207886,756.021301 1049.782593,753.324646 
	C1066.480835,724.729431 1083.393066,696.259216 1100.233765,667.747070 
	C1100.869141,666.671265 1101.375000,665.519104 1102.198486,663.895447 
	C1086.778442,663.895447 1071.977051,664.017456 1057.180420,663.804382 
	C1053.746704,663.754883 1052.246582,665.108521 1050.795776,667.960571 
	C1044.160645,681.004456 1037.369019,693.971619 1030.393677,706.836243 
	C1029.486328,708.509583 1027.205322,710.394409 1025.528809,710.424927 
	C1023.855408,710.455200 1021.448730,708.654297 1020.556030,707.009155 
	C1013.576233,694.146729 1006.939697,681.098450 1000.034241,668.194763 
	C999.132202,666.509277 997.303406,665.319763 995.019836,663.895996 
M851.008911,758.500000 
	C851.008911,775.253601 851.008911,792.007141 851.008911,808.672058 
	C865.803650,808.672058 879.893799,808.672058 894.507080,808.672058 
	C894.507080,771.284424 894.507080,734.212769 894.507080,696.619263 
	C909.114075,696.619263 923.200684,696.619263 937.488403,696.619263 
	C937.488403,685.517761 937.488403,674.945984 937.488403,664.290405 
	C894.171814,664.290405 851.142639,664.290405 808.262878,664.290405 
	C808.262878,675.263672 808.262878,685.838501 808.262878,696.982422 
	C822.670410,696.982422 836.719666,696.982422 851.008911,696.982422 
	C851.008911,717.541565 851.008911,737.520752 851.008911,758.500000 
z"/>
<path fill="#3E2515" opacity="1.000000" stroke="none" 
	d="
M303.000000,857.994690 
	C321.284302,857.994690 339.068573,857.994690 357.393768,857.994690 
	C353.247437,873.506714 349.244812,888.433533 345.268890,903.367493 
	C340.170471,922.517639 335.124786,941.681763 329.998993,960.824585 
	C324.166229,982.607788 318.228485,1004.362976 312.414520,1026.151123 
	C307.553558,1044.367920 302.786102,1062.609741 298.018707,1080.851318 
	C296.591614,1086.311768 295.482422,1091.864136 293.814819,1097.246338 
	C293.444061,1098.442993 291.334106,1099.886475 290.020416,1099.890991 
	C249.024338,1100.030396 208.027557,1100.033813 167.031570,1099.878784 
	C165.682541,1099.873657 163.467407,1098.237793 163.123276,1096.965454 
	C154.878967,1066.480835 146.831665,1035.942993 138.756592,1005.412659 
	C130.146027,972.857910 121.589867,940.288696 112.917435,907.750427 
	C108.811142,892.343994 104.476540,876.998535 100.293404,861.612366 
	C100.012299,860.578369 100.137512,859.433960 100.063278,858.161499 
	C128.996750,858.161499 157.629379,858.161499 186.445068,858.161499 
	C200.328812,914.989441 214.229126,971.885132 228.129456,1028.780884 
	C228.522003,1028.804688 228.914566,1028.828491 229.307129,1028.852173 
	C243.287048,972.068420 257.266968,915.284668 271.371521,857.994690 
	C281.588135,857.994690 292.044067,857.994690 303.000000,857.994690 
M338.444702,864.006287 
	C319.278503,864.006348 300.111969,864.066406 280.946503,863.946350 
	C277.811371,863.926697 276.446564,864.620117 275.619537,868.027588 
	C262.796448,920.860229 249.757965,973.640625 236.798080,1026.440063 
	C234.394272,1036.233398 234.452301,1036.250610 224.183365,1035.815674 
	C223.880035,1035.802856 223.585663,1035.579102 222.916763,1035.298218 
	C209.023178,978.398682 195.073669,921.270203 181.145309,864.228210 
	C156.504929,864.228210 132.398392,864.228210 107.842888,864.228210 
	C128.312500,941.034363 148.696899,1017.520813 169.012680,1093.749756 
	C209.056702,1093.749756 248.350677,1093.749756 287.744202,1093.749756 
	C308.155640,1017.155029 328.513000,940.763428 348.967743,864.006287 
	C345.402466,864.006287 342.410858,864.006287 338.444702,864.006287 
z"/>
<path fill="#3D2515" opacity="1.000000" stroke="none" 
	d="
M364.269592,970.360107 
	C371.202179,943.601685 377.912018,917.205505 384.615845,890.807861 
	C387.075867,881.120911 389.912354,871.505005 391.786133,861.705444 
	C392.560974,857.653381 394.612885,857.990723 397.287323,857.991333 
	C425.939423,857.998230 454.591553,857.995728 483.243652,857.995728 
	C497.897308,857.995728 512.550964,857.995728 527.537170,857.995728 
	C547.828796,938.434631 568.113953,1018.847778 588.489624,1099.619873 
	C586.828918,1099.785522 585.733215,1099.989502 584.637451,1099.990234 
	C559.150391,1100.008301 533.663147,1099.960449 508.176514,1100.060913 
	C505.078583,1100.073242 503.632690,1099.390381 502.883179,1096.014648 
	C500.443329,1085.026123 497.513397,1074.146240 494.751373,1063.142090 
	C471.596558,1063.142090 448.635925,1063.142090 425.503601,1063.142090 
	C422.672180,1074.338379 419.913666,1085.560791 416.905151,1096.715698 
	C416.557831,1098.003540 414.825836,1099.857910 413.725555,1099.865112 
	C386.593903,1100.041016 359.460815,1100.002930 331.810730,1100.002930 
	C334.394226,1089.462769 336.824493,1079.330200 339.364502,1069.225098 
	C347.222473,1037.963501 355.124359,1006.712891 362.999603,975.455505 
	C363.394226,973.889282 363.698273,972.300293 364.269592,970.360107 
M363.443451,1000.974182 
	C355.654327,1031.857544 347.865173,1062.741089 340.043152,1093.754761 
	C363.953705,1093.754761 387.394287,1093.754761 410.992859,1093.754761 
	C414.090271,1081.389404 417.141266,1069.209229 420.168518,1057.124023 
	C447.080078,1057.124023 473.389801,1057.124023 500.098694,1057.124023 
	C503.151001,1069.338379 506.198120,1081.531860 509.248779,1093.739624 
	C532.959045,1093.739624 556.373413,1093.739624 580.192688,1093.739624 
	C579.419739,1090.693848 578.727051,1087.982300 578.043518,1085.268433 
	C559.896179,1013.217957 541.719177,941.174927 523.687500,869.095520 
	C522.714233,865.205139 521.313477,863.864929 517.099426,863.887268 
	C479.108704,864.088623 441.116486,864.005066 403.124695,864.005066 
	C401.487122,864.005066 399.849548,864.005005 397.943298,864.005005 
	C386.482117,909.607910 375.098938,954.900330 363.443451,1000.974182 
z"/>
<path fill="#3F2716" opacity="1.000000" stroke="none" 
	d="
M246.746735,768.356323 
	C240.192078,758.916260 233.843002,749.783997 227.160049,740.171509 
	C227.160049,765.199524 227.160049,789.847595 227.160049,814.749878 
	C208.960037,814.749878 191.225769,814.749878 173.241165,814.749878 
	C173.241165,762.277893 173.241165,709.880554 173.241165,656.992004 
	C180.600632,656.992004 187.878891,656.992065 195.157166,656.992065 
	C205.322388,656.992065 215.493103,657.181702 225.649872,656.888794 
	C229.189789,656.786621 231.121918,657.948181 233.053619,660.817322 
	C248.953293,684.432800 265.024994,707.932556 281.057495,731.458435 
	C281.104828,731.527954 281.343445,731.467041 281.929199,731.467041 
	C281.929199,706.807129 281.929199,682.126526 281.929199,657.221008 
	C300.099243,657.221008 317.833344,657.221008 335.787964,657.221008 
	C335.787964,709.780823 335.787964,762.178040 335.787964,815.007263 
	C317.163208,815.007263 298.713745,815.056580 280.265900,814.906311 
	C278.903381,814.895264 277.058655,813.780396 276.271301,812.615540 
	C266.408875,798.025513 256.700287,783.331543 246.746735,768.356323 
M236.137360,741.340942 
	C248.386719,759.379456 261.319794,777.002991 272.618317,795.618591 
	C278.973480,806.089478 286.095459,810.716003 298.441711,809.231812 
	C308.404938,808.034119 318.626923,808.989136 328.781555,808.989136 
	C328.781555,760.359131 328.781555,712.311401 328.781555,664.215820 
	C315.393860,664.215820 302.329895,664.215820 288.687073,664.215820 
	C288.687073,691.570190 288.687073,718.611389 288.687073,745.280396 
	C284.239868,746.963440 282.092957,745.134583 279.967346,741.979919 
	C263.132751,716.994507 246.154892,692.105469 229.140045,667.242188 
	C228.207428,665.879395 226.567368,664.075195 225.232635,664.054932 
	C210.289566,663.828064 195.341766,663.911621 180.160080,663.911621 
	C180.160080,712.449280 180.160080,760.494385 180.160080,808.738770 
	C193.493774,808.738770 206.564056,808.738770 220.231903,808.738770 
	C220.231903,781.452087 220.231903,754.409851 220.231903,727.720154 
	C224.817993,726.095703 227.394287,727.586487 229.391800,731.176880 
	C231.246017,734.509766 233.625336,737.550598 236.137360,741.340942 
z"/>
<path fill="#3E2616" opacity="1.000000" stroke="none" 
	d="
M601.985779,815.006531 
	C588.183777,815.006531 574.878662,815.006531 561.284241,815.006531 
	C561.284241,762.368286 561.284241,709.978271 561.284241,657.230957 
	C562.641907,657.154724 564.077576,657.005615 565.513367,657.003967 
	C580.674927,656.987000 595.845825,657.296021 610.992798,656.825623 
	C616.138794,656.665833 619.207581,658.524841 621.809143,662.395874 
	C632.813599,678.769653 643.845154,695.125366 654.872681,711.483643 
	C659.632629,718.544556 664.406860,725.595764 669.814880,733.598816 
	C669.814880,707.534485 669.814880,682.543396 669.814880,657.274536 
	C687.658081,657.274536 705.056763,657.274536 722.731689,657.274536 
	C722.731689,709.663818 722.731689,762.053711 722.731689,815.006531 
	C720.313538,815.006531 717.878052,815.006470 715.442566,815.006470 
	C699.947815,815.006470 684.452942,814.976257 668.958435,815.037781 
	C666.510498,815.047485 665.059448,814.557373 663.461182,812.167419 
	C647.392700,788.138000 631.047424,764.293762 614.218140,739.572083 
	C614.218140,765.115723 614.218140,789.767700 614.218140,815.006531 
	C610.021362,815.006531 606.252014,815.006531 601.985779,815.006531 
M567.221252,681.501465 
	C567.221252,723.919128 567.221252,766.336792 567.221252,808.723877 
	C581.082581,808.723877 594.186340,808.723877 607.922852,808.723877 
	C607.922852,781.409363 607.922852,754.358337 607.922852,727.587769 
	C612.369995,726.220093 614.578064,727.874390 616.724731,731.075134 
	C632.303711,754.304443 648.398804,777.195374 663.587708,800.673889 
	C667.875000,807.301086 672.322083,809.617798 679.979492,809.175964 
	C691.894958,808.488464 703.879272,808.994202 715.988892,808.994202 
	C715.988892,760.425903 715.988892,712.379761 715.988892,664.283447 
	C702.628113,664.283447 689.589844,664.283447 676.098999,664.283447 
	C676.098999,691.598145 676.098999,718.524353 676.098999,745.335144 
	C671.953308,746.742493 669.652100,745.449402 667.454529,742.175842 
	C650.658875,717.156860 633.641846,692.286438 616.797363,667.300049 
	C615.143494,664.846680 613.443787,663.767395 610.378662,663.811707 
	C597.382935,663.999390 584.382874,663.882019 571.384399,663.906616 
	C570.116333,663.908997 568.848633,664.120422 567.221375,664.267273 
	C567.221375,669.893982 567.221375,675.198120 567.221252,681.501465 
z"/>
<path fill="#3E2515" opacity="1.000000" stroke="none" 
	d="
M415.055298,759.005066 
	C412.250488,759.005066 409.936890,759.005066 407.204285,759.005066 
	C407.204285,777.604004 407.204285,796.001648 407.204285,814.700500 
	C388.059326,814.700500 369.330841,814.700500 350.297852,814.700500 
	C350.297852,762.401306 350.297852,710.020508 350.297852,657.317078 
	C392.230652,657.317078 434.282562,657.317078 476.670105,657.317078 
	C476.670105,672.212402 476.670105,687.276733 476.670105,702.762817 
	C453.783630,702.762817 430.722778,702.762817 407.334595,702.762817 
	C407.334595,706.564880 407.334595,709.965393 407.334595,713.790161 
	C430.257874,713.790161 453.322174,713.790161 476.694641,713.790161 
	C476.694641,728.929382 476.694641,743.659973 476.694641,759.005066 
	C456.377716,759.005066 435.962158,759.005066 415.055298,759.005066 
M369.511047,808.994751 
	C379.613190,808.994751 389.715363,808.994751 400.359070,808.994751 
	C400.359070,789.962708 400.359070,771.572754 400.359070,752.849182 
	C424.026215,752.849182 447.140076,752.849182 470.448425,752.849182 
	C470.448425,741.778809 470.448425,731.060059 470.448425,719.821899 
	C446.887512,719.821899 423.652374,719.821899 400.471283,719.821899 
	C400.471283,711.888245 400.471283,704.481567 400.471283,696.480164 
	C424.056366,696.480164 447.284973,696.480164 470.384094,696.480164 
	C470.384094,685.299011 470.384094,674.728821 470.384094,664.217957 
	C432.406830,664.217957 394.825470,664.217957 357.239014,664.217957 
	C357.239014,712.597656 357.239014,760.648987 357.239014,808.994751 
	C361.228882,808.994751 364.873108,808.994751 369.511047,808.994751 
z"/>
<path fill="#3F2716" opacity="1.000000" stroke="none" 
	d="
M101.991814,663.090271 
	C101.991814,660.950256 101.991814,659.298401 101.991814,657.319641 
	C120.898888,657.319641 139.632111,657.319641 158.687515,657.319641 
	C158.687515,709.574219 158.687515,761.967896 158.687515,814.685059 
	C140.093689,814.685059 121.359970,814.685059 101.991814,814.685059 
	C101.991814,764.400696 101.991814,713.989502 101.991814,663.090271 
M108.897957,746.500000 
	C108.897957,767.240723 108.897957,787.981384 108.897957,808.653015 
	C123.689827,808.653015 137.759048,808.653015 151.742279,808.653015 
	C151.742279,760.273193 151.742279,712.229675 151.742279,664.252441 
	C137.317200,664.252441 123.254631,664.252441 108.897911,664.252441 
	C108.897911,691.570496 108.897911,718.535278 108.897957,746.500000 
z"/>
<path fill="#3C2413" opacity="1.000000" stroke="none" 
	d="
M489.998871,784.000000 
	C489.998871,741.537109 489.998871,699.574219 489.998871,657.305298 
	C508.607849,657.305298 527.004822,657.305298 545.702209,657.305298 
	C545.702209,709.614990 545.702209,762.001343 545.702209,814.694702 
	C527.392273,814.694702 508.995361,814.694702 489.998871,814.694702 
	C489.998871,804.687561 489.998871,794.593750 489.998871,784.000000 
M539.788635,673.546021 
	C539.788635,670.437866 539.788635,667.329712 539.788635,664.182861 
	C524.867676,664.182861 510.621979,664.182861 496.304962,664.182861 
	C496.304962,712.548035 496.304962,760.611206 496.304962,808.705505 
	C510.856262,808.705505 525.099060,808.705505 539.788513,808.705505 
	C539.788513,763.784546 539.788513,719.158142 539.788635,673.546021 
z"/>
<path fill="#3C2413" opacity="1.000000" stroke="none" 
	d="
M794.001038,707.000000 
	C794.001038,743.131470 794.001038,778.762878 794.001038,814.697449 
	C775.386414,814.697449 756.989563,814.697449 738.295044,814.697449 
	C738.295044,762.379333 738.295044,709.993042 738.295044,657.302612 
	C756.613464,657.302612 775.010315,657.302612 794.001038,657.302612 
	C794.001038,673.652344 794.001038,690.076172 794.001038,707.000000 
M787.793762,685.500122 
	C787.793762,678.394958 787.793762,671.289795 787.793762,664.119507 
	C772.989563,664.119507 758.884033,664.119507 744.493164,664.119507 
	C744.493164,712.412659 744.493164,760.463745 744.493164,808.683594 
	C758.959473,808.683594 773.173462,808.683594 787.793701,808.683594 
	C787.793701,767.742310 787.793701,727.121155 787.793762,685.500122 
z"/>
<path fill="#E6C48B" opacity="1.000000" stroke="none" 
	d="
M790.000000,604.107178 
	C785.000610,604.107178 780.453003,603.690186 776.012939,604.203369 
	C769.094788,605.002930 764.448608,602.256470 759.604431,597.375793 
	C709.360901,546.753723 658.852478,496.394409 608.429321,445.950500 
	C607.136597,444.657227 605.976501,443.231323 603.113464,440.035553 
	C601.828552,442.344879 601.188904,444.446167 599.819153,445.819031 
	C548.382935,497.370758 496.859436,548.835510 445.441010,600.404907 
	C442.759125,603.094666 440.116974,604.188354 436.320160,604.184998 
	C327.834717,604.088440 219.349167,604.107117 110.863640,604.107117 
	C109.075821,604.107117 107.288010,604.107117 105.257118,604.107117 
	C105.257118,435.588348 105.257118,267.539551 105.257118,99.007515 
	C107.242744,99.007515 109.028557,99.007515 110.814369,99.007515 
	C218.300034,99.007446 325.785706,99.021454 433.271332,98.967628 
	C438.911194,98.964806 443.348541,100.659904 447.454193,104.782295 
	C498.255524,155.790329 549.199341,206.656433 600.081055,257.584473 
	C601.249023,258.753510 602.121277,260.218018 603.389587,261.883667 
	C605.275391,260.176483 606.507507,259.154449 607.634521,258.027344 
	C659.480347,206.178528 711.293518,154.296936 763.247803,102.557030 
	C765.155579,100.657173 768.432678,99.118752 771.073975,99.115082 
	C881.058899,98.962334 991.044128,99.004219 1101.029297,99.032303 
	C1101.505981,99.032425 1101.982788,99.183525 1102.777222,99.317833 
	C1102.777222,267.375031 1102.777222,435.414398 1102.777222,604.107117 
	C998.667847,604.107117 894.583923,604.107117 790.000000,604.107178 
M283.500000,253.994232 
	C275.757355,253.994232 268.014679,253.994232 260.390930,253.994232 
	C260.390930,319.412811 260.390930,383.990204 260.390930,448.585480 
	C261.120270,448.760010 261.587128,448.969360 262.054138,448.969635 
	C299.706573,448.992004 337.359161,449.029907 375.011108,448.901642 
	C376.715576,448.895844 378.795532,447.760162 380.059845,446.505188 
	C401.224518,425.496216 422.327545,404.424316 443.287994,383.212036 
	C444.808685,381.673126 445.861176,378.956451 445.889099,376.771454 
	C446.101959,360.113770 446.131653,343.450134 445.868195,326.793884 
	C445.829315,324.336304 444.553925,321.309601 442.825623,319.557068 
	C422.236908,298.680176 401.421326,278.027222 380.768005,257.213562 
	C378.491516,254.919403 376.243317,253.908096 372.966461,253.921844 
	C343.478058,254.045715 313.988922,253.994232 283.500000,253.994232 
M921.500000,449.005127 
	C930.257080,449.005127 939.014099,449.005127 947.639709,449.005127 
	C947.639709,383.610748 947.639709,318.907898 947.639709,254.153427 
	C946.623962,254.085526 945.968384,254.003479 945.312805,254.003342 
	C908.329285,253.996216 871.345459,253.945770 834.362793,254.124237 
	C832.231445,254.134521 829.633362,255.532745 828.054504,257.095337 
	C807.096375,277.836823 786.222046,298.664520 765.535461,319.676117 
	C763.712219,321.528015 762.495789,324.804260 762.450073,327.444092 
	C762.170471,343.598755 762.168457,359.763123 762.452637,375.917603 
	C762.498840,378.546997 763.763855,381.799011 765.591309,383.654388 
	C786.165039,404.543213 806.908264,425.266510 827.786011,445.851715 
	C829.537292,447.578369 832.583618,448.854431 835.039001,448.872345 
	C863.524780,449.080078 892.012695,449.005127 921.500000,449.005127 
z"/>
<path fill="#E5C38B" opacity="1.000000" stroke="none" 
	d="
M1079.881592,864.002930 
	C1081.823608,864.082825 1083.278320,864.162659 1084.830200,864.247803 
	C1084.830200,882.463623 1084.830200,900.369812 1084.830200,918.782043 
	C1082.762817,918.782043 1080.971558,918.781982 1079.180298,918.781982 
	C1042.014404,918.781982 1004.848450,918.776978 967.682495,918.794189 
	C965.353149,918.795288 963.004639,918.812439 960.697998,919.093262 
	C951.455322,920.218567 946.010193,926.149109 945.997742,934.951599 
	C945.985352,943.698120 951.468445,949.735229 960.650513,950.897400 
	C963.118958,951.209839 965.637512,951.182190 968.134094,951.208557 
	C990.119446,951.440735 1012.135742,950.991333 1034.083618,952.014709 
	C1069.906738,953.685181 1093.613892,977.613586 1096.293335,1013.278381 
	C1097.599243,1030.660034 1095.051880,1047.217285 1085.918823,1062.238770 
	C1074.661499,1080.754395 1057.447876,1090.210327 1036.374756,1092.971558 
	C1029.801025,1093.833130 1023.095215,1093.942261 1016.449036,1093.955200 
	C973.950012,1094.037720 931.450745,1093.997314 888.951599,1093.997314 
	C887.145752,1093.997314 885.339844,1093.997314 883.212402,1093.997314 
	C883.212402,1075.749512 883.212402,1057.836914 883.212402,1039.218018 
	C885.128357,1039.218018 887.064087,1039.218018 888.999817,1039.218018 
	C927.999023,1039.218018 966.998291,1039.222290 1005.997498,1039.207397 
	C1008.326904,1039.206421 1010.667969,1039.173462 1012.983704,1038.949951 
	C1021.891174,1038.089722 1027.473389,1032.881226 1027.994873,1025.058716 
	C1028.672485,1014.890747 1024.509766,1008.855286 1015.076233,1006.730774 
	C1012.510681,1006.152954 1009.799500,1006.035217 1007.154236,1006.027344 
	C988.154724,1005.970886 969.154480,1006.082336 950.155579,1005.964539 
	C939.090271,1005.895935 928.272034,1004.136841 917.968811,999.924438 
	C900.096130,992.617371 888.036499,979.737915 882.134827,961.397644 
	C877.024353,945.515869 876.538635,929.280579 880.538391,913.099365 
	C887.110352,886.511902 904.641052,871.280273 931.072876,866.054199 
	C938.043579,864.675903 945.279419,864.119568 952.397217,864.089905 
	C994.729065,863.913757 1037.062012,864.002930 1079.881592,864.002930 
z"/>
<path fill="#E5C38B" opacity="1.000000" stroke="none" 
	d="
M846.784424,1087.856567 
	C846.784302,1089.981812 846.784302,1091.626831 846.784302,1093.722900 
	C844.895569,1093.825806 843.302917,1093.986816 841.710205,1093.988037 
	C819.380188,1094.004517 797.049561,1093.915161 774.720886,1094.087769 
	C771.270325,1094.114502 769.442017,1092.895996 767.564331,1090.135376 
	C740.411438,1050.214111 713.070679,1010.420471 685.976196,970.459778 
	C683.359924,966.601135 680.615295,965.493469 675.902344,966.887268 
	C675.902344,1008.968506 675.902344,1051.190063 675.902344,1093.703613 
	C653.430420,1093.703613 631.523438,1093.703613 609.307983,1093.703613 
	C609.307983,1017.291992 609.307983,940.911499 609.307983,864.000854 
	C612.674866,864.000854 615.958435,864.000854 619.242004,864.000854 
	C639.572266,864.000854 659.904175,864.133240 680.231506,863.888062 
	C684.254517,863.839539 686.486755,865.257080 688.633606,868.409790 
	C715.715271,908.178040 742.960571,947.834961 769.974365,987.649048 
	C772.546631,991.440125 775.243958,992.755920 779.826416,991.407227 
	C779.826416,949.256226 779.826416,906.990906 779.826416,864.363892 
	C802.240234,864.363892 824.266235,864.363892 846.784485,864.363892 
	C846.784485,938.820129 846.784485,1013.098267 846.784424,1087.856567 
z"/>
<path fill="#E5C38B" opacity="1.000000" stroke="none" 
	d="
M995.461853,663.898254 
	C997.303406,665.319763 999.132202,666.509277 1000.034241,668.194763 
	C1006.939697,681.098450 1013.576233,694.146729 1020.556030,707.009155 
	C1021.448730,708.654297 1023.855408,710.455200 1025.528809,710.424927 
	C1027.205322,710.394409 1029.486328,708.509583 1030.393677,706.836243 
	C1037.369019,693.971619 1044.160645,681.004456 1050.795776,667.960571 
	C1052.246582,665.108521 1053.746704,663.754883 1057.180420,663.804382 
	C1071.977051,664.017456 1086.778442,663.895447 1102.198486,663.895447 
	C1101.375000,665.519104 1100.869141,666.671265 1100.233765,667.747070 
	C1083.393066,696.259216 1066.480835,724.729431 1049.782593,753.324646 
	C1048.207886,756.021301 1047.274536,759.484192 1047.221680,762.611206 
	C1046.963257,777.893677 1047.104614,793.182800 1047.104614,808.728027 
	C1032.580444,808.728027 1018.496704,808.728027 1003.930420,808.728027 
	C1003.851379,806.917358 1003.710449,805.159668 1003.708069,803.401917 
	C1003.689575,789.739441 1003.857605,776.073730 1003.577332,762.416992 
	C1003.513000,759.284424 1002.541504,755.828308 1000.959778,753.121643 
	C984.421021,724.819824 967.671082,696.641418 950.988464,668.423523 
	C950.259155,667.189941 949.616333,665.905273 948.527771,663.895996 
	C964.522095,663.895996 979.770935,663.895996 995.461853,663.898254 
z"/>
<path fill="#E5C38B" opacity="1.000000" stroke="none" 
	d="
M851.008911,758.000000 
	C851.008911,737.520752 851.008911,717.541565 851.008911,696.982422 
	C836.719666,696.982422 822.670410,696.982422 808.262878,696.982422 
	C808.262878,685.838501 808.262878,675.263672 808.262878,664.290405 
	C851.142639,664.290405 894.171814,664.290405 937.488403,664.290405 
	C937.488403,674.945984 937.488403,685.517761 937.488403,696.619263 
	C923.200684,696.619263 909.114075,696.619263 894.507080,696.619263 
	C894.507080,734.212769 894.507080,771.284424 894.507080,808.672058 
	C879.893799,808.672058 865.803650,808.672058 851.008911,808.672058 
	C851.008911,792.007141 851.008911,775.253601 851.008911,758.000000 
z"/>
<path fill="#E6C48B" opacity="1.000000" stroke="none" 
	d="
M338.931976,864.006287 
	C342.410858,864.006287 345.402466,864.006287 348.967743,864.006287 
	C328.513000,940.763428 308.155640,1017.155029 287.744202,1093.749756 
	C248.350677,1093.749756 209.056702,1093.749756 169.012680,1093.749756 
	C148.696899,1017.520813 128.312500,941.034363 107.842888,864.228210 
	C132.398392,864.228210 156.504929,864.228210 181.145309,864.228210 
	C195.073669,921.270203 209.023178,978.398682 222.916763,1035.298218 
	C223.585663,1035.579102 223.880035,1035.802856 224.183365,1035.815674 
	C234.452301,1036.250610 234.394272,1036.233398 236.798080,1026.440063 
	C249.757965,973.640625 262.796448,920.860229 275.619537,868.027588 
	C276.446564,864.620117 277.811371,863.926697 280.946503,863.946350 
	C300.111969,864.066406 319.278503,864.006348 338.931976,864.006287 
z"/>
<path fill="#E6C48B" opacity="1.000000" stroke="none" 
	d="
M363.579590,1000.583496 
	C375.098938,954.900330 386.482117,909.607910 397.943298,864.005005 
	C399.849548,864.005005 401.487122,864.005066 403.124695,864.005066 
	C441.116486,864.005066 479.108704,864.088623 517.099426,863.887268 
	C521.313477,863.864929 522.714233,865.205139 523.687500,869.095520 
	C541.719177,941.174927 559.896179,1013.217957 578.043518,1085.268433 
	C578.727051,1087.982300 579.419739,1090.693848 580.192688,1093.739624 
	C556.373413,1093.739624 532.959045,1093.739624 509.248779,1093.739624 
	C506.198120,1081.531860 503.151001,1069.338379 500.098694,1057.124023 
	C473.389801,1057.124023 447.080078,1057.124023 420.168518,1057.124023 
	C417.141266,1069.209229 414.090271,1081.389404 410.992859,1093.754761 
	C387.394287,1093.754761 363.953705,1093.754761 340.043152,1093.754761 
	C347.865173,1062.741089 355.654327,1031.857544 363.579590,1000.583496 
M472.012146,942.351990 
	C470.546509,936.212280 468.570984,930.139648 467.752106,923.914856 
	C466.851868,917.071411 462.108917,919.271301 458.193481,918.701233 
	C453.800262,918.061646 453.009277,920.698975 452.218719,923.972595 
	C446.993652,945.609009 441.675140,967.222778 436.414795,988.850647 
	C435.144745,994.072388 433.978882,999.319458 432.706085,1004.809448 
	C451.209015,1004.809448 468.982635,1004.809448 487.371338,1004.809448 
	C482.251495,984.046204 477.212006,963.608948 472.012146,942.351990 
z"/>
<path fill="#E6C48B" opacity="1.000000" stroke="none" 
	d="
M235.955414,741.030457 
	C233.625336,737.550598 231.246017,734.509766 229.391800,731.176880 
	C227.394287,727.586487 224.817993,726.095703 220.231903,727.720154 
	C220.231903,754.409851 220.231903,781.452087 220.231903,808.738770 
	C206.564056,808.738770 193.493774,808.738770 180.160080,808.738770 
	C180.160080,760.494385 180.160080,712.449280 180.160080,663.911621 
	C195.341766,663.911621 210.289566,663.828064 225.232635,664.054932 
	C226.567368,664.075195 228.207428,665.879395 229.140045,667.242188 
	C246.154892,692.105469 263.132751,716.994507 279.967346,741.979919 
	C282.092957,745.134583 284.239868,746.963440 288.687073,745.280396 
	C288.687073,718.611389 288.687073,691.570190 288.687073,664.215820 
	C302.329895,664.215820 315.393860,664.215820 328.781555,664.215820 
	C328.781555,712.311401 328.781555,760.359131 328.781555,808.989136 
	C318.626923,808.989136 308.404938,808.034119 298.441711,809.231812 
	C286.095459,810.716003 278.973480,806.089478 272.618317,795.618591 
	C261.319794,777.002991 248.386719,759.379456 235.955414,741.030457 
z"/>
<path fill="#E5C38A" opacity="1.000000" stroke="none" 
	d="
M567.221313,681.001892 
	C567.221375,675.198120 567.221375,669.893982 567.221375,664.267273 
	C568.848633,664.120422 570.116333,663.908997 571.384399,663.906616 
	C584.382874,663.882019 597.382935,663.999390 610.378662,663.811707 
	C613.443787,663.767395 615.143494,664.846680 616.797363,667.300049 
	C633.641846,692.286438 650.658875,717.156860 667.454529,742.175842 
	C669.652100,745.449402 671.953308,746.742493 676.098999,745.335144 
	C676.098999,718.524353 676.098999,691.598145 676.098999,664.283447 
	C689.589844,664.283447 702.628113,664.283447 715.988892,664.283447 
	C715.988892,712.379761 715.988892,760.425903 715.988892,808.994202 
	C703.879272,808.994202 691.894958,808.488464 679.979492,809.175964 
	C672.322083,809.617798 667.875000,807.301086 663.587708,800.673889 
	C648.398804,777.195374 632.303711,754.304443 616.724731,731.075134 
	C614.578064,727.874390 612.369995,726.220093 607.922852,727.587769 
	C607.922852,754.358337 607.922852,781.409363 607.922852,808.723877 
	C594.186340,808.723877 581.082581,808.723877 567.221252,808.723877 
	C567.221252,766.336792 567.221252,723.919128 567.221313,681.001892 
z"/>
<path fill="#E5C38B" opacity="1.000000" stroke="none" 
	d="
M369.014160,808.994751 
	C364.873108,808.994751 361.228882,808.994751 357.239014,808.994751 
	C357.239014,760.648987 357.239014,712.597656 357.239014,664.217957 
	C394.825470,664.217957 432.406830,664.217957 470.384094,664.217957 
	C470.384094,674.728821 470.384094,685.299011 470.384094,696.480164 
	C447.284973,696.480164 424.056366,696.480164 400.471283,696.480164 
	C400.471283,704.481567 400.471283,711.888245 400.471283,719.821899 
	C423.652374,719.821899 446.887512,719.821899 470.448425,719.821899 
	C470.448425,731.060059 470.448425,741.778809 470.448425,752.849182 
	C447.140076,752.849182 424.026215,752.849182 400.359070,752.849182 
	C400.359070,771.572754 400.359070,789.962708 400.359070,808.994751 
	C389.715363,808.994751 379.613190,808.994751 369.014160,808.994751 
z"/>
<path fill="#E6C48B" opacity="1.000000" stroke="none" 
	d="
M108.897934,746.000000 
	C108.897911,718.535278 108.897911,691.570496 108.897911,664.252441 
	C123.254631,664.252441 137.317200,664.252441 151.742279,664.252441 
	C151.742279,712.229675 151.742279,760.273193 151.742279,808.653015 
	C137.759048,808.653015 123.689827,808.653015 108.897957,808.653015 
	C108.897957,787.981384 108.897957,767.240723 108.897934,746.000000 
z"/>
<path fill="#E5C38A" opacity="1.000000" stroke="none" 
	d="
M539.788574,674.038879 
	C539.788513,719.158142 539.788513,763.784546 539.788513,808.705505 
	C525.099060,808.705505 510.856262,808.705505 496.304962,808.705505 
	C496.304962,760.611206 496.304962,712.548035 496.304962,664.182861 
	C510.621979,664.182861 524.867676,664.182861 539.788635,664.182861 
	C539.788635,667.329712 539.788635,670.437866 539.788574,674.038879 
z"/>
<path fill="#E4C289" opacity="1.000000" stroke="none" 
	d="
M787.793701,686.000061 
	C787.793701,727.121155 787.793701,767.742310 787.793701,808.683594 
	C773.173462,808.683594 758.959473,808.683594 744.493164,808.683594 
	C744.493164,760.463745 744.493164,712.412659 744.493164,664.119507 
	C758.884033,664.119507 772.989563,664.119507 787.793762,664.119507 
	C787.793762,671.289795 787.793762,678.394958 787.793701,686.000061 
z"/>
<path fill="#3D2515" opacity="1.000000" stroke="none" 
	d="
M284.000000,253.994232 
	C313.988922,253.994232 343.478058,254.045715 372.966461,253.921844 
	C376.243317,253.908096 378.491516,254.919403 380.768005,257.213562 
	C401.421326,278.027222 422.236908,298.680176 442.825623,319.557068 
	C444.553925,321.309601 445.829315,324.336304 445.868195,326.793884 
	C446.131653,343.450134 446.101959,360.113770 445.889099,376.771454 
	C445.861176,378.956451 444.808685,381.673126 443.287994,383.212036 
	C422.327545,404.424316 401.224518,425.496216 380.059845,446.505188 
	C378.795532,447.760162 376.715576,448.895844 375.011108,448.901642 
	C337.359161,449.029907 299.706573,448.992004 262.054138,448.969635 
	C261.587128,448.969360 261.120270,448.760010 260.390930,448.585480 
	C260.390930,383.990204 260.390930,319.412811 260.390930,253.994232 
	C268.014679,253.994232 275.757355,253.994232 284.000000,253.994232 
M415.497253,401.997253 
	C422.677429,394.807007 429.759308,387.514160 437.096527,380.487915 
	C439.352692,378.327393 440.088531,376.149109 440.058441,373.125763 
	C439.917542,358.967163 440.119232,344.804230 439.872223,330.648560 
	C439.831879,328.337372 438.748260,325.470947 437.146881,323.847565 
	C416.910126,303.332550 396.530487,282.957458 376.034210,262.701599 
	C374.510162,261.195374 371.817352,260.126770 369.661682,260.116272 
	C336.678009,259.955200 303.693329,260.004181 270.708862,260.004211 
	C269.594421,260.004211 268.479980,260.004242 267.224487,260.004242 
	C267.224487,321.180115 267.224487,381.893677 267.224487,442.690735 
	C267.886292,442.815186 268.350006,442.978516 268.813751,442.978729 
	C303.130890,442.992676 337.448242,443.034576 371.764679,442.881134 
	C373.574951,442.873047 375.758240,441.587555 377.124725,440.243073 
	C389.829346,427.742889 402.392822,415.099243 415.497253,401.997253 
z"/>
<path fill="#3D2514" opacity="1.000000" stroke="none" 
	d="
M921.000000,449.005127 
	C892.012695,449.005127 863.524780,449.080078 835.039001,448.872345 
	C832.583618,448.854431 829.537292,447.578369 827.786011,445.851715 
	C806.908264,425.266510 786.165039,404.543213 765.591309,383.654388 
	C763.763855,381.799011 762.498840,378.546997 762.452637,375.917603 
	C762.168457,359.763123 762.170471,343.598755 762.450073,327.444092 
	C762.495789,324.804260 763.712219,321.528015 765.535461,319.676117 
	C786.222046,298.664520 807.096375,277.836823 828.054504,257.095337 
	C829.633362,255.532745 832.231445,254.134521 834.362793,254.124237 
	C871.345459,253.945770 908.329285,253.996216 945.312805,254.003342 
	C945.968384,254.003479 946.623962,254.085526 947.639709,254.153427 
	C947.639709,318.907898 947.639709,383.610748 947.639709,449.005127 
	C939.014099,449.005127 930.257080,449.005127 921.000000,449.005127 
M774.991516,319.518097 
	C769.916809,323.100555 768.631470,327.923065 768.856323,334.072235 
	C769.337097,347.216888 768.888916,360.393311 769.117188,373.551575 
	C769.154968,375.729919 770.123108,378.443695 771.621887,379.961639 
	C791.636658,400.232483 811.780212,420.377167 832.051086,440.391907 
	C833.567688,441.889435 836.295349,442.878052 838.465759,442.888275 
	C871.453918,443.043732 904.442993,442.999115 937.431885,442.986786 
	C938.871399,442.986267 940.310913,442.846344 941.718140,442.773041 
	C941.718140,381.714844 941.718140,320.995300 941.718140,260.148895 
	C940.807312,260.089508 940.165161,260.011078 939.523010,260.010956 
	C905.534485,260.004364 871.545715,259.957642 837.558044,260.124512 
	C835.600952,260.134094 833.223267,261.454773 831.764954,262.897034 
	C812.930603,281.524017 794.227783,300.283936 774.991516,319.518097 
z"/>
<path fill="#3E2615" opacity="1.000000" stroke="none" 
	d="
M472.092346,942.761841 
	C477.212006,963.608948 482.251495,984.046204 487.371338,1004.809448 
	C468.982635,1004.809448 451.209015,1004.809448 432.706085,1004.809448 
	C433.978882,999.319458 435.144745,994.072388 436.414795,988.850647 
	C441.675140,967.222778 446.993652,945.609009 452.218719,923.972595 
	C453.009277,920.698975 453.800262,918.061646 458.193481,918.701233 
	C462.108917,919.271301 466.851868,917.071411 467.752106,923.914856 
	C468.570984,930.139648 470.546509,936.212280 472.092346,942.761841 
M447.010315,972.646606 
	C445.019897,981.272400 443.029480,989.898254 440.988434,998.743530 
	C453.726013,998.743530 466.285309,998.743530 479.134430,998.743530 
	C473.014343,973.892151 466.970062,949.348694 460.925781,924.805237 
	C460.357635,924.833862 459.789490,924.862427 459.221375,924.891052 
	C458.816010,926.160034 458.344543,927.412109 458.015442,928.700623 
	C454.347961,943.059326 450.702454,957.423767 447.010315,972.646606 
z"/>
<path fill="#FFFFFF" opacity="1.000000" stroke="none" 
	d="
M415.247253,402.247253 
	C402.392822,415.099243 389.829346,427.742889 377.124725,440.243073 
	C375.758240,441.587555 373.574951,442.873047 371.764679,442.881134 
	C337.448242,443.034576 303.130890,442.992676 268.813751,442.978729 
	C268.350006,442.978516 267.886292,442.815186 267.224487,442.690735 
	C267.224487,381.893677 267.224487,321.180115 267.224487,260.004242 
	C268.479980,260.004242 269.594421,260.004211 270.708862,260.004211 
	C303.693329,260.004181 336.678009,259.955200 369.661682,260.116272 
	C371.817352,260.126770 374.510162,261.195374 376.034210,262.701599 
	C396.530487,282.957458 416.910126,303.332550 437.146881,323.847565 
	C438.748260,325.470947 439.831879,328.337372 439.872223,330.648560 
	C440.119232,344.804230 439.917542,358.967163 440.058441,373.125763 
	C440.088531,376.149109 439.352692,378.327393 437.096527,380.487915 
	C429.759308,387.514160 422.677429,394.807007 415.247253,402.247253 
z"/>
<path fill="#FFFFFF" opacity="1.000000" stroke="none" 
	d="
M775.241577,319.264191 
	C794.227783,300.283936 812.930603,281.524017 831.764954,262.897034 
	C833.223267,261.454773 835.600952,260.134094 837.558044,260.124512 
	C871.545715,259.957642 905.534485,260.004364 939.523010,260.010956 
	C940.165161,260.011078 940.807312,260.089508 941.718140,260.148895 
	C941.718140,320.995300 941.718140,381.714844 941.718140,442.773041 
	C940.310913,442.846344 938.871399,442.986267 937.431885,442.986786 
	C904.442993,442.999115 871.453918,443.043732 838.465759,442.888275 
	C836.295349,442.878052 833.567688,441.889435 832.051086,440.391907 
	C811.780212,420.377167 791.636658,400.232483 771.621887,379.961639 
	C770.123108,378.443695 769.154968,375.729919 769.117188,373.551575 
	C768.888916,360.393311 769.337097,347.216888 768.856323,334.072235 
	C768.631470,327.923065 769.916809,323.100555 775.241577,319.264191 
z"/>
<path fill="#FFFFFF" opacity="1.000000" stroke="none" 
	d="
M447.030670,972.216614 
	C450.702454,957.423767 454.347961,943.059326 458.015442,928.700623 
	C458.344543,927.412109 458.816010,926.160034 459.221375,924.891052 
	C459.789490,924.862427 460.357635,924.833862 460.925781,924.805237 
	C466.970062,949.348694 473.014343,973.892151 479.134430,998.743530 
	C466.285309,998.743530 453.726013,998.743530 440.988434,998.743530 
	C443.029480,989.898254 445.019897,981.272400 447.030670,972.216614 
z"/>
</svg>