<svg xmlns="http://www.w3.org/2000/svg" width="500" height="500" viewBox="0 0 500 500"><g transform="translate(113.13451776649747,83.85769230769236)translate(136.82561580504856,62.09777948075277)rotate(0)translate(-136.82561580504856,-62.09777948075277) scale(1.051146332470719,1.051146332470719)" opacity="1"><defs class="defs"><linearGradient id="linearGradientf020b30a7e197e2e91661de44a81a2ba" class="linearGradient2" gradientTransform="translate(0.5,0.5) rotate(0) translate(-0.5,-0.5)" x1="50%" y1="0%" x2="50%" y2="100%"><stop id="stop1" offset="12.967289719626168%" class="linearGradientColor1" stop-color="#ffffff"/><stop id="stop2" offset="93.3411214953271%" class="linearGradientColor2" stop-color="#605a56"/></linearGradient></defs><g>
    <path fill="#27241C" d="M92.918,31.335c0,0-10.227,3.055-12.225,8.815c0,0-8.109-0.824-9.286,2.703c0,0,7.641-1.177,11.284,0&#10;&#9;&#9;C82.691,42.854,81.576,39.503,92.918,31.335L92.918,31.335z" class="color c1"/>
    <path fill="#27241C" d="M103.235,40.494c0,0-5.548,1.657-6.632,4.783c0,0-4.399-0.447-5.037,1.467c0,0,4.145-0.639,6.121,0&#10;&#9;&#9;C97.687,46.744,97.082,44.926,103.235,40.494L103.235,40.494z" class="color c1"/>
    <path fill="#27241C" d="M260.089,116.631l-13.158-16.507c0,0-8.714-5.883-11.006-9.869c-2.292-3.984-7.164-8.583-8.023-10.115&#10;&#9;&#9;c-0.859-1.533-5.157-8.892-5.157-8.892l-0.113-1.04c-1.467-0.991-2.772-1.98-3.716-2.925c-4.002-4.004-3.06-1.218-6.263-8.426&#10;&#9;&#9;c-3.201-7.208-10.545-12.399-10.545-12.399s-13.608-5.607-18.411-10.414C178.893,31.239,162.084,0,162.084,0l-12.006,11.214&#10;&#9;&#9;c0,0-10.406,12.815-12.007,15.219c-1.601,2.403-15.208,9.611-18.411,9.611c-3.201,0-6.403,8.811-8.804,15.219&#10;&#9;&#9;c-2.402,6.409-4.003,11.214-4.003,11.214s-21.612,8.011-24.013,8.011c-2.402,0-24.814-21.626-24.814-21.626&#10;&#9;&#9;S50.022,65.681,47.62,68.884c-2.4,3.206-10.405,4.007-10.405,4.007L23.607,96.119l-8.805,17.622l-9.605-4.807l-3.488,7.249&#10;&#9;&#9;L0,117.716h4.012h256.324L260.089,116.631z" class="color c1"/>
    <path fill="url(#linearGradientf020b30a7e197e2e91661de44a81a2ba)" d="M74.435,85.414l-4.403-3.603l-0.4,6.407L65.23,75.803l0.799,19.225l-20.649,22.514h-3.6&#10;&#9;&#9;c0.08-0.163,0.152-0.316,0.236-0.486c2.402-4.807,2.402-12.015,2.402-12.015l2.802-6.809c0,0,3.602-6.809,5.603-12.015&#10;&#9;&#9;c2.001-5.208-0.4-4.405,0.4-6.409c0.801-2.003,3.603-8.009,3.603-10.412s3.032-11.882,3.032-11.882l21.344,17.622l9.606,0.533&#10;&#9;&#9;l-11.57,5.741l-9.206-12.015L74.435,85.414z M101.748,90.354l13.874-26.968l-32.285,43.255L94.81,94.626l-8.804,14.686&#10;&#9;&#9;l10.671-8.277l-3.201,9.346l12.808-15.754l-6.938,5.34l10.673-16.554L101.748,90.354z M237.86,106.106&#10;&#9;&#9;c0,0-34.152-46.456-35.753-48.593c-1.601-2.136,1.601,16.02,1.601,16.02l-9.072-18.689l-10.673-11.748&#10;&#9;&#9;c0,0,11.206,30.438,11.206,32.04c0,1.602-26.148-53.399-26.148-53.399l4.27,22.428l-12.808-32.04c0,0-22.413,26.165-24.547,28.836&#10;&#9;&#9;c-2.134,2.669,18.678-11.749,18.678-11.749l-10.673,18.69l1.067,20.825c0,0-5.869,5.342-7.47,7.478&#10;&#9;&#9;c-1.602,2.136-4.27,16.554-4.27,16.554l18.144,24.029l11.206-1.603c0,0,0.534-26.165,0-29.369&#10;&#9;&#9;c-0.533-3.204,14.206,27.427,14.206,27.427l13.543,1.942c0,0-9.071-30.438-10.672-34.709s27.75,30.973,27.75,30.973l-6.403-16.555&#10;&#9;&#9;l17.609,5.873v-9.077L237.86,106.106z" class="color c2"/>
  </g></g><g transform="translate(113.8682561580504,206.84988751993816)translate(136.59757311204027,105.07505624003095)rotate(0)translate(-136.59757311204027,-105.07505624003095) scale(1.0507788526001876,1.0507788526001876)" opacity="1"><defs class="defs"/><path fill="#27241C" d="M0,0v125.279c0,9.785,5.369,18.639,13.674,22.553l107.208,50.521c5.812,2.74,12.417,2.74,18.229,0&#10;&#9;l107.208-50.521c8.305-3.914,13.674-12.768,13.674-22.553V0H0z" class="color c1"/></g><g transform="translate(120.70953694830297,191.1397568546924)translate(129.52824962877943,108.99328322421665)rotate(0)translate(-129.52824962877943,-108.99328322421665) scale(1.0520573561252076,1.0520573561252076)" opacity="1"><defs class="defs"><linearGradient id="linearGradient480594129b093d205ba9e411f85cb1fd" class="linearGradient1" gradientTransform="translate(0.5,0.5) rotate(270) translate(-0.5,-0.5)" x1="50%" y1="0%" x2="50%" y2="100%"><stop id="stop1" offset="36.331775700934585%" class="linearGradientColor1" stop-color="#b89e86"/><stop id="stop2" offset="66.23831775700934%" class="linearGradientColor2" stop-color="#98aec1"/></linearGradient></defs><g>
    <path fill="none" d="M154.937,58.888h-3.915c0.679,0.867,1.396,1.691,2.176,2.437C153.799,60.534,154.382,59.724,154.937,58.888z"/>
    <path fill="none" d="M152.083,62.695h-0.63c0.093,0.14,0.196,0.27,0.292,0.407C151.859,62.969,151.97,62.832,152.083,62.695z"/>
    <path fill="none" d="M184.89,54.016h-3.447c0.635,0.787,1.304,1.532,2,2.247C183.951,55.536,184.435,54.787,184.89,54.016z"/>
    <path fill="none" d="M204.319,55.709h-2.816c0.452,0.673,0.93,1.32,1.426,1.947C203.397,57.012,203.875,56.376,204.319,55.709z"/>
    <path fill="none" d="M200.809,54.016h-0.391c0.044,0.075,0.095,0.145,0.14,0.219C200.641,54.16,200.727,54.091,200.809,54.016z"/>
    <path fill="none" d="M95.217,58.888h-3.916c0.556,0.836,1.139,1.646,1.739,2.437C93.819,60.579,94.537,59.755,95.217,58.888z"/>
    <path fill="none" d="M45.821,54.016H45.43c0.083,0.075,0.168,0.145,0.251,0.219C45.725,54.16,45.777,54.091,45.821,54.016z"/>
    <path fill="none" d="M44.735,55.709H41.92c0.444,0.667,0.921,1.303,1.39,1.947C43.807,57.029,44.285,56.382,44.735,55.709z"/>
    <path fill="none" d="M94.786,62.695h-0.63c0.112,0.137,0.225,0.273,0.339,0.407C94.589,62.965,94.693,62.835,94.786,62.695z"/>
    <path fill="none" d="M64.795,54.016h-3.447c0.457,0.771,0.939,1.521,1.448,2.247C63.491,55.548,64.161,54.803,64.795,54.016z"/>
    <path fill="url(#linearGradient480594129b093d205ba9e411f85cb1fd)" d="M245.866,66.523c-3.759-2.945-6.994-6.658-9.755-10.814h5.467c-3.914-2.991-7.13-7.014-9.77-11.485h6.372&#10;&#9;&#9;c-3.858-2.95-6.912-7.088-9.321-11.633h5.178C222.213,23.556,220.215,0,220.215,0s-1.999,23.556-13.823,32.591h5.179&#10;&#9;&#9;c-2.41,4.545-5.462,8.683-9.322,11.633h6.374c-1.72,2.913-3.712,5.598-5.955,7.967c-1.657-1.719-3.058-3.764-4.225-5.965h3.468&#10;&#9;&#9;c-7.919-6.052-9.257-21.826-9.257-21.826s-1.338,15.774-9.258,21.826h3.469c-1.506,2.84-3.407,5.417-5.751,7.358&#10;&#9;&#9;c-1.08-1.383-2.094-2.837-3.004-4.379h5.372c-3.252-2.485-5.826-5.975-7.858-9.806h4.366c-9.968-7.615-11.653-27.473-11.653-27.473&#10;&#9;&#9;s-1.685,19.857-11.653,27.473h4.366c-2.03,3.831-4.604,7.32-7.857,9.806h5.372c-2.126,3.604-4.713,6.839-7.818,9.32&#10;&#9;&#9;c-0.681-0.9-1.33-1.837-1.914-2.826h3.881c-2.35-1.795-4.211-4.316-5.678-7.086h3.154c-7.202-5.503-8.419-19.85-8.419-19.85&#10;&#9;&#9;s-1.217,14.347-8.419,19.85h3.155c-1.467,2.77-3.327,5.291-5.677,7.086h3.88c-1.607,2.725-3.566,5.174-5.95,6.996h3.33&#10;&#9;&#9;c-0.908,1.365-1.902,2.646-2.979,3.828h-11.981c-1.079-1.182-2.072-2.463-2.979-3.828h3.33c-2.384-1.822-4.342-4.271-5.951-6.996&#10;&#9;&#9;h3.881c-2.351-1.795-4.209-4.316-5.678-7.086h3.154c-7.202-5.503-8.419-19.85-8.419-19.85s-1.217,14.347-8.419,19.85h3.154&#10;&#9;&#9;c-1.468,2.77-3.328,5.291-5.677,7.086h3.881c-0.585,0.989-1.233,1.926-1.915,2.826c-3.104-2.481-5.691-5.717-7.817-9.32h5.372&#10;&#9;&#9;c-3.253-2.485-5.827-5.975-7.858-9.806h4.366c-9.968-7.615-11.653-27.473-11.653-27.473s-1.684,19.857-11.652,27.473h4.366&#10;&#9;&#9;c-2.031,3.831-4.604,7.32-7.857,9.806h5.372c-0.91,1.542-1.924,2.996-3.004,4.379c-2.345-1.941-4.246-4.519-5.752-7.358h3.469&#10;&#9;&#9;c-7.919-6.052-9.257-21.826-9.257-21.826s-1.338,15.774-9.257,21.826h3.467c-1.167,2.201-2.566,4.246-4.225,5.965&#10;&#9;&#9;c-2.242-2.369-4.235-5.054-5.954-7.967h6.373c-3.858-2.95-6.912-7.088-9.321-11.633h5.179C28.023,23.556,26.024,0,26.024,0&#10;&#9;&#9;s-1.998,23.556-13.823,32.591h5.179c-2.409,4.545-5.462,8.683-9.321,11.633h6.373c-2.64,4.472-5.856,8.494-9.771,11.485h5.467&#10;&#9;&#9;c-2.762,4.156-5.996,7.869-9.756,10.814H0v73.893c0,6.77,3.747,12.895,9.547,15.604l107.208,50.057&#10;&#9;&#9;c4.043,1.889,8.682,1.889,12.729,0l107.208-50.057c5.799-2.709,9.546-8.83,9.546-15.604V66.523H245.866z M204.319,55.709&#10;&#9;&#9;c-0.444,0.667-0.922,1.303-1.391,1.947c-0.496-0.627-0.974-1.274-1.426-1.947H204.319z M200.809,54.016&#10;&#9;&#9;c-0.082,0.075-0.168,0.145-0.25,0.219c-0.045-0.074-0.096-0.144-0.14-0.219H200.809z M184.89,54.016&#10;&#9;&#9;c-0.456,0.771-0.939,1.521-1.447,2.247c-0.696-0.715-1.364-1.46-2-2.247H184.89z M154.937,58.888&#10;&#9;&#9;c-0.555,0.836-1.138,1.646-1.739,2.437c-0.779-0.745-1.497-1.569-2.176-2.437H154.937z M152.083,62.695&#10;&#9;&#9;c-0.113,0.137-0.224,0.273-0.339,0.407c-0.095-0.138-0.198-0.268-0.292-0.407H152.083z M95.217,58.888&#10;&#9;&#9;c-0.68,0.867-1.397,1.691-2.177,2.437c-0.6-0.79-1.183-1.601-1.739-2.437H95.217z M94.786,62.695&#10;&#9;&#9;c-0.093,0.14-0.196,0.27-0.291,0.407c-0.114-0.134-0.227-0.271-0.339-0.407H94.786z M64.795,54.016&#10;&#9;&#9;c-0.635,0.787-1.304,1.532-1.999,2.247c-0.508-0.727-0.991-1.476-1.448-2.247H64.795z M45.821,54.016&#10;&#9;&#9;c-0.044,0.075-0.096,0.145-0.14,0.219c-0.083-0.074-0.169-0.144-0.251-0.219H45.821z M44.735,55.709&#10;&#9;&#9;c-0.451,0.673-0.928,1.32-1.425,1.947c-0.468-0.645-0.946-1.28-1.39-1.947H44.735z M241.391,146.607&#10;&#9;&#9;c-1.159,1.924-2.844,3.486-4.801,4.434l-5.355,2.572l-21.394,10.268c-14.243,6.895-28.587,13.535-42.881,20.305l-21.458,10.107&#10;&#9;&#9;l-10.728,5.059l-5.365,2.527l-1.341,0.631c-0.48,0.225-1.041,0.463-1.58,0.623c-1.091,0.348-2.23,0.521-3.369,0.523&#10;&#9;&#9;c-1.139-0.012-2.278-0.178-3.368-0.527c-0.539-0.16-1.099-0.398-1.579-0.623l-1.342-0.631l-5.364-2.527l-10.729-5.055&#10;&#9;&#9;L79.28,184.184c-14.295-6.766-28.636-13.418-42.879-20.309l-21.395-10.264l-5.355-2.572c-1.958-0.949-3.642-2.514-4.8-4.432&#10;&#9;&#9;c-1.165-1.916-1.802-4.188-1.814-6.461l0.06-6.287l0.459-7.521l0.784,7.814l0.507,5.959c0.047,1.908,0.616,3.789,1.612,5.355&#10;&#9;&#9;c0.992,1.576,2.405,2.83,4.026,3.572l5.386,2.451l21.583,9.803c14.409,6.486,28.719,13.213,43.076,19.826l21.52,9.959l10.76,4.977&#10;&#9;&#9;l5.38,2.49l1.345,0.621c0.417,0.191,0.769,0.336,1.171,0.455c0.783,0.246,1.6,0.357,2.415,0.361&#10;&#9;&#9;c0.813-0.014,1.63-0.115,2.413-0.365c0.403-0.119,0.754-0.264,1.171-0.453l1.345-0.623l5.379-2.49l10.76-4.979l21.52-9.955&#10;&#9;&#9;c14.359-6.609,28.665-13.346,43.075-19.83l21.583-9.803l5.387-2.447c1.619-0.744,3.032-1.996,4.023-3.57&#10;&#9;&#9;c0.996-1.568,1.565-3.447,1.612-5.355l0.376-6.23l0.774-8.047l0.608,8.025l0.059,6.287&#10;&#9;&#9;C243.194,142.42,242.557,144.693,241.391,146.607z" class="color c1"/>
  </g></g><g transform="translate(78.99999999999997,272.03125)translate(171.25,31.039062499999986)rotate(0)translate(-171.25,-31.039062499999986) scale(1.0703125,1.0703125)" opacity="1"><defs class="defs"/><polygon fill="#27241C" points="320,58.107 0,58.107 19.375,29.969 0,0 320,0 302,29.054 " class="color c1"/></g><g transform="translate(145.1618605540934,274.2152516807201)translate(104.32400512695312,31)rotate(0)translate(-104.32400512695312,-31)" opacity="1"><path transform="translate(6,46.83914461901066)rotate(0)" d="M3.57-1.22L3.57-1.22L3.57-33.22L3.57-33.22Q3.57-34.35 5.12-34.35L5.12-34.35L5.12-34.35Q6.67-34.35 6.67-33.22L6.67-33.22L6.67-2.87L20.07-2.87L20.07-2.87Q21.10-2.87 21.10-1.46L21.10-1.46L21.10-1.46Q21.10 0 20.07 0L20.07 0L4.98 0L4.98 0Q4.42 0 3.99-0.33L3.99-0.33L3.99-0.33Q3.57-0.66 3.57-1.22ZM25.33-1.22L25.33-1.22L25.33-33.22L25.33-33.22Q25.33-34.35 26.88-34.35L26.88-34.35L26.88-34.35Q28.43-34.35 28.43-33.22L28.43-33.22L28.43-1.22L28.43-1.22Q28.43-0.66 27.96-0.33L27.96-0.33L27.96-0.33Q27.49 0 26.88 0L26.88 0L26.88 0Q26.22 0 25.78-0.33L25.78-0.33L25.78-0.33Q25.33-0.66 25.33-1.22ZM32.94-33.04L32.94-33.04L32.94-33.04Q32.94-33.60 33.51-33.98L33.51-33.98L33.51-33.98Q34.07-34.35 34.73-34.35L34.73-34.35L34.73-34.35Q35.76-34.35 35.95-33.55L35.95-33.55L44.64-4.70L53.29-33.55L53.29-33.55Q53.57-34.35 54.47-34.35L54.47-34.35L54.47-34.35Q55.12-34.35 55.74-33.95L55.74-33.95L55.74-33.95Q56.35-33.55 56.35-32.99L56.35-32.99L56.35-32.99Q56.35-32.94 56.32-32.85L56.32-32.85L56.32-32.85Q56.30-32.75 56.30-32.71L56.30-32.71L46.52-0.85L46.52-0.85Q46.20 0.28 44.64 0.28L44.64 0.28L44.64 0.28Q43.14 0.28 42.81-0.85L42.81-0.85L32.99-32.71L32.99-32.71Q32.94-32.80 32.94-33.04ZM60.86-1.22L60.86-1.22L60.86-33.18L60.86-33.18Q60.86-33.74 61.28-34.05L61.28-34.05L61.28-34.05Q61.70-34.35 62.27-34.35L62.27-34.35L79.00-34.35L79.00-34.35Q80.17-34.35 80.17-32.99L80.17-32.99L80.17-32.99Q80.17-32.38 79.87-31.93L79.87-31.93L79.87-31.93Q79.56-31.49 79.00-31.49L79.00-31.49L63.96-31.49L63.96-18.56L71.34-18.56L71.34-18.56Q71.90-18.56 72.21-18.16L72.21-18.16L72.21-18.16Q72.51-17.76 72.51-17.15L72.51-17.15L72.51-17.15Q72.51-15.88 71.34-15.88L71.34-15.88L63.96-15.88L63.96-2.87L79.00-2.87L79.00-2.87Q79.51-2.87 79.84-2.44L79.84-2.44L79.84-2.44Q80.17-2.02 80.17-1.41L80.17-1.41L80.17-1.41Q80.17 0 79.00 0L79.00 0L62.27 0L62.27 0Q61.70 0 61.28-0.33L61.28-0.33L61.28-0.33Q60.86-0.66 60.86-1.22ZM94.13-1.22L94.13-1.22L94.13-32.85L94.13-32.85Q94.13-34.35 95.68-34.35L95.68-34.35L95.68-34.35Q97.04-34.35 98.17-32.19L98.17-32.19L106.25-16.59L114.34-32.19L114.34-32.19Q115.46-34.35 116.83-34.35L116.83-34.35L116.83-34.35Q118.38-34.35 118.38-32.85L118.38-32.85L118.38-1.22L118.38-1.22Q118.38-0.66 117.93-0.33L117.93-0.33L117.93-0.33Q117.49 0 116.83 0L116.83 0L116.83 0Q116.22 0 115.75-0.33L115.75-0.33L115.75-0.33Q115.28-0.66 115.28-1.22L115.28-1.22L115.28-27.63L107.48-12.88L107.48-12.88Q106.96-11.89 106.21-11.89L106.21-11.89L106.21-11.89Q105.50-11.89 104.98-12.88L104.98-12.88L97.23-27.77L97.23-1.22L97.23-1.22Q97.23-0.66 96.76-0.33L96.76-0.33L96.76-0.33Q96.29 0 95.68 0L95.68 0L95.68 0Q95.02 0 94.58-0.33L94.58-0.33L94.58-0.33Q94.13-0.66 94.13-1.22ZM125.15-9.77L125.15-9.77L125.15-24.34L125.15-24.34Q125.15-29.51 127.80-31.93L127.80-31.93L127.80-31.93Q130.46-34.35 134.92-34.35L134.92-34.35L134.92-34.35Q139.38-34.35 142.04-31.93L142.04-31.93L142.04-31.93Q144.69-29.51 144.69-24.34L144.69-24.34L144.69-9.77L144.69-9.77Q144.69-4.56 142.04-2.14L142.04-2.14L142.04-2.14Q139.38 0.28 134.92 0.28L134.92 0.28L134.92 0.28Q130.46 0.28 127.80-2.14L127.80-2.14L127.80-2.14Q125.15-4.56 125.15-9.77ZM128.25-24.34L128.25-9.77L128.25-9.77Q128.25-2.58 134.92-2.58L134.92-2.58L134.92-2.58Q141.59-2.58 141.59-9.77L141.59-9.77L141.59-24.34L141.59-24.34Q141.59-31.49 134.92-31.49L134.92-31.49L134.92-31.49Q128.25-31.49 128.25-24.34L128.25-24.34ZM151.46-1.22L151.46-1.22L151.46-33.22L151.46-33.22Q151.46-34.26 152.64-34.35L152.64-34.35L160.95-34.35L160.95-34.35Q165.51-34.35 168.31-32.19L168.31-32.19L168.31-32.19Q171.11-30.03 171.11-25.09L171.11-25.09L171.11-25.09Q171.11-17.29 163.77-16.02L163.77-16.02L171.01-2.11L171.01-2.11Q171.20-1.88 171.20-1.50L171.20-1.50L171.20-1.50Q171.20-0.89 170.64-0.40L170.64-0.40L170.64-0.40Q170.07 0.09 169.41 0.09L169.41 0.09L169.41 0.09Q168.57 0.09 167.77-1.55L167.77-1.55L160.53-15.65L154.56-15.65L154.56-1.22L154.56-1.22Q154.56-0.66 154.09-0.33L154.09-0.33L154.09-0.33Q153.62 0 153.01 0L153.01 0L153.01 0Q152.35 0 151.91-0.33L151.91-0.33L151.91-0.33Q151.46-0.66 151.46-1.22ZM154.56-31.49L154.56-18.33L160.95-18.33L160.95-18.33Q168.00-18.33 168.00-24.95L168.00-24.95L168.00-24.95Q168.00-31.49 160.95-31.49L160.95-31.49L154.56-31.49ZM176.32-1.22L176.32-1.22L176.32-33.18L176.32-33.18Q176.32-33.74 176.74-34.05L176.74-34.05L176.74-34.05Q177.17-34.35 177.73-34.35L177.73-34.35L194.46-34.35L194.46-34.35Q195.64-34.35 195.64-32.99L195.64-32.99L195.64-32.99Q195.64-32.38 195.33-31.93L195.33-31.93L195.33-31.93Q195.03-31.49 194.46-31.49L194.46-31.49L179.42-31.49L179.42-18.56L186.80-18.56L186.80-18.56Q187.37-18.56 187.67-18.16L187.67-18.16L187.67-18.16Q187.98-17.76 187.98-17.15L187.98-17.15L187.98-17.15Q187.98-15.88 186.80-15.88L186.80-15.88L179.42-15.88L179.42-2.87L194.46-2.87L194.46-2.87Q194.98-2.87 195.31-2.44L195.31-2.44L195.31-2.44Q195.64-2.02 195.64-1.41L195.64-1.41L195.64-1.41Q195.64 0 194.46 0L194.46 0L177.73 0L177.73 0Q177.17 0 176.74-0.33L176.74-0.33L176.74-0.33Q176.32-0.66 176.32-1.22Z" fill="#e1d7cc"/></g><g transform="translate(180.30056398834074,343.76514759929853)translate(68.93699798583984,11.500000000000002)rotate(0)translate(-68.93699798583984,-11.500000000000002)" opacity="1"><path transform="translate(6,16.72)rotate(0)" d="M6.75 0.09L6.75 0.09L6.75 0.09Q5.42 0.09 4.31-0.46L4.31-0.46L4.31-0.46Q3.20-1.01 2.41-1.92L2.41-1.92L2.41-1.92Q1.62-2.83 1.19-4.00L1.19-4.00L1.19-4.00Q0.76-5.17 0.76-6.39L0.76-6.39L0.76-6.39Q0.76-7.67 1.22-8.84L1.22-8.84L1.22-8.84Q1.67-10.01 2.48-10.91L2.48-10.91L2.48-10.91Q3.29-11.81 4.39-12.34L4.39-12.34L4.39-12.34Q5.49-12.87 6.77-12.87L6.77-12.87L6.77-12.87Q8.10-12.87 9.21-12.30L9.21-12.30L9.21-12.30Q10.31-11.74 11.10-10.82L11.10-10.82L11.10-10.82Q11.88-9.90 12.31-8.74L12.31-8.74L12.31-8.74Q12.74-7.58 12.74-6.37L12.74-6.37L12.74-6.37Q12.74-5.09 12.29-3.92L12.29-3.92L12.29-3.92Q11.83-2.75 11.03-1.86L11.03-1.86L11.03-1.86Q10.22-0.97 9.13-0.44L9.13-0.44L9.13-0.44Q8.03 0.09 6.75 0.09ZM2.02-6.39L2.02-6.39L2.02-6.39Q2.02-5.35 2.36-4.38L2.36-4.38L2.36-4.38Q2.70-3.42 3.33-2.67L3.33-2.67L3.33-2.67Q3.96-1.93 4.82-1.49L4.82-1.49L4.82-1.49Q5.69-1.04 6.75-1.04L6.75-1.04L6.75-1.04Q7.83-1.04 8.71-1.51L8.71-1.51L8.71-1.51Q9.59-1.98 10.21-2.74L10.21-2.74L10.21-2.74Q10.82-3.49 11.15-4.45L11.15-4.45L11.15-4.45Q11.48-5.40 11.48-6.39L11.48-6.39L11.48-6.39Q11.48-7.43 11.13-8.40L11.13-8.40L11.13-8.40Q10.78-9.36 10.15-10.10L10.15-10.10L10.15-10.10Q9.52-10.84 8.66-11.28L8.66-11.28L8.66-11.28Q7.79-11.72 6.75-11.72L6.75-11.72L6.75-11.72Q5.67-11.72 4.79-11.26L4.79-11.26L4.79-11.26Q3.91-10.80 3.29-10.04L3.29-10.04L3.29-10.04Q2.68-9.29 2.35-8.33L2.35-8.33L2.35-8.33Q2.02-7.38 2.02-6.39ZM23.90-1.04L23.90-1.04L23.90-1.04Q25.11-1.04 25.91-1.50L25.91-1.50L25.91-1.50Q26.71-1.96 27.19-2.71L27.19-2.71L27.19-2.71Q27.67-3.46 27.86-4.41L27.86-4.41L27.86-4.41Q28.04-5.36 28.04-6.34L28.04-6.34L28.04-12.78L29.30-12.78L29.30-6.34L29.30-6.34Q29.30-5.04 29.02-3.88L29.02-3.88L29.02-3.88Q28.73-2.72 28.09-1.84L28.09-1.84L28.09-1.84Q27.45-0.95 26.42-0.43L26.42-0.43L26.42-0.43Q25.40 0.09 23.92 0.09L23.92 0.09L23.92 0.09Q22.41 0.09 21.38-0.46L21.38-0.46L21.38-0.46Q20.34-1.01 19.71-1.91L19.71-1.91L19.71-1.91Q19.08-2.81 18.81-3.96L18.81-3.96L18.81-3.96Q18.54-5.11 18.54-6.34L18.54-6.34L18.54-12.78L19.78-12.78L19.78-6.34L19.78-6.34Q19.78-5.33 19.98-4.37L19.98-4.37L19.98-4.37Q20.18-3.42 20.66-2.68L20.66-2.68L20.66-2.68Q21.13-1.94 21.92-1.49L21.92-1.49L21.92-1.49Q22.72-1.04 23.90-1.04ZM44.98-12.78L44.98-11.66L40.43-11.66L40.43 0L39.17 0L39.17-11.66L34.61-11.66L34.61-12.78L44.98-12.78ZM54.83 0L50.49 0L50.49-12.78L54.83-12.78L54.83-12.78Q56.36-12.78 57.50-12.28L57.50-12.28L57.50-12.28Q58.64-11.77 59.41-10.91L59.41-10.91L59.41-10.91Q60.17-10.04 60.56-8.88L60.56-8.88L60.56-8.88Q60.95-7.72 60.95-6.41L60.95-6.41L60.95-6.41Q60.95-4.95 60.52-3.77L60.52-3.77L60.52-3.77Q60.08-2.59 59.28-1.76L59.28-1.76L59.28-1.76Q58.48-0.92 57.36-0.46L57.36-0.46L57.36-0.46Q56.23 0 54.83 0L54.83 0ZM59.69-6.41L59.69-6.41L59.69-6.41Q59.69-7.56 59.36-8.52L59.36-8.52L59.36-8.52Q59.04-9.49 58.42-10.19L58.42-10.19L58.42-10.19Q57.80-10.89 56.90-11.28L56.90-11.28L56.90-11.28Q56.00-11.66 54.83-11.66L54.83-11.66L51.75-11.66L51.75-1.12L54.83-1.12L54.83-1.12Q56.02-1.12 56.93-1.52L56.93-1.52L56.93-1.52Q57.83-1.93 58.45-2.64L58.45-2.64L58.45-2.64Q59.06-3.35 59.37-4.31L59.37-4.31L59.37-4.31Q59.69-5.27 59.69-6.41ZM72.11 0.09L72.11 0.09L72.11 0.09Q70.78 0.09 69.67-0.46L69.67-0.46L69.67-0.46Q68.56-1.01 67.77-1.92L67.77-1.92L67.77-1.92Q66.98-2.83 66.55-4.00L66.55-4.00L66.55-4.00Q66.11-5.17 66.11-6.39L66.11-6.39L66.11-6.39Q66.11-7.67 66.57-8.84L66.57-8.84L66.57-8.84Q67.03-10.01 67.84-10.91L67.84-10.91L67.84-10.91Q68.65-11.81 69.75-12.34L69.75-12.34L69.75-12.34Q70.85-12.87 72.13-12.87L72.13-12.87L72.13-12.87Q73.46-12.87 74.56-12.30L74.56-12.30L74.56-12.30Q75.67-11.74 76.46-10.82L76.46-10.82L76.46-10.82Q77.24-9.90 77.67-8.74L77.67-8.74L77.67-8.74Q78.10-7.58 78.10-6.37L78.10-6.37L78.10-6.37Q78.10-5.09 77.64-3.92L77.64-3.92L77.64-3.92Q77.18-2.75 76.38-1.86L76.38-1.86L76.38-1.86Q75.58-0.97 74.48-0.44L74.48-0.44L74.48-0.44Q73.39 0.09 72.11 0.09ZM67.37-6.39L67.37-6.39L67.37-6.39Q67.37-5.35 67.72-4.38L67.72-4.38L67.72-4.38Q68.06-3.42 68.69-2.67L68.69-2.67L68.69-2.67Q69.32-1.93 70.18-1.49L70.18-1.49L70.18-1.49Q71.05-1.04 72.11-1.04L72.11-1.04L72.11-1.04Q73.19-1.04 74.07-1.51L74.07-1.51L74.07-1.51Q74.95-1.98 75.56-2.74L75.56-2.74L75.56-2.74Q76.18-3.49 76.51-4.45L76.51-4.45L76.51-4.45Q76.84-5.40 76.84-6.39L76.84-6.39L76.84-6.39Q76.84-7.43 76.49-8.40L76.49-8.40L76.49-8.40Q76.14-9.36 75.51-10.10L75.51-10.10L75.51-10.10Q74.88-10.84 74.02-11.28L74.02-11.28L74.02-11.28Q73.15-11.72 72.11-11.72L72.11-11.72L72.11-11.72Q71.03-11.72 70.15-11.26L70.15-11.26L70.15-11.26Q69.26-10.80 68.65-10.04L68.65-10.04L68.65-10.04Q68.04-9.29 67.71-8.33L67.71-8.33L67.71-8.33Q67.37-7.38 67.37-6.39ZM89.23 0.09L89.23 0.09L89.23 0.09Q87.89 0.09 86.79-0.46L86.79-0.46L86.79-0.46Q85.68-1.01 84.89-1.92L84.89-1.92L84.89-1.92Q84.10-2.83 83.66-4.00L83.66-4.00L83.66-4.00Q83.23-5.17 83.23-6.39L83.23-6.39L83.23-6.39Q83.23-7.67 83.69-8.84L83.69-8.84L83.69-8.84Q84.15-10.01 84.96-10.91L84.96-10.91L84.96-10.91Q85.77-11.81 86.87-12.34L86.87-12.34L86.87-12.34Q87.97-12.87 89.24-12.87L89.24-12.87L89.24-12.87Q90.58-12.87 91.68-12.30L91.68-12.30L91.68-12.30Q92.79-11.74 93.57-10.82L93.57-10.82L93.57-10.82Q94.36-9.90 94.79-8.74L94.79-8.74L94.79-8.74Q95.22-7.58 95.22-6.37L95.22-6.37L95.22-6.37Q95.22-5.09 94.76-3.92L94.76-3.92L94.76-3.92Q94.30-2.75 93.50-1.86L93.50-1.86L93.50-1.86Q92.70-0.97 91.60-0.44L91.60-0.44L91.60-0.44Q90.50 0.09 89.23 0.09ZM84.49-6.39L84.49-6.39L84.49-6.39Q84.49-5.35 84.83-4.38L84.83-4.38L84.83-4.38Q85.18-3.42 85.81-2.67L85.81-2.67L85.81-2.67Q86.44-1.93 87.30-1.49L87.30-1.49L87.30-1.49Q88.16-1.04 89.23-1.04L89.23-1.04L89.23-1.04Q90.31-1.04 91.19-1.51L91.19-1.51L91.19-1.51Q92.07-1.98 92.68-2.74L92.68-2.74L92.68-2.74Q93.29-3.49 93.63-4.45L93.63-4.45L93.63-4.45Q93.96-5.40 93.96-6.39L93.96-6.39L93.96-6.39Q93.96-7.43 93.61-8.40L93.61-8.40L93.61-8.40Q93.26-9.36 92.63-10.10L92.63-10.10L92.63-10.10Q92.00-10.84 91.13-11.28L91.13-11.28L91.13-11.28Q90.27-11.72 89.23-11.72L89.23-11.72L89.23-11.72Q88.15-11.72 87.26-11.26L87.26-11.26L87.26-11.26Q86.38-10.80 85.77-10.04L85.77-10.04L85.77-10.04Q85.16-9.29 84.83-8.33L84.83-8.33L84.83-8.33Q84.49-7.38 84.49-6.39ZM102.46 0L101.20 0L101.20-12.78L106.60-12.78L106.60-12.78Q107.42-12.78 108.12-12.43L108.12-12.43L108.12-12.43Q108.81-12.08 109.31-11.51L109.31-11.51L109.31-11.51Q109.82-10.94 110.10-10.22L110.10-10.22L110.10-10.22Q110.38-9.50 110.38-8.77L110.38-8.77L110.38-8.77Q110.38-8.06 110.17-7.43L110.17-7.43L110.17-7.43Q109.96-6.79 109.59-6.27L109.59-6.27L109.59-6.27Q109.22-5.76 108.70-5.41L108.70-5.41L108.70-5.41Q108.18-5.06 107.53-4.93L107.53-4.93L110.66 0L109.24 0L106.24-4.72L102.46-4.72L102.46 0ZM102.46-11.66L102.46-5.83L106.63-5.83L106.63-5.83Q107.19-5.83 107.65-6.08L107.65-6.08L107.65-6.08Q108.11-6.32 108.43-6.73L108.43-6.73L108.43-6.73Q108.76-7.15 108.94-7.67L108.94-7.67L108.94-7.67Q109.12-8.19 109.12-8.77L109.12-8.77L109.12-8.77Q109.12-9.34 108.91-9.87L108.91-9.87L108.91-9.87Q108.70-10.40 108.35-10.80L108.35-10.80L108.35-10.80Q108-11.20 107.52-11.43L107.52-11.43L107.52-11.43Q107.05-11.66 106.52-11.66L106.52-11.66L102.46-11.66ZM124.63-11.39L124.02-10.39L124.02-10.39Q123.48-11.00 122.58-11.38L122.58-11.38L122.58-11.38Q121.68-11.75 120.53-11.75L120.53-11.75L120.53-11.75Q118.84-11.75 118.06-11.12L118.06-11.12L118.06-11.12Q117.29-10.48 117.29-9.38L117.29-9.38L117.29-9.38Q117.29-8.80 117.49-8.43L117.49-8.43L117.49-8.43Q117.70-8.06 118.13-7.79L118.13-7.79L118.13-7.79Q118.57-7.52 119.24-7.33L119.24-7.33L119.24-7.33Q119.92-7.13 120.83-6.93L120.83-6.93L120.83-6.93Q121.86-6.71 122.68-6.44L122.68-6.44L122.68-6.44Q123.50-6.17 124.07-5.77L124.07-5.77L124.07-5.77Q124.65-5.36 124.96-4.79L124.96-4.79L124.96-4.79Q125.26-4.21 125.26-3.35L125.26-3.35L125.26-3.35Q125.26-2.47 124.92-1.82L124.92-1.82L124.92-1.82Q124.58-1.17 123.97-0.74L123.97-0.74L123.97-0.74Q123.35-0.31 122.51-0.10L122.51-0.10L122.51-0.10Q121.66 0.11 120.65 0.11L120.65 0.11L120.65 0.11Q117.68 0.11 115.52-1.75L115.52-1.75L116.15-2.77L116.15-2.77Q116.50-2.41 116.97-2.09L116.97-2.09L116.97-2.09Q117.45-1.76 118.03-1.52L118.03-1.52L118.03-1.52Q118.62-1.28 119.29-1.14L119.29-1.14L119.29-1.14Q119.95-1.01 120.69-1.01L120.69-1.01L120.69-1.01Q122.22-1.01 123.07-1.56L123.07-1.56L123.07-1.56Q123.93-2.11 123.93-3.22L123.93-3.22L123.93-3.22Q123.93-3.82 123.69-4.22L123.69-4.22L123.69-4.22Q123.44-4.63 122.96-4.92L122.96-4.92L122.96-4.92Q122.47-5.22 121.75-5.44L121.75-5.44L121.75-5.44Q121.03-5.65 120.08-5.87L120.08-5.87L120.08-5.87Q119.07-6.10 118.31-6.35L118.31-6.35L118.31-6.35Q117.56-6.61 117.04-6.98L117.04-6.98L117.04-6.98Q116.51-7.36 116.25-7.89L116.25-7.89L116.25-7.89Q115.99-8.42 115.99-9.20L115.99-9.20L115.99-9.20Q115.99-10.08 116.32-10.77L116.32-10.77L116.32-10.77Q116.66-11.47 117.27-11.93L117.27-11.93L117.27-11.93Q117.88-12.38 118.71-12.63L118.71-12.63L118.71-12.63Q119.54-12.87 120.55-12.87L120.55-12.87L120.55-12.87Q121.82-12.87 122.82-12.48L122.82-12.48L122.82-12.48Q123.82-12.10 124.63-11.39L124.63-11.39Z" fill="#161616"/></g><g transform="translate(237.22222222222223,366)translate(11.666666666666723,15.000000000000066)rotate(0)translate(-11.666666666666723,-15.000000000000066) scale(1.112223334445562,1.112223334445562)" opacity="1"><defs class="defs"/><path fill="#27241C" d="M1.519,16.887h2.234C3.516,17.975,0,20.869,0,20.869c3.107,1.133,6.363,1.518,9.367,1.553v4.752h2.245&#10;&#9;v-4.752c3.005-0.035,6.27-0.41,9.368-1.553c0,0-3.503-2.893-3.753-3.982h2.234c0,0-2.96-2.904-3.753-4.24h1.452&#10;&#9;c0,0-4.876-4.502-6.508-11.828C10.594,0.545,10.537,0.273,10.479,0C9.05,7.803,3.8,12.645,3.8,12.645h0.556h0.896&#10;&#9;c-0.091,0.156-0.228,0.35-0.375,0.555c-0.034,0.045-0.066,0.09-0.113,0.137c-0.034,0.043-0.067,0.092-0.102,0.135&#10;&#9;c-0.554,0.725-1.35,1.576-1.997,2.256C2.017,16.402,1.519,16.887,1.519,16.887z" class="color c1"/></g><g transform="translate(110,295.00000000000006)translate(8.499999999999153,8.499999999999153)rotate(0)translate(-8.499999999999153,-8.499999999999153) scale(1,1)" opacity="1"><linearGradient class="linearGradient" x1="0%" y1="0%" x2="0%" y2="100%" gradientTransform="translate(0.5,0.5) rotate(0) translate(-0.5,-0.5)">
		<stop id="stop1" offset="0%" class="linearGradientColor1" stop-color="#05a"/>
		<stop id="stop2" offset="100%" class="linearGradientColor2" stop-color="#0a5"/>
	</linearGradient><radialGradient class="radialGradient" cx="50%" cy="50%" r="50%" fx="50%" fy="50%">
		<stop offset="0%" class="radialGradientColor1" stop-color="#05a"/>
		<stop offset="100%" class="radialGradientColor2" stop-color="#0a5"/>
	</radialGradient><clipPath id="clip1cb1739ecead07c53804d852acb6b8c0" class="clipPath">
		<ellipse fill="none" class="element" stroke="#dddddd" stroke-width="1" stroke-miterlimit="10" cx="8" cy="8" rx="8" ry="8"/>
	</clipPath><ellipse class="fill-color element" fill="#e1d7cc" opacity="1" cx="8" cy="8" rx="7" ry="7" clip-path="url(#clip1cb1739ecead07c53804d852acb6b8c0)"/><ellipse class="stroke-color element" fill="none" stroke="#dddddd" stroke-width="0" stroke-miterlimit="10" cx="8" cy="8" rx="8" ry="8" clip-path="url(#clip1cb1739ecead07c53804d852acb6b8c0)"/></g><g transform="translate(374,296.00000000000006)translate(8.499999999999153,8.499999999999153)rotate(0)translate(-8.499999999999153,-8.499999999999153) scale(1,1)" opacity="1"><linearGradient class="linearGradient" x1="0%" y1="0%" x2="0%" y2="100%" gradientTransform="translate(0.5,0.5) rotate(0) translate(-0.5,-0.5)">
		<stop id="stop1" offset="0%" class="linearGradientColor1" stop-color="#05a"/>
		<stop id="stop2" offset="100%" class="linearGradientColor2" stop-color="#0a5"/>
	</linearGradient><radialGradient class="radialGradient" cx="50%" cy="50%" r="50%" fx="50%" fy="50%">
		<stop offset="0%" class="radialGradientColor1" stop-color="#05a"/>
		<stop offset="100%" class="radialGradientColor2" stop-color="#0a5"/>
	</radialGradient><clipPath id="clipa6c22fe35498635661d1b4999c4fdd99" class="clipPath">
		<ellipse fill="none" class="element" stroke="#dddddd" stroke-width="1" stroke-miterlimit="10" cx="8" cy="8" rx="8" ry="8"/>
	</clipPath><ellipse class="fill-color element" fill="#e1d7cc" opacity="1" cx="8" cy="8" rx="7" ry="7" clip-path="url(#clipa6c22fe35498635661d1b4999c4fdd99)"/><ellipse class="stroke-color element" fill="none" stroke="#dddddd" stroke-width="0" stroke-miterlimit="10" cx="8" cy="8" rx="8" ry="8" clip-path="url(#clipa6c22fe35498635661d1b4999c4fdd99)"/></g></svg>