<?xml version="1.0" encoding="UTF-8"?>
<svg id="Layer_1" data-name="Layer 1" xmlns="http://www.w3.org/2000/svg" viewBox="0 0 556 556">
  <defs>
    <style>
      .cls-1 {
        fill: none;
        stroke: #fff;
        stroke-miterlimit: 10;
        stroke-width: 10px;
      }

      .cls-2 {
        fill: #f1ba1b;
      }

      .cls-3 {
        fill: #fff;
      }
    </style>
  </defs>
  <circle class="cls-2" cx="278" cy="278" r="278"/>
  <g>
    <polygon class="cls-3" points="490.64 244.88 483.95 234.25 431.77 267.13 431.77 238.82 419.22 238.82 419.22 318.06 431.77 318.06 431.77 289.83 483.95 322.71 490.64 312.09 437.32 278.49 490.64 244.88"/>
    <path class="cls-3" d="M127.17,267.15l-52.17-32.9c-2.95-1.84-6.83-.95-8.68,2-.63,1.01-.97,2.19-.96,3.38v78.51h12.56v-67.19l49.25,31.04v36.08h12.56v-79.25h-12.56v28.33Z"/>
    <path class="cls-3" d="M340.16,235.95c-23.5,0-42.56,19.05-42.56,42.56s19.05,42.56,42.56,42.56,42.56-19.05,42.56-42.56v-.02c-.03-23.49-19.07-42.52-42.56-42.54M340.16,308.48c-16.57,0-30-13.43-30-30s13.43-30,30-30,30,13.43,30,30c-.02,16.56-13.44,29.98-30,30Z"/>
    <path class="cls-3" d="M260.86,278.49c0-23.5-19.05-42.56-42.56-42.56s-42.56,19.05-42.56,42.56,19.05,42.55,42.56,42.55h.02c23.49-.03,42.52-19.07,42.54-42.55M218.32,308.48c-16.57,0-30-13.41-30.01-29.98,0-16.57,13.41-30,29.98-30.01s30,13.41,30.01,29.98v.02c-.02,16.55-13.43,29.97-29.98,30"/>
  </g>
  <circle class="cls-1" cx="278" cy="278" r="261.4"/>
</svg>