<?xml version="1.0" encoding="UTF-8"?>
<svg id="Layer_1" data-name="Layer 1" xmlns="http://www.w3.org/2000/svg" viewBox="0 0 541.43 541.43">
  <defs>
    <style>
      .cls-1 {
        fill: #fff;
      }
    </style>
  </defs>
  <path d="M541.43,270.72c0,149.51-121.2,270.72-270.72,270.72S0,420.23,0,270.72,121.2,0,270.72,0s270.72,121.2,270.72,270.72ZM269.57,56.81c-2.45-3.42-4.37-7.21-7.32-10.29-.38-2.12,9.08-6.05,4.42-16.36-5.11-11.33-17.82-5.83-27.51-6l2,37.01h7.01s-.76-11.55-.76-11.55c12.33-9.14,11.12,16.44,23.75,8.04.33-.8-1.16-.24-1.59-.85ZM202.15,32.17l-24.99,8.01,13.46,34.75,23.54-7.78-1.52-4.99c-2.48-3.1-13.99,4.65-17.86,3.93-.91-.31-3.15-6.26-3.52-7.55-.57-1.98.31-1.1,1.28-1.47,1.99-.76,13.51-3.9,13.59-5.4l-2.54-4.55-14.42,5.05-1.92-8.91,15.88-5.15-.98-5.94ZM350.16,61.67c.96-8.06-.7-17.74,0-26l-7-2.5v38.5c1.64,1.59,4.78,3.01,6.96,2.03,5.57-2.49,17.2-21.35,23.46-25.61l1.58-3.91c-1.88.56-4.8-2.09-6.02-1.54-3.27,1.46-13.08,16.46-16.95,20.07-.98.91-1.42,1.83-3.03,1.46-.42-1.2.95-2.11,1-2.49ZM147.16,55.17l-6.65,4.48,7.65,27.52c-1.31,1.42-21.1-16.33-23.75-16.85-2.19-.43-4.55,2.05-6.23,3.35,7.95,6.27,16.21,12.76,24.66,18.32,4.6,3.02,6.78,6.25,12.11,1.98l-7.8-38.8ZM409.16,108.17l9.07-35.54c.32-2.71-3.08-5.39-5.57-5.4-3.47,0-26.71,18.5-31.49,21.45l4.64,4.41c8.64-7.68,11.07-4.41,18.85,2.02l-2.4,9.92,6.9,3.14ZM464.31,270.11c0-106.73-86.52-193.25-193.25-193.25s-193.25,86.52-193.25,193.25,86.52,193.25,193.25,193.25,193.25-86.52,193.25-193.25ZM93.91,102.41c-24.65,1.33-21.02,40.18,5.67,36.67,22.07-2.91,16.73-37.87-5.67-36.67ZM452.17,137.17c-.52-7.24,8.6-27,4.89-32.41-.62-.91-1.12-1.7-2.39-1.65l-28.5,22.07.61,1.98,4.77,3.94,17.61-13.93-6.05,27.54c.18,1.52,1.6,5.81,3.53,5.51l28.53-22.08-4.64-5.9-18.35,14.92ZM68.28,169.04c-1.08-8.64-8.11-12.35-16.39-10.64-7.73,1.59-9.89,14.25-13.7,20.19,3.79,2.34,32.38,16.59,33.89,15.5l1.67-5.94-10.57-5.47c3.55-12.27,18.03-1.59,20.99-14.5l-15.89.87ZM502.17,186.17c2.65-10.88-7.11-28.69-19.39-19.89-7.74,5.54.95,22.11-4.23,23.81-8.51,2.79-6.59-15.22-7.82-16.98-1.13-1.61-5.67-1.56-6.41.7-2.94,8.93,5.95,29.3,18.55,22.55,11.7-6.27-1.26-22.76,5.97-25.08,6.33-2.04,8.16,10.85,7.33,14.9h6.01ZM47.92,270.76c0-5.53-4.48-10.02-10.02-10.02s-10.02,4.48-10.02,10.02,4.48,10.02,10.02,10.02,10.02-4.48,10.02-10.02ZM513.04,270.77c0-5.51-4.46-9.97-9.97-9.97s-9.97,4.46-9.97,9.97,4.46,9.97,9.97,9.97,9.97-4.46,9.97-9.97ZM475.17,370.16c-.84-4.24,2.59-5.85,4.99-8.51-2.65-6.83-8.51,2.53-8.81,6.27-.37,4.59,3.4,8.42,8.1,7.08,1.97-.56,11.26-13.55,10.72-4.42-.26,4.36-5.88,6.26-5.91,7.06-.02.49.82,2.84,2.41,2.56,5.26-.95,11.22-13.49,4.48-16.51-7.98-3.57-8.74,7.42-15.97,6.47ZM52.01,369.33c.3.18,2.91,6,2.89,6.35-.1,1.37-4.52,3.02-3.73,5.97l2.48,1.51,15.36-16.31-1.33-2.7c-7.01-1.81-15.91,1.35-23.51,1.02l1.15,3.84c1.82.76,5.29-.54,6.69.32ZM476.16,403.18l-14.55-9c-1.38-1.53,5.21-7.14,1.04-8.01-1.83-.39-10.5,12.86-10.47,14.54.03,1.34.58,1.65,1.49,2.43l4.99-5.93,14.46,9.54,3.04-3.58ZM80.67,388.18l-17.41,12.67c3.25,9.99,13.87,16.99,21.9,6.81,6.15-7.78,0-12.77-4.49-19.48ZM439.3,419.04l15.5,12.04,3.34-2.41-16.48-14.48c-1.36,1.06-3.36,3.12-2.36,4.85ZM95.17,435.17l7.88-16.29-2.39-2.69c-1.07.01-9.74,17.6-10.09,18.98-.68,2.72.6,5.37,3.59,4.6l19.98-9.1-3.3-2.33-15.68,6.83ZM442.16,445.18c-5.15.14-25.49-17.47-22.54-4.02.38,1.73,7.1,17.78,8.06,18,6.01-1.56.91-4.52,1.61-7.29.22-.86,4.75-5.4,5.36-5.44,1.38-.1,7,4.91,7.51-1.25ZM137.17,454.16l.56-3-11.06-8.94-14.48,16.45c1.85,1.98,11.65,11.73,13.98,9.49,2.56-2.46-8.01-7.91-8.01-8.51l3.65-4.41,6.87,4.72,2.47-2.29-6.55-5.5c1.94-10.54,9.51,4.47,12.57,2ZM396.17,472.17c4.1,1.27,7.94,7.91,11.48,3.04l-4.5-23.04-3.98,3.44,3.98,16.56c-6.52-2.3-7.31-7.92-8-14l-3.66,2.48,1.66,5.51-6.51-3.73-2.47,2.24c4.79,4.39,10.54,5.32,8.97,13.5-2.77-1.38-14.44-14.2-16.98-8.48l11.67,9.3c3.05,1.57,7.15,6.82,10.18,2.6l-1.86-9.42ZM158.17,481.16c.07-2.91-1.61-18.99-4.5-18.98l-11.5,19.97,4,.59,6.99-10.58,2.2,16.31c.51,1.58,1.69,2.09,3.23,1.61,1.61-.5,8.74-15.1,10.44-17.6.17-1.99-1.72-2.59-3.34-2.34-.54.08-4.61,8.21-5.42,9.58-.54.9.52,1.99-2.09,1.44ZM193.21,486.2l6.47,1.67,2.47-2.21c0-.91-15.59-7.28-16.49-7.2-.57.05-2.27,1.72-2.48,2.22-.88,2.14,5.75,2.99,6.99,3.5l-6,17.99,2.51.95,6.53-16.91ZM353.16,486.67c.23,5.48-.16,11.02,0,16.5,4.52-.22,4.04-4.5,4.11-7.89l6.41-2.09c3.8,1.33,3.78,5.33,8.47,2.97l-15.02-17.54-4.83,2.22c-1,2.92.8,4.49.85,5.83ZM221.16,489.17l-3.88.11c-1.41,6.5-5.64,20.57,3.6,22.67,6.77,1.54,10.89,0,13.03-6.54.57-1.75,2.69-12.64,2.24-13.21-.11-.14-2.49-1.18-3.47-.05-3.09,3.58-.41,18.02-8.78,16.9s-2.58-14.41-2.74-19.87ZM306.16,492.17l-15.56,1.97,2.67,20.91,14.9-.89v-3.99c-4.57,1.18-16.38,2.97-10.35-4.85l7.36-.16v-3.99s-8.99.99-8.99.99l-.59-5.03,10.13-1.91.44-3.05ZM255.16,494.17v19.5c0,.38-1.81,1.27.54,2.47l3.46.04v-7.01c7.71-2.03,5.19,6.93,11.52,7.97,3.24-2.61-3.21-5.82-2.59-9.33.14-.81,7-2.95,2.96-10.03-3.1-5.43-10.82-3.21-15.88-3.61Z"/>
  <path class="cls-1" d="M464.31,270.11c0,106.73-86.52,193.25-193.25,193.25s-193.25-86.52-193.25-193.25,86.52-193.25,193.25-193.25,193.25,86.52,193.25,193.25ZM450.61,270.73c0-99.46-80.63-180.09-180.09-180.09s-180.09,80.63-180.09,180.09,80.63,180.09,180.09,180.09,180.09-80.63,180.09-180.09Z"/>
  <path class="cls-1" d="M452.17,137.17l18.35-14.92,4.64,5.9-28.53,22.08c-1.93.3-3.35-3.99-3.53-5.51l6.05-27.54-17.61,13.93-4.77-3.94-.61-1.98,28.5-22.07c1.27-.05,1.77.74,2.39,1.65,3.71,5.41-5.42,25.16-4.89,32.41Z"/>
  <path class="cls-1" d="M269.57,56.81c.44.61,1.93.05,1.59.85-12.63,8.4-11.43-17.18-23.75-8.04l.76,11.55h-7.01s-2-37.01-2-37.01c9.69.16,22.39-5.33,27.51,6,4.66,10.32-4.8,14.25-4.42,16.36,2.95,3.09,4.87,6.87,7.32,10.29ZM246.25,30.24l1.88,11.5c5.34-.19,14.22.15,12.52-7.71-1.37-6.33-9.73-5.27-14.41-3.79Z"/>
  <path class="cls-1" d="M68.28,169.04l15.89-.87c-2.96,12.91-17.44,2.23-20.99,14.5l10.57,5.47-1.67,5.94c-1.51,1.1-30.1-13.16-33.89-15.5,3.82-5.94,5.97-18.6,13.7-20.19,8.27-1.7,15.31,2,16.39,10.64ZM58.15,180.17c1.21-4.06,7.41-12.62.32-14.8-7.48-2.3-10.24,4.69-11.31,10.8l10.99,4.01Z"/>
  <path class="cls-1" d="M93.91,102.41c22.4-1.21,27.73,33.76,5.67,36.67-26.69,3.51-30.32-35.34-5.67-36.67ZM92.93,109.35c-7.52.85-11.18,8.04-8.26,14.82,5.03,11.68,23.3,11.13,22.53-2.46-.37-6.56-7.6-13.1-14.27-12.35Z"/>
  <path class="cls-1" d="M202.15,32.17l.98,5.94-15.88,5.15,1.92,8.91,14.42-5.05,2.54,4.55c-.08,1.5-11.6,4.64-13.59,5.4-.97.37-1.86-.5-1.28,1.47.37,1.29,2.61,7.24,3.52,7.55,3.87.71,15.39-7.03,17.86-3.93l1.52,4.99-23.54,7.78-13.46-34.75,24.99-8.01Z"/>
  <path class="cls-1" d="M502.17,186.17h-6.01c.83-4.05-1-16.94-7.33-14.9-7.22,2.32,5.73,18.81-5.97,25.08-12.6,6.75-21.49-13.62-18.55-22.55.74-2.26,5.29-2.31,6.41-.7,1.23,1.76-.68,19.78,7.82,16.98,5.18-1.7-3.5-18.27,4.23-23.81,12.28-8.8,22.04,9.01,19.39,19.89Z"/>
  <path class="cls-1" d="M409.16,108.17l-6.9-3.14,2.4-9.92c-7.78-6.43-10.21-9.7-18.85-2.02l-4.64-4.41c4.78-2.94,28.02-21.45,31.49-21.45,2.49,0,5.88,2.68,5.57,5.4l-9.07,35.54ZM407.15,89.16l4.01-13.99-11.99,8.51c-.39,1.52,6.51,6.5,7.98,5.48Z"/>
  <path class="cls-1" d="M350.16,61.67c-.05.38-1.42,1.29-1,2.49,1.61.37,2.04-.55,3.03-1.46,3.87-3.6,13.69-18.6,16.95-20.07,1.22-.54,4.14,2.11,6.02,1.54l-1.58,3.91c-6.26,4.27-17.89,23.12-23.46,25.61-2.18.97-5.32-.44-6.96-2.03v-38.5l7,2.5c-.7,8.26.96,17.94,0,26Z"/>
  <path class="cls-1" d="M147.16,55.17l7.8,38.8c-5.33,4.27-7.51,1.04-12.11-1.98-8.45-5.55-16.71-12.05-24.66-18.32,1.68-1.31,4.04-3.78,6.23-3.35,2.65.52,22.43,18.27,23.75,16.85l-7.65-27.52,6.65-4.48Z"/>
  <path class="cls-1" d="M396.17,472.17l1.86,9.42c-3.03,4.22-7.14-1.03-10.18-2.6l-11.67-9.3c2.54-5.71,14.21,7.1,16.98,8.48,1.57-8.19-4.18-9.11-8.97-13.5l2.47-2.24,6.51,3.73-1.66-5.51,3.66-2.48c.68,6.07,1.48,11.69,8,14l-3.98-16.56,3.98-3.44,4.5,23.04c-3.53,4.87-7.37-1.77-11.48-3.04Z"/>
  <circle class="cls-1" cx="37.9" cy="270.76" r="10.02"/>
  <circle class="cls-1" cx="503.06" cy="270.77" r="9.97"/>
  <path class="cls-1" d="M158.17,481.16c2.61.55,1.56-.53,2.09-1.44.81-1.37,4.87-9.5,5.42-9.58,1.62-.25,3.51.35,3.34,2.34-1.7,2.5-8.83,17.1-10.44,17.6s-2.72-.03-3.23-1.61l-2.2-16.31-6.99,10.58-4-.59,11.5-19.97c2.9-.02,4.58,16.06,4.5,18.98Z"/>
  <path class="cls-1" d="M80.67,388.18c4.48,6.71,10.64,11.69,4.49,19.48-8.04,10.18-18.66,3.19-21.9-6.81l17.41-12.67ZM79.67,394.35l-11.08,7.78c4,13.83,22.54,1.23,11.08-7.78Z"/>
  <path class="cls-1" d="M255.16,494.17c5.06.41,12.78-1.82,15.88,3.61,4.04,7.08-2.82,9.22-2.96,10.03-.61,3.51,5.84,6.72,2.59,9.33-6.33-1.04-3.81-10.01-11.52-7.97v7.01s-3.46-.04-3.46-.04c-2.34-1.2-.54-2.08-.54-2.47v-19.5ZM259.16,505.17l7.02-.49c4.4-5.65-1.64-7.41-7.02-6.52v7.01Z"/>
  <path class="cls-1" d="M137.17,454.16c-3.05,2.47-10.62-12.54-12.57-2l6.55,5.5-2.47,2.29-6.87-4.72-3.65,4.41c0,.6,10.57,6.05,8.01,8.51-2.33,2.23-12.12-7.52-13.98-9.49l14.48-16.45,11.06,8.94-.56,3Z"/>
  <path class="cls-1" d="M306.16,492.17l-.44,3.05-10.13,1.91.59,5.03,8.99-.99v3.99s-7.35.16-7.35.16c-6.03,7.82,5.78,6.03,10.35,4.85v3.99s-14.89.89-14.89.89l-2.67-20.91,15.56-1.97Z"/>
  <path class="cls-1" d="M475.17,370.16c7.23.95,8-10.03,15.97-6.47,6.74,3.02.78,15.56-4.48,16.51-1.6.29-2.43-2.06-2.41-2.56.03-.8,5.66-2.7,5.91-7.06.54-9.13-8.75,3.86-10.72,4.42-4.69,1.34-8.47-2.49-8.1-7.08.3-3.74,6.17-13.1,8.81-6.27-2.4,2.65-5.83,4.27-4.99,8.51Z"/>
  <path class="cls-1" d="M221.16,489.17c.16,5.45-5.93,18.71,2.74,19.87s5.69-13.31,8.78-16.9c.97-1.13,3.36-.08,3.47.05.45.57-1.66,11.46-2.24,13.21-2.15,6.54-6.26,8.08-13.03,6.54-9.24-2.1-5.01-16.17-3.6-22.67l3.88-.11Z"/>
  <path class="cls-1" d="M52.01,369.33c-1.4-.86-4.87.44-6.69-.32l-1.15-3.84c7.59.33,16.5-2.83,23.51-1.02l1.33,2.7-15.36,16.31-2.48-1.51c-.79-2.95,3.64-4.6,3.73-5.97.02-.35-2.59-6.17-2.89-6.35ZM63.16,367.17c-1.22.31-8.66.05-7.97,2.47l2.48,3.51c1.7-2.06,5.68-2.77,5.5-5.98Z"/>
  <path class="cls-1" d="M442.16,445.18c-.5,6.16-6.13,1.15-7.51,1.25-.61.05-5.14,4.58-5.36,5.44-.7,2.77,4.4,5.73-1.61,7.29-.96-.22-7.68-16.27-8.06-18-2.95-13.45,17.39,4.15,22.54,4.02ZM426.18,448.16c8.66-1.13,4.19-6.04-2.01-6.99l2.01,6.99Z"/>
  <path class="cls-1" d="M353.16,486.67c-.06-1.34-1.86-2.91-.85-5.83l4.83-2.22,15.02,17.54c-4.69,2.36-4.67-1.65-8.47-2.97l-6.41,2.09c-.07,3.39.4,7.67-4.11,7.89-.16-5.48.23-11.02,0-16.5ZM358.15,484.17l-1.99.5v7.49s5.99-2.5,5.99-2.5c-1.99-.6-3.68-5.22-4-5.49Z"/>
  <path class="cls-1" d="M95.17,435.17l15.68-6.83,3.3,2.33-19.98,9.1c-2.99.76-4.27-1.89-3.59-4.6.35-1.38,9.01-18.96,10.09-18.98l2.39,2.69-7.88,16.29Z"/>
  <path class="cls-1" d="M193.21,486.2l-6.53,16.91-2.51-.95,6-17.99c-1.24-.51-7.87-1.36-6.99-3.5.21-.5,1.91-2.17,2.48-2.22.9-.08,16.49,6.3,16.49,7.2l-2.47,2.21-6.47-1.67Z"/>
  <path class="cls-1" d="M476.16,403.18l-3.04,3.58-14.46-9.54-4.99,5.93c-.91-.79-1.46-1.1-1.49-2.43-.03-1.68,8.64-14.93,10.47-14.54,4.16.88-2.43,6.48-1.04,8.01l14.55,9Z"/>
  <path class="cls-1" d="M439.3,419.04c-1-1.73,1-3.8,2.36-4.85l16.48,14.48-3.34,2.41-15.5-12.04Z"/>
  <path d="M450.61,270.73c0,99.46-80.63,180.09-180.09,180.09s-180.09-80.63-180.09-180.09,80.63-180.09,180.09-180.09,180.09,80.63,180.09,180.09ZM433.16,258.16c-8.29-94.94-94.49-162.91-189.22-147.72-72.9,11.69-128.94,73.52-135.77,146.71l37.02-31.47,12.97,1.01,27.01-38.1,33.97,11.14,48.49-60.6,3.96-2.03,49.54,62.56,34.07-10.99,27.14,38.32,12.8-1.31,38.01,32.48ZM338.15,231.17l-68.97-80.99-66.52,80.99c-1.08-1.39.74-4.21,1.34-5.66,2.37-5.68,5.58-11.2,8.07-16.85l-22.28-11.39-44.8,60.69-2.82-.27,10.83-22.19-4.34-4.35-40.01,30.03c-5.97,75.24,45.23,146.48,117.51,166.51,107.67,29.84,211.81-53.09,207.08-164.03l-.3-1.26c-5.89-2.9-38.33-31.26-41.26-31.22-.75,0-4.82,1.83-4.56,3.43l11.03,23.08-1.48.49-46.14-59.79-22.26,10.28,9.89,22.52Z"/>
  <path d="M246.25,30.24c4.67-1.47,13.04-2.54,14.41,3.79,1.7,7.86-7.18,7.51-12.52,7.71l-1.88-11.5Z"/>
  <path d="M58.15,180.17l-10.99-4.01c1.07-6.11,3.83-13.1,11.31-10.8,7.09,2.18.89,10.75-.32,14.8Z"/>
  <path d="M92.93,109.35c6.67-.75,13.9,5.79,14.27,12.35.77,13.59-17.5,14.15-22.53,2.46-2.92-6.78.74-13.97,8.26-14.82Z"/>
  <path d="M407.15,89.16c-1.47,1.02-8.37-3.96-7.98-5.48l11.99-8.51-4.01,13.99Z"/>
  <path d="M79.67,394.35c11.46,9.01-7.08,21.62-11.08,7.78l11.08-7.78Z"/>
  <path d="M259.16,505.17v-7.01c5.38-.89,11.42.87,7.02,6.52l-7.02.49Z"/>
  <path d="M63.16,367.17c.18,3.21-3.8,3.92-5.5,5.98l-2.48-3.51c-.68-2.42,6.75-2.16,7.97-2.47Z"/>
  <path d="M426.18,448.16l-2.01-6.99c6.2.95,10.67,5.86,2.01,6.99Z"/>
  <path d="M358.15,484.17c.32.28,2.01,4.9,4,5.49l-5.98,2.5v-7.49s1.98-.5,1.98-.5Z"/>
  <path class="cls-1" d="M338.15,231.17l-9.89-22.52,22.26-10.28,46.14,59.79,1.48-.49-11.03-23.08c-.26-1.61,3.81-3.43,4.56-3.43,2.93-.04,35.37,28.32,41.26,31.22l.3,1.26c4.73,110.95-99.4,193.87-207.08,164.03-72.28-20.03-123.48-91.27-117.51-166.51l40.01-30.03,4.34,4.35-10.83,22.19,2.82.27,44.8-60.69,22.28,11.39c-2.49,5.65-5.7,11.17-8.07,16.85-.6,1.45-2.42,4.27-1.34,5.66l66.52-80.99,68.97,80.99ZM264.16,170.17l-4.05,1.44-64.94,76.06c.79,1.43,2.58.07,3.52-.48,1.97-1.16,16.55-12.9,17.48-12.01l-11.99,21.99,22.38-13.96,5.12,7.97,7.84-4.85,13.12,10.83,17.94-10.01,17.88,9.88,12.35-10.71c3.14-.61,5.75,5.9,9.35,4.85l3.58-7.99,22.43,12.98-11.99-20.99,20.99,13.99-66.5-78.99-.95,2.95,19.45,28.55c-3.23.8-7.1-4.55-9.51-5.5-3.95-1.56,1.04,4.11,1.36,4.65,3.31,5.56,6.37,11.5,9.16,17.33l-9.5-5.82c-1.8,0-5.21,8.36-7.47,6.81l-10.53-18-12.99,17.99-6.05-6.04-9.44,5.05,12.99-21.5c-.72-1.44-2.44.2-3.35.65s-10.36,7.32-8.64,3.36l20.99-30.51ZM197.15,229.16l7.99-20.51-14.97-6.05-29,42.55c.78.81,6.64-5.2,7.48-6.01,4.53-4.39,8.83-9.26,13.03-13.98,2.07-.57,1.99,3.45,2.2,4.78.32,2.08.42,4.11.29,6.21l2.23-1.27,3.78-9.72,6.98,4ZM379.15,245.17l-28.46-42.1c-2.81-1.91-12.09,3.32-15.1,5.08l9.09,21.03,5.46-4c1.38,2.75,2.56,5.85,3.92,8.57.54,1.07-.51,1.88,2.09,1.42-.07-2.87-.15-5.89.89-8.63.41-1.07-.48-1.69,1.6-1.36l20.5,19.99ZM129.17,266.16c2.08.47,2.28-1.09,3.22-2.27,2.33-2.92,13.38-18.33,14.23-20.76s1.36-5.2-.95-6.94l-19.49,15.49,4.9,3.13-1.9,11.35ZM414.16,253.16c.37-1.55-.24-1.6-1.07-2.42-2.41-2.41-7.65-6.22-10.6-8.4-1.19-.88-7.64-5.66-8.32-5.16l-.53,5.97,17.04,23.02c2.67.19.99-.44.7-1.7-.41-1.75-2.73-9.49-2.19-10.24l4.97-1.05ZM228.97,290.38c-1.67-1-24.87-1.24-27.18,2.72-6.46-5.8-17.42-4.11-20.35,4.84-2.87,8.81-3.88,24.38-7.17,31.85-.89,2.02-2.91,2.24-3.13,3.08-1.76,6.9,1.75,21.63.06,28.63-.31,1.27-5.85,1.19-6.52,6.52-1.75,14.01,20.08,11.07,28.47,11.15-.63,14.53,16.94,22.81,27.66,12.64,4.19-3.97,3.22-8.58,5.98-12.52l77.93.81c.98,22.17,32.26,21.02,32.44-.93.94-.99,22.9.81,27.29-.21,1.64-.38,2.56-1.77,3.77-2.23,3.41-1.27,6.28-.38,8.18-4.84,2.89-6.78-3.63-6.93-4.26-10.22-1.62-8.42,5.21-20.46-2.49-26.51-13.27-10.43-17.55-25.57-27.67-38.33-5.32-6.71-10.88-7.79-19.36-6.76-2.36.29-1.85,2.71-2.97,3.07-3.1.99-2.9-2.69-4.19-3.01-2.02-.5-17.25-.39-19.86-.03-3.29.44-4.27,3.11-5.94,3.11-1.79,0-2.68-2.58-5.02-3.03-2.87-.56-15.91-.49-19.04-.07s-3.37,2.18-5.95,3.12c-2.04.36-1.96-2.78-3.19-3.09-5.11-1.29-15.08,1.06-20.84-.06l-3.97,3.1c-1.94.51-1.99-2.38-2.69-2.8Z"/>
  <path class="cls-1" d="M433.16,258.16l-38.01-32.48-12.8,1.31-27.14-38.32-34.07,10.99-49.54-62.56-3.96,2.03-48.49,60.6-33.97-11.14-27.01,38.1-12.97-1.01-37.02,31.47c6.83-73.19,62.88-135.03,135.77-146.71,94.73-15.19,180.93,52.78,189.22,147.72Z"/>
  <path d="M264.16,170.17l-20.99,30.51c-1.72,3.96,7.71-2.89,8.64-3.36s2.63-2.09,3.35-.65l-12.99,21.5,9.44-5.05,6.05,6.04,12.99-17.99,10.53,18c2.26,1.54,5.67-6.82,7.47-6.81l9.5,5.82c-2.79-5.84-5.85-11.78-9.16-17.33-.32-.54-5.31-6.21-1.36-4.65,2.41.95,6.28,6.3,9.51,5.5l-19.45-28.55.95-2.95,66.5,78.99-20.99-13.99,11.99,20.99-22.43-12.98-3.58,7.99c-3.6,1.05-6.2-5.46-9.35-4.85l-12.35,10.71-17.88-9.88-17.94,10.01-13.12-10.83-7.84,4.85-5.12-7.97-22.38,13.96,11.99-21.99c-.92-.89-15.51,10.86-17.48,12.01-.94.55-2.73,1.92-3.52.48l64.94-76.06,4.05-1.44Z"/>
  <path d="M197.15,229.16l-6.98-4-3.78,9.72-2.23,1.27c.13-2.09.03-4.13-.29-6.21-.21-1.33-.13-5.35-2.2-4.78-4.2,4.72-8.5,9.59-13.03,13.98-.84.81-6.69,6.82-7.48,6.01l29-42.55,14.97,6.05-7.99,20.51Z"/>
  <path d="M379.15,245.17l-20.5-19.99c-2.08-.33-1.19.29-1.6,1.36-1.04,2.73-.96,5.76-.89,8.63-2.6.47-1.55-.35-2.09-1.42-1.36-2.72-2.54-5.83-3.92-8.57l-5.46,4-9.09-21.03c3.01-1.75,12.3-6.99,15.1-5.08l28.46,42.1Z"/>
  <path d="M129.17,266.16l1.9-11.35-4.9-3.13,19.49-15.49c2.32,1.73,1.76,4.62.95,6.94-.85,2.44-11.9,17.84-14.23,20.76-.94,1.18-1.14,2.74-3.22,2.27Z"/>
  <path d="M414.16,253.16l-4.97,1.05c-.54.75,1.78,8.49,2.19,10.24.29,1.26,1.97,1.89-.7,1.7l-17.04-23.02.53-5.97c.68-.5,7.14,4.28,8.32,5.16,2.95,2.18,8.18,6,10.6,8.4.82.82,1.44.87,1.07,2.42Z"/>
  <g>
    <path d="M228.97,290.38c.71.42.76,3.32,2.69,2.8l3.97-3.1c5.76,1.12,15.73-1.24,20.84.06,1.23.31,1.15,3.45,3.19,3.09,2.58-.95,2.76-2.7,5.95-3.12s16.17-.49,19.04.07c2.33.46,3.23,3.03,5.02,3.03,1.68,0,2.66-2.66,5.94-3.11,2.61-.35,17.84-.47,19.86.03,1.29.32,1.09,4.01,4.19,3.01,1.13-.36.61-2.78,2.97-3.07,8.48-1.04,14.04.05,19.36,6.76,10.12,12.76,14.4,27.9,27.67,38.33,7.7,6.05.87,18.09,2.49,26.51.63,3.29,7.15,3.44,4.26,10.22-1.9,4.47-4.77,3.57-8.18,4.84-1.22.45-2.13,1.84-3.77,2.23-4.39,1.02-26.35-.78-27.29.21-.18,21.95-31.47,23.1-32.44.93l-77.93-.81c-2.76,3.94-1.79,8.55-5.98,12.52-10.72,10.17-28.29,1.88-27.66-12.64-8.39-.08-30.22,2.86-28.47-11.15.67-5.33,6.21-5.25,6.52-6.52,1.7-6.99-1.82-21.72-.06-28.63.21-.84,2.24-1.06,3.13-3.08,3.29-7.47,4.29-23.04,7.17-31.85,2.92-8.95,13.89-10.64,20.35-4.84,2.31-3.97,25.51-3.73,27.18-2.72ZM205.66,331.17h37c3.36-3.72,3.35-15.76,2.47-20.47-.66-3.51-3.34-4.29-6.41-4.59-6.56-.63-23.81-.83-30.11.01-9.02,1.21-5.75,24.2-2.95,25.05ZM250.66,331.17h53c4.03-2.54,3.02-22.55.86-24.09-1.85-.92-3.82-.84-5.82-.96-12.44-.72-31.84-1.02-44.08,0-4.73.4-5.93.5-6.46,5.52-.37,3.55-1.05,18.52,2.5,19.52ZM332.66,306.17c-5.06-.92-15.23,0-21,0-.18,0-2.5,2.32-2.5,2.5v20c0,.33,1.32,1.52,1,2.5h23.5c3.41,0,2.8-15.49,2.54-18.54-.22-2.62-.38-5.88-3.54-6.46ZM339.16,331.17h16.5c3.82,0-1.84-8.92-2.67-10.33-2.08-3.52-9-15.45-13.22-14.74-2.79,2.74-1.77,24.32-.61,25.07ZM305,335.31l-8.9.29-.94,4.56,10.04-.46c1.58-.73.29-4.08-.2-4.39ZM319.17,340.16l-1.64-4.85h-6.72l-1.64,4.85h10.01ZM217.85,380.43c0-4.67-3.78-8.45-8.45-8.45s-8.45,3.78-8.45,8.45,3.78,8.45,8.45,8.45,8.45-3.78,8.45-8.45ZM329.16,380.44c0-4.65-3.77-8.41-8.41-8.41s-8.41,3.77-8.41,8.41,3.77,8.41,8.41,8.41,8.41-3.77,8.41-8.41Z"/>
    <path class="cls-1" d="M250.66,331.17c-3.55-1-2.87-15.96-2.5-19.52.53-5.02,1.72-5.13,6.46-5.52,12.24-1.03,31.65-.72,44.08,0,2,.12,3.97.04,5.82.96,2.16,1.54,3.17,21.54-.86,24.09h-53Z"/>
    <path class="cls-1" d="M205.66,331.17c-2.8-.85-6.07-23.84,2.95-25.05,6.3-.84,23.55-.65,30.11-.01,3.07.3,5.76,1.07,6.41,4.59.88,4.72.89,16.75-2.47,20.47h-37Z"/>
    <path class="cls-1" d="M332.66,306.17c3.16.57,3.32,3.84,3.54,6.46.26,3.05.87,18.54-2.54,18.54h-23.5c.32-.98-1-2.17-1-2.5v-20c0-.18,2.32-2.5,2.5-2.5,5.77,0,15.94-.92,21,0Z"/>
    <path class="cls-1" d="M339.16,331.17c-1.17-.74-2.18-22.33.61-25.07,4.23-.71,11.14,11.22,13.22,14.74.83,1.41,6.49,10.33,2.67,10.33h-16.5Z"/>
    <circle class="cls-1" cx="209.4" cy="380.43" r="8.45"/>
    <circle class="cls-1" cx="320.75" cy="380.44" r="8.41"/>
    <path class="cls-1" d="M305,335.31c.49.3,1.78,3.66.2,4.39l-10.04.46.94-4.56,8.9-.29Z"/>
    <polygon class="cls-1" points="319.17 340.16 309.16 340.16 310.8 335.31 317.53 335.31 319.17 340.16"/>
  </g>
</svg>