<svg xmlns="http://www.w3.org/2000/svg" id="Layer_1" data-name="Layer 1" viewBox="0 0 1023.02 584.04">
  <defs>
    <style>
      .cls-1 {
        fill: #100d04;
      }

      .cls-2 {
        fill: #e5a631;
      }

      .cls-3 {
        fill: #ce2827;
      }

      .cls-4 {
        fill: #353b17;
      }

      .cls-5 {
        fill: #586126;
      }

      .cls-6 {
        fill: #e6a631;
      }

      .cls-7 {
        fill: #0f0c04;
      }

      .cls-8 {
        fill: #343a17;
      }

      .cls-9 {
        fill: #130f05;
      }

      .cls-10 {
        fill: #e3a430;
      }

      .cls-11 {
        fill: #536d78;
      }

      .cls-12 {
        fill: #576026;
      }

      .cls-13 {
        fill: #91a03e;
      }

      .cls-14 {
        fill: #d96627;
      }

      .cls-15 {
        fill: #e4a530;
      }
    </style>
  </defs>
  <path d="M999.02 0c2.05 2.3 5.29 2.01 8.04 3.45 8.53 4.45 13.69 12.91 15.85 22.1.21 36.4.01 72.83.08 109.23l-181.19-.13c-44.08-6.16-79.29-38.88-124.02-42.79H370.63c-2.18-2.89-13.92-13.91-17.51-16.95C307.5 36.3 234.71 43.8 198.8 91.85H0V24.96C3.67 12.7 11.59 3.78 23.98 0h975.05ZM1023 339.42h-1c.08-25.28 0-50.6 0-75.87h1c.02 25.27.02 50.6 0 75.87Z" class="cls-11"/>
  <path d="M370.64 91.84c5.61 7.38 17.11 33.56 18.98 42.93 1.61 8.06 1.32 22.01 1.05 30.5-.13 4.17-1.66 8.18-1.05 12.44h14.99c-8.04 4.42-17.55 10.95-25.29 16.15-6.7 4.5-19.03 16.41-26.3 16.73-11.11.49-23.34-17.56-34.32-21.9-.11-1.69-.89-3.32-.58-5.05.12-.7 4.31-8.52 4.74-8.78.98-.6 3.34.24 3.77-.19.31-.31-.14-2.29.24-3.25.78-1.96 3.89-1.16 2.81-4.67-6.76-.18-30.86-4.73-34.99-.51-1.3 1.32-.65 2.42-.97 3.49-2.2 7.4 2.07 17.21 1.57 17.98-.75 1.17-15.7 10.55-18.44 12.57-18.53 13.65-38.09 27.56-56.05 41.32-7.66-5.57-14.72-12.38-20.41-20.04l-2.09-.91-198.29-.02V178.7l1-1h178.83c-2.45-14.18-2.76-28.76 0-42.93 2.44-12.53 11.34-32.7 18.98-42.93 35.91-48.05 108.7-55.55 154.32-16.94 3.6 3.05 15.33 14.07 17.51 16.94Z" class="cls-6"/>
  <path d="M198.81 91.84c-7.65 10.23-16.54 30.39-18.98 42.93H0V91.84h198.81Z" class="cls-3"/>
  <path d="M179.82 134.77c-2.76 14.17-2.44 28.75 0 42.92H0v-42.93h179.82Z" class="cls-14"/>
  <path d="M0 178.69v-.99h1l-1 .99z" class="cls-10"/>
  <path d="M1022 220.62v42.93c-58.14-3.15-120.73 4.19-178.36.04-10.49-.76-20.35-4.56-30.43-7.03-16.45-17.46-34.73-33.67-51.9-50.47-1.14-.42-2.32-.57-3.53-.51-6.47.31-21.13 11.76-27.49 15.04-4.8-.77-8.37-4.73-13.58-4.89-4.42-.14-10.57 2.69-14.39 4.89h-65.94c-8.58-5.1-43.21-22.73-51.48-23.01-10.12-.35-28.25 15.47-35.93 22.05-.85.73-2.23.73-2.5.96h-37.96c-16.92-13.91-31.41-29.19-47.95-42.93H718.8c43.55 2.82 81.35 39.06 124.02 42.8 57.27 5.01 121.24-3.49 179.2.13Z" class="cls-2"/>
  <path d="M1023 134.77c.03 14.29-.02 28.63 0 42.93l-180.2-.13c-44.23-5.69-79.42-38.41-124.02-42.79H389.61c-1.88-9.38-13.37-35.55-18.98-42.94h347.15c44.73 3.92 79.94 36.64 124.02 42.8l181.19.13Z" class="cls-3"/>
  <path d="M1023 177.7c.02 14.29-.01 28.63 0 42.93h-1c-57.95-3.62-121.93 4.89-179.2-.13-42.67-3.74-80.47-39.97-124.02-42.79H460.54c-3.79-3.16-13.51-11.39-17.41-13.06-2.02-.86-2.85-1-5.07-1.01-5.9-.04-27.21 10.62-33.47 14.06H389.6c-.61-4.25.92-8.26 1.05-12.43.27-8.48.57-22.43-1.05-30.5h329.17c44.6 4.39 79.79 37.1 124.02 42.8l180.2.13Z" class="cls-14"/>
  <path d="M220.78 241.59c-.13.1-.28 2.19-1.41 3.04-18.47 14.05-20.79 16.31-45.06 18.91-5.73.61-21.38.11-25.21 1.76-8.8 3.78-20.79 21.08-31.19 23.73-9.77 2.49-15.34-2.58-24.05-2.07l-58.91 37.97c-11.74 1.38-25.17 6.18-33.96-3.48-.32-.35-.65-.68-1-1v-99.83l198.29.02 2.09.91c5.69 7.66 12.75 14.47 20.41 20.04Z" class="cls-11"/>
  <path d="M1 321.45H0v-1c.35.31.68.65 1 1Z" class="cls-4"/>
  <path d="M1022 263.55c0 25.28.08 50.6 0 75.87v1c-2.3 2.99-3.5 4.54-7.47 5.01-7.09.84-32.27.73-38.17-1.83l-81.93-57.91-39.01 11.58c-6.03 1.63-10.03-3.87-13.75-7.75-9.93-10.39-18.6-22.49-28.46-32.96 10.08 2.47 19.94 6.27 30.43 7.03 57.63 4.15 120.23-3.19 178.36-.04ZM702.31 220.62c-5.21 3.01-29.67 23.66-31.65 23.82l-34.29-23.82h65.94ZM546.47 220.62c-6.05 5.22-11.96 11.57-17.98 16.97-5.08-4.45-10.71-8.26-15.99-12.47-1.62-1.29-2.87-3.58-3.99-4.5h37.96Z" class="cls-11"/>
  <path d="M293.71 169.71c.32-1.07-.33-2.17.97-3.49 4.14-4.21 28.24.33 34.99.51 1.08 3.51-2.04 2.71-2.81 4.67-.38.97.07 2.95-.24 3.25-.44.44-2.8-.41-3.77.19-.43.26-4.62 8.09-4.74 8.78-.31 1.73.47 3.36.58 5.05-1.19-.47-3.19-2.1-4.68-3.28-.59-.47-.23-1.65-.32-1.71l1-4.99c-6.56 2.02-18.25-3.09-14.98 6.98.16.5-.11 1.38 0 2-.28.18 1.3.66-2 2-2.53-5.89.8-14.93-4-19.97Z" class="cls-7"/>
  <path d="M1023 263.55h-1v-42.93h1c.01 14.29-.01 28.63 0 42.93Z" class="cls-10"/>
  <path d="m636.38 220.62 34.29 23.82c1.97-.16 26.43-20.81 31.65-23.82 3.83-2.21 9.97-5.03 14.39-4.89 5.21.16 8.78 4.13 13.58 4.89.88 1.93 1.92 2.73 4 2.99.53.07 1.53.1 2 0 .93 3.21 5.89 5.84 8.68 7.8 4.4 3.09 11.49 8.43 16.3 10.17.48.18.89.89 2 1-.15 2.25 1.55 2.57 2.85 3.64 20.7 16.9 43.43 31.53 63.16 49.7 6.64 1.54 13.64 2.87 20.41 3.56 13.27 1.35 25.94-1.79 36.93 6.02 7.89 5.6 15.79 14.36 23.53 20.5 9.67-2.36 14.31-6.93 24.63-2.74 19.61 7.97 40.68 28.93 59.99 38.88 9.51 1.4 20.12-2.89 27.22 5.23.04-8.97-.02-17.98 0-26.95v-1h1c-.06 72.36.05 144.75 0 217.12-1.62 13.43-11.33 24.53-24.73 27.2l-970.83.3c-14.04-1.57-23.61-11.96-27.43-25v-172.7c2.9-.2 5.72-4.99 8.49-4.99h29.97c25.48-16.32 49.6-37.85 75.11-53.72 4.11-2.55 8.86-5.77 13.81-6.19 11.19-.94 25.48 8.31 36.22 9.8 1.47.2 2.83.55 4.22-.3 21.89-24.15 43.17-50.59 67.43-72.41 8.63-7.76 23.88-22.59 35.89-17.84 20.65 8.16 43.65 27.76 63.99 37.89 12.41 2.89 27.17-.85 39.56 1.4 18.25 3.32 33.27 32.51 56.95 28.04 14.45-2.73 56.48-34 69.36-44.5 10.06-8.2 18.22-17.59 27.5-25.93 6.02-5.4 11.94-11.76 17.98-16.97.27-.23 1.65-.23 2.5-.96 7.69-6.58 25.81-22.4 35.93-22.05 8.27.28 42.9 17.91 51.48 23.01Zm-63.22-13.74c-10.42 2.16-35.53 34.7-44.17 43.71-7.92 8.26-18.08 17.77-26.99 24.94-7.35 5.92-21.43 11-23.23 21.7-2.28 13.55 9.18 26.4 22.36 28.09 11.4 1.46 19.41 1.18 30.88 5.08 20.74 7.06 40.82 33.26 62.8 30.87 12.31-1.34 17.22-11.79 10.8-22.55-6.67-11.19-14.68-11.32-11.96-28.5 1.88-11.82 17.95-16.67 17.7-24.1-.32-9.39-14.69-12.03-14.94-13.1 1.99-4.63 7.6-6.8 9.22-11.73 4.23-12.87-4.4-15.05-9.08-24.33-5.69-11.28-5.47-33.78-23.4-30.07Zm142.78 15.82c-10.88 12.05-31.66 23.02-37.78 38.18-4.26 10.56-8.12 34.52-8.8 46.11-.69 11.64.55 13.86 13 12.99 5.17-12.3 12.88-21.22 13.95-34.97.45-5.82-1.13-15.53.46-20.51 1.78-5.6 17.5-19.79 21.53-25.41s3.68-12.51-2.36-16.39Zm-464.48 28.08c-2.95.68-13.53 11.78-16.21 14.75-12.44 13.78-26.93 31.73-38.42 46.46-5.92 7.59-11.06 10.28-7.5 20.42 2.24 6.35 24.47 38.98 29.52 42.38 6.09 4.11 10.51 2.57 15.94-1.91s13.14-16.48 18.45-22.5c7.46-8.47 15.04-13.64 21.01-23.93 2.78-4.78 10.47-20.53 9.25-25.22-1.42-5.43-12.7-10.33-15.94-19.04-3.28-8.79-.97-34.91-16.09-31.42Zm472.49-.12c-3.7 1.05-2.82 12.08-2.4 15.12 1.37 9.97 9.4 20.78 17.6 26.34 3.09 2.09 10.78 4.59 12.11 5.87 3.84 3.7 4.25 12.79 12.66 18.3 6.22 4.07 29.25 8.09 23.82-2.84-.94-1.89-12.54-8.15-15.49-11.47-4.33-4.88-3.86-11.61-6.96-15-3.97-4.34-18.83-5.3-25.06-11.89-3.43-3.63-9.06-26.47-16.27-24.42Zm-430.53 39.06c-2.15.49-5.21 2.5-4.56 5.03 10 13.63 17.91 39.81 33.59 47.39 8.6 4.16 16.76 4.4 25.54 10.42 12.11 8.3 18.59 23.22 33.64 27.28 5.82 1.57 13.68 2.66 14.83-5.24.69-4.74-5.18-3.93-8.23-5.36-15.76-7.4-13.72-21.65-26.09-30.83-10.39-7.72-31.58-8.26-38.29-17.64-7.87-11-11.44-35.35-30.43-31.06Zm546.91 84.98c0-11.81-9.58-21.39-21.41-21.39s-21.41 9.58-21.41 21.39 9.58 21.39 21.41 21.39 21.41-9.58 21.41-21.39Zm151.87 12.4c0-14.75-11.96-26.7-26.72-26.7s-26.72 11.96-26.72 26.7 11.96 26.7 26.72 26.7 26.72-11.96 26.72-26.7ZM638.38 531.09V364.87c0-.11-1.39-1.5-1.5-1.5h-34.97c-.11 0-1.5 1.39-1.5 1.5v46.42c-51.84-33.04-117.95 20.62-97.38 78.84 13.47 38.14 67.2 61.39 99.37 30.97.39 1.17-.49 9.98 0 9.98h35.96Zm254.75-126.78v-39.43c0-.11-1.39-1.5-1.5-1.5h-36.46v114.3c0 25.23 32.08 57.4 57.44 57.4h14.49v-33.44c-3.56-2.32-8.25-1.44-12.96-3.02-7.97-2.68-21.01-15.28-21.01-23.93v-37.44h33.97V405.8c0-.11-1.39-1.5-1.5-1.5h-32.47ZM343.66 531.09v-71.38c0-17.03-18.81-40.45-33.05-48.84-52.45-30.9-120.12 15.14-103.33 75.3 9.23 33.08 50.48 58.47 83.69 45.67 7.16-2.76 11.11-7.65 17.72-10.74.38 1.16-.49 9.98 0 9.98h34.97Zm146.86 0c-2.65-35.53 8.87-77.85-15.96-107.34-25.96-30.84-76.38-30.12-101.34 1.61-22.6 28.72-12.12 71.76-14.57 105.74h37.96v-69.38c0-1.3 3.81-11.54 4.79-13.19 11.22-18.91 39.43-16.83 48.03 3.34.57 1.33 3.13 9.13 3.13 9.85v69.38h37.96Zm296.72-63.03c0-37.7-30.58-68.26-68.31-68.26s-68.31 30.56-68.31 68.26 30.58 68.26 68.31 68.26 68.31-30.56 68.31-68.26ZM106.4 404.31H67.94l57.08 126.65 29.38.21 59.4-126.86h-39.46l-33.97 74.88c-5.13-8.02-30.01-73.77-33.97-74.88Zm693.82 0v126.78h37.96V404.31h-37.96Z" class="cls-4"/>
  <path d="M460.55 177.7c16.54 13.74 31.04 29.01 47.95 42.93 1.12.92 2.36 3.21 3.99 4.5 5.28 4.2 10.91 8.02 15.99 12.47-9.29 8.34-17.45 17.73-27.5 25.93-12.88 10.49-54.9 41.77-69.36 44.5-23.67 4.47-38.69-24.72-56.95-28.04-12.39-2.25-27.14 1.49-39.56-1.4-20.34-10.12-43.34-29.73-63.99-37.89-12.01-4.74-27.26 10.08-35.89 17.84-24.25 21.81-45.54 48.25-67.43 72.41-1.38.85-2.75.5-4.22.3-10.74-1.48-25.03-10.73-36.22-9.8-4.95.41-9.7 3.63-13.81 6.19-25.51 15.87-49.63 37.41-75.11 53.72H8.49c-2.78 0-5.59 4.79-8.49 4.99v-64.89h1c8.79 9.67 22.22 4.87 33.96 3.48l58.91-37.97c8.71-.51 14.28 4.56 24.05 2.07 10.41-2.65 22.4-19.96 31.19-23.73 3.83-1.65 19.49-1.14 25.21-1.76 24.27-2.6 26.58-4.87 45.06-18.91 1.13-.86 1.27-2.94 1.41-3.04 17.96-13.76 37.52-27.67 56.05-41.32 2.75-2.02 17.69-11.4 18.44-12.57.5-.78-3.76-10.58-1.57-17.98 4.8 5.03 1.47 14.08 4 19.97-9.95 4.01-41.62 27.94-47.39 37-2.32 3.65-6.36 10.77-.54 13.39 4.76 2.14 8.36-2.11 13.42-2.52 10.75-.88 13.33 7.7 22.57-1.4 1.49-1.47 11.85-15.25 12.43-16.53 1.2-2.65-.03-5.6.72-8.27.48-1.69 2.95-3 3.56-6.43.51-2.84-.28-6.08.44-8.55s7.34-6.45 5.79-11.68c-.6-.59-7.9 2.27-8.99 2.99-.11-.62.16-1.49 0-2 2.94-3.16 10.53-4.23 13.99-2 .09.06-.28 1.24.32 1.71 1.49 1.18 3.49 2.81 4.68 3.28 10.99 4.35 23.22 22.39 34.32 21.9 7.27-.32 19.6-12.23 26.3-16.73 7.74-5.2 17.25-11.73 25.29-16.16 6.26-3.44 27.57-14.1 33.47-14.06 2.21.01 3.05.15 5.07 1.01 3.9 1.67 13.62 9.91 17.41 13.05Zm-25.26 23.68c3.19-3.93 2-17.83 2.29-23.18.24-4.38 5.04-13.11-4.26-11.28-8.19 1.61-36.58 18.83-44.63 24.33-20.69 14.16-2.2 27.84-5.32 46.6-1.99 11.94-22.87 18.04-14.59 32.03 2.41 4.08 14.84 13.03 19.42 13.6 9.54 1.18 10.88-8.72 14.56-14.28 1.72-2.59 4.57-4.17 6.03-6.95 2.19-4.19 2.25-9.22 4.97-14.01 6.01-10.58 15.16-11.38 13.8-26.12-.64-6.97-4.97-10.16 1.47-16.51 1.74-1.71 5.43-3.22 6.25-4.23Zm-118.84-10.55c-2.37.25-9.23 3.66-10.23 5.84-2.25 4.92 2.29 7.94 3.24 12.7 2.1 10.53-.29 21.05 8.34 29.61 2.2 2.18 5.87 3.62 7.9 6.08 3.3 4 3.52 10.05 6.54 14.42 2.26 3.26 5.68 4.54 7.98 7 4.02 4.32 5.08 12.53 14.2 8.3 7.63-3.54-.78-11.02-2.25-15.24-4.43-12.71.12-22.01-12.49-32.45-2.96-2.45-10-5.32-11.45-7.53-2.5-3.81-1.09-9.07-1.66-13.31s-5.39-15.93-10.12-15.42Z" class="cls-5"/>
  <path d="M573.16 206.88c17.93-3.71 17.71 18.8 23.4 30.07 4.68 9.28 13.3 11.47 9.08 24.33-1.62 4.94-7.22 7.11-9.22 11.73.24 1.07 14.61 3.7 14.94 13.1.26 7.43-15.82 12.27-17.7 24.1-2.73 17.19 5.28 17.31 11.96 28.5 6.42 10.76 1.51 21.22-10.8 22.55-21.98 2.39-42.05-23.81-62.8-30.87-11.47-3.9-19.48-3.62-30.88-5.08-13.18-1.69-24.64-14.54-22.36-28.09 1.8-10.7 15.88-15.78 23.23-21.7 8.91-7.17 19.06-16.68 26.99-24.94 8.64-9 33.74-41.55 44.17-43.71ZM251.46 250.78c15.12-3.49 12.81 22.63 16.09 31.42 3.25 8.71 14.52 13.61 15.94 19.04 1.23 4.7-6.47 20.44-9.25 25.22-5.97 10.29-13.55 15.46-21.01 23.93-5.31 6.02-13.18 18.15-18.45 22.5s-9.84 6.01-15.94 1.91c-5.05-3.4-27.28-36.03-29.52-42.38-3.57-10.14 1.57-12.83 7.5-20.42 11.5-14.73 25.99-32.68 38.42-46.46 2.68-2.97 13.26-14.07 16.21-14.75Z" class="cls-12"/>
  <path d="M730.29 220.62c6.36-3.28 21.02-14.74 27.49-15.04 1.21-.06 2.39.09 3.53.51 17.17 16.8 35.45 33.01 51.9 50.47 9.86 10.46 18.52 22.57 28.46 32.96 3.71 3.88 7.71 9.38 13.75 7.75l39.01-11.58 81.93 57.91c5.9 2.55 31.08 2.67 38.17 1.83 3.97-.47 5.17-2.02 7.47-5.01-.03 8.97.03 17.98 0 26.95-7.1-8.12-17.71-3.84-27.22-5.23-19.32-9.95-40.39-30.91-59.99-38.88-10.32-4.2-14.96.37-24.63 2.74-7.74-6.14-15.64-14.9-23.53-20.5-10.99-7.81-23.66-4.67-36.93-6.02-6.77-.69-13.78-2.02-20.41-3.56-19.73-18.17-42.45-32.79-63.16-49.7-1.3-1.06-3.01-1.39-2.85-3.64 6.77.66 13.49-2.81 12.95-10.36-.71-10.01-7.92-6.69-11.4-11.64-1.6-2.28-4.92-20.19-8.78-11.68-2.74 6.03 2.81 15.29 3.98 21.47.7 3.68-.29 7.62 1.26 11.22-4.81-1.74-11.9-7.08-16.3-10.17-2.79-1.96-7.74-4.6-8.68-7.8.67-.15 1.96-1.5 3.69-1.77 2.67-.42 5.47.19 7.78-.24 4.84-.9 7.73-11.16 2.02-10.98-.76.02-.55 2.39-1.44 3.55-3.1 4.03-14.16.76-14.05 9.44-2.08-.27-3.12-1.07-4-2.99Z" class="cls-5"/>
  <path d="M293.42 289.72c18.99-4.29 22.55 20.07 30.43 31.06 6.71 9.37 27.91 9.92 38.29 17.64 12.37 9.18 10.33 23.43 26.09 30.83 3.05 1.43 8.92.61 8.23 5.36-1.15 7.89-9.01 6.81-14.83 5.24-15.05-4.06-21.52-18.98-33.64-27.28-8.78-6.02-16.94-6.26-25.54-10.42-15.68-7.59-23.59-33.76-33.59-47.39-.65-2.53 2.41-4.55 4.56-5.03ZM715.94 222.7c6.04 3.88 6.43 10.71 2.36 16.39s-19.75 19.8-21.53 25.41c-1.58 4.97 0 14.69-.46 20.51-1.07 13.75-8.79 22.67-13.95 34.97-12.44.87-13.68-1.35-13-12.99.69-11.59 4.54-35.56 8.8-46.11 6.12-15.16 26.89-26.13 37.78-38.18ZM723.95 250.66c7.21-2.05 12.84 20.79 16.27 24.42 6.23 6.6 21.09 7.55 25.06 11.89 3.1 3.39 2.63 10.12 6.96 15 2.95 3.33 14.55 9.58 15.49 11.47 5.43 10.93-17.6 6.91-23.82 2.84-8.41-5.51-8.83-14.59-12.66-18.3-1.33-1.28-9.02-3.77-12.11-5.87-8.2-5.56-16.22-16.37-17.6-26.34-.42-3.04-1.31-14.07 2.4-15.12Z" class="cls-12"/>
  <path d="M992.2 387.1c0 14.75-11.96 26.7-26.72 26.7s-26.72-11.96-26.72-26.7 11.96-26.7 26.72-26.7 26.72 11.96 26.72 26.7Zm-5.27.1c0-11.82-9.59-21.39-21.41-21.39s-21.41 9.58-21.41 21.39 9.59 21.39 21.41 21.39 21.41-9.58 21.41-21.39Z" class="cls-10"/>
  <path d="M840.33 374.7c0 11.81-9.58 21.39-21.41 21.39s-21.41-9.58-21.41-21.39 9.58-21.39 21.41-21.39 21.41 9.58 21.41 21.39Zm-3.37 0c0-9.94-8.07-18.01-18.02-18.01s-18.02 8.06-18.02 18.01 8.07 18.01 18.02 18.01 18.02-8.06 18.02-18.01Z" class="cls-1"/>
  <path d="M763.25 242.59c-1.11-.11-1.51-.82-2-1-1.55-3.61-.56-7.54-1.26-11.22-1.17-6.17-6.72-15.44-3.98-21.47 3.86-8.5 7.18 9.41 8.78 11.68 3.48 4.96 10.69 1.63 11.4 11.64.54 7.56-6.17 11.02-12.95 10.36ZM736.28 223.62c-.47.1-1.46.07-2 0-.11-8.68 10.95-5.41 14.05-9.44.89-1.16.69-3.52 1.44-3.55 5.7-.18 2.81 10.07-2.02 10.98-2.31.43-5.11-.18-7.78.24-1.73.28-3.02 1.62-3.69 1.77ZM435.29 201.38c-.82 1.01-4.51 2.51-6.25 4.23-6.44 6.35-2.12 9.54-1.47 16.51 1.36 14.74-7.79 15.54-13.8 26.12-2.72 4.78-2.77 9.82-4.97 14.01-1.46 2.78-4.31 4.36-6.03 6.95-3.68 5.56-5.02 15.46-14.56 14.28-4.59-.57-17.01-9.52-19.42-13.6-8.27-13.99 12.6-20.09 14.59-32.03 3.12-18.76-15.37-32.44 5.32-46.6 8.04-5.5 36.44-22.72 44.63-24.33 9.3-1.83 4.49 6.91 4.26 11.28-.29 5.35.9 19.25-2.29 23.18ZM316.45 190.83c4.73-.51 9.55 11.22 10.12 15.42s-.84 9.5 1.66 13.31c1.44 2.2 8.49 5.08 11.45 7.53 12.61 10.44 8.05 19.74 12.49 32.45 1.47 4.22 9.88 11.7 2.25 15.24-9.12 4.23-10.18-3.98-14.2-8.3-2.3-2.47-5.72-3.74-7.98-7-3.03-4.37-3.24-10.42-6.54-14.42-2.03-2.46-5.7-3.9-7.9-6.08-8.63-8.55-6.23-19.08-8.34-29.61-.95-4.76-5.49-7.78-3.24-12.7 1-2.19 7.86-5.59 10.23-5.84Z" class="cls-13"/>
  <path d="M299.71 187.68c1.08-.72 8.39-3.58 8.99-2.99 1.55 5.22-5.11 9.32-5.79 11.68s.07 5.71-.44 8.55c-.61 3.43-3.08 4.74-3.56 6.43-.75 2.67.48 5.62-.72 8.27-.58 1.28-10.94 15.07-12.43 16.53-9.24 9.1-11.83.53-22.57 1.4-5.06.41-8.66 4.66-13.42 2.52-5.82-2.62-1.78-9.74.54-13.39 5.77-9.06 37.44-32.99 47.39-37 3.3-1.33 1.72-1.81 2-2Z" class="cls-13"/>
  <path d="M299.71 185.68c-3.27-10.08 8.43-4.96 14.98-6.98l-1 4.99c-3.45-2.24-11.05-1.16-13.99 2Z" class="cls-10"/>
  <path d="M490.52 531.09h-37.96v-69.38c0-.72-2.56-8.52-3.13-9.85-8.6-20.16-36.81-22.24-48.03-3.34-.98 1.65-4.79 11.88-4.79 13.19v69.38h-37.96c2.45-33.98-8.03-77.01 14.57-105.74 24.97-31.73 75.38-32.45 101.34-1.61 24.83 29.49 13.31 71.81 15.96 107.34Zm-4-2.99v-70.38c0-7.49-7.63-22.58-12.16-28.78-26.61-36.45-85.63-31.4-105.27 9.27-1.85 3.83-6.45 16.83-6.45 20.51v69.38h30.97v-67.38c0-14.68 16.1-28.36 30.46-28.53s31.48 12.77 31.48 27.53v68.38h30.97Z" class="cls-7"/>
  <path d="M486.52 528.1h-30.97v-68.38c0-14.76-17.29-27.7-31.48-27.53s-30.46 13.85-30.46 28.53v67.38h-30.97v-69.38c0-3.67 4.6-16.68 6.45-20.51 19.64-40.68 78.66-45.72 105.27-9.27 4.53 6.2 12.16 21.3 12.16 28.78v70.38Z" class="cls-10"/>
  <path d="M106.4 404.31c3.96 1.11 28.84 66.86 33.97 74.88l33.97-74.88h39.46l-59.4 126.86-29.38-.21-57.08-126.65h38.46Zm-.5 3.99H71.93l55.94 119.31c4.45.26 23.01 1.73 25.5-.5L208.8 408.3h-33.97l-34.47 78.85-34.47-78.85Z" class="cls-9"/>
  <path d="m105.9 408.3 34.47 78.85 34.47-78.85h33.97l-55.43 118.81c-2.49 2.23-21.05.75-25.5.5L71.94 408.3h33.97Z" class="cls-15"/>
  <path d="M893.13 404.31h32.47c.11 0 1.5 1.39 1.5 1.5v31.45h-33.97v37.44c0 8.65 13.04 21.25 21.01 23.93 4.7 1.58 9.4.7 12.96 3.02v33.44h-14.49c-25.36 0-57.44-32.17-57.44-57.4v-114.3h36.46c.11 0 1.5 1.39 1.5 1.5v39.43Zm-4-36.94h-30.97v105.32c0 6.56 3.47 17.57 6.28 23.67 10.43 22.59 33.53 36.87 58.65 34.73v-26.95c-14.29-1.33-28.08-10.99-32.29-25.14-.31-1.06-1.68-6.8-1.68-7.31v-37.44h33.97v-25.96h-33.97v-40.93Z" class="cls-9"/>
  <path d="M889.13 367.37v40.93h33.97v25.96h-33.97v37.44c0 .51 1.36 6.25 1.68 7.31 4.21 14.14 18 23.81 32.29 25.14v26.95c-25.12 2.14-48.23-12.14-58.65-34.73-2.81-6.1-6.28-17.11-6.28-23.67V367.38h30.97Z" class="cls-15"/>
  <path d="M800.22 404.31h37.96v126.78h-37.96V404.31Zm3 3.99v119.8h30.97V408.3h-30.97Z" class="cls-9"/>
  <path d="M803.22 408.3h30.97v119.8h-30.97z" class="cls-15"/>
  <path d="M986.93 387.2c0 11.82-9.59 21.39-21.41 21.39s-21.41-9.58-21.41-21.39 9.59-21.39 21.41-21.39 21.41 9.58 21.41 21.39Zm-28.87-12.84v24.96h5c.78-.76-1.6-8.95 1.48-7.99 2.87 4.2 1.96 9.64 8.5 7.99.52-3.36-3.38-5.12-3.02-8.45.4-3.75 7.43-5.26 2.25-13.24-3.29-5.07-9-2.86-14.21-3.27Z" class="cls-4"/>
  <ellipse cx="818.94" cy="374.7" class="cls-10" rx="18.02" ry="18.01"/>
  <path d="M638.38 531.09h-35.96c-.5 0 .38-8.82 0-9.98-32.17 30.42-85.9 7.17-99.37-30.97-20.56-58.23 45.55-111.88 97.38-78.84v-46.42c0-.11 1.39-1.5 1.5-1.5h34.97c.11 0 1.5 1.39 1.5 1.5V531.1Zm-3-163.72h-31.97v49.91c-5.04-2.25-8.88-6.22-14-8.47-41.54-18.23-90.14 19.51-86.94 63.91 3.27 45.26 63.48 79.69 97.97 44.91 1.93-1.95 2.91-5.59 5.97-5.52v15.97h27.47c.11 0 1.5-1.39 1.5-1.5V367.35Z" class="cls-7"/>
  <path d="M635.38 367.37V526.6c0 .11-1.39 1.5-1.5 1.5h-27.47v-15.97c-3.06-.07-4.04 3.57-5.97 5.52-34.49 34.78-94.7.35-97.97-44.91-3.21-44.4 45.4-82.15 86.94-63.91 5.12 2.25 8.96 6.22 14 8.47v-49.91h31.97Zm-30.09 100.74c0-19.78-16.05-35.82-35.84-35.82s-35.84 16.04-35.84 35.82 16.05 35.82 35.84 35.82 35.84-16.04 35.84-35.82Z" class="cls-10"/>
  <path d="M605.29 468.11c0 19.78-16.05 35.82-35.84 35.82s-35.84-16.04-35.84-35.82 16.05-35.82 35.84-35.82 35.84 16.04 35.84 35.82Zm-3.47-.09c0-17.87-14.5-32.35-32.38-32.35s-32.38 14.48-32.38 32.35 14.5 32.35 32.38 32.35 32.38-14.48 32.38-32.35Z" class="cls-9"/>
  <path d="M343.66 531.09h-34.97c-.5 0 .37-8.81 0-9.98-6.61 3.08-10.56 7.98-17.72 10.74-33.21 12.8-74.45-12.59-83.69-45.67-16.79-60.16 50.88-106.19 103.33-75.3 14.23 8.38 33.05 31.81 33.05 48.84v71.38Zm-2.99-2.99v-64.39c0-18.64-15.73-40.35-31.3-49.58-57.65-34.18-127.24 27.63-91.99 85.94 19.84 32.82 70.67 46 94.32 10.07v17.97h28.97Z" class="cls-7"/>
  <path d="M340.67 528.1H311.7v-17.97c-23.65 35.93-74.48 22.75-94.32-10.07-35.25-58.31 34.35-120.12 91.99-85.94 15.57 9.23 31.3 30.94 31.3 49.58v64.39Zm-29.93-60.05c0-19.77-16.04-35.8-35.83-35.8s-35.83 16.03-35.83 35.8 16.04 35.8 35.83 35.8 35.83-16.03 35.83-35.8Z" class="cls-15"/>
  <path d="M310.74 468.05c0 19.77-16.04 35.8-35.83 35.8s-35.83-16.03-35.83-35.8 16.04-35.8 35.83-35.8 35.83 16.03 35.83 35.8Zm-3.33-.04c0-17.9-14.52-32.42-32.44-32.42s-32.44 14.51-32.44 32.42 14.52 32.42 32.44 32.42 32.44-14.51 32.44-32.42ZM787.24 468.06c0 37.7-30.58 68.26-68.31 68.26s-68.31-30.56-68.31-68.26 30.58-68.26 68.31-68.26 68.31 30.56 68.31 68.26Zm-3.38.01c0-35.84-29.07-64.89-64.94-64.89s-64.94 29.05-64.94 64.89 29.07 64.89 64.94 64.89 64.94-29.05 64.94-64.89Z" class="cls-1"/>
  <path d="M783.86 468.07c0 35.84-29.07 64.89-64.94 64.89s-64.94-29.05-64.94-64.89 29.07-64.89 64.94-64.89 64.94 29.05 64.94 64.89Zm-29.29-.02c0-19.66-15.95-35.6-35.63-35.6s-35.63 15.94-35.63 35.6 15.95 35.6 35.63 35.6 35.63-15.94 35.63-35.6Z" class="cls-15"/>
  <path d="M754.57 468.05c0 19.66-15.95 35.6-35.63 35.6s-35.63-15.94-35.63-35.6 15.95-35.6 35.63-35.6 35.63 15.94 35.63 35.6Zm-3.32-.05c0-17.81-14.45-32.25-32.27-32.25s-32.27 14.44-32.27 32.25 14.45 32.25 32.27 32.25 32.27-14.44 32.27-32.25Z" class="cls-1"/>
  <path d="M958.06 374.36c5.21.41 10.91-1.8 14.21 3.27 5.18 7.97-1.85 9.48-2.25 13.24-.36 3.32 3.54 5.08 3.02 8.45-6.54 1.65-5.62-3.79-8.5-7.99-3.08-.96-.7 7.23-1.48 8h-5v-24.96Zm5 11.98c4.5 1.29 8.56-4.25 3.98-6.48-5.59-2.73-3.85 2.33-3.98 6.48Z" class="cls-10"/>
  <ellipse cx="569.44" cy="468.02" class="cls-8" rx="32.38" ry="32.35"/>
  <ellipse cx="274.97" cy="468.01" class="cls-8" rx="32.44" ry="32.42"/>
  <ellipse cx="718.98" cy="468" class="cls-8" rx="32.27" ry="32.25"/>
  <path d="M963.06 386.34c.13-4.15-1.61-9.21 3.98-6.48 4.58 2.24.52 7.77-3.98 6.48Z" class="cls-4"/>
</svg>