<?xml version="1.0" encoding="UTF-8"?>
<svg id="Layer_2" data-name="Layer 2" xmlns="http://www.w3.org/2000/svg" viewBox="0 0 193.58 191.11">
  <defs>
    <style>
      .cls-1 {
        fill: #09090b;
      }

      .cls-2 {
        fill: #007a41;
      }
    </style>
  </defs>
  <g id="Layer_1-2" data-name="Layer 1">
    <g>
      <path class="cls-1" d="M5.78,161.33h26.15c3.44,0,6.6-1.91,8.2-4.95l20.93-39.78,10.95-20.92,24.35-45.84,24.08,45.84,11.22,20.92,20.93,39.78c1.6,3.04,4.76,4.95,8.2,4.95h25.88L96.36,0,5.78,161.33Z"/>
      <path class="cls-2" d="M63.61,161.31h65.22c1.87,0,3.06-2,2.18-3.65l-34.79-64.43-34.79,64.43c-.89,1.65.3,3.65,2.18,3.65Z"/>
      <polygon class="cls-1" points="35.3 175.42 34.78 172.96 23.11 172.96 23.11 175.42 26.41 175.42 35.3 175.42"/>
      <polygon class="cls-1" points="42.9 178.6 42.9 178.64 46.29 181.41 42.9 178.6 42.9 178.6"/>
      <polygon class="cls-1" points="26.41 182.73 33.73 182.73 33.73 180.27 26.41 180.27 23.11 180.27 23.11 190.48 35.18 190.48 35.7 188.03 26.41 188.03 26.41 182.73"/>
      <polygon class="cls-1" points="54.81 184.83 39.61 172.21 39.61 175.86 42.9 178.6 42.9 178.6 46.29 181.41 46.29 181.41 57.2 190.48 58.11 190.48 58.11 172.76 54.81 173.16 54.81 184.83"/>
      <polygon class="cls-1" points="61.64 172.96 61.12 175.49 67.09 175.49 67.09 190.48 70.38 190.48 70.38 175.49 76.32 175.49 75.8 172.96 61.64 172.96"/>
      <path class="cls-1" d="M92.2,183.6c0,2.83-1.94,4.66-4.96,4.66s-4.92-1.83-4.92-4.66v-10.84l-3.29.4v10.64c0,4.18,3.26,6.98,8.22,6.98s8.25-2.8,8.25-6.98v-11.04l-3.29.4v10.44Z"/>
      <path class="cls-1" d="M112.98,178.45c0-3.15-2.95-5.48-7.73-5.48h-5.17v2.35h4.92c2.86,0,4.59,1.35,4.59,3.25s-1.72,3.33-4.59,3.33h-4.92v8.58h3.29v-7.33l6.49,7.33h4.03l-6.37-6.86c3.32-.58,5.45-2.55,5.45-5.18Z"/>
      <polygon class="cls-1" points="120.76 180.3 120.76 179.85 120.76 172.76 117.47 173.16 117.47 190.48 120.76 190.48 120.76 183.59 120.76 182.85 120.76 180.3"/>
      <path class="cls-1" d="M132.15,180.3h-10.45v2.55h10.45v7.63h3.29v-17.72l-2.37.29c-.53.06-.92.51-.92,1.04v6.2Z"/>
      <path class="cls-1" d="M173.36,183.45c0,2.83-1.94,4.66-4.96,4.66s-4.92-1.83-4.92-4.66v-10.84l-3.29.4v10.64c0,4.18,3.26,6.98,8.22,6.98s8.25-2.8,8.25-6.98v-11.04l-3.29.4v10.44Z"/>
      <path class="cls-1" d="M188.56,180.37l-1.39-.35c-2.55-.68-3.32-1.6-3.32-2.75,0-1.38,1.23-2.38,3.2-2.38,1.63,0,3.35.55,5.17,1.55l.55-2.6c-1.85-.88-3.85-1.35-5.66-1.35-3.82,0-6.49,2.1-6.49,4.86,0,2.15,1.32,4.1,5.29,5.16l1.35.35c2.22.6,3.02,1.6,3.02,2.75,0,1.5-1.39,2.63-3.63,2.63s-4.31-.9-6.03-2.18l-.58,2.7c1.57.95,3.85,1.9,6.65,1.9,4.31,0,6.89-2.3,6.89-5.18,0-2.2-1.48-4.15-5.02-5.11Z"/>
      <path class="cls-1" d="M138.24,190.48h2.94c.39,0,.74-.21.92-.56l2.35-4.47,1.23-2.35,2.74-5.16,2.71,5.16,1.26,2.35,2.35,4.47c.18.34.54.56.92.56h2.91l-10.16-18.15-10.19,18.15Z"/>
      <path class="cls-2" d="M144.67,190.48h7.48c.18,0,.29-.19.21-.35l-3.95-7.31-3.95,7.31c-.08.16.03.35.21.35Z"/>
      <path class="cls-1" d="M16.48,173.52l-5.67,10.61,1.6,2.98,7.93-14.15h-2.94c-.39,0-.74.21-.93.56Z"/>
      <polygon class="cls-1" points="39.61 177.72 39.61 190.03 39.61 190.48 42.9 190.48 42.9 190.03 42.9 180.41 42.9 179.96 39.61 177.26 39.61 177.72"/>
      <path class="cls-1" d="M10.19,185.3l-6.32-11.78c-.18-.34-.54-.55-.93-.55H0l10.16,18.15,1.62-2.88-1.58-2.94h0Z"/>
    </g>
  </g>
</svg>