<?xml version="1.0" encoding="UTF-8" standalone="no"?>
<!DOCTYPE svg PUBLIC "-//W3C//DTD SVG 1.1//EN" "http://www.w3.org/Graphics/SVG/1.1/DTD/svg11.dtd">
<svg width="190" height="27" viewBox="0 0 190 27" version="1.1" xmlns="http://www.w3.org/2000/svg" xmlns:xlink="http://www.w3.org/1999/xlink" xml:space="preserve" xmlns:serif="http://www.serif.com/" style="fill-rule:evenodd;clip-rule:evenodd;stroke-linejoin:round;stroke-miterlimit:2;">
    <g transform="matrix(0.23311,0,0,0.23311,-6.0673e-08,-1.56382e-09)">
        <path d="M165.845,92.313L150.423,92.313L127.086,35.262L144.021,35.262L158.163,73.509L171.722,35.262L187.959,35.262L165.845,92.313Z" style="fill:rgb(239,116,64);fill-rule:nonzero;"/>
    </g>
    <g transform="matrix(0.23311,0,0,0.23311,-6.0673e-08,-1.56382e-09)">
        <path d="M206.636,59.478L220.661,57.383C223.92,56.917 224.968,55.287 224.968,53.307C224.968,49.291 221.825,45.914 215.366,45.914C208.906,45.914 204.89,50.222 204.483,55.17L190.749,52.318C191.68,43.353 199.944,33.514 215.249,33.514C233.348,33.514 240.04,43.702 240.04,55.17L240.04,83.288C240.06,86.309 240.293,89.324 240.739,92.312L226.597,92.312C226.2,90.044 226.005,87.745 226.015,85.442C223.105,89.983 217.693,93.942 209.197,93.942C197.034,93.942 189.585,85.675 189.585,76.768C189.585,66.581 197.151,60.875 206.636,59.478ZM224.968,69.2L224.968,66.697L212.107,68.618C208.149,69.2 205.007,71.412 205.007,75.837C205.007,79.213 207.451,82.473 212.456,82.473C218.974,82.473 224.968,79.33 224.968,69.2Z" style="fill:rgb(239,116,64);fill-rule:nonzero;"/>
    </g>
    <g transform="matrix(0.23311,0,0,0.23311,-6.0673e-08,-1.56382e-09)">
        <path d="M267.972,92.307L252.55,92.307L252.55,35.256L267.507,35.256L267.507,42.3C270.998,36.42 277.865,33.742 283.976,33.742C298.117,33.742 304.635,43.814 304.635,56.33L304.635,92.307L289.213,92.307L289.213,59.008C289.213,52.662 286.071,47.656 278.68,47.656C271.289,47.656 267.972,52.837 267.972,59.473L267.972,92.307Z" style="fill:rgb(239,116,64);fill-rule:nonzero;"/>
    </g>
    <g transform="matrix(0.23311,0,0,0.23311,-6.0673e-08,-1.56382e-09)">
        <rect x="317.379" y="8.306" width="15.422" height="84.005" style="fill:rgb(239,116,64);fill-rule:nonzero;"/>
    </g>
    <g transform="matrix(0.23311,0,0,0.23311,-6.0673e-08,-1.56382e-09)">
        <path d="M353.575,6.911C354.834,6.919 356.078,7.175 357.237,7.666C358.396,8.156 359.446,8.871 360.328,9.769C361.209,10.667 361.905,11.731 362.374,12.899C362.843,14.067 363.076,15.316 363.061,16.575C362.874,18.971 361.79,21.208 360.026,22.839C358.263,24.471 355.948,25.377 353.546,25.377C351.144,25.377 348.83,24.471 347.066,22.839C345.302,21.208 344.219,18.971 344.031,16.575C344.024,15.314 344.264,14.063 344.74,12.895C345.215,11.726 345.916,10.663 346.803,9.766C347.689,8.868 348.743,8.154 349.905,7.665C351.067,7.175 352.314,6.919 353.575,6.911ZM345.894,92.313L345.894,35.262L361.315,35.262L361.315,92.313L345.894,92.313Z" style="fill:rgb(239,116,64);fill-rule:nonzero;"/>
    </g>
    <g transform="matrix(0.23311,0,0,0.23311,-6.0673e-08,-1.56382e-09)">
        <path d="M393.09,28.978L393.09,35.265L406.01,35.265L406.01,48.48L393.09,48.48L393.09,92.317L377.552,92.317L377.552,48.48L368.066,48.48L368.066,35.265L377.552,35.265L377.552,28.745C377.552,15.88 385.7,7.497 398.328,7.497C401.587,7.497 404.73,8.079 406.01,8.661L406.01,21.701C404.416,21.275 402.77,21.079 401.121,21.119C397.629,21.119 393.09,22.574 393.09,28.978Z" style="fill:rgb(239,116,64);fill-rule:nonzero;"/>
    </g>
    <g transform="matrix(0.23311,0,0,0.23311,-6.0673e-08,-1.56382e-09)">
        <path d="M464.671,75.953C461.762,85.792 452.741,94.058 438.658,94.058C423.003,94.058 409.211,82.823 409.211,63.553C409.211,45.332 422.654,33.514 437.32,33.514C454.895,33.514 465.486,44.75 465.486,63.088C465.486,65.3 465.253,67.628 465.253,67.861L424.4,67.861C424.749,75.371 431.151,80.843 438.774,80.843C446.398,80.843 449.948,77.234 451.81,72.111L464.671,75.953ZM450.297,57.266C450.064,51.619 446.34,46.031 437.494,46.031C429.521,46.031 425.099,52.085 424.749,57.266L450.297,57.266Z" style="fill:rgb(239,116,64);fill-rule:nonzero;"/>
    </g>
    <g transform="matrix(0.23311,0,0,0.23311,-6.0673e-08,-1.56382e-09)">
        <path d="M525.313,35.256L536.777,35.256L536.777,48.936L525.313,48.936L525.313,72.805C525.313,77.811 527.64,79.441 532.005,79.441C533.608,79.457 535.207,79.3 536.777,78.975L536.777,91.725C535.38,92.307 532.587,93.122 528.106,93.122C516.932,93.122 510.007,86.485 510.007,75.482L510.007,48.936L499.648,48.936L499.648,35.256L502.558,35.256C508.61,35.256 511.404,31.297 511.404,26.174L511.404,18.199L525.313,18.199L525.313,35.256Z" style="fill:rgb(239,116,64);fill-rule:nonzero;"/>
    </g>
    <g transform="matrix(0.23311,0,0,0.23311,-6.0673e-08,-1.56382e-09)">
        <path d="M581.934,50.573C580.421,50.265 578.881,50.109 577.337,50.108C569.422,50.108 562.555,53.892 562.555,66.233L562.555,92.314L547.133,92.314L547.133,35.263L562.148,35.263L562.148,43.704C565.581,36.194 573.496,34.797 578.326,34.797C579.532,34.813 580.736,34.89 581.934,35.03L581.934,50.573Z" style="fill:rgb(239,116,64);fill-rule:nonzero;"/>
    </g>
    <g transform="matrix(0.23311,0,0,0.23311,-6.0673e-08,-1.56382e-09)">
        <path d="M603.876,59.478L617.901,57.383C621.16,56.917 622.208,55.287 622.208,53.307C622.208,49.291 619.065,45.914 612.605,45.914C606.146,45.914 602.13,50.222 601.664,55.17L587.989,52.318C588.92,43.353 597.184,33.514 612.489,33.514C630.529,33.514 637.28,43.702 637.28,55.17L637.28,83.288C637.3,86.309 637.533,89.324 637.978,92.312L623.837,92.312C623.439,90.044 623.245,87.745 623.255,85.442C620.345,89.983 614.875,93.942 606.437,93.942C594.274,93.942 586.825,85.675 586.825,76.768C586.825,66.581 594.39,60.875 603.876,59.478ZM622.208,69.2L622.208,66.697L609.346,68.618C605.389,69.2 602.246,71.412 602.246,75.837C602.246,79.213 604.691,82.473 609.696,82.473C616.155,82.473 622.208,79.33 622.208,69.2Z" style="fill:rgb(239,116,64);fill-rule:nonzero;"/>
    </g>
    <g transform="matrix(0.23311,0,0,0.23311,-6.0673e-08,-1.56382e-09)">
        <path d="M704.611,82.007C704.611,85.791 704.844,89.982 705.077,92.311L690.353,92.311C689.973,90.119 689.778,87.899 689.771,85.674C687.269,90.215 681.449,93.708 673.767,93.708C657.531,93.708 645.95,80.959 645.95,63.669C645.95,46.379 657.182,33.862 673.302,33.862C683.195,33.862 687.851,37.879 689.422,40.907L689.422,8.306L704.611,8.306L704.611,82.007ZM675.63,79.911C683.544,79.911 689.655,73.856 689.655,63.552C689.655,53.248 683.544,47.66 675.63,47.66C667.715,47.66 661.488,53.423 661.488,63.669C661.488,73.915 667.541,79.911 675.63,79.911Z" style="fill:rgb(239,116,64);fill-rule:nonzero;"/>
    </g>
    <g transform="matrix(0.23311,0,0,0.23311,-6.0673e-08,-1.56382e-09)">
        <path d="M769.616,75.953C766.706,85.792 757.686,94.058 743.661,94.058C728.006,94.058 714.214,82.823 714.214,63.553C714.214,45.332 727.657,33.514 742.264,33.514C759.897,33.514 770.431,44.75 770.431,63.088C770.431,65.3 770.198,67.628 770.198,67.861L729.403,67.861C729.752,75.371 736.095,80.843 743.777,80.843C751.459,80.843 754.892,77.234 756.755,72.111L769.616,75.953ZM755.242,57.266C755.009,51.619 751.284,46.031 742.497,46.031C733.709,46.031 730.101,52.085 729.752,57.266L755.242,57.266Z" style="fill:rgb(239,116,64);fill-rule:nonzero;"/>
    </g>
    <g transform="matrix(0.23311,0,0,0.23311,-6.0673e-08,-1.56382e-09)">
        <path d="M815.065,50.573C813.533,50.262 811.973,50.106 810.41,50.108C802.554,50.108 795.686,53.892 795.686,66.233L795.686,92.314L780.265,92.314L780.265,35.263L795.221,35.263L795.221,43.704C798.713,36.194 806.569,34.797 811.457,34.797C812.663,34.813 813.868,34.89 815.065,35.03L815.065,50.573Z" style="fill:rgb(239,116,64);fill-rule:nonzero;"/>
    </g>
    <g transform="matrix(0.23311,0,0,0.23311,-6.0673e-08,-1.56382e-09)">
        <path d="M23.34,104.306C17.609,103.41 11.819,101.857 10.148,96.242C9.969,95.525 8.775,95.883 8.775,96.66C9.073,100.842 7.342,108.369 8.954,112.312C9.67,113.984 11.342,115.06 13.132,114.88C14.684,114.761 16.236,114.642 17.788,114.701C23.579,114.88 23.817,114.821 23.997,109.026L23.997,105.023C23.997,104.665 23.698,104.366 23.34,104.306Z" style="fill:rgb(239,116,64);fill-rule:nonzero;"/>
    </g>
    <g transform="matrix(0.23311,0,0,0.23311,-6.0673e-08,-1.56382e-09)">
        <path d="M100.869,49.286L100.69,47.374L99.974,40.803C99.855,39.907 99.556,38.951 99.019,38.234C98.84,37.995 98.661,37.756 98.422,37.577C97.706,37.039 94.363,37.039 92.871,37.099C92.453,37.099 92.095,37.457 92.154,37.875L92.632,48.091C92.632,48.629 92.154,49.106 91.617,48.987C90.96,48.868 90.543,48.33 90.483,47.733L90.483,46.239C90.304,42.595 90.304,38.891 90.304,35.187C90.005,28.914 89.707,22.642 89.408,16.369C89.408,15.473 89.289,14.636 89.17,13.74C88.752,11.052 88.155,8.364 87.797,5.675C87.498,3.764 86.722,2.151 85.528,1.016C84.932,0.418 84.156,0.119 83.32,0.119C78.783,0.119 74.306,0 69.769,0C63.681,0 57.592,0.06 51.444,0.06C45.355,0.06 39.207,0.06 33.118,0C28.582,0 24.105,0.119 19.568,0.119C18.732,0.119 17.956,0.418 17.359,1.016C16.166,2.151 15.39,3.704 15.091,5.675C14.733,8.304 14.136,10.932 13.778,13.561C13.599,14.577 13.539,15.592 13.479,16.608L13.479,17.803C12.345,23.717 11.509,29.691 11.271,35.844C11.271,35.844 11.151,36.681 10.913,37.816L10.913,38.294C10.913,39.787 10.793,41.221 10.674,42.655C10.554,43.73 10.554,44.746 10.614,45.821L10.614,46.956C10.614,47.673 10.077,48.33 9.361,48.449C8.823,48.569 8.286,48.091 8.346,47.553L8.823,37.397C8.823,36.92 8.465,36.501 7.988,36.501C6.436,36.501 3.212,36.501 2.496,36.979C2.257,37.158 2.078,37.397 1.899,37.636C1.362,38.353 1.063,39.309 0.944,40.205L0.228,46.777L0.048,48.688C-0.31,50.899 1.362,52.93 3.57,53.109L8.585,53.587C9.062,53.587 9.42,53.946 9.659,54.304C9.659,54.423 9.659,54.603 9.599,54.722C9.48,56.216 9.241,57.709 8.764,59.083C5.898,67.088 7.45,75.034 8.465,82.92C9.062,87.221 9.838,91.343 11.151,95.525C11.33,96.062 11.748,96.72 12.166,97.257C14.554,99.647 17.061,101.2 20.404,101.977C21.598,101.977 22.791,101.977 23.985,102.096C26.791,102.275 29.596,102.753 32.462,102.932L33.476,102.932C35.864,102.813 38.312,102.574 40.699,102.514C43.923,102.455 47.086,102.395 50.31,102.395C53.056,102.395 55.801,102.455 58.547,102.514L59.383,102.514C63.562,102.514 67.74,102.574 71.859,102.574C72.157,102.574 72.515,102.455 72.814,102.395C74.485,101.977 76.395,102.634 78.126,102.275C80.932,101.738 84.036,101.319 85.887,98.751C86.543,97.855 87.737,96.54 88.095,95.405C89.408,91.223 90.244,87.101 90.781,82.8C91.677,76.229 92.93,69.657 91.677,63.026L91.677,62.847L91.259,58.545C91.259,57.47 91.259,56.395 91.199,55.32L91.199,55.14C91.438,54.543 91.915,54.125 92.512,54.065L97.467,53.587C99.676,53.348 101.347,51.377 100.989,49.166L100.869,49.286ZM16.225,44.447C16.345,41.579 16.524,38.712 16.762,35.784C17.061,32.14 17.359,28.496 17.658,24.912C17.777,23.657 18.792,22.761 20.046,22.761L81.171,22.761C82.424,22.761 83.439,23.717 83.559,24.912C83.857,28.496 84.156,32.14 84.454,35.784C84.693,38.652 84.991,41.52 84.991,44.447C84.991,52.213 84.036,52.034 78.365,52.213C69.59,52.512 60.816,52.691 52.041,52.751C45.952,52.751 39.804,52.631 33.715,52.512C29.775,52.273 24.045,51.914 20.105,51.675C19.628,51.675 19.21,51.317 18.732,51.197C18.314,50.958 17.897,50.779 17.479,50.6C16.404,49.405 16.106,47.494 16.225,44.507L16.225,44.447ZM27.268,85.608L24.224,85.608C23.329,85.608 22.493,85.429 21.657,85.13C19.508,84.353 17.359,83.577 15.27,82.74C14.733,82.501 14.315,81.844 13.897,81.366C12.703,79.455 13.062,76.468 13.121,74.377L13.121,70.254C13.121,70.254 13.121,70.135 13.241,70.195C16.524,71.509 19.807,73.062 23.269,74.197C25.418,74.914 25.716,76.647 26.134,78.26C26.791,80.829 26.97,83.457 27.328,85.548C27.328,85.548 27.328,85.668 27.268,85.668L27.268,85.608ZM63.621,89.67C63.382,89.969 63.203,90.268 62.965,90.566L62.905,90.566C55.025,90.148 47.086,89.73 39.147,89.312C39.147,89.312 39.088,89.312 39.088,89.252L39.088,86.683C39.088,86.683 39.088,86.623 39.147,86.623C46.728,86.922 54.19,87.221 61.651,87.639C62.368,87.639 62.965,88.834 63.621,89.551L63.621,89.67ZM66.128,84.234C66.128,84.234 66.128,84.294 66.069,84.294C55.324,83.756 44.699,83.218 34.073,82.681C34.073,82.681 34.014,82.681 34.014,82.621L34.014,81.784C34.014,81.784 34.073,81.725 34.133,81.725C37.476,81.725 40.819,81.784 44.102,81.725C49.355,81.605 54.667,81.307 59.92,81.187C61.293,81.187 62.726,81.366 64.099,81.426C65.71,81.426 66.248,82.262 66.128,84.353L66.128,84.234ZM69.59,78.26L35.088,78.26C34.551,78.26 33.954,78.2 33.417,78.26C31.089,78.439 30.313,77.364 30.492,75.213C30.492,75.213 30.492,75.153 30.551,75.153C34.611,74.675 38.491,74.078 42.371,73.839C45.117,73.72 47.922,74.317 50.728,74.257C53.951,74.197 57.174,73.6 60.398,73.421C63.442,73.301 66.486,74.556 69.59,74.556L69.59,78.2C69.65,78.2 69.59,78.26 69.59,78.26ZM85.111,81.247C84.633,81.784 84.275,82.442 83.738,82.681C81.648,83.577 79.499,84.353 77.351,85.07C76.515,85.369 75.679,85.548 74.784,85.548L71.739,85.548C71.739,85.548 71.68,85.548 71.68,85.429C71.978,83.338 72.217,80.649 72.874,78.14C73.291,76.587 73.59,74.795 75.739,74.078C79.141,72.943 82.424,71.449 85.767,70.075C85.767,70.075 85.887,70.075 85.887,70.135C85.887,71.449 85.946,72.823 85.887,74.197C85.887,76.288 86.304,79.216 85.111,81.127L85.111,81.247Z" style="fill:rgb(239,116,64);fill-rule:nonzero;"/>
    </g>
    <g transform="matrix(0.23311,0,0,0.23311,-6.0673e-08,-1.56382e-09)">
        <path d="M90.554,96.779C90.554,96.062 89.42,95.644 89.181,96.361C87.509,102.036 81.719,103.59 75.989,104.426C75.631,104.426 75.392,104.784 75.332,105.143L75.332,109.145C75.511,114.94 75.81,115 81.54,114.821C83.092,114.821 84.644,114.88 86.196,115C87.987,115.119 89.718,114.104 90.375,112.431C91.986,108.488 90.255,100.901 90.554,96.779Z" style="fill:rgb(239,116,64);fill-rule:nonzero;"/>
    </g>
</svg>
