<svg id="SvgjsSvg1014" width="5000px" height="1048.1038633045264px" xmlns="http://www.w3.org/2000/svg" version="1.1" xmlns:xlink="http://www.w3.org/1999/xlink" xmlns:svgjs="http://svgjs.com/svgjs" viewBox="0 0 395.953125 83"><defs id="SvgjsDefs1015"></defs><g id="SvgjsG1017" transform="rotate(0 29.2265625 40)"><svg height="80" viewBox="0 0 117 160.10000610351562" xmlns="http://www.w3.org/2000/svg" version="1.1" xmlns:xlink="http://www.w3.org/1999/xlink" xmlns:svgjs="http://svgjs.com/svgjs" preserveAspectRatio="none" width="58.453125" x="0" y="0"><g><svg viewBox="41.5 20 117 160.10000610351562" height="160.10000610351562" width="117" xmlns="http://www.w3.org/2000/svg" data-type="color">
    <g>
        <path d="M80.5 107.3H66.2l7.2-33.7c-.1 0 7.1 33.7 7.1 33.7zm46.2-33.7l-7.2 33.7h14.4l-7.2-33.7zM100 62l-11.5 54.2h23.1L100 62zm-14.5 86.5h41.2v-3.4H85.5v3.4zm73-70.2v43.5c0 32.1-26.2 58.3-58.5 58.3S41.5 154 41.5 121.8V78.3C41.5 46.1 67.7 20 100 20s58.5 26.1 58.5 58.3zm-3.4 0c0-30.3-24.7-54.9-55.1-54.9S44.9 48 44.9 78.3v43.5c0 30.3 24.7 54.9 55.1 54.9s55.1-24.6 55.1-54.9V78.3zM64.2 54.6c0-4.9 4-8.9 8.9-8.9s8.9 4 8.9 8.9-4 8.9-8.9 8.9c-4.9-.1-8.9-4-8.9-8.9zm3.4 0c0 3 2.5 5.5 5.5 5.5s5.5-2.5 5.5-5.5-2.5-5.5-5.5-5.5-5.5 2.4-5.5 5.5zm59.1 8.5c1.5 0 1.5-2.3 0-2.3s-1.5 2.3 0 2.3zm-18.5-2.9c1.5 0 1.5-2.3 0-2.3-1.5.1-1.5 2.3 0 2.3zm4.9-14.8c1.5 0 1.5-2.3 0-2.3s-1.5 2.3 0 2.3zm13-6.4h.3c1.5 0 1.5-2.3 0-2.3h-.3c-1.5.1-1.5 2.3 0 2.3zM91.7 51.5c1.5 0 1.5-2.3 0-2.3-1.4 0-1.4 2.3 0 2.3zM79.2 39.3c1.5 0 1.5-2.3 0-2.3-1.4.1-1.4 2.3 0 2.3zM54.3 78.6c1.5 0 1.5-2.3 0-2.3-1.5.1-1.5 2.3 0 2.3zm42-39.6c1.5 0 1.5-2.3 0-2.3-1.5.1-1.5 2.3 0 2.3zm27.2 10.2c1.5 0 1.5-2.3 0-2.3-1.5.1-1.5 2.3 0 2.3zm21 25.5c1.5 0 1.5-2.3 0-2.3s-1.5 2.3 0 2.3zm.9 61.5h-24.2v3.4h22.9c-2.3 5.3-5.5 10.2-9.6 14.4H94.4v3.4h36.5c-8.3 7-19 11.1-30.5 11.2-11.6-.1-22.4-4.3-30.8-11.5h10.7v-3.4H66c-3.9-4.1-7.1-8.9-9.3-14.1h52v-3.4H55.4c0-.1-.1-.1-.1-.2-1.6-4.9-2.5-9.9-2.5-15.1h-3.4c0 5.5.9 10.9 2.6 16.1 7 20.7 26.1 34.6 47.9 35h.8c21.8-.3 41-14.3 47.9-35 1.7-5.2 2.6-10.6 2.6-16.1h-3.4c0 5.1-.8 10.2-2.4 15 .1.1 0 .2 0 .3zM75 129v-16.4h-3.4V129H75zm26.1 0v-7.3h-3.4v7.3h3.4zm27.3 0v-16.4H125V129h3.4z" data-color="1" fill="#000000"></path>
    </g>
</svg></g><defs id="SvgjsDefs1016"></defs></svg></g><g id="SvgjsG1019" transform="rotate(0 235.203125 28.8828125)"><svg xmlns="http://www.w3.org/2000/svg" xmlns:xlink="http://www.w3.org/1999/xlink" width="321.5" viewBox="1.409999966621399 16.190000534057617 321.510009765625 25.989999771118164" overflow="visible" style="overflow: visible;" transform="" version="1.1" xmlns:svgjs="http://svgjs.com/svgjs" preserveAspectRatio="none" height="25.984375" x="74.453125" y="15.890625" fill="#000000" stroke="none"><path stroke="none" fill="#000000" d="M11.70 42.18L11.70 42.18Q6.76 42.18 4.08 39.86L4.08 39.86L4.08 39.86Q1.41 37.54 1.41 33.33L1.41 33.33L1.41 33.33Q1.41 31.65 1.79 29.98L1.79 29.98L1.79 29.98Q3.08 23.83 7.09 20.39L7.09 20.39L7.09 20.39Q11.10 16.95 17.40 16.95L17.40 16.95L17.40 16.95Q21.58 16.95 24.55 17.97L24.55 17.97L23.60 22.38L23.60 22.38Q20.82 21.32 16.83 21.32L16.83 21.32L16.83 21.32Q12.73 21.32 10.32 23.46L10.32 23.46L10.32 23.46Q7.90 25.61 6.99 29.98L6.99 29.98L6.99 29.98Q6.61 31.62 6.61 33.06L6.61 33.06L6.61 33.06Q6.61 35.49 8.04 36.67L8.04 36.67L8.04 36.67Q9.46 37.85 12.73 37.85L12.73 37.85L12.73 37.85Q15.24 37.85 17.59 37.09L17.59 37.09L18.81 31.39L13.11 31.39L13.79 28.12L23.83 28.12L21.28 40.09L21.28 40.09Q19.65 41.00 17.23 41.59L17.23 41.59L17.23 41.59Q14.82 42.18 11.70 42.18L11.70 42.18ZM33.40 42.18L33.40 42.18Q29.41 42.18 27.38 40.49L27.38 40.49L27.38 40.49Q25.35 38.80 25.35 35.57L25.35 35.57L25.35 35.57Q25.31 34.35 25.65 32.79L25.65 32.79L25.65 32.79Q26.64 28.16 29.47 25.78L29.47 25.78L29.47 25.78Q32.30 23.41 37.39 23.41L37.39 23.41L37.39 23.41Q41.46 23.41 43.49 25.12L43.49 25.12L43.49 25.12Q45.52 26.83 45.52 30.06L45.52 30.06L45.52 30.06Q45.52 31.20 45.22 32.79L45.22 32.79L45.22 32.79Q44.23 37.47 41.42 39.82L41.42 39.82L41.42 39.82Q38.61 42.18 33.40 42.18L33.40 42.18ZM34.35 37.81L34.35 37.81Q36.86 37.81 38.13 36.67L38.13 36.67L38.13 36.67Q39.41 35.53 40.01 32.79L40.01 32.79L40.01 32.79Q40.28 31.62 40.28 30.63L40.28 30.63L40.28 30.63Q40.28 29.07 39.41 28.42L39.41 28.42L39.41 28.42Q38.53 27.78 36.48 27.78L36.48 27.78L36.48 27.78Q34.01 27.78 32.72 28.92L32.72 28.92L32.72 28.92Q31.43 30.06 30.86 32.79L30.86 32.79L30.86 32.79Q30.55 34.20 30.55 35.00L30.55 35.00L30.55 35.00Q30.55 36.52 31.44 37.16L31.44 37.16L31.44 37.16Q32.34 37.81 34.35 37.81L34.35 37.81ZM46.89 41.80L50.69 23.79L55.44 23.79L55.29 25.50L55.29 25.50Q56.70 24.59 58.48 24.00L58.48 24.00L58.48 24.00Q60.27 23.41 62.05 23.41L62.05 23.41L62.05 23.41Q64.87 23.41 66.27 24.60L66.27 24.60L66.27 24.60Q67.68 25.80 67.68 28.12L67.68 28.12L67.68 28.12Q67.68 29.11 67.45 30.25L67.45 30.25L65.02 41.80L59.89 41.80L62.28 30.51L62.28 30.51Q62.43 29.79 62.43 29.15L62.43 29.15L62.43 29.15Q62.43 28.08 61.81 27.63L61.81 27.63L61.81 27.63Q61.18 27.17 59.70 27.17L59.70 27.17L59.70 27.17Q58.33 27.17 57.04 27.68L57.04 27.68L57.04 27.68Q55.75 28.20 54.72 29.03L54.72 29.03L52.02 41.80L46.89 41.80ZM78.47 42.18L78.47 42.18Q74.56 42.18 72.31 40.41L72.31 40.41L72.31 40.41Q70.07 38.65 70.07 35.23L70.07 35.23L70.07 35.23Q70.07 34.05 70.34 32.76L70.34 32.76L70.34 32.76Q71.29 28.20 73.91 25.80L73.91 25.80L73.91 25.80Q76.53 23.41 81.47 23.41L81.47 23.41L81.47 23.41Q84.97 23.41 86.81 24.98L86.81 24.98L86.81 24.98Q88.65 26.56 88.65 29.30L88.65 29.30L88.65 29.30Q88.65 30.21 88.43 31.31L88.43 31.31L87.74 34.58L74.71 34.58L74.71 34.58Q74.67 36.06 75.16 36.86L75.16 36.86L75.16 36.86Q75.66 37.66 76.89 38L76.89 38L76.89 38Q78.13 38.34 80.37 38.34L80.37 38.34L80.37 38.34Q81.81 38.34 83.37 38.08L83.37 38.08L83.37 38.08Q84.93 37.81 86.07 37.39L86.07 37.39L85.31 41.04L85.31 41.04Q82.57 42.18 78.47 42.18L78.47 42.18ZM75.39 31.43L83.94 31.43L84.13 30.44L84.13 30.44Q84.25 29.91 84.25 29.49L84.25 29.49L84.25 29.49Q84.25 27.09 80.86 27.09L80.86 27.09L80.86 27.09Q78.36 27.09 77.12 28.10L77.12 28.10L77.12 28.10Q75.89 29.11 75.39 31.43L75.39 31.43ZM103.47 41.80L108.64 17.33L113.62 17.33L117.69 32.03L127.98 17.33L133.30 17.33L128.14 41.80L123.01 41.80L126.39 25.88L118.18 37.58L115.22 37.58L111.99 25.88L108.60 41.80L103.47 41.80ZM141.36 42.18L141.36 42.18Q137.37 42.18 135.34 40.49L135.34 40.49L135.34 40.49Q133.30 38.80 133.30 35.57L133.30 35.57L133.30 35.57Q133.27 34.35 133.61 32.79L133.61 32.79L133.61 32.79Q134.60 28.16 137.43 25.78L137.43 25.78L137.43 25.78Q140.26 23.41 145.35 23.41L145.35 23.41L145.35 23.41Q149.42 23.41 151.45 25.12L151.45 25.12L151.45 25.12Q153.48 26.83 153.48 30.06L153.48 30.06L153.48 30.06Q153.48 31.20 153.18 32.79L153.18 32.79L153.18 32.79Q152.19 37.47 149.38 39.82L149.38 39.82L149.38 39.82Q146.57 42.18 141.36 42.18L141.36 42.18ZM142.31 37.81L142.31 37.81Q144.82 37.81 146.09 36.67L146.09 36.67L146.09 36.67Q147.36 35.53 147.97 32.79L147.97 32.79L147.97 32.79Q148.24 31.62 148.24 30.63L148.24 30.63L148.24 30.63Q148.24 29.07 147.36 28.42L147.36 28.42L147.36 28.42Q146.49 27.78 144.44 27.78L144.44 27.78L144.44 27.78Q141.97 27.78 140.68 28.92L140.68 28.92L140.68 28.92Q139.38 30.06 138.81 32.79L138.81 32.79L138.81 32.79Q138.51 34.20 138.51 35.00L138.51 35.00L138.51 35.00Q138.51 36.52 139.40 37.16L139.40 37.16L139.40 37.16Q140.30 37.81 142.31 37.81L142.31 37.81ZM164.77 42.18L164.77 42.18Q161.20 42.18 159.33 40.13L159.33 40.13L158.73 41.80L154.28 41.80L159.71 16.19L164.84 16.19L163.02 24.78L163.02 24.78Q165.53 23.41 168.61 23.41L168.61 23.41L168.61 23.41Q171.68 23.41 173.53 25.06L173.53 25.06L173.53 25.06Q175.37 26.71 175.37 29.94L175.37 29.94L175.37 29.94Q175.37 31.05 175.07 32.64L175.07 32.64L175.07 32.64Q174.08 37.47 171.51 39.82L171.51 39.82L171.51 39.82Q168.95 42.18 164.77 42.18L164.77 42.18ZM164.12 38.42L164.12 38.42Q166.52 38.42 167.87 37.01L167.87 37.01L167.87 37.01Q169.21 35.61 169.86 32.64L169.86 32.64L169.86 32.64Q170.16 31.12 170.16 30.17L170.16 30.17L170.16 30.17Q170.16 28.54 169.31 27.85L169.31 27.85L169.31 27.85Q168.45 27.17 166.48 27.17L166.48 27.17L166.48 27.17Q163.97 27.17 162.22 28.50L162.22 28.50L160.47 36.78L160.47 36.78Q161.04 37.58 161.99 38L161.99 38L161.99 38Q162.94 38.42 164.12 38.42L164.12 38.42ZM183.50 20.48L184.34 16.45L189.92 16.45L189.09 20.48L183.50 20.48ZM179.40 41.80L182.40 27.59L179.70 27.59L180.96 23.79L188.33 23.79L184.53 41.80L179.40 41.80ZM193.80 42.18L193.80 42.18Q189.70 42.18 189.70 38.68L189.70 38.68L189.70 38.68Q189.70 38.04 189.89 37.09L189.89 37.09L194.33 16.19L199.46 16.19L195.09 36.67L195.09 36.67Q195.02 36.97 195.02 37.43L195.02 37.43L195.02 37.43Q195.02 37.92 195.30 38.13L195.30 38.13L195.30 38.13Q195.59 38.34 196.23 38.34L196.23 38.34L196.23 38.34Q197.22 38.34 198.06 38.08L198.06 38.08L197.33 41.61L197.33 41.61Q196.46 41.91 195.66 42.05L195.66 42.05L195.66 42.05Q194.86 42.18 193.80 42.18L193.80 42.18ZM209.49 42.18L209.49 42.18Q205.58 42.18 203.34 40.41L203.34 40.41L203.34 40.41Q201.10 38.65 201.10 35.23L201.10 35.23L201.10 35.23Q201.10 34.05 201.36 32.76L201.36 32.76L201.36 32.76Q202.31 28.20 204.93 25.80L204.93 25.80L204.93 25.80Q207.56 23.41 212.50 23.41L212.50 23.41L212.50 23.41Q215.99 23.41 217.84 24.98L217.84 24.98L217.84 24.98Q219.68 26.56 219.68 29.30L219.68 29.30L219.68 29.30Q219.68 30.21 219.45 31.31L219.45 31.31L218.77 34.58L205.73 34.58L205.73 34.58Q205.69 36.06 206.19 36.86L206.19 36.86L206.19 36.86Q206.68 37.66 207.92 38L207.92 38L207.92 38Q209.15 38.34 211.39 38.34L211.39 38.34L211.39 38.34Q212.84 38.34 214.40 38.08L214.40 38.08L214.40 38.08Q215.95 37.81 217.09 37.39L217.09 37.39L216.33 41.04L216.33 41.04Q213.60 42.18 209.49 42.18L209.49 42.18ZM206.42 31.43L214.97 31.43L215.16 30.44L215.16 30.44Q215.27 29.91 215.27 29.49L215.27 29.49L215.27 29.49Q215.27 27.09 211.89 27.09L211.89 27.09L211.89 27.09Q209.38 27.09 208.15 28.10L208.15 28.10L208.15 28.10Q206.91 29.11 206.42 31.43L206.42 31.43ZM243.09 41.80L238.91 17.33L244.11 17.33L246.92 36.06L257.68 17.33L263.19 17.33L248.71 41.80L243.09 41.80ZM269.00 42.18L269.00 42.18Q265.89 42.18 264.06 40.75L264.06 40.75L264.06 40.75Q262.24 39.33 262.24 36.29L262.24 36.29L262.24 36.29Q262.24 35.26 262.54 33.67L262.54 33.67L262.54 33.67Q263.23 30.51 264.82 28.20L264.82 28.20L264.82 28.20Q266.42 25.88 268.64 24.64L268.64 24.64L268.64 24.64Q270.86 23.41 273.45 23.41L273.45 23.41L273.45 23.41Q275.01 23.41 276.11 23.75L276.11 23.75L276.11 23.75Q277.21 24.09 278.12 24.97L278.12 24.97L278.35 23.79L283.48 23.79L279.68 41.80L275.27 41.80L275.31 40.13L275.31 40.13Q273.90 41.15 272.38 41.67L272.38 41.67L272.38 41.67Q270.86 42.18 269.00 42.18L269.00 42.18ZM271.21 38.42L271.21 38.42Q272.46 38.42 273.51 38.04L273.51 38.04L273.51 38.04Q274.55 37.66 275.61 36.78L275.61 36.78L277.29 28.77L277.29 28.77Q276.11 27.17 273.98 27.17L273.98 27.17L273.98 27.17Q271.59 27.17 270.01 28.82L270.01 28.82L270.01 28.82Q268.43 30.48 267.75 33.67L267.75 33.67L267.75 33.67Q267.48 34.77 267.48 35.72L267.48 35.72L267.48 35.72Q267.48 37.20 268.36 37.81L268.36 37.81L268.36 37.81Q269.23 38.42 271.21 38.42L271.21 38.42ZM284.05 41.80L287.85 23.79L292.60 23.79L292.45 25.50L292.45 25.50Q293.85 24.59 295.64 24.00L295.64 24.00L295.64 24.00Q297.43 23.41 299.21 23.41L299.21 23.41L299.21 23.41Q302.02 23.41 303.43 24.60L303.43 24.60L303.43 24.60Q304.84 25.80 304.84 28.12L304.84 28.12L304.84 28.12Q304.84 29.11 304.61 30.25L304.61 30.25L302.18 41.80L297.05 41.80L299.44 30.51L299.44 30.51Q299.59 29.79 299.59 29.15L299.59 29.15L299.59 29.15Q299.59 28.08 298.97 27.63L298.97 27.63L298.97 27.63Q298.34 27.17 296.86 27.17L296.86 27.17L296.86 27.17Q295.49 27.17 294.20 27.68L294.20 27.68L294.20 27.68Q292.90 28.20 291.88 29.03L291.88 29.03L289.18 41.80L284.05 41.80ZM312.59 42.18L312.59 42.18Q310.61 42.18 308.86 41.91L308.86 41.91L308.86 41.91Q307.12 41.65 306.05 41.19L306.05 41.19L306.96 36.94L306.96 36.94Q308.10 37.47 309.72 37.75L309.72 37.75L309.72 37.75Q311.33 38.04 312.82 38.04L312.82 38.04L312.82 38.04Q314.79 38.04 315.59 37.79L315.59 37.79L315.59 37.79Q316.39 37.54 316.54 36.78L316.54 36.78L316.54 36.78Q316.65 36.10 316.05 35.72L316.05 35.72L316.05 35.72Q315.44 35.34 313.65 34.73L313.65 34.73L313.65 34.73Q313.39 34.62 313.06 34.52L313.06 34.52L313.06 34.52Q312.74 34.43 312.32 34.28L312.32 34.28L312.32 34.28Q310.23 33.52 309.21 32.53L309.21 32.53L309.21 32.53Q308.18 31.54 308.18 30.02L308.18 30.02L308.18 30.02Q308.18 29.37 308.33 28.77L308.33 28.77L308.33 28.77Q308.94 26.07 311.05 24.74L311.05 24.74L311.05 24.74Q313.16 23.41 317.41 23.41L317.41 23.41L317.41 23.41Q318.97 23.41 320.44 23.64L320.44 23.64L320.44 23.64Q321.90 23.86 322.92 24.24L322.92 24.24L322.01 28.46L322.01 28.46Q321.14 28.01 319.87 27.74L319.87 27.74L319.87 27.74Q318.59 27.47 317.41 27.47L317.41 27.47L317.41 27.47Q315.48 27.47 314.51 27.78L314.51 27.78L314.51 27.78Q313.54 28.08 313.54 28.92L313.54 28.92L313.54 28.92Q313.54 29.45 314.13 29.75L314.13 29.75L314.13 29.75Q314.72 30.06 316.27 30.55L316.27 30.55L316.27 30.55Q316.77 30.67 317.41 30.89L317.41 30.89L317.41 30.89Q319.85 31.73 320.87 32.74L320.87 32.74L320.87 32.74Q321.90 33.74 321.90 35.26L321.90 35.26L321.90 35.26Q321.90 35.99 321.75 36.71L321.75 36.71L321.75 36.71Q321.18 39.48 318.99 40.83L318.99 40.83L318.99 40.83Q316.81 42.18 312.59 42.18L312.59 42.18Z" transform="rotate(0 162.1650048494339 29.1850004196167)"></path><defs id="SvgjsDefs1018"></defs></svg></g><g id="SvgjsG1021" transform="rotate(0 218.78125 56.9921875)"><svg xmlns="http://www.w3.org/2000/svg" xmlns:xlink="http://www.w3.org/1999/xlink" width="288.65625" viewBox="0.5900000333786011 6.820000171661377 288.6600036621094 14.239999771118164" overflow="visible" style="overflow: visible;" transform="" version="1.1" xmlns:svgjs="http://svgjs.com/svgjs" preserveAspectRatio="none" height="14.234375" x="74.453125" y="49.875" fill="#000000" stroke="none"><path stroke="none" fill="#000000" d="M4.11 17.76L4.11 17.76Q2.05 17.76 0.78 17.20L0.78 17.20L0.78 15.30L0.78 15.30Q1.50 15.58 2.32 15.76L2.32 15.76L2.32 15.76Q3.14 15.94 3.90 15.94L3.90 15.94L3.90 15.94Q5.10 15.94 5.59 15.71L5.59 15.71L5.59 15.71Q6.08 15.49 6.08 14.78L6.08 14.78L6.08 14.78Q6.08 14.32 5.86 14.05L5.86 14.05L5.86 14.05Q5.63 13.78 5.12 13.58L5.12 13.58L5.12 13.58Q4.61 13.38 3.52 13.07L3.52 13.07L3.52 13.07Q1.90 12.62 1.25 11.95L1.25 11.95L1.25 11.95Q0.59 11.28 0.59 10.10L0.59 10.10L0.59 10.10Q0.59 8.67 1.63 7.90L1.63 7.90L1.63 7.90Q2.67 7.14 4.66 7.14L4.66 7.14L4.66 7.14Q5.55 7.14 6.36 7.26L6.36 7.26L6.36 7.26Q7.17 7.38 7.68 7.57L7.68 7.57L7.68 9.47L7.68 9.47Q6.37 8.98 4.94 8.98L4.94 8.98L4.94 8.98Q3.86 8.98 3.32 9.22L3.32 9.22L3.32 9.22Q2.78 9.46 2.78 10.10L2.78 10.10L2.78 10.10Q2.78 10.50 2.98 10.74L2.98 10.74L2.98 10.74Q3.18 10.98 3.66 11.16L3.66 11.16L3.66 11.16Q4.13 11.34 5.12 11.60L5.12 11.60L5.12 11.60Q6.91 12.08 7.60 12.84L7.60 12.84L7.60 12.84Q8.29 13.60 8.29 14.78L8.29 14.78L8.29 14.78Q8.29 16.18 7.23 16.97L7.23 16.97L7.23 16.97Q6.18 17.76 4.11 17.76L4.11 17.76ZM10.35 8.62L10.35 6.93L12.70 6.93L12.70 8.62L10.35 8.62ZM10.53 17.60L10.53 11.62L9.39 11.62L9.58 10.02L12.69 10.02L12.69 17.60L10.53 17.60ZM14.53 17.60L14.53 10.02L16.53 10.02L16.61 10.75L16.61 10.75Q17.79 9.86 19.20 9.86L19.20 9.86L19.20 9.86Q19.97 9.86 20.42 10.09L20.42 10.09L20.42 10.09Q20.86 10.32 21.12 10.78L21.12 10.78L21.12 10.78Q21.70 10.34 22.38 10.10L22.38 10.10L22.38 10.10Q23.06 9.86 23.94 9.86L23.94 9.86L23.94 9.86Q25.25 9.86 25.87 10.54L25.87 10.54L25.87 10.54Q26.50 11.22 26.50 12.61L26.50 12.61L26.50 17.60L24.37 17.60L24.37 12.85L24.37 12.85Q24.37 12.11 24.05 11.78L24.05 11.78L24.05 11.78Q23.73 11.44 23.02 11.44L23.02 11.44L23.02 11.44Q22.58 11.44 22.15 11.62L22.15 11.62L22.15 11.62Q21.73 11.81 21.42 12.13L21.42 12.13L21.42 12.13Q21.50 12.40 21.50 12.78L21.50 12.78L21.50 17.60L19.49 17.60L19.49 12.85L19.49 12.85Q19.49 12.11 19.23 11.78L19.23 11.78L19.23 11.78Q18.98 11.44 18.32 11.44L18.32 11.44L18.32 11.44Q17.50 11.44 16.66 12.26L16.66 12.26L16.66 17.60L14.53 17.60ZM28.26 21.06L28.26 10.02L30.13 10.02L30.24 10.72L30.24 10.72Q30.75 10.29 31.34 10.07L31.34 10.07L31.34 10.07Q31.94 9.86 32.72 9.86L32.72 9.86L32.72 9.86Q34.43 9.86 35.31 10.78L35.31 10.78L35.31 10.78Q36.19 11.71 36.19 13.71L36.19 13.71L36.19 13.71Q36.19 15.73 35.25 16.74L35.25 16.74L35.25 16.74Q34.30 17.76 32.59 17.76L32.59 17.76L32.59 17.76Q31.31 17.76 30.42 17.18L30.42 17.18L30.42 21.06L28.26 21.06ZM32.05 16.18L32.05 16.18Q33.02 16.18 33.51 15.58L33.51 15.58L33.51 15.58Q34 14.98 34 13.73L34 13.73L34 13.73Q34 12.51 33.55 11.98L33.55 11.98L33.55 11.98Q33.10 11.44 32.11 11.44L32.11 11.44L32.11 11.44Q31.12 11.44 30.42 12.13L30.42 12.13L30.42 15.60L30.42 15.60Q30.78 15.89 31.16 16.03L31.16 16.03L31.16 16.03Q31.54 16.18 32.05 16.18L32.05 16.18ZM39.81 17.76L39.81 17.76Q38.70 17.76 38.20 17.25L38.20 17.25L38.20 17.25Q37.70 16.74 37.70 15.62L37.70 15.62L37.70 6.82L39.86 6.82L39.86 15.44L39.86 15.44Q39.86 15.84 40.01 15.99L40.01 15.99L40.01 15.99Q40.16 16.14 40.48 16.14L40.48 16.14L40.48 16.14Q40.90 16.14 41.23 16.03L41.23 16.03L41.23 17.52L41.23 17.52Q40.90 17.65 40.58 17.70L40.58 17.70L40.58 17.70Q40.26 17.76 39.81 17.76L39.81 17.76ZM45.70 17.76L45.70 17.76Q43.68 17.76 42.55 16.76L42.55 16.76L42.55 16.76Q41.42 15.76 41.42 13.79L41.42 13.79L41.42 13.79Q41.42 11.94 42.41 10.90L42.41 10.90L42.41 10.90Q43.39 9.86 45.28 9.86L45.28 9.86L45.28 9.86Q47.01 9.86 47.96 10.76L47.96 10.76L47.96 10.76Q48.91 11.66 48.91 13.18L48.91 13.18L48.91 14.56L43.42 14.56L43.42 14.56Q43.58 15.44 44.23 15.79L44.23 15.79L44.23 15.79Q44.88 16.14 46.14 16.14L46.14 16.14L46.14 16.14Q46.75 16.14 47.38 16.03L47.38 16.03L47.38 16.03Q48.02 15.92 48.46 15.74L48.46 15.74L48.46 17.28L48.46 17.28Q47.41 17.76 45.70 17.76L45.70 17.76ZM43.42 13.23L47.02 13.23L47.02 12.82L47.02 12.82Q47.02 11.41 45.34 11.41L45.34 11.41L45.34 11.41Q44.29 11.41 43.86 11.83L43.86 11.83L43.86 11.83Q43.42 12.26 43.42 13.23L43.42 13.23ZM50.10 19.52L50.59 16.30L52.45 16.30L51.65 19.52L50.10 19.52ZM64.74 17.76L64.74 17.76Q62.18 17.76 60.78 16.38L60.78 16.38L60.78 16.38Q59.39 14.99 59.39 12.54L59.39 12.54L59.39 12.54Q59.39 9.95 60.74 8.54L60.74 8.54L60.74 8.54Q62.10 7.14 64.72 7.14L64.72 7.14L64.72 7.14Q66.38 7.14 67.79 7.65L67.79 7.65L67.79 9.54L67.79 9.54Q66.43 8.98 64.88 8.98L64.88 8.98L64.88 8.98Q63.14 8.98 62.36 9.85L62.36 9.85L62.36 9.85Q61.58 10.72 61.58 12.54L61.58 12.54L61.58 12.54Q61.58 14.26 62.41 15.10L62.41 15.10L62.41 15.10Q63.23 15.94 64.91 15.94L64.91 15.94L64.91 15.94Q66.48 15.94 67.81 15.39L67.81 15.39L67.81 17.30L67.81 17.30Q66.38 17.76 64.74 17.76L64.74 17.76ZM71.42 17.76L71.42 17.76Q70.32 17.76 69.82 17.25L69.82 17.25L69.82 17.25Q69.31 16.74 69.31 15.62L69.31 15.62L69.31 6.82L71.47 6.82L71.47 15.44L71.47 15.44Q71.47 15.84 71.62 15.99L71.62 15.99L71.62 15.99Q71.78 16.14 72.10 16.14L72.10 16.14L72.10 16.14Q72.51 16.14 72.85 16.03L72.85 16.03L72.85 17.52L72.85 17.52Q72.51 17.65 72.19 17.70L72.19 17.70L72.19 17.70Q71.87 17.76 71.42 17.76L71.42 17.76ZM77.31 17.76L77.31 17.76Q75.30 17.76 74.17 16.76L74.17 16.76L74.17 16.76Q73.04 15.76 73.04 13.79L73.04 13.79L73.04 13.79Q73.04 11.94 74.02 10.90L74.02 10.90L74.02 10.90Q75.01 9.86 76.90 9.86L76.90 9.86L76.90 9.86Q78.62 9.86 79.58 10.76L79.58 10.76L79.58 10.76Q80.53 11.66 80.53 13.18L80.53 13.18L80.53 14.56L75.04 14.56L75.04 14.56Q75.20 15.44 75.85 15.79L75.85 15.79L75.85 15.79Q76.50 16.14 77.76 16.14L77.76 16.14L77.76 16.14Q78.37 16.14 79.00 16.03L79.00 16.03L79.00 16.03Q79.63 15.92 80.08 15.74L80.08 15.74L80.08 17.28L80.08 17.28Q79.02 17.76 77.31 17.76L77.31 17.76ZM75.04 13.23L78.64 13.23L78.64 12.82L78.64 12.82Q78.64 11.41 76.96 11.41L76.96 11.41L76.96 11.41Q75.90 11.41 75.47 11.83L75.47 11.83L75.47 11.83Q75.04 12.26 75.04 13.23L75.04 13.23ZM84.42 17.76L84.42 17.76Q83.26 17.76 82.49 17.14L82.49 17.14L82.49 17.14Q81.71 16.53 81.71 15.41L81.71 15.41L81.71 15.41Q81.71 14.27 82.52 13.61L82.52 13.61L82.52 13.61Q83.33 12.94 84.85 12.94L84.85 12.94L87.09 12.94L87.09 12.74L87.09 12.74Q87.09 12.26 86.92 11.98L86.92 11.98L86.92 11.98Q86.75 11.71 86.33 11.58L86.33 11.58L86.33 11.58Q85.90 11.46 85.12 11.46L85.12 11.46L85.12 11.46Q83.82 11.46 82.62 11.86L82.62 11.86L82.62 10.34L82.62 10.34Q83.18 10.11 83.94 9.98L83.94 9.98L83.94 9.98Q84.70 9.86 85.57 9.86L85.57 9.86L85.57 9.86Q89.15 9.86 89.15 12.78L89.15 12.78L89.15 17.60L87.28 17.60L87.17 16.91L87.17 16.91Q86.24 17.76 84.42 17.76L84.42 17.76ZM85.01 16.34L85.01 16.34Q85.70 16.34 86.23 16.10L86.23 16.10L86.23 16.10Q86.77 15.87 87.09 15.49L87.09 15.49L87.09 14.29L84.90 14.29L84.90 14.29Q83.63 14.29 83.63 15.33L83.63 15.33L83.63 15.33Q83.63 16.34 85.01 16.34L85.01 16.34ZM90.90 17.60L90.90 10.02L92.90 10.02L92.98 10.74L92.98 10.74Q93.49 10.35 94.19 10.10L94.19 10.10L94.19 10.10Q94.90 9.86 95.65 9.86L95.65 9.86L95.65 9.86Q97.14 9.86 97.83 10.55L97.83 10.55L97.83 10.55Q98.53 11.25 98.53 12.74L98.53 12.74L98.53 17.60L96.37 17.60L96.37 12.85L96.37 12.85Q96.37 12.06 96.05 11.75L96.05 11.75L96.05 11.75Q95.73 11.44 94.90 11.44L94.90 11.44L94.90 11.44Q94.40 11.44 93.90 11.66L93.90 11.66L93.90 11.66Q93.41 11.87 93.06 12.22L93.06 12.22L93.06 17.60L90.90 17.60ZM99.97 19.52L100.46 16.30L102.32 16.30L101.52 19.52L99.97 19.52ZM114.61 17.76L114.61 17.76Q112.05 17.76 110.66 16.38L110.66 16.38L110.66 16.38Q109.26 14.99 109.26 12.54L109.26 12.54L109.26 12.54Q109.26 9.95 110.62 8.54L110.62 8.54L110.62 8.54Q111.97 7.14 114.59 7.14L114.59 7.14L114.59 7.14Q116.26 7.14 117.66 7.65L117.66 7.65L117.66 9.54L117.66 9.54Q116.30 8.98 114.75 8.98L114.75 8.98L114.75 8.98Q113.01 8.98 112.23 9.85L112.23 9.85L112.23 9.85Q111.46 10.72 111.46 12.54L111.46 12.54L111.46 12.54Q111.46 14.26 112.28 15.10L112.28 15.10L112.28 15.10Q113.10 15.94 114.78 15.94L114.78 15.94L114.78 15.94Q116.35 15.94 117.68 15.39L117.68 15.39L117.68 17.30L117.68 17.30Q116.26 17.76 114.61 17.76L114.61 17.76ZM120.85 17.76L120.85 17.76Q119.70 17.76 118.92 17.14L118.92 17.14L118.92 17.14Q118.14 16.53 118.14 15.41L118.14 15.41L118.14 15.41Q118.14 14.27 118.95 13.61L118.95 13.61L118.95 13.61Q119.76 12.94 121.28 12.94L121.28 12.94L123.52 12.94L123.52 12.74L123.52 12.74Q123.52 12.26 123.35 11.98L123.35 11.98L123.35 11.98Q123.18 11.71 122.76 11.58L122.76 11.58L122.76 11.58Q122.34 11.46 121.55 11.46L121.55 11.46L121.55 11.46Q120.26 11.46 119.06 11.86L119.06 11.86L119.06 10.34L119.06 10.34Q119.62 10.11 120.38 9.98L120.38 9.98L120.38 9.98Q121.14 9.86 122 9.86L122 9.86L122 9.86Q125.58 9.86 125.58 12.78L125.58 12.78L125.58 17.60L123.71 17.60L123.60 16.91L123.60 16.91Q122.67 17.76 120.85 17.76L120.85 17.76ZM121.44 16.34L121.44 16.34Q122.13 16.34 122.66 16.10L122.66 16.10L122.66 16.10Q123.20 15.87 123.52 15.49L123.52 15.49L123.52 14.29L121.33 14.29L121.33 14.29Q120.06 14.29 120.06 15.33L120.06 15.33L120.06 15.33Q120.06 16.34 121.44 16.34L121.44 16.34ZM127.33 21.06L127.33 10.02L129.20 10.02L129.31 10.72L129.31 10.72Q129.82 10.29 130.42 10.07L130.42 10.07L130.42 10.07Q131.01 9.86 131.79 9.86L131.79 9.86L131.79 9.86Q133.50 9.86 134.38 10.78L134.38 10.78L134.38 10.78Q135.26 11.71 135.26 13.71L135.26 13.71L135.26 13.71Q135.26 15.73 134.32 16.74L134.32 16.74L134.32 16.74Q133.38 17.76 131.66 17.76L131.66 17.76L131.66 17.76Q130.38 17.76 129.49 17.18L129.49 17.18L129.49 21.06L127.33 21.06ZM131.12 16.18L131.12 16.18Q132.10 16.18 132.58 15.58L132.58 15.58L132.58 15.58Q133.07 14.98 133.07 13.73L133.07 13.73L133.07 13.73Q133.07 12.51 132.62 11.98L132.62 11.98L132.62 11.98Q132.18 11.44 131.18 11.44L131.18 11.44L131.18 11.44Q130.19 11.44 129.49 12.13L129.49 12.13L129.49 15.60L129.49 15.60Q129.86 15.89 130.23 16.03L130.23 16.03L130.23 16.03Q130.61 16.18 131.12 16.18L131.12 16.18ZM139.15 17.76L139.15 17.76Q138.00 17.76 137.22 17.14L137.22 17.14L137.22 17.14Q136.45 16.53 136.45 15.41L136.45 15.41L136.45 15.41Q136.45 14.27 137.26 13.61L137.26 13.61L137.26 13.61Q138.06 12.94 139.58 12.94L139.58 12.94L141.82 12.94L141.82 12.74L141.82 12.74Q141.82 12.26 141.66 11.98L141.66 11.98L141.66 11.98Q141.49 11.71 141.06 11.58L141.06 11.58L141.06 11.58Q140.64 11.46 139.86 11.46L139.86 11.46L139.86 11.46Q138.56 11.46 137.36 11.86L137.36 11.86L137.36 10.34L137.36 10.34Q137.92 10.11 138.68 9.98L138.68 9.98L138.68 9.98Q139.44 9.86 140.30 9.86L140.30 9.86L140.30 9.86Q143.89 9.86 143.89 12.78L143.89 12.78L143.89 17.60L142.02 17.60L141.90 16.91L141.90 16.91Q140.98 17.76 139.15 17.76L139.15 17.76ZM139.74 16.34L139.74 16.34Q140.43 16.34 140.97 16.10L140.97 16.10L140.97 16.10Q141.50 15.87 141.82 15.49L141.82 15.49L141.82 14.29L139.63 14.29L139.63 14.29Q138.37 14.29 138.37 15.33L138.37 15.33L138.37 15.33Q138.37 16.34 139.74 16.34L139.74 16.34ZM150.10 17.76L150.10 17.76Q149.31 17.76 148.71 17.55L148.71 17.55L148.71 17.55Q148.11 17.34 147.62 16.90L147.62 16.90L147.50 17.60L145.63 17.60L145.63 6.82L147.79 6.82L147.79 10.43L147.79 10.43Q148.74 9.86 150.03 9.86L150.03 9.86L150.03 9.86Q151.73 9.86 152.65 10.81L152.65 10.81L152.65 10.81Q153.57 11.76 153.57 13.74L153.57 13.74L153.57 13.74Q153.57 15.74 152.66 16.75L152.66 16.75L152.66 16.75Q151.74 17.76 150.10 17.76L150.10 17.76ZM149.49 16.18L149.49 16.18Q150.50 16.18 150.94 15.58L150.94 15.58L150.94 15.58Q151.38 14.99 151.38 13.74L151.38 13.74L151.38 13.74Q151.38 12.50 150.93 11.97L150.93 11.97L150.93 11.97Q150.48 11.44 149.47 11.44L149.47 11.44L149.47 11.44Q148.96 11.44 148.53 11.58L148.53 11.58L148.53 11.58Q148.10 11.73 147.79 12L147.79 12L147.79 15.49L147.79 15.49Q148.10 15.82 148.54 16L148.54 16L148.54 16Q148.99 16.18 149.49 16.18L149.49 16.18ZM157.18 17.76L157.18 17.76Q156.08 17.76 155.58 17.25L155.58 17.25L155.58 17.25Q155.07 16.74 155.07 15.62L155.07 15.62L155.07 6.82L157.23 6.82L157.23 15.44L157.23 15.44Q157.23 15.84 157.38 15.99L157.38 15.99L157.38 15.99Q157.54 16.14 157.86 16.14L157.86 16.14L157.86 16.14Q158.27 16.14 158.61 16.03L158.61 16.03L158.61 17.52L158.61 17.52Q158.27 17.65 157.95 17.70L157.95 17.70L157.95 17.70Q157.63 17.76 157.18 17.76L157.18 17.76ZM163.07 17.76L163.07 17.76Q161.06 17.76 159.93 16.76L159.93 16.76L159.93 16.76Q158.80 15.76 158.80 13.79L158.80 13.79L158.80 13.79Q158.80 11.94 159.78 10.90L159.78 10.90L159.78 10.90Q160.77 9.86 162.66 9.86L162.66 9.86L162.66 9.86Q164.38 9.86 165.34 10.76L165.34 10.76L165.34 10.76Q166.29 11.66 166.29 13.18L166.29 13.18L166.29 14.56L160.80 14.56L160.80 14.56Q160.96 15.44 161.61 15.79L161.61 15.79L161.61 15.79Q162.26 16.14 163.52 16.14L163.52 16.14L163.52 16.14Q164.13 16.14 164.76 16.03L164.76 16.03L164.76 16.03Q165.39 15.92 165.84 15.74L165.84 15.74L165.84 17.28L165.84 17.28Q164.78 17.76 163.07 17.76L163.07 17.76ZM160.80 13.23L164.40 13.23L164.40 12.82L164.40 12.82Q164.40 11.41 162.72 11.41L162.72 11.41L162.72 11.41Q161.66 11.41 161.23 11.83L161.23 11.83L161.23 11.83Q160.80 12.26 160.80 13.23L160.80 13.23ZM173.23 17.60L177.17 7.30L179.54 7.30L183.46 17.60L181.22 17.60L180.24 15.12L176.45 15.12L175.49 17.60L173.23 17.60ZM176.77 13.46L179.92 13.46L178.34 9.31L176.77 13.46ZM187.73 17.76L187.73 17.76Q186.11 17.76 185.18 16.87L185.18 16.87L185.18 16.87Q184.24 15.98 184.24 14.03L184.24 14.03L184.24 14.03Q184.24 12.72 184.73 11.78L184.73 11.78L184.73 11.78Q185.22 10.83 186.04 10.34L186.04 10.34L186.04 10.34Q186.86 9.86 187.89 9.86L187.89 9.86L187.89 9.86Q189.14 9.86 190.02 10.43L190.02 10.43L190.02 6.82L192.18 6.82L192.18 17.60L190.32 17.60L190.19 16.90L190.19 16.90Q189.70 17.33 189.10 17.54L189.10 17.54L189.10 17.54Q188.51 17.76 187.73 17.76L187.73 17.76ZM188.32 16.18L188.32 16.18Q188.85 16.18 189.25 16.02L189.25 16.02L189.25 16.02Q189.65 15.86 190.02 15.49L190.02 15.49L190.02 12.03L190.02 12.03Q189.34 11.44 188.45 11.44L188.45 11.44L188.45 11.44Q187.46 11.44 186.94 12.10L186.94 12.10L186.94 12.10Q186.43 12.75 186.43 14.03L186.43 14.03L186.43 14.03Q186.43 15.20 186.90 15.69L186.90 15.69L186.90 15.69Q187.38 16.18 188.32 16.18L188.32 16.18ZM196.27 17.60L193.28 10.02L195.54 10.02L197.42 15.42L199.33 10.02L201.57 10.02L198.59 17.60L196.27 17.60ZM206.24 17.76L206.24 17.76Q204.22 17.76 203.10 16.76L203.10 16.76L203.10 16.76Q201.97 15.76 201.97 13.79L201.97 13.79L201.97 13.79Q201.97 11.94 202.95 10.90L202.95 10.90L202.95 10.90Q203.94 9.86 205.82 9.86L205.82 9.86L205.82 9.86Q207.55 9.86 208.50 10.76L208.50 10.76L208.50 10.76Q209.46 11.66 209.46 13.18L209.46 13.18L209.46 14.56L203.97 14.56L203.97 14.56Q204.13 15.44 204.78 15.79L204.78 15.79L204.78 15.79Q205.42 16.14 206.69 16.14L206.69 16.14L206.69 16.14Q207.30 16.14 207.93 16.03L207.93 16.03L207.93 16.03Q208.56 15.92 209.01 15.74L209.01 15.74L209.01 17.28L209.01 17.28Q207.95 17.76 206.24 17.76L206.24 17.76ZM203.97 13.23L207.57 13.23L207.57 12.82L207.57 12.82Q207.57 11.41 205.89 11.41L205.89 11.41L205.89 11.41Q204.83 11.41 204.40 11.83L204.40 11.83L204.40 11.83Q203.97 12.26 203.97 13.23L203.97 13.23ZM210.96 17.60L210.96 10.02L212.96 10.02L213.04 10.74L213.04 10.74Q213.55 10.35 214.26 10.10L214.26 10.10L214.26 10.10Q214.96 9.86 215.71 9.86L215.71 9.86L215.71 9.86Q217.20 9.86 217.90 10.55L217.90 10.55L217.90 10.55Q218.59 11.25 218.59 12.74L218.59 12.74L218.59 17.60L216.43 17.60L216.43 12.85L216.43 12.85Q216.43 12.06 216.11 11.75L216.11 11.75L216.11 11.75Q215.79 11.44 214.96 11.44L214.96 11.44L214.96 11.44Q214.46 11.44 213.97 11.66L213.97 11.66L213.97 11.66Q213.47 11.87 213.12 12.22L213.12 12.22L213.12 17.60L210.96 17.60ZM223.36 17.76L223.36 17.76Q222.06 17.76 221.42 17.09L221.42 17.09L221.42 17.09Q220.78 16.42 220.78 15.20L220.78 15.20L220.78 11.68L219.71 11.68L219.71 10.02L220.78 10.02L220.78 8.38L222.94 7.74L222.94 10.02L224.86 10.02L224.74 11.68L222.94 11.68L222.94 15.06L222.94 15.06Q222.94 15.66 223.22 15.90L223.22 15.90L223.22 15.90Q223.50 16.14 224.13 16.14L224.13 16.14L224.13 16.14Q224.58 16.14 225.06 15.98L225.06 15.98L225.06 17.47L225.06 17.47Q224.34 17.76 223.36 17.76L223.36 17.76ZM228.64 17.76L228.64 17.76Q227.26 17.76 226.51 16.99L226.51 16.99L226.51 16.99Q225.76 16.22 225.76 14.77L225.76 14.77L225.76 10.02L227.92 10.02L227.92 14.72L227.92 14.72Q227.92 15.47 228.28 15.82L228.28 15.82L228.28 15.82Q228.64 16.18 229.39 16.18L229.39 16.18L229.39 16.18Q229.94 16.18 230.41 15.96L230.41 15.96L230.41 15.96Q230.88 15.74 231.23 15.39L231.23 15.39L231.23 10.02L233.39 10.02L233.39 17.60L231.39 17.60L231.31 16.88L231.31 16.88Q230.21 17.76 228.64 17.76L228.64 17.76ZM235.23 17.60L235.23 10.02L237.23 10.02L237.33 10.80L237.33 10.80Q237.86 10.46 238.61 10.21L238.61 10.21L238.61 10.21Q239.36 9.95 240.10 9.86L240.10 9.86L240.10 11.49L240.10 11.49Q239.41 11.58 238.62 11.82L238.62 11.82L238.62 11.82Q237.84 12.05 237.39 12.30L237.39 12.30L237.39 17.60L235.23 17.60ZM244.75 17.76L244.75 17.76Q242.74 17.76 241.61 16.76L241.61 16.76L241.61 16.76Q240.48 15.76 240.48 13.79L240.48 13.79L240.48 13.79Q240.48 11.94 241.46 10.90L241.46 10.90L241.46 10.90Q242.45 9.86 244.34 9.86L244.34 9.86L244.34 9.86Q246.06 9.86 247.02 10.76L247.02 10.76L247.02 10.76Q247.97 11.66 247.97 13.18L247.97 13.18L247.97 14.56L242.48 14.56L242.48 14.56Q242.64 15.44 243.29 15.79L243.29 15.79L243.29 15.79Q243.94 16.14 245.20 16.14L245.20 16.14L245.20 16.14Q245.81 16.14 246.44 16.03L246.44 16.03L246.44 16.03Q247.07 15.92 247.52 15.74L247.52 15.74L247.52 17.28L247.52 17.28Q246.46 17.76 244.75 17.76L244.75 17.76ZM242.48 13.23L246.08 13.23L246.08 12.82L246.08 12.82Q246.08 11.41 244.40 11.41L244.40 11.41L244.40 11.41Q243.34 11.41 242.91 11.83L242.91 11.83L242.91 11.83Q242.48 12.26 242.48 13.23L242.48 13.23ZM258.85 17.60L254.91 7.30L257.17 7.30L260.02 15.18L262.88 7.30L265.14 7.30L261.22 17.60L258.85 17.60ZM267.34 17.76L267.34 17.76Q266.19 17.76 265.42 17.14L265.42 17.14L265.42 17.14Q264.64 16.53 264.64 15.41L264.64 15.41L264.64 15.41Q264.64 14.27 265.45 13.61L265.45 13.61L265.45 13.61Q266.26 12.94 267.78 12.94L267.78 12.94L270.02 12.94L270.02 12.74L270.02 12.74Q270.02 12.26 269.85 11.98L269.85 11.98L269.85 11.98Q269.68 11.71 269.26 11.58L269.26 11.58L269.26 11.58Q268.83 11.46 268.05 11.46L268.05 11.46L268.05 11.46Q266.75 11.46 265.55 11.86L265.55 11.86L265.55 10.34L265.55 10.34Q266.11 10.11 266.87 9.98L266.87 9.98L266.87 9.98Q267.63 9.86 268.50 9.86L268.50 9.86L268.50 9.86Q272.08 9.86 272.08 12.78L272.08 12.78L272.08 17.60L270.21 17.60L270.10 16.91L270.10 16.91Q269.17 17.76 267.34 17.76L267.34 17.76ZM267.94 16.34L267.94 16.34Q268.62 16.34 269.16 16.10L269.16 16.10L269.16 16.10Q269.70 15.87 270.02 15.49L270.02 15.49L270.02 14.29L267.82 14.29L267.82 14.29Q266.56 14.29 266.56 15.33L266.56 15.33L266.56 15.33Q266.56 16.34 267.94 16.34L267.94 16.34ZM273.82 17.60L273.82 10.02L275.82 10.02L275.90 10.74L275.90 10.74Q276.42 10.35 277.12 10.10L277.12 10.10L277.12 10.10Q277.82 9.86 278.58 9.86L278.58 9.86L278.58 9.86Q280.06 9.86 280.76 10.55L280.76 10.55L280.76 10.55Q281.46 11.25 281.46 12.74L281.46 12.74L281.46 17.60L279.30 17.60L279.30 12.85L279.30 12.85Q279.30 12.06 278.98 11.75L278.98 11.75L278.98 11.75Q278.66 11.44 277.82 11.44L277.82 11.44L277.82 11.44Q277.33 11.44 276.83 11.66L276.83 11.66L276.83 11.66Q276.34 11.87 275.98 12.22L275.98 12.22L275.98 17.60L273.82 17.60ZM285.89 17.76L285.89 17.76Q285.06 17.76 284.29 17.65L284.29 17.65L284.29 17.65Q283.52 17.54 283.04 17.34L283.04 17.34L283.04 15.55L283.04 15.55Q283.57 15.78 284.27 15.90L284.27 15.90L284.27 15.90Q284.98 16.02 285.60 16.02L285.60 16.02L285.60 16.02Q286.43 16.02 286.74 15.91L286.74 15.91L286.74 15.91Q287.06 15.81 287.06 15.49L287.06 15.49L287.06 15.49Q287.06 15.20 286.77 15.04L286.77 15.04L286.77 15.04Q286.48 14.88 285.66 14.62L285.66 14.62L285.66 14.62Q285.42 14.56 285.06 14.43L285.06 14.43L285.06 14.43Q283.94 14.06 283.42 13.55L283.42 13.55L283.42 13.55Q282.90 13.04 282.90 12.11L282.90 12.11L282.90 12.11Q282.90 11.01 283.70 10.43L283.70 10.43L283.70 10.43Q284.51 9.86 286.24 9.86L286.24 9.86L286.24 9.86Q286.90 9.86 287.53 9.95L287.53 9.95L287.53 9.95Q288.16 10.05 288.62 10.21L288.62 10.21L288.62 11.98L288.62 11.98Q288.21 11.79 287.65 11.68L287.65 11.68L287.65 11.68Q287.09 11.57 286.59 11.57L286.59 11.57L286.59 11.57Q285.82 11.57 285.46 11.67L285.46 11.67L285.46 11.67Q285.09 11.78 285.09 12.08L285.09 12.08L285.09 12.08Q285.09 12.35 285.35 12.49L285.35 12.49L285.35 12.49Q285.62 12.62 286.37 12.85L286.37 12.85L286.90 13.01L286.90 13.01Q287.82 13.30 288.32 13.61L288.32 13.61L288.32 13.61Q288.82 13.92 289.03 14.35L289.03 14.35L289.03 14.35Q289.25 14.78 289.25 15.46L289.25 15.46L289.25 15.46Q289.25 16.59 288.40 17.18L288.40 17.18L288.40 17.18Q287.55 17.76 285.89 17.76L285.89 17.76Z" transform="rotate(0 144.9200018644333 13.940000057220459)"></path><defs id="SvgjsDefs1020"></defs></svg></g></svg>