<svg width="100" height="100" viewBox="0 0 100 100" fill="none" xmlns="http://www.w3.org/2000/svg">
<rect width="100" height="100" fill="#993434"/>
<g filter="url(#filter0_d_2249_3762)">
<mask id="path-1-inside-1_2249_3762" fill="white">
<path d="M62.8398 13.761C68.1987 13.7611 73.1506 16.6201 75.8301 21.261L88.6699 43.5002C91.3492 48.1412 91.3494 53.8593 88.6699 58.5002L75.8301 80.7395C73.1506 85.3803 68.1986 88.2394 62.8398 88.2395H37.1602C31.8013 88.2395 26.8495 85.3803 24.1699 80.7395L11.3301 58.5002C8.65061 53.8593 8.65065 48.1412 11.3301 43.5002L24.1699 21.261C26.8494 16.62 31.8012 13.761 37.1602 13.761H62.8398ZM50 39.0002C48.3431 39.0002 47 40.3434 47 42.0002V77.0002C47.0001 78.657 48.3432 80.0002 50 80.0002C51.6567 80.0001 52.9999 78.6569 53 77.0002V42.0002C53 40.3435 51.6568 39.0004 50 39.0002ZM29 28.0002C27.3431 28.0002 26 29.3434 26 31.0002C26.0001 32.657 27.3432 34.0002 29 34.0002H71C72.6567 34.0001 73.9999 32.6569 74 31.0002C74 29.3435 72.6568 28.0004 71 28.0002H29Z"/>
</mask>
<path d="M62.8398 13.761C68.1987 13.7611 73.1506 16.6201 75.8301 21.261L88.6699 43.5002C91.3492 48.1412 91.3494 53.8593 88.6699 58.5002L75.8301 80.7395C73.1506 85.3803 68.1986 88.2394 62.8398 88.2395H37.1602C31.8013 88.2395 26.8495 85.3803 24.1699 80.7395L11.3301 58.5002C8.65061 53.8593 8.65065 48.1412 11.3301 43.5002L24.1699 21.261C26.8494 16.62 31.8012 13.761 37.1602 13.761H62.8398ZM50 39.0002C48.3431 39.0002 47 40.3434 47 42.0002V77.0002C47.0001 78.657 48.3432 80.0002 50 80.0002C51.6567 80.0001 52.9999 78.6569 53 77.0002V42.0002C53 40.3435 51.6568 39.0004 50 39.0002ZM29 28.0002C27.3431 28.0002 26 29.3434 26 31.0002C26.0001 32.657 27.3432 34.0002 29 34.0002H71C72.6567 34.0001 73.9999 32.6569 74 31.0002C74 29.3435 72.6568 28.0004 71 28.0002H29Z" fill="#2D2E33"/>
<path d="M62.8398 13.761L62.8399 12.761H62.8398V13.761ZM75.8301 21.261L74.9641 21.761L74.9641 21.761L75.8301 21.261ZM88.6699 43.5002L89.536 43.0003L89.5359 43.0002L88.6699 43.5002ZM88.6699 58.5002L89.5359 59.0002L89.5359 59.0002L88.6699 58.5002ZM75.8301 80.7395L76.6961 81.2395L76.6961 81.2395L75.8301 80.7395ZM62.8398 88.2395L62.8398 89.2395L62.8399 89.2395L62.8398 88.2395ZM37.1602 88.2395L37.1602 87.2395H37.1602L37.1602 88.2395ZM24.1699 80.7395L23.3039 81.2395L23.3039 81.2395L24.1699 80.7395ZM11.3301 58.5002L10.4641 59.0002L10.4641 59.0002L11.3301 58.5002ZM11.3301 43.5002L10.4641 43.0002L10.464 43.0003L11.3301 43.5002ZM24.1699 21.261L23.3039 20.761L23.3039 20.761L24.1699 21.261ZM37.1602 13.761L37.1602 14.761H37.1602V13.761ZM50 39.0002L50.0001 38.0002H50V39.0002ZM47 77.0002L46 77.0002L46 77.0003L47 77.0002ZM50 80.0002L50 81.0002L50.0001 81.0002L50 80.0002ZM53 77.0002L54 77.0003V77.0002H53ZM26 31.0002L25 31.0002L25 31.0003L26 31.0002ZM71 34.0002L71 35.0002L71.0001 35.0002L71 34.0002ZM74 31.0002L75 31.0003V31.0002H74ZM71 28.0002L71.0001 27.0002H71V28.0002ZM62.8398 13.761L62.8398 14.761C67.8414 14.7611 72.4632 17.4295 74.9641 21.761L75.8301 21.261L76.6961 20.761C73.838 15.8107 68.556 12.7611 62.8399 12.761L62.8398 13.761ZM75.8301 21.261L74.9641 21.761L87.8039 44.0002L88.6699 43.5002L89.5359 43.0002L76.6961 20.761L75.8301 21.261ZM88.6699 43.5002L87.8039 44.0002C90.3046 48.3318 90.3047 53.6687 87.8039 58.0002L88.6699 58.5002L89.5359 59.0002C92.394 54.0499 92.3939 47.9506 89.536 43.0003L88.6699 43.5002ZM88.6699 58.5002L87.8039 58.0002L74.9641 80.2395L75.8301 80.7395L76.6961 81.2395L89.5359 59.0002L88.6699 58.5002ZM75.8301 80.7395L74.9641 80.2395C72.4632 84.5709 67.8413 87.2394 62.8398 87.2395L62.8398 88.2395L62.8399 89.2395C68.5559 89.2394 73.838 86.1897 76.6961 81.2395L75.8301 80.7395ZM62.8398 88.2395V87.2395H37.1602V88.2395V89.2395H62.8398V88.2395ZM37.1602 88.2395L37.1602 87.2395C32.1586 87.2395 27.5369 84.5709 25.0359 80.2395L24.1699 80.7395L23.3039 81.2395C26.1621 86.1896 31.444 89.2395 37.1602 89.2395L37.1602 88.2395ZM24.1699 80.7395L25.0359 80.2395L12.1961 58.0002L11.3301 58.5002L10.4641 59.0002L23.3039 81.2395L24.1699 80.7395ZM11.3301 58.5002L12.1961 58.0002C9.69527 53.6687 9.69531 48.3318 12.1961 44.0002L11.3301 43.5002L10.464 43.0003C7.606 47.9506 7.60595 54.0499 10.4641 59.0002L11.3301 58.5002ZM11.3301 43.5002L12.1961 44.0002L25.0359 21.761L24.1699 21.261L23.3039 20.761L10.4641 43.0002L11.3301 43.5002ZM24.1699 21.261L25.0359 21.761C27.5368 17.4294 32.1585 14.761 37.1602 14.761L37.1602 13.761L37.1602 12.761C31.4439 12.761 26.162 15.8106 23.3039 20.761L24.1699 21.261ZM37.1602 13.761V14.761H62.8398V13.761V12.761H37.1602V13.761ZM50 39.0002V38.0002C47.7909 38.0002 46 39.7911 46 42.0002H47H48C48 40.8957 48.8954 40.0002 50 40.0002V39.0002ZM47 42.0002H46V77.0002H47H48V42.0002H47ZM47 77.0002L46 77.0003C46.0002 79.2092 47.7909 81.0002 50 81.0002V80.0002V79.0002C48.8956 79.0002 48.0001 78.1048 48 77.0002L47 77.0002ZM50 80.0002L50.0001 81.0002C52.209 81.0001 53.9998 79.2092 54 77.0003L53 77.0002L52 77.0002C51.9999 78.1046 51.1044 79.0002 49.9999 79.0002L50 80.0002ZM53 77.0002H54V42.0002H53H52V77.0002H53ZM53 42.0002H54C54 39.7911 52.209 38.0004 50.0001 38.0002L50 39.0002L49.9999 40.0002C51.1045 40.0003 52 40.8958 52 42.0002H53ZM29 28.0002V27.0002C26.7909 27.0002 25 28.7911 25 31.0002H26H27C27 29.8957 27.8954 29.0002 29 29.0002V28.0002ZM26 31.0002L25 31.0003C25.0002 33.2092 26.7909 35.0002 29 35.0002V34.0002V33.0002C27.8956 33.0002 27.0001 32.1048 27 31.0002L26 31.0002ZM29 34.0002V35.0002H71V34.0002V33.0002H29V34.0002ZM71 34.0002L71.0001 35.0002C73.209 35.0001 74.9998 33.2092 75 31.0003L74 31.0002L73 31.0002C72.9999 32.1046 72.1044 33.0002 70.9999 33.0002L71 34.0002ZM74 31.0002H75C75 28.7911 73.209 27.0004 71.0001 27.0002L71 28.0002L70.9999 29.0002C72.1045 29.0003 73 29.8958 73 31.0002H74ZM71 28.0002V27.0002H29V28.0002V29.0002H71V28.0002Z" fill="#696768" mask="url(#path-1-inside-1_2249_3762)"/>
</g>
<defs>
<filter id="filter0_d_2249_3762" x="9.32031" y="13.761" width="86.2594" height="79.3785" filterUnits="userSpaceOnUse" color-interpolation-filters="sRGB">
<feFlood flood-opacity="0" result="BackgroundImageFix"/>
<feColorMatrix in="SourceAlpha" type="matrix" values="0 0 0 0 0 0 0 0 0 0 0 0 0 0 0 0 0 0 127 0" result="hardAlpha"/>
<feOffset dx="3" dy="3"/>
<feGaussianBlur stdDeviation="0.95"/>
<feComposite in2="hardAlpha" operator="out"/>
<feColorMatrix type="matrix" values="0 0 0 0 0 0 0 0 0 0 0 0 0 0 0 0 0 0 0.72 0"/>
<feBlend mode="normal" in2="BackgroundImageFix" result="effect1_dropShadow_2249_3762"/>
<feBlend mode="normal" in="SourceGraphic" in2="effect1_dropShadow_2249_3762" result="shape"/>
</filter>
</defs>
</svg>
