<?xml version="1.0" encoding="UTF-8"?>
<svg id="Layer_1" data-name="Layer 1" xmlns="http://www.w3.org/2000/svg" viewBox="0 0 180.23 180.65">
  <path d="M91.94,180.65c-6.27,0-11.61-.3-15.4-.51-26.46-1.49-45.42-9.06-57.95-23.16C-.57,135.4-1.07,100.96.63,73.36c1.46-23.57,8.31-40.91,20.94-53C33.84,8.62,51.29,2.15,74.91.59c22.65-1.5,40.79-.15,55.44,4.12,20.91,6.09,35.12,18.25,42.23,36.15h0c10.55,26.54,10.11,75.53-.89,100.81-14.89,34.2-54.72,38.98-79.75,38.98ZM91.78,10c-5.12,0-10.52.19-16.21.57C33.18,13.37,13.15,32.93,10.61,73.97c-2.36,38.13,2.41,61.68,15.46,76.36,10.67,12.01,27.36,18.49,51.03,19.82,29.87,1.68,71.23.13,85.43-32.47,9.97-22.89,10.35-69.02.77-93.13h0c-9.3-23.4-32.19-34.55-71.51-34.55Z"/>
  <path d="M50.36,142.75c-3.32,0-6.51-1.3-8.91-3.66-2.68-2.64-4.05-6.31-3.75-10.06,2.08-26.06,24.53-30.91,36.41-32.18.2-4.36.2-8.91,0-13.28-5.08-.58-9.54-1.44-13.08-2.53-14.03-4.3-21.89-14.13-23.34-29.21-.37-3.82.97-7.56,3.67-10.27,2.71-2.72,6.47-4.08,10.31-3.71,15.46,1.45,25.4,9.69,29.55,24.49.93,3.33,1.67,7.34,2.18,11.94,4.36.2,8.88.21,13.25.01,2.5-22.7,12.81-34.57,31.44-36.32.31-.03.62-.06.94-.08,3.82-.32,7.55,1.07,10.23,3.8,2.65,2.69,3.95,6.38,3.57,10.11-1.84,18.11-16.39,30.58-36.78,32.07-.16,4.79-.17,9.08-.03,12.96,22.72,2.49,34.61,12.81,36.36,31.44l.06.63c.32,3.73-1,7.39-3.64,10.04-2.64,2.66-6.3,4.01-10.02,3.72-25.97-2.07-30.84-24.46-32.12-36.43-4.92-.17-9.31-.18-13.27-.03-.58,5.09-1.44,9.57-2.53,13.12-4.32,14.07-14.18,21.92-29.32,23.35-.4.04-.8.06-1.2.06ZM73.22,107.08c-16.98,2.38-24.48,9.19-25.55,22.69-.09,1.15.46,1.87.8,2.2.33.33,1.06.87,2.15.77,11.02-1.04,17.6-6.22,20.69-16.32.78-2.53,1.42-5.69,1.91-9.33ZM106.87,107c2.35,17.08,9.18,24.63,22.71,25.71,1.09.08,1.8-.46,2.13-.79.33-.33.86-1.05.77-2.12l-.05-.57c-1.24-13.21-8.98-20.05-25.56-22.22ZM89.3,96.12c2.13,0,4.36.04,6.7.11-.11-3.64-.1-7.58.03-11.89-3.93.15-7.96.15-11.89,0,.15,3.92.14,7.95,0,11.86,1.65-.05,3.37-.08,5.16-.08ZM130.11,47.85c-.08,0-.16,0-.24.01l-.84.07c-13.29,1.25-20.13,9.06-22.26,25.85,14.77-1.55,24.81-10.2,26.11-22.98.11-1.05-.43-1.76-.75-2.1-.54-.55-1.27-.85-2.03-.85ZM50.46,47.81c-1.02,0-1.69.51-2.01.83-.35.35-.91,1.1-.8,2.25,1.06,10.97,6.24,17.52,16.32,20.61,2.51.77,5.65,1.41,9.26,1.9-.43-3.2-.98-6.04-1.63-8.34-3-10.71-9.62-16.18-20.85-17.23-.1,0-.2-.01-.29-.01Z"/>
</svg>