<?xml version="1.0" encoding="UTF-8"?>
<svg id="Layer_1" data-name="Layer 1" xmlns="http://www.w3.org/2000/svg" viewBox="0 0 682.4 200.76">
  <defs>
    <style>
      .cls-1 {
        fill: none;
        stroke: #fff;
        stroke-miterlimit: 10;
        stroke-width: 9.51px;
      }

      .cls-2 {
        fill: #191715;
      }

      .cls-3 {
        fill: #fff;
      }
    </style>
  </defs>
  <g>
    <path d="M183.1,49.7C167.53,10.53,120.83,7.72,84.34,10.14,37.62,13.23,13.1,35.13,10.16,82.68c-3.76,60.83,7.24,104.26,75.86,108.11,35.12,1.97,80.17-.98,96.2-37.79,11.29-25.93,11.33-77.03.89-103.31Z"/>
    <path class="cls-1" d="M183.1,49.7C167.53,10.53,120.83,7.72,84.34,10.14,37.62,13.23,13.1,35.13,10.16,82.68c-3.76,60.83,7.24,104.26,75.86,108.11,35.12,1.97,80.17-.98,96.2-37.79,11.29-25.93,11.33-77.03.89-103.31Z"/>
    <path d="M102.16,9.51c32.6,0,67.82,7.19,80.94,40.19,10.45,26.28,10.41,77.38-.89,103.31-13.76,31.6-48.91,38.25-80.81,38.25-5.25,0-10.42-.18-15.38-.46C17.4,186.94,6.4,143.51,10.16,82.68,13.1,35.13,37.62,13.23,84.34,10.14c5.74-.38,11.73-.63,17.82-.63M102.16,0c-5.79,0-11.83.21-18.45.65C31,4.14,3.84,30.78.67,82.09c-1.29,20.95-.72,37.22,1.8,51.2,3.08,17.07,9.09,30.46,18.39,40.92,14.13,15.9,35.27,24.43,64.63,26.07,5.68.32,10.89.47,15.92.47,20.32,0,36.88-2.59,50.64-7.91,18.51-7.17,31.59-19.29,38.89-36.04,12.08-27.75,12.57-81.51,1-110.62-6.95-17.5-19.88-30.2-38.41-37.76C139.63,2.76,122.82,0,102.16,0h0Z"/>
  </g>
  <path class="cls-3" d="M116.26,93.99c20.4-1.49,34.94-13.95,36.78-32.07.38-3.73-.92-7.42-3.57-10.11-2.69-2.73-6.42-4.11-10.24-3.8l-.93.08h0c-18.64,1.75-28.95,13.65-31.44,36.31-4.37.2-8.89.19-13.25-.01-.52-4.57-1.26-8.64-2.18-11.93-4.15-14.8-14.09-23.04-29.55-24.49-3.84-.36-7.6.99-10.31,3.71-2.7,2.71-4.04,6.45-3.67,10.27,1.45,15.08,9.3,24.9,23.34,29.21h0c3.53,1.08,8,1.94,13.07,2.52.2,4.38.2,8.91,0,13.28-11.92,1.28-34.33,6.15-36.41,32.18-.3,3.75,1.07,7.41,3.75,10.05,2.39,2.36,5.58,3.66,8.91,3.66.4,0,.8-.02,1.2-.06,15.14-1.42,25-9.28,29.32-23.35,1.09-3.55,1.94-8.03,2.53-13.12,3.96-.15,8.35-.14,13.27.03,1.28,11.97,6.16,34.36,32.12,36.42.34.03.67.04,1.01.04,3.37,0,6.61-1.34,9.02-3.76,2.63-2.65,3.96-6.31,3.64-10.02l-.06-.65c-1.75-18.65-13.66-28.96-36.36-31.44-.14-3.88-.14-8.17.03-12.96ZM139.24,58.04l.84-.08c.84-.07,1.67.24,2.26.84.33.33.86,1.05.75,2.1-1.3,12.79-11.33,21.44-26.11,22.98,2.13-16.78,8.97-24.6,22.25-25.85ZM74.17,81.59h0c-10.08-3.09-15.26-9.64-16.32-20.6-.11-1.15.45-1.91.8-2.25.35-.35,1.12-.93,2.3-.82,11.23,1.05,17.85,6.53,20.85,17.23.65,2.32,1.2,5.15,1.63,8.34-3.61-.49-6.75-1.13-9.26-1.9ZM81.51,126.51c-3.1,10.1-9.67,15.29-20.69,16.32-1.09.11-1.81-.44-2.15-.77-.34-.33-.89-1.05-.8-2.2,1.08-13.51,8.59-20.33,25.55-22.69-.49,3.64-1.14,6.8-1.91,9.33ZM106.21,106.32c-2.34-.07-4.57-.11-6.71-.11-1.79,0-3.5.03-5.15.08.15-3.92.15-7.94,0-11.86,3.93.15,7.95.15,11.89,0-.13,4.32-.14,8.26-.03,11.89ZM142.64,139.32h0s.05.57.05.57c.09,1.07-.44,1.79-.77,2.12-.33.33-1.04.88-2.13.79-13.55-1.08-20.37-8.64-22.71-25.71,16.59,2.17,24.33,9.01,25.57,22.22Z"/>
  <g>
    <path class="cls-2" d="M313.97,61.45v51.59c0,27.26-15.66,40.64-38.86,40.64-20.55,0-30.62-8.48-30.62-17.01,0-3.77,2.24-7.69,7.83-7.69,13.14,0,5.45,16.22,24.33,16.22,14.12,0,17.19-12.44,17.19-16.36v-13.14c-4.33,4.05-12.72,9.37-23.77,9.37-14.54,0-25.72-12.58-25.72-28.94,0-19.71,15.8-34.95,32.85-34.95,13.42,0,18.03,6.15,21.39,9.93,4.05-3.5,6.01-5.59,9.37-9.65h6.01ZM293.84,83.82c0-6.43-3.36-15.8-12.58-15.8-11.46,0-16.08,11.46-16.08,23.77,0,10.07,4.47,20.69,18.59,20.69,6.01,0,7.41-1.82,10.07-3.78v-24.88Z"/>
    <path class="cls-2" d="M337.92,80.74l-11.18-6.85v-4.19l24.05-6.99h7.27v18.03h.28c6.29-12.16,13.28-18.45,21.11-18.45,6.57,0,12.16,4.61,12.16,9.79,0,3.78-3.5,16.36-8.67,16.36-4.61,0-10.62-9.09-14.12-9.09-5.17,0-10.76,10.06-10.76,16.22v12.44c0,9.79,3.22,12.3,13,12.3v6.57h-43.2v-6.57c7.69-.42,10.07-4.33,10.07-11.46v-28.1Z"/>
    <path class="cls-2" d="M431.31,128.41c-20.55,0-34.25-12.86-34.25-31.88,0-17.19,11.74-34.25,35.79-34.25s33.83,19.01,33.83,33.13c0,17.06-10.63,32.99-35.37,32.99ZM427.21,69.25c-9.83,1.38-10.68,11.38-8.93,23.84,3.23,22.98,9.94,29.52,18.38,28.33,7.48-1.05,10.97-8.32,9.36-19.81-3.05-21.73-9.26-33.71-18.81-32.37Z"/>
    <path class="cls-2" d="M512.12,128.41h-8.25l-24.88-49.63c-2.8-5.59-4.47-8.25-8.53-8.25v-6.57h36.49v6.57c-7.55.28-8.39,3.64-4.75,10.77l13,25.3,9.79-19.01c4.47-8.67,5.31-16.64-4.47-17.06v-6.57h24.6v6.57c-2.38.84-4.75,2.1-7.83,8.25l-25.16,49.63Z"/>
    <path class="cls-2" d="M611.52,110.94c-9.09,11.74-19.85,17.48-33.13,17.48-18.31,0-30.48-12.58-30.48-31.6,0-16.17,9.65-32.27,29.58-35.07,17.86-2.51,30.61,6.85,33.5,24.37l-43.89,6.17c2.39,11.06,8.87,21.55,22.47,21.44,5.31-.04,9.65-1.82,16.5-6.85l5.45,4.05ZM588.61,82.64c-1.4-9.97-6.19-14.94-13.25-13.95-7.06.99-10.91,7.74-9.59,17.16l22.84-3.21Z"/>
    <path class="cls-2" d="M628.72,80.74l-11.18-6.85v-4.19l24.05-6.99h7.27v18.03h.28c6.29-12.16,13.28-18.45,21.11-18.45,6.57,0,12.16,4.61,12.16,9.79,0,3.78-3.5,16.36-8.67,16.36-4.61,0-10.63-9.09-14.12-9.09-5.17,0-10.77,10.06-10.77,16.22v12.44c0,9.79,3.22,12.3,13,12.3v6.57h-43.2v-6.57c7.69-.42,10.07-4.33,10.07-11.46v-28.1Z"/>
  </g>
</svg>