<svg xmlns="http://www.w3.org/2000/svg" id="Layer_1" data-name="Layer 1" viewBox="0 0 783.68 396.59">
  <defs>
    <style>
      .chatVanGraphic-1 {
        fill: #fdeccc;
      }

      .chatVanGraphic-2 {
        fill: none;
        stroke: #000;
        stroke-linecap: round;
        stroke-linejoin: round;
        stroke-width: 2px;
      }

      .chatVanGraphic-3 {
        fill: #fff;
      }
    </style>
  </defs>
  <path d="M241.26 362.35c-6.22-7.61-10.1-15.19-12.01-24.93-9.83 2.44-18.5 1.88-24.14-7.29-2.21-3.59-6.95-17.4-5.66-21.03.53-1.48 2.91-1.39 2.93-2.16.07-3.11-6.2-4.94-5.83-11.66.31-5.73 7.35-11.33 7.6-14.39.08-.93-1.76-3.12-1.93-5.79-.38-5.86 2.41-17.83 4.61-23.47 9.13-23.42 44.56-38.01 65.18-50.11-.74-3.48 3.64-7.48 3.94-9.39.23-1.47-.89-4.09-.65-6.71.81-8.77 4.29-16.62 14.46-13 15.71-17.95 28.01-39.7 45.41-56.21 15.24-23.51 37.93-38.94 65.69-43.84 8.43-1.49 28.01-1.77 34.45-4.5 1.46-.62 6.06-7.29 8.77-9.19 9.05-6.35 34.66-8.27 46.39-9.53 14.47-1.56 35.91-4.39 49.91-4 17.14.47 91.03 12.17 105.39 18.45 2.38 1.04 5.5 4.29 7.54 4.48 2.61.25 12.22-3.92 16.23-4.68 18.33-3.51 47.32 4.67 64.16 11.12 5.07 1.94 11.1 8.09 12.48 13.48.78 3.03-.15 6.74.95 9.02.39.81 7.04 5.65 8.91 8.05 7.31 9.38 11.4 27.21 14.08 38.8 4.79 20.72 9.03 42.3 10.47 63.36.25 3.63-.14 7.31.02 10.95.77 18.04 2.39 35.7 1.05 53.93-.3 4.05-3.76 3.58 1.93 8.42-.27 3.55.37 7.5 0 10.97-.43 4.02-2.99 14.05-4.51 17.94-2.32 5.91-4.8 7.97-10.48 10.48-3.01 1.33-16.91 5.98-19.33 5.56-.56-.1-.96-3.99-2.62-2.05-.37.43.14 9.16-.13 11.34-.72 5.84-2.86 13.25-5.33 18.61-.5 1.08-4.83 8.66-5.22 9-5.87 5.04-23.18 5.43-30.5 3.65-16.2-3.94-17.72-19.69-20.32-33.68l-223.14 16.99c-.03 8.21-4.06 15.63-7.79 22.65-.73 1.37-2.33 2.45-2.72 3.35-.54 1.24.55 2.67.43 2.84-.34.5-9.41 5.25-10.67 5.81-8.64 3.85-29.7 2.6-38.72-.69-15.69-5.72-20.46-18.51-23.57-33.82-17.07 1.2-32.81 2.98-49.84-.59-2.92-.61-6.62-2.9-8.41-3.07-4.98-.46-11.95 1.6-17.52-.02-8.54 16.47-19.48 26.74-39.35 24.38-6.47-.77-13.08-4.32-20.05-4.92" class="chatVanGraphic-1"/>
  <path d="M35.97 376.4c-6.98-.48-27.44-4.14-25.23-4.84 2.9-.92-.44-15.85-.18-19.63 2.01-29.7 6.95-60.7 30.94-80.82 3.06-2.57 12.06-7.51 13-9.96 8.4-21.71-16.35-35.67-18.88-56.97-1.96-16.54 2.6-17.55 10.72-28.98 1.46-2.06 1.72-4.75 3.15-6.83 8.08-11.78 27.72-8.93 40.18-11.74 6.79-1.53 13.55-6.76 20.5-3.95 3.37 1.36 7.18 7.69 7.85 11.18 1.33 7.01-4.63 9.19-4.44 11.32.15 1.6 3.71 6.92 4.6 9.4 4.97 13.85 2.91 14.21 12.05 26.87 7.52 10.41-2.72 8.43-3.73 11.95s5.8 9.77-6.08 11.33c.29 1.9 3.43 1.43 4.94 2.54 2.63 1.93 1.15 14.33-.54 17.32-4.87 8.64-17.44 2.77-21.14 6.33-1.31 1.26-6.32 15.67-6.05 17.07 19.14 16.93 25.35 42.63 28.63 67.11 1.22 9.1 2.77 18.21 1.14 27.29M290.19.3c8.17 2.73 12.64 8.96 12.92 17.61.45 14.06-.86 31.14-.98 45.77-.06 7.89 2 13.7-3.94 20.95-.86 1.05-3.01 1.28-3.06 2.02-.14 1.91 8.25 16.04 9.05 19.39-3.42.99-2.83-1.76-4.59-2.85-1.48-.92-3.28-1.31-4.72-2.31-9.32-6.43-14.31-14.52-27.64-11.8v60.35c0 5.78-10.29 15.32-16.57 15.37l-73.37.53c-4.84 1.77-21.26 20.63-24.42 20.48-3.75-.18 1.65-17.93.51-20.93-10.71 1.36-21.36-4.16-22.98-15.46 2.24-23.57-3.04-52.84.09-75.72.9-6.58 7.57-14.55 14.39-14.55h38.45V12.77c0-5.03 7.47-11.05 11.98-12.47h94.88Z" class="chatVanGraphic-3"/>
  <path d="M650.69 136.06c-9.92-1.85-20.01-2.31-29.99-3.58-10.99-1.4-22.04-2.3-33.03-3.73-7.27-.95-14.65-1.48-21.98-2.15-6.15-.56-12.28-1.67-18.79-.85-2.48 3.35-1.83 7.28-1.24 11.31 1.67 11.53 3.71 22.99 5.57 34.49 2.14 13.27 3.86 26.64 7.98 39.5 2.81 8.78 5.21 10.57 13.98 10.49 27.34-.25 54.67.85 82 1.23 25.5.35 51 1.27 76.5 1.84 6.5.15 12.98 1.09 19.5.95 5.56-.12 6.01-.53 6-6.01-.02-11.49-2.34-22.7-3.85-34.02-1.07-8.07-2.64-16.01-4.09-23.99-1.43-7.91-5.15-13.14-13.56-14.54-9.98-1.65-20.01-2.97-29.99-4.54-12.31-1.93-24.72-2.87-37.04-4.74-5.74-.87-11.61-1.55-17.47-1.67M402.69 299.06c10.44-13.09 27.91-15.29 40.09-5.1 8.97 7.51 13.98 17.51 14.87 28.15.72 8.52.41 17.68-1.01 26.45-.52 3.22-.32 6.34-.52 9.82 6.77.76 12.91-.77 19.06-1.04 7.15-.31 14.34-1.18 21.5-1.89 10-1 20.03-1.75 30.03-2.67 9.3-.85 18.64-1.61 27.98-2.23 11.35-.75 22.7-1.5 34.02-2.85 4.94-.59 9.99-.71 14.99-1.03 16.03-1.03 32.01-2.58 48.01-3.93 9.48-.8 18.99-1.53 28.49-2.05 4.47-.25 6.77-2.04 8.02-6.11 3.18-10.34 5.51-21.07 11.1-30.43 3.57-5.97 6.2-12.82 12.84-16.63 4.98-2.86 10.68-2.59 15.05 1.03 6.48 5.37 9.31 12.58 11.02 20.51 1.37 6.32.81 12.67.95 19.01.04 2.01-.2 4.04.57 6 .9-.28 1.97.65 2.59-1.45 1.34-4.5 1.06-9.1 1.16-13.55.19-8.79-1.89-17.22-5.04-25.6-2.12-5.64-4-11.12-8.3-15.37-7.27-7.2-15.84-7.53-24.45-1-4.11 3.11-6.16 7.87-9.41 11.97-29.45.27-59.27 1.29-89.11 1.69-15.16.2-30.33.62-45.5.9-6.33.12-12.74.03-19 1.42M299.19 101.06c1.07-1.64.37-3.17-.53-4.48-2.14-3.11-3.22-6.73-5.18-10.39 6.57-3.8 7.91-9.94 7.79-17.13-.27-17-.38-34.01.02-51C301.54 7.43 295.35.92 284.18 1c-26.17.18-52.33.04-78.5.08-2.66 0-5.33.14-8.01.36-9.2.73-13.1 6.45-13.33 14.62-.51 18.49-.31 37-.1 55.49.11 10.32 6.23 16 16.44 16h75c2.64 0 4.7.58 7.14 2.3 5.77 4.07 10.57 9.57 17.33 12.26 1.15.46 1.52 2.08 2.52 2.94M755.69 143.06c-9.59-.71-18.98-2.83-28.5-4.04-10.52-1.34-21-2.99-31.49-4.53-8.51-1.26-17.04-2.51-25.54-3.71-8.29-1.17-16.62-2.37-24.96-3.27-9.51-1.03-19-2.31-28.5-3.49-6.34-.79-12.68-1.56-19.01-2.45-8.15-1.14-16.35-2.04-24.52-2.8-8.15-.76-16.28-1.98-24.48-2.18-5.17-.13-10.27-2.25-15.5-.54" class="chatVanGraphic-2"/>
  <path d="M510.69 73.56c6.83-1.16 13.8-1.02 20.46.21 6.17 1.14 12.4 1.58 18.55 2.73 8.45 1.59 17.04 2.36 25.53 3.82 5.4.93 10.98 1.42 16.45 2.27 10.18 1.56 20.38 3 30.55 4.72 7.26 1.23 14.62 2.3 21.95 3.28 10.89 1.46 21.68 3.58 32.5 5.49 9.01 1.59 18.04 4.52 27.01 4.57 8.9.05 17.23 2.21 25.41 4.28 9.71 2.45 17.02 9.66 21.03 19.16 6.82 16.16 10.12 33.27 13.17 50.45.78 4.37.95 9.08 3.44 12.99 1.62 2.55.09 5.02.37 7.54 1.11 10.15 2.56 20.34 2.79 30.5.15 6.6 2.24 13.24-.01 20.06-1.1 3.35.99 7.24 1.49 10.91 1.12 8.25-.76 16.35-.28 24.53.21 3.7-2.48 5.95-5.9 5.99M183.69 60.06c-12.83.28-25.67-.48-38.5.45-6.21.45-13.78 5.31-13.89 14.55-.3 24.66-.12 49.33-.09 74 0 5.42 6.39 14.06 15.49 14.48 2.34.11 4.69.02 7.31.02.84 7.24-2.04 13.78-1.3 20.88 3.36-2.62 6.67-4.89 9.52-7.84 3.6-3.74 7.42-7.25 11.32-10.69 2.35-2.07 4.5-2.35 7.14-2.34 22.17 0 44.34-.22 66.5.1 11.62.17 18.81-9.48 18.64-18.6-.42-22.16-.2-44.33-.1-66.5.04-8.92-4.59-15.15-11.06-17.43-3.15-1.11-6.6-1.08-9.98-1.08-20 .01-40 0-60 0M223.19 326.06c8.96 1.22 18 1.89 27.01 2.38 8.5.46 17 1.05 25.49 1.65 7.46.53 12.68-3.36 13.46-10.53.31-2.81-1.89-2.66-3.94-3.07-9.27-1.86-18.73-1.27-28.03-1.62-16.17-.62-32.3-2.09-48.49-2.27-.99-.01-2.14-.55-3 .44-.04 10.01 6.5 15.01 17 13.03" class="chatVanGraphic-2"/>
  <path d="M769.19 246.06c-4.81-.73-9.57-1.6-14.5-1.56-19 .15-38-.01-57 .09-8.34.05-16.65 1.01-25 .97-4.5-.02-9 0-13.8 0-.4 4.07 2.12 7.52 2.46 11.49.69 7.91-.15 15.7-.72 23.51-.27 3.73-.9 7.33.5 11.03 1.47 3.86 1.61 7.95.54 11.97-2.26 8.54-2.31 17.44-4.44 26.01-2.2 8.85-2.87 9.51-12.04 10-17.69.96-35.34 2.61-53.01 3.81-11.32.77-22.68 1.43-33.97 2.39-11 .94-22.05 1.71-33.04 2.48-10.98.77-21.94 2.03-32.97 2.47-8.5.33-16.94 2.02-26.3 1.81 1.64-10.15 1.72-20.32.3-30.47M353.69 252.56c9.75-9.07 21.29-15.56 32.53-22.44 8.27-5.06 16.64-10.01 25.49-14 3.04-1.37 2.94-4.16 4.24-6.4 2.24-3.86 4.56-7.74 6.68-11.68 12.41-23.12 25.82-45.72 37.16-69.42 1.19-2.48.78-4.69.9-7.05-1.44-1.46-3.29-.98-5-.99-12.67-.02-25.35-.39-38 .1-11.67.45-23.36 1.06-34.99 2.02-11.17.93-22.34 1.87-33.51 2.87-8.01.72-15.82 3.13-24.01 2.62-1.75-.11-3.28 1.88-4.48 3.38-11.53 14.39-23.22 28.64-33.63 43.91-2.34 3.44-4.73 7.04-8.32 9.67-2.73 2-4.45 5.05-5.62 8.39-1.62 4.64-5.95 7.54-8.04 11.98-.93 1.99-1.95 3.89-2.41 6.04" class="chatVanGraphic-2"/>
  <path d="M461.69 125.06c3.18-.36 3.01-3.32 2.81-4.98-.31-2.57-2.76-3.98-5.31-4.5-5.28-1.08-10.62-1.69-16-2.02-11.03-.68-22.01.59-32.99 1.13-14.2.7-28.39 2.22-42.48 4.06-12.37 1.62-24.86 2.75-37.03 5.77-.94.23-1.99.03-2.99.03M528.69 115.56c1.83 8.91 2.57 17.96 3.64 26.98 1.76 14.81 2.32 29.7 3.75 44.53.73 7.61 0 15.32.56 22.99.97 13.49.89 27 .04 40.5-.14 2.15-.15 4.21 2.01 5.5" class="chatVanGraphic-2"/>
  <path d="M443.19 194.06c-3.08-6.88-.4-13.66 2.26-19.38 7.39-15.88 15.5-31.47 25.21-46.14 5.29-7.99 12.68-11.82 22.02-13.05 11.85-1.56 23.67-1.04 35.51-.38 1.35.07 2.67-1.36 4.26.21 2.18 10.96 3.37 22.36 4.87 33.73 2.51 19.11 3.58 38.34 4.66 57.53.88 15.63.98 31.33 1.65 46.99.02.48-.93 1-1.43 1.5M414.69 210.06c-6.91 1.71-13.98 1.74-20.99 1.36-2.49-.13-5.01-.38-7.51-.33-15.01.3-30-.6-45-.54-11.83.05-23.69.42-35.49-.17-6.27-.31-11.8 2.79-18.02 2.28-5.79-.48-11.68.2-17.49-.19-6.27-.42-11.31.72-16.73 4.79-6.57 4.93-14.89 7.45-21.8 12.27-9.47 6.61-19.29 12.74-27.49 21.02-1.87 1.89-3.71 3.78-1.46 6.48.71.86.49 1.71.44 2.53-.77 11.23.54 22.36 1.58 33.52-1.25.06-2.54-.25-3.51-.62-8.34-3.11-8.93-3.61-7.54-12.9.94-6.3 1.66-12.63 4.43-18.53.91-1.95 1.9-3.65 3.57-4.97" class="chatVanGraphic-2"/>
  <path d="M317.19 271.56c-4.22-1.06-8.24 2.74-12.5.25.26-1.53-.25-3.16-.85-5.1-7.96-.7-15.81-1.09-23.65-1.66-13.65-.99-27.34-1.08-41-1.32-8.13-.14-16.31.81-24.5.95-3.86.06-7.11 2.04-8 6.39M369.69 359.06c1.72 2.75 1.64 6.01 2.47 9.01 3.35 12.11 9.74 21.58 22.55 24.9 5.73 1.48 11.49 3.88 17.77 1.73 1.62-.56 3.72.83 5.7.89 11.97.34 20.32-5.73 25.91-15.57 7.59-13.34 9.45-27.72 7.26-42.98-1.13-7.89-3.51-15.09-7.21-21.96-3.28-6.09-7.95-10.99-14.51-13.42-4.14-1.53-8.67-2.15-13-2.88-4.67-.78-9.66.49-14.44 1.01-4.05.44-5.36 5.09-7.57 8.23-9.48 13.49-13.31 29.29-18.37 44.56-1.32 4-3.46 5.18-7.56 5.66-5.69.67-11.34.74-17.02.81M659.69 313.06c-4.06-1.37-7.99.51-12 .49-18.86-.06-37.65 1.6-56.5 2.13-14.67.41-29.32 1.89-44 1.75-5.37-.05-10.63 1.58-16 .63M658.19 246.06c-19.37.07-38.68 1.57-57.99 2.65-11.84.66-23.67 1.96-35.5 2.93-6.84.56-13.61 1.95-20.51 1.92M325.19 127.56c13.28-19.71 30.65-34.35 53.55-41.32 9.14-2.78 18.87-3.64 28.44-4.73 5.67-.64 11.25-2.05 17.01-1.96 1.75.03 2.66-1.02 3.54-2.47 4.65-7.65 12-11.08 20.46-12.51 14.24-2.4 28.59-3.85 42.98-5.22 10.5-1.01 21.04-1.54 31.54-2.62 8.8-.91 17.73.84 26.45 2.05 10.19 1.4 20.4 2.86 30.54 4.74 14.18 2.62 28.48 4.5 42.52 7.91 5.64 1.37 11.57 1.39 16.5 5.09 1.19.89 2.27 1.68 2.99 3.04 2.66 4.99 7.05 6.59 12.47 6.66 1.17.02 2.85-.2 4 .85M150.69 374.34c26.32.59 52.67.55 78.99-.01 7.04-.15 13.17 1.78 19.49 3.76 11.04 3.46 21.04 1.55 29.98-5.58 5.54-4.41 9.09-10.35 11.53-16.96" class="chatVanGraphic-2"/>
  <path d="M419.69 300.56c-13.49 4.37-20.11 14.76-23.99 27.5-5.38 17.62-5.93 35.03 2.49 52 2.92 5.88 7.25 10.37 13 13.5M204.69 296.06c3.76 6.99 10.47 8.23 17.48 9.6 12.75 2.5 25.59 3.91 38.51 3.26 8.16-.41 16.41.38 24.51-1.35 8.12-1.73 14.09-6.28 17.95-13.54 1.18-2.22 2.17-4.36 5.05-4.46 2.08-.07 3.03-1.8 3.93-3.06 8.03-11.22 18.76-17.25 32.56-18.56 9.88-.93 19.34-3.83 28.02-8.88.25-.14.66-.02.99-.02M734.69 106.56c2.01-1.91 1.65-4.08 1.05-6.51-1.16-4.75-4.36-8.26-7.15-11.91-2.2-2.88-6.99-3.11-9.32-2.67-6.41 1.22-11.75-1.74-17.57-2.47-9.87-1.25-19.44-4.49-29.02-4.53-1.67.52-1.53 1.78-1.93 2.62-3.04 6.45-1.97 9.12 4.96 10.39 9.88 1.81 19.51 4.78 29.48 6.12.37.05.67.63 1 .96" class="chatVanGraphic-2"/>
  <path d="M237.19 274.06c-9.89-.63-19.79-1.4-29.7.86-.05 4.03-1.58 7.58 1.23 10.61.63.68.45 1.34.46 2.03.14 7.34 1.06 9.06 7.53 10.94 8.14 2.35 16.52 3.81 24.98 3.99 12.17.26 24.35.3 36.5-.88 7.43-.72 11.12-3.99 15.28-10.36 2.09-3.21 4.4-6.54 6.87-9.56 1.43-1.75-.19-2.84.35-4.12M479.19 179.56c3.82 5.4 4.31 11.72 5.02 18 .65 5.82 1.15 11.65.93 17.6 5.99-.56 11.15-2.43 16.52-3.28 3-.47 5.96-.05 9.11-1.08 7.77-2.54 11.14-7.87 12.41-15.25 2.65-15.39 3.24-30.92 3.02-46.5-.05-3.5-.04-7 0-10.5.02-1.84-.24-3.49-2.01-4.5M307.69 289.56c-.14-5.66 4.39-8.86 7.07-12.96 8.13-12.44 20.03-19.06 34.4-22.17 6.83-1.48 13.38-.94 20.02.17 4.9.82 6.76 3.34 4.9 7.91-5.39 13.26-12.39 25.39-26.4 31.54-3.34 1.47-6.96 2.22-10.5 2.41-10.15.54-20.3 1.65-30.5 1.11-1.68-.09-3.38.12-5-.51M650.69 136.56c-1.98 5.07.05 10.13.76 14.96.97 6.5 1.83 13.04 2.64 19.55 1.07 8.63 2.16 17.28 2.59 25.99.41 8.33 2.5 16.59 1.01 25M724.69 371.56c6.96-8.23 9.99-18.03 10.95-28.5 1.22-13.19.3-26.05-7.45-37.49-6.44-9.51-14.46-8.71-21.42-1.43-4.19 4.38-6.57 10-8.09 15.92-3.34 13.05-3.58 25.93.34 39.05 2.04 6.84 6.95 11.1 11.39 15.74 1.52 1.59 5.47 1.63 8.31-.26" class="chatVanGraphic-2"/>
  <path d="M457.19 198.06c1.78-2.31.94-4.99.96-7.5.1-10.66 4.11-14.03 14.54-12 5.26 1.02 6.05.56 5.97-4.5-.2-12.51.89-25.06-1.42-37.51-.67-3.6 2.8-7.66 7.46-8.97 7.51-2.11 15.27-2.55 23-2.98 3.16-.18 6.22-.87 9.55.31 4.39 1.55 6.64 3.16 6.39 7.64-.79 14.17-.98 28.36-2.27 42.52-.68 7.42-1.38 14.75-3.14 21.99-1.76 7.24-7.31 10.19-13.53 12.49M722.69 319.56c6.34 7.11 5.97 25.76 0 34.5-4.37 6.41-10.16 5.99-14.01-1-4.83-8.77-4.23-17.81-1.51-27.01 1.12-3.78 1.06-7.84 4.95-10.59 4.71-3.33 8.77-2.21 10.57 3.59M425.69 321.56c-2.83-3.11-5.88-1.17-8.46.08-7.18 3.49-10.11 10.52-11.85 17.46-2.57 10.31-1.22 20.53 4.27 29.97 1.75 3 3.95 5.36 7.02 7 5.32 2.84 8.84 1.26 13.13-3.4 7.78-8.45 9.84-18.42 8.68-29.09-.66-6.1.09-12.8-4.73-18.1-2.18-2.4-4.07-4.5-7.58-3.93M718.19 83.56c-10.02-3.86-20.62-5.53-31-7.99-3.15-.75-6.32-1.48-9.51-1.95-12.11-1.8-23.32 2.03-34.49 5.94M502.69 75.56c-1.15-1.55-2.8-1.58-4.5-1.5-16.17.77-32.36 1.41-48.48 2.77-4.95.42-10.12-.13-15.07 1.61-2.07.73-4.66.34-6.96-.37M536.19 254.06c-3.43 2.69-7.75 1.79-11.53 2.29-18.6 2.46-37.16 5.08-55.48 9.18-1.11.25-2.33.03-3.49.03M191.19 318.56c-2.34 2.83-.58 5.87.14 8.46 1.94 6.93 3.54 14.3 10.37 18.52 5.43 3.35 11.33 2.62 16.94.87 2.43-.76 4.76-1.08 7.04-.77 11.29 1.54 22.59 2.94 34.01 2.96.99 0 1.99.13 3.03.35 6.22 1.36 9.56-1.94 7.24-7.79-1.06-2.67-.87-5.07-1.34-7.69-.53-.34-1.14-.95-1.92-.88-8.21.71-16.39-.6-24.47-1.36-5.98-.56-12.12.35-18.06-1.57-4.16-1.35-6.13.41-5.9 4.9.19 3.68-1.51 7.67 1.43 11" class="chatVanGraphic-2"/>
  <path d="M309.19 355.06c-1.27.7-2.66.57-4 .48-12.85-.82-25.7-1.5-38.51-2.9-4.8-.53-9.68-.67-14.5-.9-10.38-.51-20.62-2.38-30.99-2.67-1.35-.04-.98-1.69-2-2.01M456.69 295.06c-3.08-4.73-5.99-9.67-9.64-13.88-4.04-4.65-9.94-7.06-15.87-8.56-15.87-4.03-30.41 2.11-41.02 15.41-2.46 3.09-4.26 6.63-6.97 9.53M530.19 318.56c-17.98 1.38-36.04 1.18-54.01 2.91-3.43.33-7.04.7-10.49-.41M426.69 326.06c-9.8 1.33-16.25 8.01-17.35 19.51-.74 7.72-.97 15.74 4.35 22.49 4.82 6.12 6.51 6.61 14.01 4.02.51-.18 1.14-.13 1.49.48M386.69 215.06c-10.32-.89-20.67-.61-31-.43-10.98.18-21.82 1.36-31.03 8.39-.42.32-1.3.04-1.97.04M385.19 216.06c-7.71 4.55-15.94 7.27-25 7-9.67-.29-19.32.86-29 .5-1.68-.06-3.4.31-5-.5M328.69 330.06c-5.38 3.87-11.97 4.25-18.04 5.27-11.36 1.91-22.81 3.91-34.46 3.24-1.83-.11-4.04-1.35-5 1.49M460.19 219.56c-.16 3.87-3.73 4.08-6.05 4.83-3.15 1.02-6.23 2.33-9.42 2.75 2.21 15.02 2.03 29.73 1.9 44.42-.02 2.48 1.21 5.1-.43 7.5M354.19 292.56c.81 6.39 2.63 7.76 9 8.06 7.56.36 14.94-1.76 22.51-1.11 4.36.37 8.69.82 13 1.55M304.19 273.06c-1.26 4-4.42 5-7.99 4.44-10.29-1.59-20.61-2.13-31.01-1.99-2.74.04-5.5.07-7.97 1.12-2.95 1.25-2.13 4.56-3.16 6.87-1.17 2.63-2.71 5.02-2.37 8.06M476.19 136.06c-2.44.22-3.04 2.43-3.95 4.03-5.67 9.99-10.96 20.17-16.12 30.43-7.04 13.98-14.38 27.82-21.72 41.65-3.28 6.19-6.91 12.44-8.97 19.91 6.76.04 12.5-3.39 18.77-4.02" class="chatVanGraphic-2"/>
  <path d="M270.69 346.06c6.16.56 12.33 1.26 18.5 1.42 7.56.19 14.36 2.05 20.54 6.53 3.36 2.43 7.57 3.78 11.49 4.37 8.9 1.34 17.95 1.78 26.97 2.2 1.02.05 1.75-.46 2.5-1.01M757.69 328.56c.67-6.75 2.44-13.32 3.59-20.56-5.97-.59-11.31 2.86-17.09 2.56M235.69 289.56c.89.6 1.99 1.04 2.47 2.01 1.69 3.43 4.51 3.74 7.51 2.44 5.44-2.36 10.91-1.24 16.52-1.3 8.8-.09 17.77 1.15 26.5-1.15M541.69 256.06c-5.92 1.01-8.31 4.08-8.52 10.5-.29 8.51-.97 17-1.48 25.5" class="chatVanGraphic-2"/>
  <path d="M769.69 287.56c2.93 2.56 3.68 5.5 3.15 9.52-.99 7.47-2.05 14.84-4.58 22-1.86 5.27-4.68 8.65-10.51 10.19-5.04 1.33-9.8 3.88-15.06 4.79M542.19 257.06c2.24 6.91 1.17 14.06.74 20.98-.29 4.63-.14 9.41-1.24 14.02M506.69 74.56c-10.71 4.55-19.91 11.2-27.47 20.03-2.93 3.42-6.08 6.66-8.53 10.47M195.19 290.56c-1.14 4.98-5.96 7.73-7.3 12.92-.91 3.5.32 7.2 1.51 8.02 3.83 2.63 4.4 7.25 7.54 10.06M297.19 210.56c-.9-2.59-3.11-2.03-5-1.98-8.5.24-17.06-.83-25.5.98-.93.2-1.67-.31-2.5-.51M455.19 203.56c-3.46.98-7.11-2.05-10.88.79-.56 7.27.74 14.73 1.38 22.21M676.69 341.56c1.09 5.68 1.62 11.38 3.28 17.06 4.17 14.31 15.75 18.95 29.72 16.94M258.19 277.06c2.87 2.99 6.71 1.33 10.03 1.84 7.1 1.09 14.35 1.58 21.47-.34M292.69 290.56c-8.77-2.02-17.67-.59-26.5-.95-1.66-.07-3.63-.88-5 .95M278.19 218.56c-2.99 3.6-6.87 5.1-11.5 5.02-4.5-.08-9 0-13.5-.02-1.83 0-3.93.37-4-2.5" class="chatVanGraphic-2"/>
  <path d="M763.69 246.06c.94 9.15 1.94 18.19.73 27.53-1.09 8.36-.29 16.97-.2 25.47.04 3.13-.62 5.87-3.03 8M689.69 311.56c-9.7-.65-19.31 1.25-29 1M532.19 293.06c1.91 7.82-.36 15.34-1.36 23.02-1.43 11.04-5.17 21.26-9.14 31.48" class="chatVanGraphic-2"/>
  <path d="M764.19 287.56c-8.84.04-17.71-.36-26.5 1M459.19 326.56c2.25 5.48 2 11.26 2 17v9.5M278.69 183.56c-6.36-2.12-8.78-1.19-10.39 5.03-1.04 4.01-3.69 8.07-1.11 12.47M475.69 180.06c4.55 7.92 4.61 16.8 5.5 25.5M221.19 349.56c1.02 8.94 5.36 16.2 11.58 22.42.56.56.92.86.92 1.58M457.19 296.06c4.31 7.63 7.24 15.71 8 24.5M484.69 215.56c-7.97 7.03-17.07 5.36-25.96 2.87-4.3-1.2-2.76-5.94-2.78-8.87-.02-3.42-.33-7.07.75-10.5M234.19 288.56c-8.21-.08-16.31-1.61-24.5-2M307.69 316.56c7.35-.07 14.68.19 22.01.89 3.37.32 5.61 1.55 6.41 4.63.64 2.47-3.37 7.07-6.41 6.83-3.8-.3-8.68 1.05-10.55-4.46.87-2.39 1.94-4.77 3.54-6.89M236.19 276.56h-19c-1.89 0-3.84.31-5.5-.99M256.19 217.06c8.83.83 17.67.81 26.5 0M532.19 58.06c-4.03 3.15-9.67 2.94-13.5 6.5-2.48 2.31-6.14 3.73-6 8M454.69 176.56c1.07 5.31.21 10.67.51 16 .1 1.87-.56 3.89.99 5.5M513.19 232.06c5.62 1.69 11.36-1.01 17.02.44.83.21 1.46.45 2.15 1.29-1.49 2.61-4.65 1.55-6.62 2.85-1.96 1.28-5.38-.02-6.05 3.43M658.19 223.56c2.05 7.06.2 14.39 1.5 21.5M769.19 230.06c-1.5-.46-3-1.01-4.74.07-.86 4.88.46 9.99-.76 14.93M255.19 275.06c-1.25-.61-1.26-2.06-1.91-3.06-2.99-4.55-5.83-5.29-10.1-2.47-4.72 3.12-7.06 7.39-6.99 13.02.02 1.57.33 3.22-.99 4.5M217.19 342.56c-3.16-.38-6.24-2.14-9.56-.21-.31 1.5.96 2.74 1.56 4.21" class="chatVanGraphic-2"/>
  <path d="M484.19 207.06c-4.84-1.45-6.73-.59-7.89 4.53-.57 2.52-1.32 4.67-3.11 6.47M433.19 212.06c-4.47-1.06-9-.24-13.5-.5M523.69 231.56c-4.34-5.97-5.75-5.76-13.04 2.05 1.74 3.57 5.04 4.32 8.54 4.7M767.19 287.56c0 1.17.09 2.34-.02 3.5-.33 3.7 1.13 5.85 5.02 6M216.69 313.56c1.33 4.34 4.22 7.89 6 12M705.19 296.56c2 .81 3.96.66 6.01.05 1.52-.45 2.94.18 3.99 1.45M425.69 322.06c1.54 6.02 7.9 8.3 10.5 13.5M722.19 319.06c-5.82-2.46-9.77.69-13.5 4.5M456.19 218.06c-2.79.98-5.67.29-8.5.5M204.19 270.56c2.78-.11 3.27 2.36 4.5 4M198.69 120.56c-1.44.31-2.15 1.56-2.96 2.53-2.7 3.23-1.95 6.35 1.96 8.97 2 1.34 6.05.26 7.5-2 2.02-3.14.98-6.51-1.92-8.61-1.44-1.04-2.71-.69-4.08-.89M227.69 120.56c-3.28 1.52-4.09 4.42-3.4 7.48.69 3.1 2.97 4.81 6.4 4.53 3.74-.3 5.26-3.33 5.26-6.01s-1.52-5.76-5.26-5.99c-.83-.05-1.67 0-2.5 0M169.69 120.56c-5.45 3.26-6.4 8.4-1.99 10.99 2.13 1.25 4.38 1.82 6.48 0 1.78-1.56 3.8-3.64 2.86-5.92-1.12-2.71-2.71-5.91-6.84-5.06M111.5 174.28c5.5-4 6.33-8.46 3.02-15.01-3.13-6.19-9.34-7.8-14.42-5.29-10.59 5.22-21.86 5.25-33.09 6.38-4.51.46-8.79 1.8-12.61 4.79-2.15 1.68-4.57 3.23-5.28 5.67-2.42 8.27-11.44 12.42-12.69 21.46-1.54 11.18 1.33 21.17 7.12 30.49 4.03 6.48 8.88 12.56 11.81 19.59 2.68 6.43 1.41 13.32-.41 19.92-.3 1.09-1.52 1.92-2.47 2.46-23.28 13.29-32.37 34.53-36.1 51.02-3.51 15.54-5.11 31.14-4.92 47.03.13 10.5-.09 10.5-10.45 10.5M291.5 355.28c-2.88 6.16-6.21 12.09-11.53 16.46-9.23 7.56-19.36 9.64-31.03 5.73-5.83-1.95-11.82-3.71-18.45-3.39-13.97.67-27.99.4-41.99.16-20.17-.34-40.34.9-60.51-.8-7.27-.61-13.71-3.37-21.94-.8 0 0 10.03 10.54 21.6-3.09 1.57-3.69-3.52-30.87-6.03-41.79-4.24-18.39-10.03-35.78-25.11-48.47" class="chatVanGraphic-2"/>
  <path d="M51.5 265.78c.68 1.59-1.04 2.57-1.07 4.3 6.97 4.73 15.38 6.1 23.1 9.13 4.81 1.89 9.99 2.67 14.99 4.02 3.25.87 6.78-2.48 8.01-6.94 1.17-4.21 1.86-8.53 3.87-12.56 2-4 4.45-6.17 9.11-5.5 2.12.31 4.34.2 6.49.02 5.46-.45 8.42-3.65 8.5-8.97.02-1.67.3-3.4-.07-4.98-.46-1.96 2.01-3.1.43-5.76-1.29-1.28-4.92-.35-6.25-3.51 1.29-3.1 5.91-1.1 7.39-4.25 1.4-3-1.68-5.2-1.48-8.1 2.06-2.2 6.14-2.17 7-5.93-1.46-3.48-3.93-6.37-6.58-8.89-3.85-3.66-4.72-8.18-5.51-13.06-1.2-7.43-4.3-14.21-8.42-20.51" class="chatVanGraphic-2"/>
  <path d="M55.5 263.28c12.5 5.83 24.81 12.06 37.5 17.5M70.5 231.28c-3.9 5.38-6.86 11.57-13 15" class="chatVanGraphic-2"/>
</svg>