<svg xmlns="http://www.w3.org/2000/svg" id="Layer_1" data-name="Layer 1" viewBox="0 0 1055.25 605.23">
  <defs>
    <clipPath id="clippath">
      <path d="M0 .24h1055.25v602.3H0z" class="communityGraphic-1"/>
    </clipPath>
    <style>
      .communityGraphic-1, .communityGraphic-2 {
        fill: none;
      }

      .communityGraphic-3 {
        fill: #fdeccc;
      }

      .communityGraphic-4 {
        fill: #fff;
      }

      .communityGraphic-5 {
        fill: #c9eef7;
      }

      .communityGraphic-2 {
        stroke: #000;
        stroke-linecap: round;
        stroke-linejoin: round;
        stroke-width: 2px;
      }

  
    </style>
  </defs>
  <path id="VDIpD6.tif" d="M36.37 476.02c32-26.44 72.26-43.09 109.25-61.03 8.26-7.51 2.3-32.72 7.61-41.78-.24-.34-5.48-3.15-7-4.5-2.33-2.07-12.61-13.61-14.28-13.35-1.05.16-3.59 2.88-4.19 2.84-3.65-3.94-1.06-8.63-9.24-10.21-2.51-7.99-4.75-2.48-10.76-6.72-4.3-3.73-1.2-7.53-.48-12-18.18 3.76-28.62-20.4-17.95-32.43-7.11-3.78-4.57-7.12-4.07-12.92-3.57-8.59-.11-8.21 4.03-13.05 0-.39-3.94-3.77-4.88-6.09-4.25-10.54 3.52-11.62 3.64-13.87-2.01-3.97-2.18-3.51-.2-7.96.12-2.06-1.18-4.19-.37-6.84.72-2.37 3.83-2.37 3.88-3.24.14-2.21-3.89-4.89-2.89-9.69.55-2.62 10.45-14.5 12.32-14.34 1.12.1 2.27 1.41 2.99 1.36 1.39-.09 3.92-5.1 6.49-4.74 1.23-1.79-5.87-4.61-3.24-10.7s11-5.21 12.07-6.43c1.06-7.97 5.78-13.93 14.13-10.8 2.21-8.22 4.39-7.67 11.87-8.14 1.92-7.29 6.23-5.89 12.11-7.36 2.35-1.04 4.3-5.93 7.57-6.48 5.5-.93 7.39 3.78 11.01 4 11.56-3.51 20.99-8.43 27.42 6.98 14.72-9.25 23.16-8.55 30.45 7.97 8.28-7.25 19.31-8.03 18.5 3.99.38.39 6.12-.49 10.01 3.47 5.95 6.06.92 12.21 2.38 14.53 5.7 4.82 18.51 1.93 15.59 13.93.36.42 7.84 1.48 9.85 4.63 4.03 6.29-2.33 11.88-1.96 15.86.22 2.38 5.41 3.96 6.02 7.07 17.69-1.74 30.86-17.17 48.53-19.47.8-6.79.47-13.74.5-20.57.01-3.34-2.47-11.77 3.43-9.43 1.93-2.16-3.43-3.46-5.51-5.47-8.11-7.83-7.17-14.3-9.22-23.74-1.48-6.83-5.3-.53-9.81-4.17-4.26-3.45-13.54-27.33-13.82-33.18-.47-9.53 5.82-15.17 13.9-8.33v-5.98c-1.91-.58-2.86 2.21-4.38 1.95-2.89-.5-5.17-10.81-6.42-13.61s-5.31-8.19-5.76-10.3c-.65-3.1 2.99-5.3 2.58-9.4-.36-3.6-4.08-6.3-4.08-11.08 0-4.33 2.52-5.2 3.05-8.03 1.01-5.39-1.64-10.1 2.58-15.39 2.36-2.96 7.24-4.04 8.92-6.06 2.31-2.77.7-7.06 4-9.98 2.74-2.44 5.87-1.31 8.09-2.9 4.02-2.89 5.96-11.61 13.39-13.58 5.16-1.36 10.66 1.09 13.29.39 1.56-.41 5.46-5.44 8.37-6.69 10.05-4.33 12.74 3.59 19.84 3.9 11.09-2.08 27.74-8.06 35.88 3.99 1.28 1.88 2.7 6.86 3.55 7.44 3.09 2.1 10.78.98 16.49 6.48 8.61 8.3 3.53 19.39 5.67 22.8 10.97 4.96 14.34 6.13 9.91 20.65.06 3.36 4.48 7.64-.09 12.45 11.35-3.44 22.61-8.72 34.59-9.85 45.37-3.93 109.58 59.51 81.88 104.61-.62 13.35-5.85 41.57-13.52 51.55-2.64 2.43-6.1 1.71-6.54 2.39-1.1 1.7-2.25 9.83-3.65 13.4-9.87 19.23-15.2 14.06-11.72 36.97.21 1.63.8 5.02 1.87 6.12 1.81 1.86 19.96 7.46 22.53 7.08 10.36-13.24 23.25-15.22 37.4-21.08 16.59-6.87 34.3-17.73 52.96-13.46v-14.48c0-.55 1.4-1.13.54-3.41-2.01-5.3-8.77-11.64-11.3-18.77-.89-2.51-2.69-13.76-3.22-14.25-.86-.79-3.15 1.81-4.55 2.02-7.27 1.13-12.45-16.42-13.98-21.94-2.48-7.85-5.01-17.06-2.99-25.06 1.45-4.66 7.36-4.26 7.62-5.57-1.22-14.35-13.96-44.21-2.18-56.92-8.24-14.68 2.1-17.76 10.97-25.93 3.32-4.82 4.36-10.97 9.57-16.39 4.04-3.33 29.11-24.1 26.01-7.95 17.05-15.08 52.33-3.66 70.76 5.17 9.1 5.01 12.01 15.01 9.68 24.78 18.72-9.9 32.55 18.13 17.35 29.42 3.59 12.17 3.14 26.64.62 39.46 16.51-5.69 8.9 52.03-1.76 51.72-2.49.52-5.46-1.91-6.77.15-3.03 10.98-2.53 23.81-12.29 35.69-.61 2.64 2.12 12.41.85 16.27 2.45-1.75 10.47 5.1 11.97 3.99 1.75-12 13.54-15.73 21.52-22.94 4.37-3.95 14-18.07 16.71-19.23 5.43-2.33 8.87 1.57 14.2 1.28 4.82-.27 11.01-4.06 16.27-4.78 10.11-1.37 39.37 6.74 49.95 10.46 7.27 2.56 14.76 6.28 18.42 13.54 3.01 5.97.92 8.02 5.79 13.13 9.65 10.14 24.38 20.98 21.9 36.93-3.29 6.22-2.97 13.03-3.06 19.9-1.37 9.99-4.67 19.57-5.86 29.58 25.28-13.05 10.87 56.26-3.28 54.77-1.61-.23-3.76-3.26-4.57-.21-.74 8.47-3.1 27.33-11.57 35.41l3.61 17.52 92.74 30.77 1.05 3.86-187.86 128.44h-598.4l-95.82-58.49c-25.36-22.62-48.1-48.54-75.01-69.3v-1Z" class="communityGraphic-4"/>
    <path d="M365.28 578.19c-52.6-2.6-65.21-24.89-64.94-35.72-31.4 10.79-84.69 21.48-89.29 61.69 105.8 5.41 260.57-11.36 317.39-17.05 3.25-22.73-58.99-40.86-88.48-44.65-2.98 12.99-22.08 38.31-74.68 35.72Z" class="communityGraphic-5"/>
    <path d="M563.34 291.65c20.29-13.53 65.43-39.45 83.61-34.9-4.87 12.18-10.55 69.81 54.39 67.37 35.12-1.32 47.49-5.43 50.14-9.12l-1.44-4.68c1.75 1.23 2.71 2.9 1.44 4.68l8.3 26.98c-4.87-3.52-14.61-6.33-14.61 10.55 0 21.11 9.74 43.02 22.73 42.21 4.06 12.18 6.49 26.79 11.36 31.66 3.9 3.9 9.2 9.74 11.36 12.18v25.16l-40.59 12.18c-1.35-41.67-10.88-127.44-38.15-137.18-27.27-9.74-60.61-23-73.87-28.41-18.13-2.16-58.44-8.93-74.68-18.67Z" class="communityGraphic-3"/>
    <path d="M496.71 555.64c4.19-5.3 6.31-11.62 7.04-18.06.78-6.89-1.28-13.63-5.05-19.51-1.97-3.07-3.92-6.22-6.6-8.84-8.28-8.14-9.65-18.36-6.58-28.79 5.59-19.02 2.21-36.76-5.81-54.16-5.57-12.09-12.37-23.68-15.92-36.6-3.86-14.06-7.24-28.26-11.42-42.24-6.19-20.7-16.92-38.51-34.53-51.49-11.08-8.16-23.48-12.77-37.57-11.98-4.33.25-7.62 2.21-10.82 4.7-19.35-11.48-42.35-3.18-55.16 8.73-14.27 13.28-23.44 29.83-30.8 47.49-5.54 13.31-10.37 26.94-12.9 41.21-1.84 10.38-3.52 20.83-3.67 31.43-.23 17.42-4.48 33.58-13.82 48.51-5.24 8.37-9.48 17.31-8.96 27.77.24 4.66 1.97 8.49 4.18 12.38 5.41 9.53 4.01 16.41-3.05 23.18-1.58 1.51-3.36 2.91-4.59 4.67-2.32 3.36-4.81 6.55-2.75 11.35 2.08 4.89 5.81 6.83 10.43 7.03 3.74.15 7.61.99 11.38-.79 1.64-.77 3.74.29 5.61.5 13.8 1.59 26.27-2.28 38.14-8.84M653.86 315.98c-9.93-7.55-20.74-6.13-31.4-2.5-16.4 5.59-28.68 16.99-39.67 29.84-15.2 17.76-26.59 37.74-32.88 60.31-2.24 8-2.99 16.36-3.95 24.68-1.38 12.04.33 24.15-1.82 36.11-1.64 9.12-4.92 17.73-8.34 26.25-4.15 10.34-9.73 20.04-13.94 30.4-7.83 19.24-4.11 36.97 5.82 54.13 1.19 2.06 2.03 4.34 3.56 6.21M455.49 78.9c2.68-3.38 3.24-7.47.83-10.68-1.73-2.31.02-3.53.36-4.74 2.39-8.55.65-12.33-7.35-15.59-1.96-.79-4.78-.95-3.79-5.11 2.95-12.42-5.13-23.32-17.89-24.63-2.96-.3-4.43-1.09-5.24-4.17-2.01-7.62-9.27-11.07-16.4-11.38-5.69-.25-11.18.57-16.49 2.61-3.04 1.18-6.05 1.18-8.74-.57-8.5-5.51-14.06-5.63-21.11 2.65-1.56 1.82-3.52 1.96-5.16 1.41-7.51-2.47-13.4-.65-18.14 5.71-1.16 1.56-2.52 3.09-3.44 4.74-1.58 2.82-3.33 4.2-6.79 4.2-4.25 0-5.3 3.78-5.54 7.09-.24 3.09-1.44 4.47-4.19 5.75-7.64 3.55-9.83 8.58-8.37 16.93.26 1.47.66 3.22-.93 4.66-4.05 3.68-2.64 8.01-.44 11.75 2.23 3.77 3.15 7.4.31 10.8-1.95 2.33-.57 4.6.26 5.63 3.96 4.96 5.93 10.69 7.56 16.62.5 1.8 1.29 3.34 3.2 4.14 1.58-.21 1.8-2.44 3.51-2.6" class="communityGraphic-2"/>
    <path d="M240.11 370.62c1.36 5.26.97 10.64 1.03 15.98.09 7.69.83 15.29 3.08 22.68.83 2.74 2.14 4.6 5.09 5.83 2.78 1.18 5.65 2.41 8.34 3.93 5.92 3.33 6.7 5.84 3.06 11.36-4.28 6.49-10.13 11.45-15.9 16.58-11.95 10.62-26.27 16.28-41.31 20.42-2.88.79-6.21.47-9.25-.88-18.15-8.1-36.46-15.91-51.5-29.42-2.43-2.19-4.76-4.52-6.73-7.18-3.1-4.23-3.03-5.81 1.59-8.17 5.82-2.98 10.13-7.19 11.73-13.49 1.49-5.86 1.89-11.97 2.11-18.02.18-4.64.03-9.29.03-14.75 7 2.71 12.37 6.72 18 10.16 5.85 3.58 11.66 7.36 18.1 9.66 12.61 4.49 24.52 2.59 35.53-5.06 6.24-4.34 11.97-9.24 16.99-14.96M768.25 104.16c6.36-5.82 5.4-14.62.56-21.16-4.31-5.8-11.93-8.61-19.61-4.09-2.02-.72-.65-2.16-.45-3.08 2.32-11.03-3.28-20.64-13.98-23.71-.47-.13-1.21.21-1.51-.05-10.13-8.13-23.17-6.38-34.65-9.96-9.75-3.04-19.63.04-28.22 5.92-1.1.75-1.88 1.57-3.33.33-.24-1.59 1.32-2.87 1.25-4.5-2.44-2.53-4.81-.33-6.65.62-11.7 6.06-22.24 13.57-26.67 26.75-.8 2.39-2.4 2.91-3.81 4.02-2.88 2.28-6.21 3.82-8.27 7.22-3.69 6.06-3.6 9.85 1.09 15.5M918.19 448.44c6.22 9.62 3.1 19.72-.24 28.77-10.81 29.27-32.05 46.46-63.14 51.14-14.29 2.15-28.17 1.26-41.77-4.08-8.83-3.46-15.1-9.75-19.42-17.66-6.28-11.47-9.2-23.83-6.36-37.05.21-.98.85-1.73 1.01-2.58.38-2.02 2.32-4.09.07-6.19-.96-.89-2.36-.75-5.15 1.05-10.08 6.51-21.66 9.59-32.47 14.41" class="communityGraphic-2"/>
    <path d="M791.44 439.16c-2.97 4.46-.29 9.12.3 13.36 1.08 7.73 2.84 15.36 2.79 23.24 0 .86.37 2.08-.06 2.51-4.24 4.3-.33 8.24 1.3 11.29 6.36 11.9 17.15 18.86 29.13 24.39 14.02 6.46 27.69 3.13 41.22-1.15 18-5.71 31.41-16.98 39.18-34.46 3.28-7.38 4.69-15.25 5.62-23.19.31-2.68.55-5.25 2.63-7.2M435.91 231.97c-7.38 17.16-21.06 27.16-38.15 32.93-23.56 7.96-48.21-3.59-58.18-23.15-3.23-6.32-3.86-12.91-1.01-19.55.57-1.33.76-2.42-.38-4.22-13.81 5.58-26.53 13.51-39.85 20.17M577.09 162.91c-.13-3.6 2.03-6.65 2.16-10.31.39-10.72-2.31-20.62-7.36-29.88-13.94-25.58-34.8-42.64-62.8-51.15-8.05-2.44-15.78-2.01-23.73-.42-9.13 1.82-18.02 4.32-26.32 8.7-.69.36-2.16.64-3.05-.43M807.93 260.32c7.39 2.3 14.8.96 22.15-.09 3.1-.44 6.07-1.66 9.27-2.05 6.04-.74 8.95-6.55 13.85-9.33 4.17-2.37 7.11-2.98 10.9-.39 7.72 5.26 14.95 11.31 24.2 13.97 5.86 1.68 9.48-.18 10.26-6.23 2.34-18.1-3.55-31.07-21.58-36.11-11.48-3.21-23.14-5.73-34.55-9.18-8.64-2.61-17.04-.82-25.25 2.48-3.3 1.33-6.49 2.24-10.35.68-7.23-2.92-9.96-.81-13.12 4.13-6.08 9.55-14.1 16.55-23.38 22.59-5.34 3.46-9.17 8.2-9.82 14.9M691.48 323.2c1.02 2.25 3.36 2.87 5.17 4.09 17.43 11.79 27.17 29.2 35 47.96 5.84 13.99 10.04 28.56 13.2 43.34 1.53 7.15 2.42 14.6 2.39 22.11-.07 17.05.73 34.11 6.12 50.5 4.56 13.85 10.66 27.09 16.96 40.21 3.98 8.28 7.57 16.66 9.35 25.76.64 3.3.18 6.55.44 9.8.22 2.63-2.64 2.18-3.61 3.61M542.57 289.7c2.92 4.51 8 4.75 12.4 5.47 4.12.68 3.96 2.32 3.09 5.36-5.02 17.6-17.03 28.34-33.5 35.09-16.23 6.66-32.2 3.95-47.89-1.24-11.13-3.68-20.41-10.87-28.9-18.92-.6-.57-1.09-1.27-2.07-1.02M440.55 543.79c-5.37 6.46-10.43 13.16-16.43 19.13-10.91 10.86-23.99 15.91-39.22 15.91-14.29 0-28.52-.78-42.24-5.2-13.16-4.25-24.72-11.15-34.06-21.56-1.87-2.07-2.94-4.59-4.6-6.74M915.36 446.9c25.98 7.31 51.34 16.52 77.01 24.8" class="communityGraphic-2"/>
    <path d="M567.3 296.91c-.03 9.96-5.11 17.91-10.33 25.76-7.17 10.79-18.54 15.49-29.88 20.06-5.34 2.14-10.78 3.96-16.41 5.44-6.95 1.84-13.62.53-19.54-1.58-11.69-4.15-23.34-8.8-33.63-16.13-3.55-2.53-6.92-5.21-9.18-8.84-5.38-8.65-9.21-17.65-2.52-28.94-7.99 2.12-13.71 5.81-19.68 8.88M373.56 309.28c-3.21-5.99-9.52-5.43-14.43-5.42-21.47.04-39.26 8.09-52.08 26.02-7.54 10.54-13.8 21.6-15.91 34.56-1.48 9.12-.67 18.07 2.5 26.81.71 1.97 2.73 2.48 3.81 4.39 4.06-3.34 3.96-8.49 5.35-12.71 7.19-21.7 21.38-37.47 40.35-49.42 6.9-4.35 14.14-8.1 21.64-11.34 5.22-2.26 8.12-6.08 8.24-11.87M131.39 421.64c-8.05 1.94-14.83 6.66-21.53 11-25.44 11.62-46.55 20.55-72.52 42.46M261.75 262.9c2.89-8.47.23-16.47-2.67-24.19-5.94-15.82-18.65-25.47-32.37-34.06-9.51-5.96-19.89-10.18-30.95-11.05-8.11-.64-16.61-.06-24.66 1.55-4.47.9-9.11.67-13.46 2.28-12.53 4.64-21.46 13.54-26.58 25.37-6.34 14.62-10.53 30-9.53 46.3.12 1.98.38 3.85 1.08 5.67M593.06 562.34c1.64 8.69 8.34 13.15 14.97 17.48 9.5 6.19 20.37 7.91 31.39 9.43 9.43 1.31 18.59.44 27.84-1.1 17.28-2.9 31.75-10.93 42.02-24.94 5.11-6.98 10.83-8.48 18.25-6.98 5.21 1.05 10.57 1.72 15.47 4.06" class="communityGraphic-2"/>
    <path d="M373.05 309.8c-12.65-.61-24.89.92-36.6 6.14-20.53 9.17-32.8 25.07-38.64 46.42-2.66 9.73-3.61 19.48-1.01 29.38.19.69-.8.89-.52 1.55M444.15 443.29c2.44 8.3 2.49 16.73 1.58 25.25-1.04 9.65-3.12 19.23-3.43 28.86-.48 14.78 6.07 26.5 18.3 35.1 5.46 3.83 11.36 6.85 17.06 10.21 4.61 2.7 9.58 4.84 12.35 9.83M650.77 342.27c-3.67-4.99-8.47-3.84-13.41-2.6-15.61 3.94-29.76 10.62-39.55 23.82-7.3 9.83-11.04 21.48-13.46 33.43-1.89 9.33-3.1 18.77-1.61 28.34.16 1.04-.46 1.8-1.03 2.58M847.09 255.17c4.41 2.21 9.31 1.1 13.95 1.82 12.5 1.94 22.12 8.32 30.3 17.31 4.11 4.53 4.74 10.68 5.09 16.44.45 7.53 1.69 14.59 5.74 21.16 4.05 6.57 4.08 14.19 4.69 21.61.3 3.64-.82 7.48 1.74 11.12 4.99-6.59 5.71-14.49 7.48-21.96 2.36-9.98 5.04-19.92 4.28-30.4-.27-3.62 2.79-6.51 3.1-10.3.76-9.29-3.61-16.3-9.42-22.65-4.5-4.93-9.34-9.57-14.39-13.96M446.22 80.45c-1.57-9.06-2.82-18.18-7.69-26.31-2.37-3.96-4.77-8.18-8.86-10.15-10.2-4.92-19.42-11.67-29.85-16.03-12.79-5.34-25.6-3.75-38.08 1.49-3.74 1.58-6.31 4.27-6.04 8.86-4.16.72-7.42 2.92-10.47 5.52-1.24 1.05-1.97 2.96-4.11 2.59" class="communityGraphic-2"/>
    <path d="M721.36 426.28c-3.05-2.97-3.52-7.14-3.96-10.84-1.22-10.29-3.57-20.31-5.59-30.44-3.13-15.64-12.91-26.22-24.57-35.36-7.41-5.8-16.25-7.72-26.18-7.28-6.71.31-13.39 1.27-20.05 1.72-10.71.72-20.47 5.27-28.84 12.13-11.7 9.58-16.92 22.53-19.74 37.05-2.29 11.76-3.56 23.81-8.11 35.08M356.56 37.67c9.45.44 18.88 2.48 28.33 1.42 7.99-.9 15.67.24 23.17 2.3 11.34 3.13 18.26 11.45 23.86 21.46 4.12 7.37 6.15 15.27 8.02 23.29.33 1.41 1.08 2.4 1.65 3.59M914.07 335.57c.83.13 1.1-.62 1.54-1.04 1.87-1.87 3.85-3.48 6.71-2.54 3.39 1.13 4.44 3.94 5.21 7.17 2.05 8.52-.45 16.66-2.31 24.71-1.03 4.49-2.14 9.08-3.85 13.47-1.19 3.04-2.71 5.76-5.26 7.65-2.86 2.1-5.72 1.5-8.02-1.84-2.1 3.87-1.78 7.55-2 10.67-.87 12.4-4.7 23.42-12.64 32.95-7.08 8.52-14.36 16.86-22.17 24.73-9.81 9.89-21.88 12.61-35.53 12.08-11.32-.43-20.01-5.15-27.81-12.58-3-2.86-6.53-5.13-9.23-8.28-1.12-1.31-2.38-.89-3.65-.99M89.14 270.63c-4.36 2.33-6.17 5.5-3.67 10.34.42.81.22 2.06.03 3.06-1.14 6.4-.4 8.06 5.85 11.74-9.37 6.43-5.74 14.78-2.54 22.19 3.49 8.07 11.24 9.51 19.26 8.76.93 1.75-.53 2.93-1.01 4.17-2.16 5.62-.06 9.57 5.77 9.76 2.51.08 4.61.03 5.22 3.14.13.7.61 1.9 1.48 2.03 5.38.82 6.41 5.41 7.73 9.34 2.81.07 3.15-2.75 5.26-3.13 6.51 7.71 13.98 14.7 22.19 20.43 11.05 7.72 22.88 14.86 36.47 17.06 14.22 2.3 28.12 1.57 38.63-10.65 5.08-5.89 11.65-10.21 16.63-16.37 6.27-7.74 8.73-16.63 11.36-25.85 2.59-9.07.84-18.38 2.85-27.38.25-1.1.31-2.19 1.08-3.08M302.97 428.86c3.23 8.89 4.68 18.25 7.17 27.33 2.63 9.55 5.27 19.47 12.08 26.61 11.38 11.92 23.38 23.7 39.03 29.91 13.87 5.51 26.44 1.08 37.54-8.1 7.08-5.85 11.96-13.76 18.56-20.09M260.21 264.44c-2.69.79-4.62-1.92-7.21-1.55 1.55-6.31-1.09-8.31-5.72-10.73-11.1-5.8-22.57-4.99-33.94-.57-1.35.53-2.81.93-3.28 3.01-.29 1.27-1.26 2.25-.35 3.66 1.04 1.62 2.18.95 3.64.57 8.27-2.14 16.51-4.45 25.24-3.73 3.48.29 6.58 1.54 9.79 2.61 1.71.57 1.62 1.79 1.54 3.12" class="communityGraphic-2"/>
    <path d="M293.18 402.57c-2.78-.37-3.6 1.13-3.62 3.61-.07 8.56.11 16.95 2.95 25.31 3.01 8.9 4.17 18.46 8.98 26.71 4.46 7.66 9.64 14.94 13.74 22.77 6.25 11.94 10.04 24.51 5.26 38.08-3 8.51-7.16 16.16-15.96 20.11M371.5 89.21c-1.6-6.84-3.8-8.95-10.82-9.23-8.29-.33-16.32.96-23.7 5.1-5.55 3.11-7.58 6.82-6.1 11.59 10.44-9.24 22.7-10.01 35.46-7.4 8.45 1.73 16.82 1.41 25.26.44M377.69 311.86c-1.8 6.04-.8 8.65 4.64 12.38 7.15 4.9 14.89 8.78 21.78 14.27 11.94 9.53 18.71 22.24 24.57 35.74 2.6 5.99 4.69 12.16 6.27 18.52.72 2.9 4.08 4.75 3.55 8.26M758.46 196.93c-1.64 6.65-2.07 13.48-3.92 20.16-1.85 6.72-5.18 12.87-9.27 17.72-6.19 7.32-11.94 15.06-18.63 22.03-5.7 5.94-12.53 8.15-20.19 9.78-15.09 3.22-25.84-4.37-36.06-13.54-2.44-2.19-5.19-4.08-7.21-6.69-1.15-1.49-2.55-1.64-4.16-1.52" class="communityGraphic-2"/>
    <path d="M393.66 87.66c4.2 1.63 7.47-1.78 11.34-2.09 9.27-.75 18.66-3.04 27.32 2.61.32.21.68 0 1.03-.52-2.34-5.66-6.29-8.83-12.37-9.78-5.66-.88-11.37-.79-16.99.03-7.93 1.16-11.73 5.95-12.38 14.9-.72 9.93 3.03 19.2 4.37 28.83.36 2.6 3.65 4.77 5.39 7.28 2.62 3.78 1.04 7.04-3.57 7.69-2.97.42-5.76.9-7.76 3.6-2.99 4.04-7.79 3.04-11.83 3.5-6.38.72-12.28 2.9-17.95 5.43-5.33 2.38-7.8 7.27-7.83 13.26 0 1.57.49 3.15-.9 4.72-1.16 1.31 1.6 4.41-2.14 5.13-2.72.53-3.98-1.25-5.7-2.61-5.59-4.41-10.39-9.64-13.21-16.08-2-4.56-1.9-9.91-2.61-14.89-.94-6.6-2.97-12.97-3.71-19.57-.89-7.9-2.29-15.74-2.62-23.71-.13-3.11.44-5.96 1.98-8.8 2.47-4.59 2.78-9.73 3.28-14.89.99-10.24 2.92-20.27 12.78-26.3M717.24 449.99c-2.02 4.06-2.58 8.62-2.92 12.9-1.22 15.3-6.71 29.07-16.94 39.92-7.76 8.24-15.07 17.38-25.93 22.58-11.58 5.53-22.48 5.4-33.57-.66a178.41 178.41 0 0 1-26.84-18c-2.13-1.73-2.08-4.59-4.08-6.24M651.8 257.23c-3.43-1.63-6.83-1.19-10.32-.02-18.69 6.26-37.48 12.27-56.11 18.71-8.75 3.03-15.96 8.94-22.2 15.84M652.32 259.8c-5.79 21.67-.79 37.78 23.2 46.88 7.83 2.97 15.91 5.36 24.23 6.07 10.25.88 19.96-1.93 28.8-7.15 3.38-2 6.55-4.41 9.83-6.63M455.49 261.87c3.83.76 5.86 4.1 8.74 6.22 7.43 5.46 13.81 12.64 23.22 14.87 10.58 2.51 21.63 2.64 30.2-4.3 12.94-10.47 23.98-22.97 31.14-38.41 2-4.31 1.88-9.08 3.56-13.42M582.76 467c-.68 1.07-1.07 2.42-2.61.55-5.72-6.95-9.38-14.87-10.1-23.75-.39-4.72-1-9.62.73-14.46 1.1-3.09 2.43-5.55 5.78-5 4.36.72 8 6.14 6.65 9.65-2.43 6.33.98 12.82-.83 19.13-.03.1.15 1.42.88 2.06 7.06 6.29 7.06 15.71 10.3 23.69 3.12 7.72 6.45 15.35 9.37 23.16 4.58 12.28 6.87 24.72 3.5 37.64-1.96 7.52-6.64 13.44-12.37 18.51-.91.8-2.08 1.17-2.01 2.63M723.42 87.15c2.13 1.63 4.79 1.47 7.22 2.04 12.8 2.95 15.58 10.28 17.44 19.63.92 4.66 1.6 9.22 4.14 13.42 4.47 7.39 6.11 15.65 6.17 24.19.02 2.92 1.68 5.39 1.59 9.26 3.49-3.42 6.43-6.09 6.76-10.79.44-6.21 2.2-12.23 2.11-18.55-.12-8.58-2.27-16.67-4.75-24.73-2.41-7.85-9.15-10.78-15.98-13.34-2.47-.93-5.01-1.62-7.14-3.26 1.56-3.53 2.62-7.24 2.02-11.27-2.45-.18-3.7 1.67-5.14 3.12-4.42 4.43-9.88 8.09-15.54 9.5-15.28 3.8-30.59 8.42-46.85 5.07-7.15-1.47-14.5.75-21.56 2.19-2.58.53-5.36-.07-7.79 1.27-6.33 3.47-10.02 9.09-10.13 15.99-.17 9.95-1.33 19.64-3.03 29.42-.9 5.14-1.04 10.61-1.26 15.94-.05 1.3.21 2.66-1.04 3.61M767.22 147.45c6.44-.12 7.32.98 7.82 7.21.38 4.81.5 9.74.56 14.44.09 8.91-1.21 18-6.73 25.83-1.95 2.76-4.42 3.01-6.75 2.35-2.55-.71-4.7-2.88-3.6-6.01 2.29-6.54-.7-13.74 2.89-20.19 1.05-1.9-1.06-4.73.14-7.13M559.06 210.33c.77-4.29-2.24-8.06-1.58-12.37.78-5.08 1.36-10.12 4.59-14.48 1.07-1.44 2.03-2.04 3.69-2.02 2.14.03 1.95 1.76 2.65 3.07 2.04 3.8 1.03 8.02.15 11.31-2.23 8.28-2.79 17.05-6.82 24.87-.9 1.74-1.77 3.36-3.23 4.55-1.48 1.22-3.36 1.65-5.1.53-1.64-1.06-.12-2.36-.1-3.58.11-5.42 1.21-10.69 2.21-15.97.16-.89.12-2.24 1.48-2.59" class="communityGraphic-2"/>
    <path d="M648.2 257.23c-2.98 5.06-6.7 9.68-7.3 15.97-.68 7.07.78 13.4 4.14 19.63 4.95 9.2 11.05 16.5 22.22 18.08 4.92.69 8.92 3.67 12.93 6.57 5.77 4.17 12.78 4.64 19.54 5.73 16.61 2.67 31.89-1.3 46.37-9.29M437.97 231.97c3.26 9.02 8.52 16.82 13.54 24.97 11.2 18.19 26.05 33.84 35.9 52.87 3.82 7.38 7.67 14.75 10.33 22.67M715.7 86.12c-8.13-2.52-16.17-5.66-24.73-6.09-10.89-.56-21.06 2.67-30.94 7.07-4.07 1.81-8.68 2.59-11.32 6.76M859.97 245.89c-1.12-3.91-4.82-5.03-7.77-6.62-15.84-8.57-34.38-4.76-43.8 7.62-3.01 3.96-4.38 8.05-2.87 13.58 14.03-10.77 29.25-17.2 47.22-13.54" class="communityGraphic-2"/>
    <path d="M638.92 205.17c1.88 5.02 2.24 10.51 4.24 15.42 3.26 8.01 8.77 14.71 13.59 21.83 4.57 6.75 9.43 13.3 14.09 19.99 11.05 15.88 23.34 30.89 33.53 47.39.41.66.91 1.27 1.02 2.07M123.66 290.73c-2.79-1.96-5.84-5.43-9.15-3.4-4.6 2.82-4.82 8.36-4.13 13.18 1.26 8.76 3.97 17.18 7.62 25.28 1.13 2.51 2.63 4.71 4.57 6.76 2.89 3.05 5.84 3.43 9.35 1.48M722.39 462.87c-2.25-2.17-3.37-4.32-2.19-7.77 1.33-3.92-1.46-7.73-1.54-11.8-.08-4.61 1.46-8.89 1.79-13.39.25-3.31 2.59-5.94 6.07-6.35 2.7-.32 5.74 4.61 5.08 8.39-1.65 9.53-2.24 19.31-6.11 28.37-.8 1.89-1.38 3.02-2.6 4.11 4.38 9.25 4.19 14.34-1.06 17.99-3.99 2.77-6.99.2-9.76-2.52M323.07 485.03c-1.65 3.47.67 6.55 1.11 9.78 1.42 10.37 2.96 20.71-.63 30.92-2.93 8.33-9.26 13.42-17.01 16.94-.75.34-2.17.61-3.05-.4-.16-2.46.37-4.87.63-7.24.5-4.56-.29-6.04-4.75-5.63-6.63.6-12.9 2.96-18.46 6.3-6.5 3.91-12.91 8.13-18.75 13.13-.96.82-.74 1.41-.94 2.18M720.85 557.19c7.26 2.97 14.56 5.27 22.68 4.78 4.94-.29 9.7 1.89 14.43 3.44 11.27 3.71 22.25 7.66 31.02 16.4 5.55 5.53 10.53 11.32 14.31 18.15M631.71 173.73c3.01 9.65 5.01 19.53 7.11 29.47-5.38 5.09-7.27 5.12-11.15-1.18-4.13-6.72-6.9-13.9-7.55-22.09-.36-4.58 1.07-8.96.24-13.42-.41-2.24 1.09-3.15 2.3-4.32 3.46 1.59 4.73 4.61 5.84 7.45.62 1.59.44 3.35 2.7 3.56M143.76 266.51c-5.43 3.22-8.83 7.72-11.12 13.8-1.22 3.22.44 5.29.49 7.84.21 10.03 7.23 20.84 14.77 22.59 14.44 3.34 29.42-1.13 36.52-16.94 1.85-4.1 3.78-8.22 4.22-12.86.56-5.96 9.87-8.52 13.87-6.72 2.28 1.02 2.66 3.39 2.97 5.19 1.59 9.19 4.63 17.6 10.84 24.8 1.59 1.85.73 4.72.1 7.13-.69 2.63-2.81 1.99-4.64 2.06-3.78.14-7.55 2.78-11.34 0M760.52 361.34c-3.49-4.09-4.28-9.96-8.59-13.66-4.07 6.38-1.61 21.2 3.96 25 2.91 1.98 5.59.64 5.63-3.09.06-6.52 1.63-13.04.07-19.6-.93-3.91-2.4-7.33-6.2-9.28-4.66-2.39-8.6-.18-9.29 5.16-.85 6.61-.34 13.22 1.22 19.54 1.5 6.13 3.65 12.18 6.07 18.06 1.17 2.86 3.34 5.1 5.58 7.27 2.55 2.45 5.02 2.75 7.76.48M449.82 111.89c-14.13 6.74-17.79 19.56-18.97 33.51-.8 9.4-1.91 18.86-.65 28.35.13 1.05.18 2.09.56 3.08M374.08 309.28c1.81.78 3.42 1.34 5.68 1.22 8.82-.47 17.44.62 25.26 5.45 10.92 6.74 22.23 13.04 29.31 24.29 8.89 14.11 11.81 29.45 8.19 45.83-.34 1.53-.41 2.77.09 4.14" class="communityGraphic-2"/>
    <path d="M424.06 330.41c.2 3.82 3.47 5.83 5.22 8.71 5.44 8.92 7.26 18.75 8.88 28.87 1.32 8.19-.47 16.49 1.87 24.51M705.39 141.78c6.86.9 13.38-1.59 20.07-2.24 7.5-.73 14.52.76 21.66 2.23.67.13 1.19.02.51 0v-1.74c-2.97-5.11-9.06-6.81-14.96-7.32-7.78-.66-15.58-.55-23.29 2.61-3.77 1.55-4.2 3.2-4.61 6.46-1.62 12.68 2.56 23.97 7.82 35.06 1.12 2.37 2.4 4.66 3.1 7.21 1.68 6.11-.02 10.67-7.26 12.28-1.85.41-3.61 1.62-5.65 1.13M251.45 177.86c3.1-.1 6.14-.17 8.78 2.04 4.57 3.82 5.06 7.02 2.05 14.95 3.23 2.89 7.55 3.12 11.36 4.59 6.29 2.41 6.83 3.15 4.61 9.35 13.74 4.09 13.84 6.85 8.17 20.29.45 2.59 3.27 3.16 4.73 4.97 4.98 6.12 4.02 8.77-1 12.94-.6.5-1.93.69-1.88 2.29 2.86 3.48 9.52 3.33 9.59 9.51.04 3.34-2.17 5.61-3.53 8.41 1.37 2.43 4.2 3.91 5.55 6.54 1.5 2.9.34 4.05-3.07 4.21-2.65.12-5.09-1.43-7.97-.54 1.48 3 4.62 5.43 3.79 9.19-.79 3.6-2.99 6.32-6.45 8.23 2.75 3.24 5.48 6.21 3.46 10.89-1.84 4.28-5.43 5.08-9.51 5.55 1.78 4.21.5 6.66-3.95 7.32M444.15 117.04c1.3 2.52-.96 4.17-1.61 6.16-5.09 15.62-11.2 31.03-9.69 47.95.44 4.96-3.08 9.41-1.58 14.43M374.59 91.27c4.21 4.7 5.93 10.05 5.82 16.49-.12 6.91-.97 13.74-1.14 20.62-.15 6.11 1.79 9.1 5.64 9.28 3.69.16 6.95-3.53 7.72-8.76.05-.34 0-.69 0-1.03M710.03 564.92c9.92 12.25 23.7 12.9 37.59 11.66 7.81-.7 15.99-.92 23.21-4.96M551.33 169.1c-3.76-11.8-17.51-16.96-29.9-15-2.56.4-5.13.28-7.75.97-8.11 2.15-11.37 7.27-9.85 15.59.55 2.99.19 6.17.07 9.26-.24 6.18 1.88 12.01 2.51 18.05.2 1.97 1.71 2.26 2.72 3.01 1.86 1.39 3.07 2.82 3.63 5.21 1.4 6-.11 8.18-6.27 8.27-1.37.02-2.75 0-4.12 0M255.57 554.1c-6.84 4.48-14.96 6.4-21.7 11.26-12.93 9.33-20.84 22.05-26.22 36.68M186.01 264.96c-.92-8.15-6.07-12.9-15.97-12.96-9.5-.05-18.8.47-27.3 5.26-3.26 1.84-6.75 3.37-6.82 8.22-.05 3.22-3.05 4.75-5.59 6.13-1.4.76-3.29.79-4.54 1.68-1.78 1.26-3.43 2.88-2.93 5.59.56 2.91 2.97 2.62 4.93 3.05.98.22 2.05.04 3.08.04M697.15 504.62c.82 4.12.21 8.24.11 12.37-.37 15.83.92 31.37 10.62 44.89.55.76.88.97 1.63.98M640.47 97.45c-4.46-.95-8.83-1.4-13.43-.1-4.72 1.34-7.29 4.2-7.76 8.85-1.73 17.07 3.09 33.18 6.7 49.5.2.89.39 1.63 1.1 2.03 6.42 3.72 5.49 9.61 4.63 15.48M678.08 224.24c1.14 7.1 6.66 10.6 12.42 12.16 13.99 3.79 23.67.72 30.61-11.28 2.23-3.85 4.43-8.31 5.08-13.22.38-2.9-.12-3.75-2.75-4.17-11.2-1.76-22.36-.12-33.48.7-4.1.31-8.28-.21-12.44 1.2-2.3.77-4.12 1.79-5.89 2.93.18 2.65 2.19 4.05 2.51 6.51.57 4.17 5.2 4.28 8.03 6.26 6.59 4.62 13.7 6.24 21.68 5.19 5.38-.7 9.6-3.43 13.9-6.27 1.44-.95 1.97-3.1 4.12-3.09M341.1 227.85c3.99-9.66 2.94-19.83 3.14-29.89.07-3.47-2.27-6.78-.29-11 3.72 2.56 7.62 3.26 9.99 8.73 2.46 5.7 8.04 10.31 11.87 15.69a199.205 199.205 0 0 1 22.18 40.18M226.71 331.45c-3.82-2.22-7.87-3.31-12.37-3.13-9.45.36-18.98-.8-28.32 1.16-4.56.96-9.3 1.29-13.48 3.95-1.88 1.2-3.09 1.83-2.02 4.24 3.96 8.89 10.24 15.35 19.06 19.64 10.3 5 26.44.74 31.45-7.79 1.68-2.85 5.3-4.67 4.64-8.76M321.01 112.4c-2.32-1.64-5.15-3.59-7.64-2.39-3.36 1.62-4.37 5.17-4.3 9.09.07 3.79.8 7.3 2.1 10.84 2.55 6.97 5.84 13.58 9.4 20.05 2.83 5.15 3.2 5.03 8.69 2.62M610.58 507.2c1.16 8.21 3.01 16.3 2.68 24.74-.54 14.12-8.12 23.24-19.68 29.88-.33.19-.69 0-1.03-.52M894.49 323.72c-2.16-6.79-7.35-9.29-13.88-10.96-10.1-2.59-19.91-2.78-29.94.08-7.78 2.22-8.82 7.2-2.56 11.4" class="communityGraphic-2"/>
    <path d="M163.34 197.44c-7.28 5.17-15.27 9.47-21.12 16.49-8.46 10.14-12.64 21.78-13.01 35.05-.16 6.06-2.21 11.98-3.04 18.03-.27 1.96-.67 3.79.07 5.68M438.49 396.39c1.52-.77.79-2.51 1.54-3.61 1.64-2.43 4.08-3.07 6.69-2.51 2.48.54 5.08 5.72 4.65 8.7-1.72 11.68-2.41 23.51-5.13 35.05-.72 3.04-1.19 6.1-3.07 8.78-3.77 5.36-4.61 5.51-9.31 1.01M677.57 476.27c-3.34-3.21-7.52-3.7-11.85-3.6-6.18.14-12.29 1.02-18.56.75-5.52-.24-11.51.22-16.07 4.8-.95.96-3.08.87-4.39 1.53-1 3.12 1.37 4.71 3.01 6.24 5.71 5.33 10.96 11.26 18.98 13.53 12.68 3.59 24.82-2.99 29.87-11.93.26-.45.13-1.17-.48-1.53M762.58 373.71c4.01 3.86 2.66 9.3 4.07 13.94 4.83 15.91 7.27 32.52 20.46 45.04 9.41 8.94 15.88 20.68 24.86 30.27 10.24 10.95 18.87 23.18 25.84 36.51M811.53 399.48c-1.91.51-3.77 1.59-5.58 3.25 3.94 7.84 7.23 15.83 14.18 22.18 9.08 8.31 30.57 7.11 38.36-3.74 5.12-7.15 8.35-15.09 11.54-23.21-4.94-5.89-11.91-6.77-18.29-6.48-12.28.55-24.62 1.6-36.6 4.87-.74.21-1.01.73-1.54 1.07M380.26 394.84c-4.41 1.98-3.73 6.45-3.95 9.8-.64 9.89.05 19.68 2.66 29.43 1.24 4.62.89 10.02-1.19 14.91-.71 1.68-2.3 3.15-1.3 5.7.74 1.9-1.79 3.19-3.44 3.43-2.64.38-5.53.56-7.2-2.46-1.56-2.81-3.69-4.44-7.19-4.76-3.51-.32-6.22-4.76-5.05-8.08.71-2.02.8-4.76 3.49-5.71M264.33 331.45c4.64-1.14 5.03-5.63 5.45-8.79 1.41-10.42 4.23-20.74 3.31-31.41-.11-1.27-.24-2.37-.9-3.67-2.41-4.78-3.68-5.29-7.85-1.98-.64.5-1.09 1.26-2.07 1.01M470.43 230.94c-.47 6.66 3.06 10.11 8.74 8.19 3.4-1.16 6.8-1.7 10.33-1.46 9.59.65 18.84-2.31 28.34-2.61 2.95-.09 4.11-1.84 4.13-4.63.02-1.98-.05-1.7-3.58-3.21-1.96-.83-3.77-.92-5.72-.91-10.32.03-20.65-.45-30.9 1.05-3.56.53-7.14 1.14-10.32 3.06M816.69 324.75c2.84-4.3 2.51-5.14-2.04-7.76-4.94-2.85-10.28-2.2-15.48-1.93-7.44.38-14.83 1.52-21.13 6.09-3.2 2.32-6.09 4.87-6.28 9.21 3.05.76 4.89-1.71 7.27-2.62 5.36-2.03 10.78-3.73 16.52-3.45 8.14.38 16.15-.7 24.38 2.64 6.55 2.65 7.61 7.2 8.48 12.28 1.64 9.53 1.53 19.19.69 28.84-.35 4.04.52 7.94 3.03 11.34 2.73 3.7 6.01 3.77 8.75-.02 3.36-4.65 5.48-9.68 3.06-15.43-.96-2.28-1.34-4.41-.46-6.72M299.37 428.86c-.07-6.63.95-13.22-2.33-19.71-1.26-2.48-3.78-4.92-3.09-8.69.29-1.58-2.07-4.14-4.89-4.05-3.25.1-4.13 2.45-4.65 5.13-2.03 10.69.68 20.68 4.73 30.38 1.35 3.23 1.03 7.5 5.07 9.31M229.29 332.99c-2.49-.46-4.18.75-5.68 2.57-2.05 2.48-4.59 2.41-7.73 2.23-11.22-.64-22.44.12-33.46 2.5-3.14.68-6.21.1-9.29.43M473.52 240.22c-.38 1-.73 2.01-.52 3.09 2.66 13.04 21.24 22.85 32.89 16.86 5.13-2.64 9.86-6.55 10.38-13.26M472.49 119.1c4.95 2.66 8.26 7.24 12.26 10.94 5.99 5.53 12.22 10.61 20.17 15.61.27-11.22-4.17-19.68-10.28-27.57M349.35 473.7c.44 1.03-1.12 1.78-.06 3.14 5.95 7.6 13.41 12.12 23.25 12.34 10.08.22 18.13-3.26 23.17-12.39.14-.27.02-.68.02-1.02" class="communityGraphic-2"/>
    <path d="M864.09 395.35c-2.45 1.25-5.11.99-7.73 1.03-12.26.19-24.44 1.34-36.59 3.03-2.54.35-5.18.25-7.72-.47-.04 0-.06-.36 0-.48.12-.21.33-.35.5-.53M314.82 393.29c.83-4.62 5.5-5.04 8.33-5.9 9.21-2.79 18.77-3.74 28.28-.36 2.76.98 4.28 2.01 5.37 5.14 1.36 3.88 4.5 7.13 6.42 10.93 1.13 2.24 2.94 4.36 1.92 7.23-2.52.04-3.75-2.34-5.43-3.71-12.95-10.6-37.72-8.2-46.44 1.63M866.67 404.12c-11.5 5.38-23.93 4.33-36.07 5.08-3.79.24-7.22.41-10.4 3.06-1.83 1.53-4.43 2.5-7.12 2.18M724.97 212.39c-15.5 6.42-31.6 6.74-47.92 4.66-1.01-.13-2.06-.02-3.09-.02M228.26 333.51c0 3.09-.73 5.01-3.96 6.98-4.25 2.6-7.55 6.7-12.52 8.51-9.64 3.53-18.72 1.53-27.89-1.98-3.15-1.21-6.1-3.39-9.75-3.2M700.24 146.42c1.29 5.27.06 10.67.98 15.99 1.44 8.38 3.23 16.72 3.67 25.24.2 3.71-1.51 6.99-2.73 10.26-1.19 3.16-5.41 3.59-8.6 1.61-2.72-1.68-5.2-3.39-8.74-3.79-5.34-.61-6.18-5.28-2.6-11.68M351.41 474.73c8.15 7.86 17.65 11.3 28.84 8.2 10.67-2.94 18.08-9.93 23.08-19.69-2.49-2.28-5.74-.78-8.07-.17-12.94 3.36-26.09 3.17-39.2 2.66-3.18-.12-6.51-.64-9.8-.85-1.38-.08-1.77.99-2.58 1.59M704.36 142.29c-5.46 4.94-11.92 4.63-18.55 3.63-1.29-.2-1.82-.52-2.15-2.06-1.25-5.79-3.46-7.98-9.18-8.18-8.14-.29-16.34-.69-24.24 2.44-5.04 2-9.03 4.75-10.59 10.34 3.2.88 4.72-1.8 6.99-2.61 10.71-3.8 21.53-4.3 32.46-1.39 1.44.38 2.78.14 4.15.42M629.13 479.36c4.3 8.15 19.28 15.74 27.81 13.89 7.07-1.54 13.98-3.4 20.19-7.57 2.89-1.95 4.57-4.07 5.16-7.31-1.64-1.11-2.73-2.37-5.29-1.72-7.89 2.02-16.13 2.5-24.17 1.97-6.09-.4-12.04-1.39-18.04.25-.85.23-1.32-.59-2.06-.53M481.77 163.43c.93-4.94-.17-7.49-5.17-8.1-9.35-1.13-18.89-1.65-27.77 2.49-4.08 1.9-8.1 4.06-9.45 9.17-.39 1.49-1.73 3.43-3.98 3.65M765.16 262.38c-1.56-.03-3.1.04-4.65-.5-7.79-2.71-12.15.09-12.87 8.23-.76 8.6-1.86 17.18-2.48 25.78-1.09 15.12 4.82 28.54 11.26 41.73.59 1.21.94 2.33.49 3.62M408.08 151.06c-5.75 2.58-11.96 2.77-18.03 2.97-7.63.25-15.17.75-22.67 2.15-5 .94-5.14 1.06-3.61 5.69 3.15 9.51 10.63 14.43 17.53 14.85 15.3.93 23.09-3.73 26.27-12.79M668.29 409.79c-5.51 3.01-7.09 8.68-7.47 13.94-.46 6.43-.42 13 .46 19.6.88 6.48 2.71 14.25-4.84 19.03" class="communityGraphic-2"/>
    <path d="M397.26 470.6c-1.88-.53-3.67.25-5.12 1.09-11.15 6.44-22.67 6.28-34.57 2.58-2.28-.71-4.5-1.43-7.2-1.38-3.79.06-5.68-3.96-7.73-6.93M862.03 413.39c-5.04 3.3-9.84 7.13-15.97 8.23-11.19 1.99-21.88 1.43-30.92-6.68M366.86 152.09c-.17.18-.31.41-.51.51-2.63 1.24-6.37-1.32-8.27 2.58-1.75 3.61-3.18 7.39-2.45 11.33.77 4.13 1.1 8.32 2.35 12.42 1.95 6.42 6.16 10.28 11.97 12.84 6.77 2.99 11.33.08 11.34-7.21v-3.27c4.39.99 8.49-1.11 13.06-.85.73 1.64-.02 3.46.37 5.13 1.19 5.15 7.09 7.64 11.77 4.58 5.46-3.57 10.68-7.52 15.99-11.28 2.98.52 4.84 3.91 8.27 3.1M428.69 389.17c-4.08-1.7-6.01-6.32-10.8-7.32-8.19-1.71-16.2-1.07-24.23.67-.43.09-.69.5-1.04.49-8.29-.42-10.87 5.39-11.73 11.85-1.45 10.97-1.29 21.9 4.51 31.93M449.82 395.87c-2.82-.97-5.1-.87-6.26 2.56-.29.87-1.24 2.01-1.32 2.62-.61 4.59-2.11 8.76-4.2 12.91-3.57 7.07-3.19 15.05-4.07 22.66-1.47 12.82-3.08 25.56-10.5 36.53-4.5 6.66-6.32 14.15-6.96 21.71-1.14 13.37-1.3 27.02 7.16 38.55 4 5.45 10.45 7.95 16.9 9.79.11.03 1.21-.29 1.52-.95.17-.35 0-.69-.51-1.03M452.4 399.48c2.67 7.38 3.44 14.72 2.32 22.72-1.08 7.73-2.8 15.05-5.93 22.12M640.47 410.3c1.01-3-1.1-4.42-3.11-5.64-7.91-4.79-30.23-1.97-37.06 4.63-.18.17-.02.67-.02 1.01M501.86 169.61c-3.64 8.17-2.12 16.46-.5 24.74a85.27 85.27 0 0 0 2.39 9.34c1.2 3.75-.29 7.67-1.88 11.29M892.43 320.62c-3.7 1.24-6.95-1.05-10.25-1.77-8.42-1.83-16.25.41-24.27 1.78-4.47.76-8.2 2.36-11.5 6.03-3.42 3.8-8.81 3.4-13.75 3.3-2.23-.05-4.46-1.58-6.7-.05M548.75 165.49c-3.09.58-4.71-2.25-7.15-3.25-8.94-3.67-17.89-2.89-26.83-.77-3.86.91-7.44 3.04-11.38.43-.72-.47-1.42.27-2.03.54-8.99 3.96-18.32 2.12-27.3.78-11.7-1.75-22.86-1.98-33.52 3.81M251.96 261.87c-12.39-1.41-24.76-4.53-37.15.4-1.72.68-3.72 1.41-5 2.34-6.67 4.8-13.8 3.59-20.68 1.76-6.15-1.64-12.4-2-18.6-2.82-3.21-.42-5.67-2.69-9.27-2.33-8.37.82-16.57 2.32-24.72 4.27M880.58 258.78c3.26-2.75 7.46-4.36 9.8-8.24 2.26-3.73 1.14-6.68-3.11-7.73-7.96-1.97-15.68-1.26-23.19 2.05M258.66 296.91c-3.73 7-8.91 12.61-17.02 13.79-7.73 1.12-15.53.73-22.11-4.54-.53-.42-.99-.52-1.57-.48" class="communityGraphic-2"/>
    <path d="M408.08 160.33c-3-1.69-5.47.83-8.22 1.18-11.41 1.39-22.72 1.58-34.02-.67-.36-.07-.69.01-1.03.53M493.1 555.64c-2.03-4.67-7.12-3.7-10.37-4.28-10.08-1.79-19.49-5.61-29.29-8.18-3.68-.97-7.29.89-10.84-.43M476.61 240.74c.06 1.22-.36 2.62.54 3.59 8.42 9.07 20.83 14.16 33.47 5.7 4.26-2.84 8.17-5.95 10.34-10.81.71-1.62.87-2.92-.55-4.14M423.54 386.59c-1.69 1.15-3.13-.3-4.63-.59-10.82-2.06-20.63 1.39-30.42 5.2-1.98.76-3.97 1.62-6.17 1.58M720.33 420.61c1.43-13.52-1.58-26.27-6.75-38.63-.3-.7-.56-2.08-2.01-1.57M356.56 393.81c-5.16.2-9.91-1.97-14.9-2.81-7.98-1.36-15.24-.07-22.75 2.14-3.02.89-6.17.9-8.2 3.76M452.4 261.87c-1.4 1.77-.87 3.61-.61 5.68 1.51 12.14.4 24.05-4.03 35.55M249.38 178.89c1.74-3.2 2.02-6.52-.58-9.22-2.81-2.91-6.32-.77-9.15.13-2.17.69-4.08 2.72-6.87 3.84-1.99-1.69-2.98-4.69-4.42-7.2-5.76-9.99-10.68-7.47-18.12-4.52-2.65 1.05-4.61 3.39-7.12 4.82-7.82-15.87-14.54-12.77-27.46-7.64-1.76 1.05-1.98-.41-2.5-.88-5.4-4.83-9.33-4.83-13.87.61-1.92 2.29-3.26 3.62-6.79 3.28-4.48-.42-6.53 3.5-7.71 7.48-6.82-1.95-9.19-.55-11.49 7.22-3.6-2.07-7.11-1.09-10.1 1.1-3.13 2.3-2.7 6.51-4.29 10.14-4.74-.07-9.58 1.06-11.58 5.83-1.67 3.97 1.93 6.62 4.58 9.32-3.45 1.24-5.86 3.66-7.68 6.65-2-.75-4.24-3.13-5.71-.5-2.29 4.1-6.32 6.63-8.72 10.35-2.39 3.71.35 7.61 2.04 11.01-.82 2.62-4.57 2.64-4.34 5.9.15 2.21 2.11 4.31.12 6.74-2 2.43.65 4.17 1.49 6.14-6.29 4.63-8.12 7.86-1.68 17.1.86 1.23 3.11 1.41 2.72 3.51M526.59 127.35c4.01 9.29 12.57 15.03 18.05 23.18 5.27 7.82 11.44 15.16 11.89 25.26.02.54.97 1.03 1.48 1.55 4.72-2.52 4.87-2.87 8.28-8.74 1.83-3.15 2.25-6.94 4.6-9.81" class="communityGraphic-2"/>
    <path d="M409.12 152.6c1.51 4.88 0 8.12-4.07 11.4-7.37 5.9-15.47 8.16-24.78 6.69-4.22-.67-8.02-2.03-11.32-4.71-.96-.77-1.62-2.05-3.11-1.01M543.6 287.64c17.02 5.2 35.03 6.78 51.53 13.92 3.24 1.4 6.83 2.25 8.76 5.67M637.89 425.76c-7.16-13.12-23.86-12.15-34.54-5.7-1.6.97-3.16 1.96-4.62 3.12" class="communityGraphic-2"/>
    <path d="M663.14 413.39c-2.51-.34-4.88.45-7.19 1.09-3.83 1.07-7.68.77-10.76-1.22-5.8-3.74-12.45-2.96-18.63-4.47-8.7-2.14-17.23.1-25.74 1.59-2.03.35-3.82 1.79-5.16 3.53M768.25 284.54c-4.68 3.45-5.66 8.91-7.14 13.94-2.34 7.95-2.51 16.08-.59 24.2M554.42 138.17c7.19 8.33 6.67 18.49 5.89 28.33-.26 3.31-.57 6.52-.23 9.81M441.06 89.72c-4.46 2.03-9.29 3.43-12.39 7.72-2.79 3.86-2.76 5.59.73 8.97-10.13 10.97-16.78 23.79-19.78 38.46M155.09 218.57c-.25 2.46.14 4.78-1.41 7.3-4.09 6.66-5 7.1-11.29 2.24-2.06 2.89-2.22 6.4-3.24 9.55-1.66 5.13-3.81 9.78-9.32 11.84M782.16 267.54c-1.46 2.45-3.59 4.36-5.71 6.14-6.64 5.58-8.19 13.06-8.78 21.17-.68 9.44-1.09 18.98-5.09 27.83M886.76 334.02c-9.4-9.23-28.38-6.95-35.55 3.09.82.93 1.98 2.27 3.04 1.48 9.59-7.11 19.64-6.13 29.95-2.02.44.18 1.02.02 1.54.02M302.46 540.7c-10.28 3.46-21.09 4.99-31.46 8.15-1.71.53-3.14 1.28-4.61 2.15M773.92 154.15c-4.39-3.17-4.95-2.84-7.3 1.5-2.19 4.07-2.06 8.09-1.53 12.42.63 5.17.01 10.25-2.51 14.94M611.61 311.35c-8.09-4.93-17.62-5.51-26.32-8.64-5.45-1.96-11.02-4.02-16.96-4.25M180.34 301.55c1.11 1.07 2.59 1.97.54 3.64-2.15 1.75-2.22 4.66-1.38 6.59 1.03 2.39 3.59 2.67 6.53 2.37 2.66-.27 5.68.54 8.27 2.28 2.99 2.01 6.61 1.82 9.11-.57 2.04-1.95 2.43-5.18 2.7-8.12.46-5.05-1.5-9.67-2.62-14.42-.63-2.7-1-5.26.56-7.74M654.38 241.25c-1.5 1.48-1.1 3.4-1 5.15.55 9.97 1.4 19.93-.03 29.89M718.79 185.59c3.8 2.48 7.75 4.83 10.8 8.27 6.01 6.76 9.04 14.5 7.23 23.69M499.29 123.22c1.16-.07 2.23-.08 3.12 1.01 1.5 1.85 3.45 3.24 5.65 4.12 10.05 4.04 18.01 10.75 24.72 19.09M816.69 368.04c-.59 2.34-2.67 4.01-2.63 6.7.07 4.35 2.45 7.61 6.75 7.62 3.33 0 6.03 1.01 8.78 2.66 5.36 3.21 7.98 2.95 12.33-1.02 1.8-1.65 3.87-2.51 6.19-3.1 7.95-2.05 9.68-5.6 6.19-13.89M142.73 281.45c10.84 1.46 21.43.04 32.2-2.33-8.57-8.2-23.87-7.17-31.17 1.82M711.57 411.85c-3.64-1.7-5.08-5.69-9.16-7.47-8.54-3.73-16.3-3.69-24.36.72-2.59 1.41-5.65 1.84-8.21 3.4M477.65 180.43c-2.55.79-3.26-1.96-5.07-2.76-7.23-3.19-14.2-2.1-21.18.27-1.6.55-3.09 1.68-4.67 2.48M646.13 463.13c-6.37 2.74-7.77 1.22-8.24-9.02-.7.11-1.4-.19-2.08.5-5.7 5.8-10.85 12.02-14.93 19.09-2.01 3.47-2.55 7.04-1.02 10.83M592.55 557.7c-1.31-1.52.1-3.6-.58-4.82-2.49-1.82-4.79-.8-6.03.29-6.65 5.88-13.1 11.98-19.67 17.94M416.85 184.04c1.14 1.25-.21 2.1-.54 3.08-1.82 5.51.17 10.69 2.25 15.39 2.9 6.6 4.64 13.76 9.06 19.69 2.26 3.02 4.44 5.19 8.28 2.55M808.96 377.83c-4.62 3.78-9.46 7.23-12.96 12.31-3.87 5.6-4.46 11.33-2.49 17.59M424.06 404.12c-4.39.65-7.82-2.31-11.82-3.22-8-1.82-18.21 1.39-22.7 7.85-.18.51 0 .62.52.53 9.04-1.53 18.48 1.15 27.3-2.61 1.02-.43 2.24-.72 2.59-2.04M634.8 427.31c-6.19-8.16-20.66-6.26-27.27-3.51-1.4.59-2.73 1.71-4.16 2.47M355.01 39.21c-.86 5.6-1.73 11.34-6.77 14.84-2.08 1.44-4.53 3.83-7.69 1.18-2.88-2.43-.82-4.46-.05-6.77.23-.67 1.07-1.69.08-2.55M476.61 206.2c-4.99 6.52-11.48 11.79-15.09 19.51-1.81 3.88-2.28 7.44-1.4 11.41M245.78 276.3c-5.53-6.23-17.44-7.41-25.76-2.58-1.49.87-2.49 2.4-4.12 3.09M233.41 261.35c-4.4 1.31-8.97 1.83-13.44 2.91-7.34 1.77-11.12 6.2-12.84 13.07M319.98 409.79c2.59 3.41 6.55 2.09 9.81 2.41 6.84.67 13.63-2.3 21.19-.03-6.55-9.22-21.25-10.22-31-2.9M181.37 205.17c.78 5.02 3.3 8.2 9.46 7.91-.77 3.21.3 5.85.89 8.59 1.57 7.33 7.8 6.84 11.34 3.66 2.42-2.19 3.28-5.28 4.93-7.52 7.38 4.74 9.31 14.44 17.06 19.04 3.51-1.7 2.01-6.42 5.44-7.83 2.19 3.8 4.18 7.94 8.58 10.25 2.27 1.2 4.16 1.1 6.22-.07M535.35 262.38c1.52 4.88.21 9.95 1.29 15 1.11 5.2 2.24 10.35 3.87 15.41M541.54 177.34c-6.59-3.85-13.32-6.03-21.17-3.76-3.24.93-5.25 3.02-7.69 4.79M393.14 440.2c2.48 3.08 6.26 4.36 9.32 6.64 5.8 4.31 9.13 9.67 8.74 17.07-.06 1.14-.36 1.89-1.57 2.06M453.43 107.25c5.8 12.19 13.85 22.05 27.31 26.29" class="communityGraphic-2"/>
    <path d="M708.48 409.79c-3.09.69-5.4-1.64-8.22-2.15-4.52-.81-8.83-1.47-13.46-.06-2.51.77-5.59.58-8.19-.88M702.3 425.25c-8.19-6.68-21.07-6.24-29.37 1.03M745.58 235.58c2.16 4.99.43 10.34 1.46 15.48.92 4.55-1.05 9.4 1.11 13.9M741.46 154.66c-8.76-5.45-22.04-4.38-28.86 2.06M862.03 372.16c4.07 4.35 9.09 7.67 12.47 12.81 3.08 4.68 4.65 9.52 4.53 15.02M844.51 328.87c.42 4.66.19 9.55-.8 13.85-1.83 7.95-.4 14.19 5.43 19.66 1.08 1.02 2.35 1.95 2.59 3.6M518.35 207.75c6.21 5 11.53 10.68 13.91 18.55.87 2.88.41 5.83.52 8.76M366.35 104.67c-8.58-4.47-20.93-2.56-26.28 3.61M806.38 335.05c1.38 2.11-1.05 2.05-1.54 1.97-9.11-1.45-17.2 1.78-25.26 5.25M217.95 276.81c5.86 2.3 12.05.8 18.05 1.24 2.59.19 6.15 1.18 8.74-1.24M259.69 330.93c3.34.46 4.92 2 4.2 5.69-.44 2.32-.33 4.82-.04 7.2.95 7.57-2.95 11.4-10.35 10.32M677.57 317.02c-3.48.89-6.54-1-9.78-1.61-5.5-1.04-10.46-.5-14.97 3.13-6.08 4.88-6.33 14.27-1 20.11.86.94 1.82 1.76 2.05 3.1M674.99 456.17c5.01 5.61 11.39 10 13.62 17.98.82 2.91.26 5.59.8 8.31M805.35 334.54c-9.44-3.96-17.91-1.84-25.76 4.12M124.69 281.97c-.07 4.51-.89 9.02-1.17 13.42-.29 4.45 1.46 9.33 2.82 13.86.75 2.5-.66 5.34 1.44 7.51M266.9 316.5c1.37-6.82 2.67-13.68 3.02-20.62.33-6.62-1.02-7.47-7.14-5.67M332.34 158.79c.36 9.54 4.22 17.45 11.39 23.65 2.08 1.8 5.59 2.27 4.59 6.25M128.81 318.56c1.78 2.65 1.88 5.84 2.48 8.78 2.26 10.81 5.29 21.36 9.86 31.43.13.29.02.68.02 1.02M212.8 362.37c-8.21 1.58-16.45 2.29-24.73.51M581.73 436.59c-1.95-2.51-3.05-5.73-6.56-7.2-4.41 6.13-.47 11.8 1.48 17.49.77 2.26 1.67 5 5.08 4.66M419.94 151.57c-2.51 7.17-3.26 14.61-3.88 22.14-.16 2.04.22 3.8.27 5.69M420.45 155.69c2.04 6.42 4.32 12.77 6.76 19.05.6 1.55.73 4.04 3.55 3.63M386.44 435.56c4.32 6.45 4.52 11.42-.05 13.82-6.03 3.16-12.42 5.65-19.54 3.72-.55-.14-1.17-.12-1.55.5M667.26 502.04c-7.84 2.63-15.75 2.88-23.7.51M421.48 200.53c-.74-2.53-.54-5.24-1.16-7.7-.83-3.24.26-5.11 3.77-7.18 7.45 14 10.67 29.21 12.85 44.77M879.55 344.33c-7.36 1.57-14.52.09-21.62-1.64-.68-.17-1.38-.32-2.08-.42M810.5 345.36c-7.63 3.12-15.49 4.42-23.7 3.09M673.96 191.26c-4.69 4.97-10.49 9.06-11.93 16.47-.45 2.34-.58 4.48.08 6.72M423.03 100.03c-8.15-4.39-15.44-1.08-22.67 2.58M370.47 127.86c-3.3 1.99-3.1 5.42-2.4 8.21.74 2.96 3.91 2.61 6.52 2.67 2.81.05 4.86 1.59 6.18 4.08M674.9 154.54c-6.99-2.25-13.7-1.29-20.15 1.59-1.54.68-2.92 1.66-4.63 2.02M121.6 294.34c-1.4-1.5-3.28-2.83-5.08-1.93-1.72.88-1.07 3.24-1.09 5.02-.04 3.91.25 7.73 3.08 10.82M474.55 180.95c-2.06 1.48-4.44 1.11-6.7.99-5.14-.28-10.04.84-14.94 2.1M324.1 137.66c-3.57-4.27-3.79-9.28-3.06-14.43.42-2.99-2.04-7.72-4.67-8.21-1.43-.26-2.93-.41-3.15 2.01-.37 4.06-.28 8.07 1.17 11.83 1 2.59 3.55 2.95 6.1 2.61M625.53 156.73c-7.43 1.48-8.35 2.5-8.18 10.31.05 2.4-1.04 5.05.97 7.22M181.37 209.3c-2.04 4.3-2.16 9.85-7.44 11.96-3.46-1.22-3.37-4.58-4.93-6.8M534.32 182.5c-.64-2.47-2.67-1.44-4.12-1.5-5.22-.25-10.37-.93-15.46-2.1M553.39 136.11c-.06 7.58.5 15.17-1.03 22.68M804.83 260.32c-10.05 4.26-20.3 7.17-31.44 6.33-3.09-.24-4.68-2.29-6.02-3.88-3.84-4.57-8.32-7.69-14.06-9.18-1.58-.41-2.79-1.63-4.13-2.55M913.55 350.52c4.42 7.52 3.71 12.7-2.58 18.55-2.59-7.73 1.83-23.08 8.82-30.48 5.93.81 2.26 6.11 4.06 8.83M581.73 469.06c.11 3.52-3.08 5.98-2.7 9.8.51 5.22 1.67 7.68 6.33 8.69 3.67.8 5.62-1.7 7.25-4.56.3-.51.33-1.27.98-1.58M896.04 424.22c2.28 1.41 1.34 3.69 1.55 5.67 1.15 10.58 2.14 21.17 5.15 31.44M394.17 462.87c-.57-2-2.23-1.56-3.61-1.53-4.98.12-9.99-.46-14.94.5M571.94 158.79c2.62 5.75.19 11.36-.5 17.01-.06.5 0 1.03 0 1.55M709.51 241.77c-6.14 1.7-12.34.93-18.55.51M761.55 324.49c0 4.2.03 8.42-.01 12.63-.02 1.76.49 3.67-1.02 5.15M409.12 149.51c1.75-2.4 1.24-3.73-1.49-5.26-5.24-2.93-11.03-2.42-16.54-3.5M230.84 318.04c5.04 5.11 6.09 11.26 4.64 18.04M275.15 316.5c.92 3.4 1.63 6.8.52 10.31-1.79 5.65-4.49 7.33-10.82 6.7M851.72 436.07c-7.25-.24-14.51-.94-22.37.86 6.13 3.68 11.65 3.36 17.22.69M262.78 265.99c7.06 4.2 6.93 8-.51 14.43M377.69 395.87c-5.62 1.13-11.39-.09-17 1.03M252.99 263.41c-.37 2.14 1.6 2.82 2.58 4.12 6.05 8.1 7.37 17.09 5.21 26.81-.26 1.14-1.31.81-1.61 1.54M369.44 462.36c-5.5.2-11.08-.63-16.49 1.03M505.47 265.47c-5.49.56-11 .97-16.49 0M424.06 530.9c5.96 2.48 10.81 6.84 16.49 9.79M163.34 320.62c-3.71 4.89-5.41 10.34-4.64 16.49" class="communityGraphic-2"/>
    <path d="M260.72 295.88c1.02 4.07.9 8.43 3.99 11.98.88 1.01 2.01 1.06 2.71 1.94M669.84 451.53c.29 1.05.74 2.04 1.03 3.09 1.41 5.1.02 7.54-5.16 8.17-2.82.34-5.18.82-7.3 3.08-1.99 2.12-4.64 2.6-7.15.1-2.41-2.4-5.29-4.11-8.74-4.66M167.97 211.36c-.79 5.63-2.16 10.94-7.76 13.93-2.08.13-2.84-2.12-4.61-2.59M245.78 236.1c-.33 3.73.04 8.71 2.73 9.99 6.43 3.06 6.75 9.59 10.26 14.15 4.14 5.38 3.99 11.05 2.98 17.09M177.76 264.96c0 .74-.02 1.22 1.01 1.61 5.21 2.02 8.75 5.93 11.36 10.76M204.56 316.5c.8 3.32-1 5.02-3.56 6.77-3.6 2.47-5-.96-7.26-2.13M481.25 204.66c-2.36 3.24-3.59 6.4.52 9.28.5.35.82 1.38 1.52 1 4.98-2.74 7.55 1.45 10.84 3.64 4.48 2.97 5.81-.98 7.73-3.6M890.37 386.59c-.6 4.96-2.86 9.51-3.61 14.43M914.07 445.86c-4.47-2.56-9.5-3.15-14.43-4.12M181.37 257.74c-1.25 2.09-3.32 1.36-5.15 1.57-2.92.33-6.04-.98-8.76 1.01M423.03 202.08c.29 4.19 1.96 7.59 5.06 9.56 2.28.82 2.55-1.89 4.21-1.31M441.06 411.85c2.66 4.35 3.16 9.01 2.06 13.91M781.65 394.84c1.11 4.55 3.01 8.85 4.12 13.4M656.44 317.02c.12 1.98 2.24 2.14 3.19 3.53 4.62 6.68 6.08 11.44-2.68 21.2M808.96 407.21c4.09 1.84 8.63 1.5 12.88 2.58M630.68 176.83c-3.95 6.2-3.82 7.74 1.04 12.38 1.38 0 1.3-1.45 2.05-2.07M410.15 161.88c2.78 3.66 1.84 8.55 4.12 12.37M336.46 454.63c-2.49 3.82-3.35 7.92-2.06 12.37M466.83 111.89c5.06 5.98 6.78 13.83 11.34 20.1M789.38 467.51c2.18 3.65.59 8.29 3.09 11.85M415.3 195.9c-4.92 2.24-8.48 6.41-13.32 8.92-5.06 2.63-10.23 2.7-15.54 2.93-3.65.15-7.55-.14-10.73-1.29-4.3-1.56-9.06-2.85-12.47-6.43-2.83-2.97-5.86-5.7-9.78-7.23M382.84 143.84c1.75 3.89-.52 5.76-3.58 7.21-1.59-.86-.94-2.34-1.06-3.6M121.6 299.49c-3.98 6.26-2.55 12.22 1.04 18.03 1.29 2.09 2.73 2.05 4.11 0M439 416.49c.96 4.48 2.55 8.82 3.09 13.4M307.61 449.99c-3.69 3.05-6.27-.51-9.27-1.55M582.24 471.12c2.4 2.06 4.94 3.6 8.24 2.06M560.6 192.29c2.48 2.27 3.18 5.66 5.15 8.25M722.39 467.51c-2.28 3.01-4.85 4.47-8.24 1.55M300.91 402.06c-.34 2.75.87 5.69-1.03 8.25M740.43 202.08c-1.3 2.6.44 5.77-1.55 8.25M456 80.45c-2.02 2.88-5.46 4.11-7.73 6.7M790.92 259.29c-3.06 1.4-5.3 3.64-6.7 6.7M391.08 147.45c.93 1.98 2.46 3.34 4.61 2.49 2.2-.88 4.15.22 6.21.08M533.29 138.69c-1.38 2.14.29 4.51-.51 6.7M426.63 194.35c-2.06 1.76-1.74 4.62-3.09 6.7M205.59 268.05c.37 1.99-.78 3.51-1.55 5.15M377.69 151.06c-2.34 1.69-5.19.63-7.77 1.42-1.7.53-3.33-.63-3.05-2.97M461.6 183c1.94 0 3.51-1.57 3.51-3.51s-1.57-3.51-3.51-3.51-3.51 1.57-3.51 3.51 1.57 3.51 3.51 3.51ZM230.09 278.02c1.94 0 3.51-1.57 3.51-3.51s-1.57-3.52-3.51-3.52-3.51 1.57-3.51 3.52 1.57 3.51 3.51 3.51ZM161.53 281.77c1.94 0 3.51-1.57 3.51-3.51s-1.57-3.52-3.51-3.52-3.51 1.57-3.51 3.52 1.57 3.51 3.51 3.51ZM404.81 408.08c1.94 0 3.51-1.57 3.51-3.51s-1.57-3.51-3.51-3.51-3.51 1.57-3.51 3.51 1.57 3.51 3.51 3.51ZM336.25 411.84c1.94 0 3.51-1.57 3.51-3.51s-1.57-3.51-3.51-3.51-3.51 1.57-3.51 3.51 1.57 3.51 3.51 3.51ZM525.08 180.51c1.94 0 3.51-1.57 3.51-3.51s-1.57-3.51-3.51-3.51-3.51 1.57-3.51 3.51 1.57 3.51 3.51 3.51Z" class="communityGraphic-2"/>
</svg>