<svg xmlns="http://www.w3.org/2000/svg" viewBox="0 0 1370.5 361.15" data-hero-bg>
<defs>
<style>
.heroLandscape-1 {
fill: none;
stroke: #000;
stroke-linecap: round;
stroke-linejoin: round;
stroke-width: 1px;
}
</style>
</defs>
<g id="DLWTir">
<path d="M1367.5 358.51c-19.5 0-39 .08-58.5-.03-13.51-.08-27.01.36-40.5.69-12.67.31-25.34-.02-38 .36-61.16 1.8-122.33.9-183.5.84-18.16-.02-36.35-.39-54.49-1.03-15.17-.54-30.36-.27-45.5-1.36-10.5-.75-21.12-.12-31.5-2.46M389.5 349.51c-5.94 2.54-12.34 1.66-18.5 2.47-9.46 1.25-19 .28-28.5.94-18.13 1.26-36.35.03-54.49 1.17-7.35.46-14.67.44-22.01.38-35-.29-70 .28-105 .7-29.34.35-58.67.42-88 .22-23.83-.16-47.66-.91-71.5-.88M391.5 186.51c-7.42-2.2-15.28-1.92-22.43-.62-8.64 1.58-17.08.39-25.58 1.01-.44.03-1.32-.41-1.99-.37-12.53.73-25.01-.67-37.49-1.2-21.67-.91-43.34-1.87-65.01-2.83-7.87-.35-15.65.98-23.49 1.22-8.5.27-17.02.44-25.51.63-21.66.48-43.35.66-64.99 0-16.67-.51-33.35-1.46-50.02-2.68-15.48-1.14-30.99-2.13-46.49-3.12-2.06-.13-4.08-.19-6-1.03M408.5 205.01c8.85 2.47 18.04 2.11 27 2.25 16.17.27 32.31 1.29 48.5 1.35 29.33.12 58.66.95 88 1.06 12.66.05 25.34.39 38 .26 17.01-.18 33.99-.38 51.01.29 8.56.33 17.37-.52 25.99-.42 9.64.11 19.32.91 29 1.32 6.5.27 13.02.6 19.51 1.3 5.92.64 11.95 1.13 17.41 3.28 4.11 1.62 8.3 3.91 11.28 8.01 1.52.12 1.84-2.03 3.24-2.37 2.58.72 3.68 3.41 6.93 3.89 1.84-.81 1.52-3.7 2.57-5.75 2.7-5.22 3.94-5.51 8.07-1.5.63.61.9 1.42 1.46 2.04 1.19-1.37 2.66-2.45 4.08-3.43 1.89-1.31 6.11 1.35 5.29 3.35-2.12 5.16 1.18 4.69 4.15 4.49 1.56-.11 2.47 1.56 4.44.92.22-2.59 2.1-4.76 3.05-7.36 1.4-3.82 1.94-3.92 5.51-1M241.5 142.51c5.14 4.17 11.62 5.49 17.55 7.89 14.37 5.81 29.6 7.76 44.95 9.19 13.07 1.22 26.05 3.33 39 5.47 16.26 2.69 32.58 4.66 48.99 6.14 6.11.55 11.93-1 18.04-.38 11.6 1.17 23.32 1.77 34.98 1.55 13.56-.26 27.18-.87 40.5-3.89 12.06-2.73 23.91-6.1 36.51-6.15 8.55-.04 16.37-4.37 24.5-6.82 13.96-4.2 28.6-5.51 42.5-9.99 9.98-3.22 19.74-7.23 30.01-9.45 9.29-2.01 18.79-2.97 28.01-5.49 5.19-1.42 10.18-3.19 14.98-5.57 1.74-.86 3.41-1.95 5.5-1.5M753.5 231.51c1.15 1.55 2.8 1.54 4.5 1.51 11.51-.25 23.01.31 34.5.61 27.17.71 54.34.53 81.5 1 41.34.71 82.67.58 124 .24 36.33-.3 72.67-.73 109-.97 8.82-.06 17.68-.14 26.5-.88" class="heroLandscape-1"/>
<path d="M.5 148.51c5.61.12 10.58-2.62 15.98-3.63 18.29-3.44 36.63-6.57 55.04-9.27 8.43-1.24 16.98-1.83 25.49-2.56 12.34-1.07 23.5-6.18 34.97-10.12 10.57-3.63 21.04-7.57 31.58-11.27 4.02-1.41 8.4-1.69 12.99-.29 9.81 2.98 19.27.21 28.45-3.37 15.14-5.9 30.58-10.91 46.01-15.98 3.55-1.17 6.76-1.68 10.57.37 10.23 5.51 21.08 9.82 31.44 15.11 4.14 2.11 7.98 4.71 12.01 6.99 6.97 3.95 14.68 5.47 22.45 7.19 12.64 2.8 24.92 6.92 35.55 14.82 7.4 5.5 16.18 6.8 24.99 8.02 21.9 3.05 43.91 3.79 66 3.54 15.02-.17 29.48 3.63 44.01 6.9 7.4 1.66 14.94 2.72 22.49 3.55 1.07.12 2.11.34 3 1M547.5 292.51c6.91-1.65 13.99-1.49 21-1.93 11.16-.7 22.33-1.31 33.5-2.05 5.62-.37 10.08-3.94 15.47-5.16 11.57-2.6 23.32-3.52 35.04-4.81 14.07-1.56 28.18-2.82 41.97-6.14 2.79-.67 5.61-1.93 8.12-4.53-3.79-4.77-9.25-5.44-14.13-6.25-20.33-3.39-40.87-4.58-61.47-5.27-8.83-.3-17.77.16-26.5-1.86M690.5 335.51c6.1 2.5 12.63 2.62 19 2.9 35.15 1.58 70.33.66 105.49 1.23 25.33.41 50.68 1.07 75.99 2.06 14.66.57 29.37.33 44.02 1.68 5.06.47 10.21-.18 14.99 2.13M395.5 337.51c7.6-1.41 15.29-2.91 22.99-1.89 9.18 1.22 18.11-1.52 27.01-1.31 18 .43 36.02-.66 54.01.64 5.81.42 11.68.42 17.5.45 52.34.29 104.65 2.93 157 2.1 4.91-.08 9.81-.3 14.5-1.99" class="heroLandscape-1"/>
<path d="M263 98.51c13.95 13.27 31.08 21.18 48.51 28.47 33.16 13.87 68.13 20.46 103.48 25.6 18.79 2.74 37.66 4.78 56.52 6.83 10.97 1.19 22.03 1.69 32.99 3.1M228.5 181.51c-9.43-1.81-19.01-.94-28.51-1.39-26.32-1.24-52.65-2.14-78.99-2.75-9.66-.22-19.32-.85-29-.87-21.5-.04-43-1.51-64.5-.84-6.99.22-13.95 1.58-21.01.86-1.67-.17-3.4.29-5-.51M1122 340.51c-4.83 1.92-9.99 1.68-15 1.91-7.82.35-15.66 0-23.5.11-26.52.37-53.01 1.53-79.51 2.76-7.73.36-15.66-.21-23.5-.57-4.91-.22-10.04 1.03-14.99 1.1-7.49.1-14.76.87-22.01 2.67-7.56 1.88-15.33 2.73-23.02 3.86-2.96.44-5.04 2.7-7.98 2.67M689.5 335.01c-.87-2.3-2.86-2.84-4.98-3.55-12.41-4.14-25.4-5.73-38.01-8.98-3.51-.91-7.43-1.24-9.75-5.07 2.6-4.68 7.43-5.93 11.75-7.89 3.39-1.55 6.9-2.83 10.01-4.98 3.42-2.37 3.44-2.9 0-5.04-6.32-3.92-13.54-3.83-20.51-4.42-18.81-1.59-37.66-.43-56.49-.58-10.33-.08-20.67.34-31 0-3.68-.12-7.21-2.02-11-.98M401.5 169.51c-7.22-1.85-14.68-2-22.02-2.84-10.85-1.24-21.73-2.45-32.45-4.32-14.36-2.5-28.75-4.82-43.05-7.71-19.4-3.91-38.62-8.68-58.03-12.31-9.62-1.79-18.2-5.9-27.42-8.39-5.76-1.56-10.51-5.38-15.43-8.56-4.39-2.83-8.53-2.8-13.08-1.37-10.23 3.2-20.3 7.27-31.01 8.4-15.56 1.64-31.1 3.2-46.5 6.07-15.76 2.93-31.57 5.58-47.48 7.61-8.16 1.04-16.34 1.3-24.51 1.88-9.98.71-20 .67-30 1.01-.98.03-2.14.58-3-.46M947.5 285.51c-7.3-1.02-14.81-1.32-21.97-.71-13.04 1.11-26.03.43-39.03.63-12.04.19-23.92-2.76-36-2.42-20.83.59-41.67.25-62.5.59-9.51.16-19 .72-28.5-.1M50.5 328.51c-1.22 1.42-3.05 1.92-4.51 2.99-4.2 3.05-3.97 6.37.5 9.04 5.12 3.06 10.95 3.23 16.53 3.87 24.41 2.78 48.92 3.9 73.49 4.26 7.81.12 15.68.35 23.51.66 9.64.38 19.37-.09 28.97-1.04 3.09-.31 6.35-1.12 9.52-1.78M440.5 238.51c-9.63 1.25-19.38.46-29 1.97-8.44 1.33-16.94 3.13-25.48 2.4-8.28-.71-16.38.25-24.51 1.18-16.29 1.85-32.6 3.11-49 2.43-5.29-.22-10.56-.46-15.78-1.89-5.26-1.44-10.85-.14-16.23-1.09M794.3 116.76c-7.91 7.93-18.22 11.05-25.73 19.69-7.57 8.72-16.15 15.82-25.87 19.26-8.74 3.09-17.98 4.75-27.12 5.58-20.67 1.9-40.66 8.14-60.83 13.41-18.23 4.76-36.65 8.31-55.09 11.62-2.38.43-5.08.91-7.15-1.7M755.5 226.26c-4.02 4.44-9.82 4.97-14.76 7.27-6.64 3.09-13.33 5-20.26 6.4-10.89 2.19-21.92 3.46-32.98 4.65-12.16 1.31-24.34 2.24-36.51 3.44-15.99 1.57-32 2.96-48 4.46-1 .09-1.91.09-2.5 1.03M162.5 226.01c-3.11-4.54-6.16-5.56-10.5-3.5-.49 1.54.81 2.68 1.2 3.94.35 1.1.49 2.76 2.22 3.25-1.72 1.93-3.73 2.36-5.44 3.29-5.29 2.87-6.07 4.96-4.05 10.54.31.86 1.61 1.29 1.06 2.38.14.9-.72.87-1.03 1.04-7.04 3.84-7.86 8.54-2.47 14.56 3.62 4.05 8.35 6.98 11.52 11.48.45.64 1.26 1.04.63 3.07-.21.58-1.05.64-2.68.05-1.47-.53-2.88-1.31-3.89-2.19-4.66-4.06-9.76-6.82-15.85-6.4-1.4-2.23.2-3.2.7-4.54.84-2.26 1.87-4.42 2.16-6.96.82-7.18-3.5-8.98-8.09-8.52-1.23.12-2.18 1.2-3.98.9-2.67-1.63-2.12-5.45-4.2-7.96-3.14.45-2.97 4.65-5.82 5.56M650.5 138.01c-3.84 5.46-9.98 7.71-15.55 10.39-22.18 10.64-45.29 18.92-68.97 25.54-9.47 2.65-19.22 4.61-29 5.32-5.06.37-10.31-.13-15.48.26M501.5 176.51c-11.13 2.35-22.26 4.72-33.5 6.48-10.28 1.61-20.63 3.15-31 3.38-14.83.32-29.66 1.02-44.5.64M1367.5 330.51c-17.92 2.73-35.66-1.13-53.5-1.47-13.01-.24-25.99 1.01-39 1.04-4.45.01-8.93 1.68-13.07-1.49-.72-.55-2.26.04-3.45.35-2.99.77-6.07 1.29-8.98-.43M1247.5 328.01c-5.03 2.09-9.12 5.99-14.99 6.64-6.33.69-12.71 1.57-19.02 1.71-17.5.38-35.03.63-52.51-1.23-2.62-.28-4.52-3.44-7.49-1.61" class="heroLandscape-1"/>
<path d="M1242 330.51c-1.46-1.36-3.28-.99-5-.99-15.67-.01-31.35-.39-47 .12-10.85.36-21.8.52-32.5 2.87M774.5 201.51c-8.77 1.52-17.68 1.09-26.51 1.88-12.82 1.15-25.69 1.5-38.5 2.99-6.32.73-12.72.84-18.98 2.13M512.5 239.51c-6.48-.65-12.98-1.1-19.5-.99-16.51.27-33.04-.5-49.48-1.34-15.47-.78-30.73-.44-46.01 1.41-5.04.61-10.23.8-15.01 2.91M191.5 346.51c-5.31-2.26-10.89-2.1-16.5-2.04-6.06.07-12.2.48-18.22-1.48 2.67-5.89.25-10.25-3.06-14.79 6.97-4.56 2.38-11.36 3.15-17.21.22-1.68-2.3-1.99-3.31-1.38-2.5 1.51-5.26 2.52-7.62 4.33-1.5 1.15-3.32 2.2-5.59 2.07-1.38-3.63.93-6.73 1.76-9.97.56-2.17 1.48-4.25 2.02-6.5.64-2.68.63-5.52-1.26-6.83-1.78-1.23-4.69-.68-7.17 1.13-1.48-6.14-1.46-12.64-6.08-17.66-3.09 2.16-3.6 5.49-4.49 8.37-.9 2.91-2.74 2.49-4.04 1.37-2.75-2.36-5.99-3.72-9.16-5.5-6.28 3.55 1.41 9.16-1.82 13.32-3.68-1.35-6.26-3.98-8.81-6.37-3.66 1.54-5.04 4.83-6.09 7.71-.89 2.46-1.35 5.75 1.76 7.98 2.32 1.65 3.67 4.2 1.96 6.9-1.75 2.76-4.66 2.13-7.43 1.58-2.83-.56-4.81-2.5-6.96-4.08-5.01-3.67-5.82-3.48-8.03 2.54M261 293.01c.73-1.83 2.54-2.79 3.22-4.93.63-2.02 1.32-3.85.21-5.52-1.26-1.88-3.35-1.88-5.43-1.09-.58.22-1.32.03-2.02.03-2.53-2.19.6-5.81-2.11-8.16-7.79 2.71-11.54 10.13-17.29 15.58-2.01-1.54-2.66-3.6-3.52-5.44-1.04-2.21-3.04-3.08-5.02-2.85-1.78.21-2.94 1.66-3.68 3.81-.97 2.83-.61 5.98-2.34 8.56M1027.5 326.51c-6.45 2.22-15.13 2.01-20.5-.5 6.32-5.4 20.48-3.34 31.07 4.55-.32 1.76-1.05 2.86-3.05 3.52-6.2 2.07-12.04 4.6-19.06 3.66-4.85-.65-9.99 1.08-14.94 1.91-6.16 1.03-12.52.88-18.52 2.85M1087.5 289.01c1.55-4.67.26-8.93-2.02-12.99-1.29-2.3-3-4.08-5.98-4.03-3.36.06-4.42 2.91-5.35 5.08-1.02 2.41-1.73 5.16-.92 8.5-4.05-.23-7.76-.58-8.73 3.93-.99 4.59-1.11 9.05 2.01 12.99 1.1 1.39 2.7 2.35 3.71 4.04-3.69 2.54-6.92.68-10.23-.51-3.37-1.22-6.77-1.82-9.99.48M691.5 147.51c-4.84-1.65-9.14.38-13.5 1.99-12.9 4.78-25.58 10.09-37.99 16.03-1.06.51-2.7.61-2.51 2.47M352.5 243.51c-7.98-1.15-16-.45-24-.43-10 .02-20.02-.69-30 .43M192.5 207.01c.3-3 2.1-4.96 4.58-6.74 4.41 2.46 3.13 7.15 4.61 10.84 3.08-.8 4.04-5.2 8.41-4.54 2.09 2.26 1.47 6.08 2.32 9.98 4.59-1.34 7.88-5.21 12.78-5.61 1.89 3.31.37 6.73-.05 10.15 8.5-1.85 11.44 1.63 8.87 9.93-.49 1.6-1.77 3.18-.52 4.99M922.5 283.51c-17.65-1.1-35.31-1.9-53-1M67.5 308.51q-6.22 2.2-7.04 7.76c-1.91.51-3.96.23-5.96.21-3.58-.03-7.11.04-7.96 4.53-.55 2.88 3.1 6.4 6.94 7.55 3.03.9 5.96-.41 9.06.26 2.47.54 5.29.3 7.96.18M1259.5 164.51c.05-.72-.52-1.22-.55-2-.22-6.36-1.39-7.5-7.95-7.99-.56-.04-1.15.12-1.84-1.18 1.38-2.4 2.68-5.68 1.72-8.79-1.36-4.4-5.87-.59-8.82-2.86-.43-3.27 1.2-8.02-3.15-9.97-1.52-.69-4.4.48-4.91 3.3M1074.5 331.51c8 3.35 16.58 3.83 25.01 4.93 8.35 1.08 16.87.89 24.99 3.58.81.27 1.28-.56 2-.51M1091.5 331.01c.19-5.92 5.16-4.7 8.52-5.41 4.39-.92 8.88-1.27 12.26-4.88-2.2-3.65-5.99-4.87-8.89-7.07-2.97-2.26-2.95-5.14-2.22-7.59 1.02-3.39 4.69-3.04 7.3-2.44 4.99 1.17 8.68 4.63 12.28 8.76 3.85-7.25 3.85-16.63 12.37-21.15 5.04 4.25 1.41 10.58 3.72 15.58 4.2-1.29 5.78-5.46 9.45-7.68 6.24 3.19 4.77 8.68 3.74 14.35 5.85-1.36 7.37-5.69 8.96-9.98M1011 228.01c-1.38-3.18-4.29-5.04-6.53-7.59-2.82 1.35-3.25 4.46-5.08 6.72-3.46-1.1-4.07-4.4-5.07-7.09-2.69-.32-4.92 1.25-7.48.78.48-2.69.96-5.09 1.77-7.28.74-2.01.56-3.95-.72-4.9-1.27-.94-3.12.21-4.39 1.36-.79.72-1.53 1.51-2.48 2.47-1.75-1.91-2.57-4.35-5.27-5.19-3.61 2.91-4.24 7.8-6.29 11.47-2.57 4.61-9.52 1.3-9.53 7.26-3.92-.81-2.28-5.15-5.19-6.54-1.03-.09-2.09.73-3.25.95-3.06.58-4.26-1.01-2.9-3.89.31-.66.25-1.43.85-2.1 1.03-1.14.88-2.61.06-3.95-1.01-1.64-2.72-1.18-3.98-.9-1.34.3-2.71.85-3.78 1.54-1.19-2.83-.73-6.79-4.75-7.02-3.09-.18-4.04 3.4-2.99 9.91-3.51.46-7.36.61-5.74 6.13-2.25-.69-3.86.92-5.95 1.46-.8-3.46.83-7.22-2.36-9.06-2.69-.37-3.73 1.71-5.45 2.43-1.62-1.37-2.33-3.66-4.45-4.54-2.46.85-2.57 3.49-4.05 5.09-1.21-.25-1.65-1.41-2.5-2.06-4.52-3.47-7.38-2.57-9.5 3q-.7 1.83-5.6 5.58c-2.95-1.3.24-5.4-2.9-6.58" class="heroLandscape-1"/>
<path d="M1032.5 326.51c.62-1.62 1.92-1.92 3.5-2.05 1.67-.14 1.97-1.36 2.05-2.95.3-6.23 2.37-7.62 8.46-6.02.62.16 1.33.02 1.99.02 3.68-2.81-.31-6.27.72-9.59.68-2.17-.21-5.24-.2-7.91.01-2.04-.55-3.55-2.51-4.53-2.04-1.03-3.41.08-5.04.98-1.93 1.07-3.04 3.05-4.65 4.15-2.56-.83-1.68-3.21-2.68-4.7-1.36-2.03-1.73-5.33-4.64-5.24-2.94.1-5.37 2.12-7.03 4.82-1.35 2.19-.93 4.94-2.5 7.43-3.5-1.34-6.42-4.22-10.48-3.43-4.78.92-5.06 5.95-8 8.52-5.52-6.68-10.21-7.22-15.05-2.04-2.29 2.45-.69 5.58-2.01 8.01-1.32 2.44-5.69-.61-6.75 3.96-.53 2.28-2.18 4.41-1.69 7.07M1138 248.01c1.52-1.72 1.07-4.12 2.04-5.98 1.56-2.98 1.64-8.18 7.47-5.55.72.33 1.01-.61 1.48-.98 2.82-2.21 5.31-1.94 8.08.42 1.52 1.3 3.64 2.62 5.92 1.08 2.27-1.53 2.64-3.62 1.47-5.97-.23-.47-.55-.67-.47-1.02 1.38-6.22 1.37-6.24-4.49-5.96-.66.03-.85-.81-1.5-.53-1.62-1.34 1.4-3.2-.35-4.41-1.51-1.35-2.65.23-3.59.55-4.78 1.61-6.62.71-7.05-4.15-.62-6.95-2.02-7.77-8.51-5.02-.42.18-.99.02-1.45.02-1.33-.68-.99-1.89-1.06-3-.05-.84.38-1.81-.46-2.54-1.96-.96-3.77-.53-5.47.55-2.48-1.05-1.63-4.47-4.27-5.6-3.51.96-3.07 4.79-4.79 7.09M806.5 199.51c-7.97 1.09-16.04-.14-24 1.02-4.26.62-8.3-1.21-12.5-.98-1.34.08-2.2-.81-2.42-1.56-1.12-3.8-3.75-2.3-6.08-1.98M320.5 342.51c7.51-.17 15.03.39 22.52-.9 1.66-.29 2.75-.67 3.81-2.01-1.76-2.69-4.42-2.81-6.83-3.03-4.45-.41-8.73.85-12.99 1.96-1.63.42-2.11 1.68-2 3.24M1370 169.01c-.18-2.85-.88-5.62-1.13-8.49-.57-6.4-2.08-7.59-8.84-8.58.94-3.15 2.49-6.73-2.52-7.97-.89-.22-.41-1.28-.51-1.96-.82-5.66-3.33-7.01-8.48-4.47-.67.33-1.05 1.24-2.08.92-1.21-3.08 1.15-7.94-3.49-9.27-2.31-.66-4.7 1.35-5.95 3.81M230.5 238.51c3.46-1.54 5.71-4.33 7.47-7.52 1.09-1.99 2.23-3.79 4.62-4.42 2.07 1.36 1.43 4.17 3.5 6.01 1.24.13 3.32-2.57 4.85-.04 2.12 3.52 1.2 7.3-.06 10.94 2.28.41 4.46.72 6.61 1.09 5.03.88 5.9 3.6 2.5 7.41-3.37 3.77-7.95 5.62-12.48 7.53-1.37.58-2.68 1.31-4.01 1.99M1062 220.51c-1.37-.1-1.68-1.81-2.74-2.09-4.06 1.41-2.79 6.53-6.89 8.12-5.25.22-3.91-4.95-5.37-8.03-2.2-.31-4.19 2.17-7.02.14-.08-3.49 3.41-8.05-1.27-11.25-2.8.76-5.09 2.02-7.21 3.6-1.74-1.59-2.69-3.98-4.91-5.06-1.62.74-2.32 1.74-2.74 3.53-.45 1.93-.99 3.93-4.33 4.29-3.93.43-4.62 4.08-2.53 8.74M347.5 340.51c6.38 1.8 13.03 1.43 19.51 2.46 7.77 1.24 15.68 1.75 22.99 5.04M1248 319.01c4.54-13.29 6.87-26.93 7.3-40.88-6.01 8.49-7.07 18.23-8.24 27.89-.68 5.62-1.2 11.3-.57 16.99.21 1.88-.57 4.1 2.02 5M1197 259.01c-2.11-2.65-2.94-6.02-5.43-8.57-5.11-5.23-5.87-5.34-10.07.57-2.46-1.3-3.77-4.39-7-4.5-4.02 4.17-3.34 7.73 3.08 15.6-.55.86-1.65.56-2.05.34-3.54-1.96-6.71-.96-8.38 2.14-1.63 3.02-1.08 6.57 1.35 9.42 4.45 5.19 4.55 5.85 1.34 11.79-3.28-3.19-7.33.67-11.12-1.75.99 5.53-2 11.76 5.06 14.84-1.28.69-1.42 1.6-1.29 2.62" class="heroLandscape-1"/>
<path d="M1167 182.01c-3.07 1.17-5.9-.88-9.01-.64-3.09.24-3.76 1.73-3.45 4.13.57 4.39 3.23 7.86 5.99 11.76-3.7 1.61-8.74-.66-10.67 4.61 1.97 2.3 5.18 2.89 7.67 4.58 3.56 2.42 3.9 3.73.96 6.55-1.73 1.65-4.52 2.42-4.5 5.5M1363.5 329.51c-3.78-1.78-7.45-3.37-9.17-7.93-.99-2.64-11.15-3.07-14.79-1.01-1.29.73-2.59 1.68-3.53 2.95-1.92-.45-3.59-1.8-5.51-1.92-1.91-.12-3.74-.34-5.49-1.13 0-.28-.11-.67.02-.94 1.25-2.78 3.89-5.83.41-8.4-3.14-2.32-5.57 1-7.86 2.49-3.1 2.03-4.72 5.58-7.17 8.39-5.44-6.47-13.23-.44-19.92-3.41 1.98-2.29 4.74-3.05 6.1-5.54 2.66-4.9 1.9-8.58-4.07-8.5-.92.01-1.67-.34-2.5-.53M1138 251.01c-.54-2.79-2.88-4.54-4.05-6.98-.62-1.29-2-2.05-3.43-1.47-1.12.46-1.58 1.57-1.57 2.94 0 1.6-1.52 2.81-1.47 4.49-8.55-3.59-14.41-1.16-14.48 6.01-9.28-2.07-12.82 2.2-11.41 9.48.93 4.8 2.67 9.48 6.42 13 .5.47.51.95.49 1.52M1236 229.01c-1.69-1.02-.32-3.75-2.78-4.56-3.31.83-2.68 4.18-3.76 6.54-1.05 2.27.51 5-1.52 7.09-2.78-1.38-1.52-6.16-6.19-6.74-6.98 7.28-5.6 17.19-7.27 26.5-3.72-2.5-4.84-7.63-10-9.14-3.79 3.6-5.13 8.6-6.97 13.31M1309 149.01c-.17 0-.4.07-.49-.01q-7.2-6.62-11.09 2.7c-2.04-.85-4.42-3-6.31-1.08-2.15 2.18-.71 5.22.02 7.84-6.15 2.36-5.94 2.27-3.22 8.59 1.34 3.11 3.51 5.58 5.11 8.42-1.28 2.32-3.08.57-4.51.45-4.43-.36-5.29.36-5.56 4.58-.27 4.24 2.1 7.66 3.17 11.93-3.24 1.97-6.26 4.5-9.62 6.58M965 326.01c-5.52-3.94-17.67-3.17-21.47 1.53-2.7 3.34.76 5.44 2.05 7.96-1.74 1.87-4.26.33-5.99 1.39-1.74 2.32.39 3.83.91 5.63M1234 132.01c-2.1-2.94-1.3-7.4-5.16-9.84-5.9 5.04-5.19 12.67-7.84 18.84" class="heroLandscape-1"/>
<path d="M1273 205.01c3.35-4.46 3.05-10.35 5.88-15.07.58-.98.86-3.15-.41-4.39-1.46-1.43-1.24-3.39-1.82-5.06-2.18-1.19-4.62.26-6.85-.97 1.85-4.52 3.79-9.03 2.68-13.99-.78-3.48-3.96-5.49-6.91-3.89-3.21 1.75-7.19 2.66-9.06 6.38M300.5 215.01c-.71-1.42-1.94-2.39-2.99-3.49-1.85 1.74-3.88 3.34-4.18 6.4-3-.89-4.97-5.81-8.28-1.87-1.89 2.24-.68 5.36-1.37 8.62-1.86-.66-3.43-1.32-5.18-1.24-1.9.1-3.38 1.32-2.86 2.52 1.81 4.21-1.33 5.59-3.67 7.47.9 2.4 2.35 4.33 4.31 5.77-1.1 1.26-2.18 1.8-3.28 2.32M204 319.01c-1.09-1.6-3.08-1.2-4.49-2.02-10.25-5.97-12.16-1.06-13.46 8.53-.1.73-.57 1.28-.58 1.97-1.51.4-2.35-.73-3.51-1.41-4.89-2.83-9.44-.19-9.99 5.43-.48 4.82 2.41 8.24 4.53 12M333.5 280.01c-1.68-.56-2.81-1.4-2.54-3.51.28-2.22-1.08-3.72-2.98-4.44-1.93-.74-3.27.67-4.48 1.95-3.34 3.55-6.1 7.41-5.93 12.56-2.87-.32-4.06-3.74-7.1-2.11-3.36 1.81-2.31 4.82-2.48 7.54-.02.33-.05.67 0 1 .52 3.16.57 6.43 1.54 9.49 1.21 3.85 5.6 4.32 7.97 7 .38.43.94.74 1.44 1.08 7.03 4.64 6.88 8.24-.47 11.93-6.52 3.27-12.54 7.32-18.51 11.5-5.11 3.57-10.69 6.01-17.28 7.03 3.1-5.52 12.42-9.93 18.29-9.01M1272 321.51c1.66-5.5 5.07-9.76 10.04-12.43 5.45-2.93 9.16-8.2 14.91-10.68.51-.22 1.46-1.54 1.09-2.9-.46-1.67.29-2.85 1.95-3.5 4.3-1.69 5.38-5.45 6.22-9.5-4.78-1.39-9.14 2.37-13.88.4 2.7-6.15 7.81-10.57 11.67-15.69.11-1.63-1.03-2.52-1.52-3.69-1.48-3.5-3.54-4.49-7.03-2.08-2.61 1.81-5.73 2.86-8.45 4.57M1290.5 263.51c.29-3.04 2.06-5.77 1.57-9.01-.28-1.85-.77-3.34-2.58-3.96-1.48-.51-2.48.44-3.52 1.44-1.79 1.73-2.69 3.99-4.02 5.99-1.41 2.12-3.24 3.86-6.02 1.19-.55-2.8 2.21-4.99 2.34-8.15.09-2.09-.1-3.67-1.33-4.96-1.41-1.48-2.94.07-4.46.38-2.47.49-3.69 3.43-6.49 3.07-.19-2.73 1.41-4.98 1.97-7.51 1.01-4.56-1.27-7.9-5.97-8.99M114 248.01c.16-2.27-1.58-3.99-1.91-6.02-.59-3.6-2.88-2.74-5.07-2.41-.75-2.21-1.24-4.47-3.1-6.14-1.57.75-2.33 2.33-3.48 3.51-1.09 1.12-1.61 2.67-2.95 3.55-.57.04-1.03-.01-1.52-.48-5.59-5.36-8.47-4.59-10.92 3-.26.79-.47 1.45-1.07 1.98M192 204.51c-3.81-2.43-5.12-2.1-6.96 2.02-.42.94-1.29 1.64-1.14 2.99.13 1.15-1.22 2-1.76 3.04-2.64-.89-4.39-3.34-7.15-3.51-3.4-.21-3.45 3.18-5 4.97M688 201.01c-7.17-5.86-5.39-5.61-11.53-1.98-.6-.93-1.97-2.13-2.41-1.9-3.77 1.93-7.39-3.48-11.1.22-1.07-1.87-1.47-3.97-3.85-4.69-4.29 1.75-4.03 8.34-9.73 9.65-2.53-3.7-6.05-3.84-10.07-.63-1.8-.93-1.43-4.37-5.05-4.1-1.8.57-2.83 3.05-4.89 4.46-3.14-4.72-5.89-.1-8.63.61-2.29-1.17-1.22-4.4-4.41-4.95-1.37 1.42-3.21 3.16-3.85 5.83-1.33.21-1.89-1.18-3.24-1.58-2.06.49-2.96 2.5-4.26 4.1-1.86-.48-2.03-2.64-3.48-3.52-1.63 1.25-3.75.7-5.35 1.68-2.02-1.84-2.35-5.54-6.15-4.73-.25.05-.73-.57-.98-.96q-2.91-4.47-7.01.51c-2.28-.75-3.95-4.46-6.98-1.49-.48.47-1.32.71-1.46.45-2.64-4.67-5.65-1.57-8.48-.25q-3.62-10.53-8.57-8.22M324.5 338.51c-.65-.81-2.08-.31-2.56-1.88 1.23-3.27 5.82-5.44 4.94-10.07-5.28-2.04-9.97 2.33-14.88.45M353 313.01c4.42-5.51 4.3-6.64-1.1-9.55.6-2.98 3.12-6.83-.53-8.7-2.51-1.28-6.35-.53-7.87 3.25M1274.5 291.01c-5.09 3.15-6.36 8.98-9.46 13.53-2.28 3.34-3.53 7.23-5.19 10.9-2.21 4.88-5.96 8.85-10.35 12.07M423.5 337.51c-7.93 1.91-15.95 1.92-24 1M1279.5 284.51c-2.14 2.11-3.75 4.33-4.63 7.46-2.4 8.49-6.84 15.95-13.37 22.04M391.5 187.51c-7.67.82-15.33.82-23 0M509 237.01c1.82-2.79 4.71-5.65-.98-7.55-1.59-.53-1.31-2.37-.92-3.42.55-1.48.63-2.7-.17-4.29-4.75-1.56-4.63 3.54-7.01 5.27-1.54-.1-1.08-2.69-2.92-2.52-2.32-.32-1.97 2.92-4 3-2.55-1.42-1.08-5.31-3.94-6.64-2.32 1.36-2.07 4.62-4.49 5.76-3.78-1.54-1.4-6.39-5.01-8.19-3.52 1.67-2.71 5.52-3.56 8.58M1219.5 141.51c-1.46-1.86-3.13-2.79-5.51-1.52-2.27 1.21-3.05 3-3.04 5.52.02 3.5.46 7.04-.52 10.83-3-2.25-5.93-4.21-9.96-2.89-3.19 1.05-3.65 2.7-2.52 5.58 1.23 3.13 4.88 4.51 5.54 7.98M444.5 315.51c.19-.67-.53-1.04-.12-2.05 2.31-5.67-1.64-7.4-5.86-6.82-.79.11-1.71.07-2.5.48-1.88-2.32-.07-6.5-4.41-7.45-1.67.65-3.36 2.03-5.18 3.41-2.19-3.59-4.82-1.8-7.39-.28-.14-1.36-.71-2.28-1.07-3.27-1.87-5.09-3.91-5.47-7.46-1.51q-6.17 6.86-7 13c-8-1.32-10.13 1.57-8.41 12.06-8.03-1.07-13.12 3.83-18.09 8.94M534 198.51c-.5-.5-1.06-1.48-1.49-1.43-4.32.57-6.47-1.23-5.98-5.76-4.01.68-6.19 2.94-8.13 5.84-3.62-2.77-6.7-2.44-8.8 2.11-1.88-.91-3.94-2.22-5.54-.7-3.7 3.51-5.29 1.65-6.6-2.05-.24-.69-.99-1.29-2.82-.72-1.16.99-1.05 3.64-2.67 5.24-5-4.4-7.05 1.69-10.47 2.97M975 318.01c-1.3-2.19-1.36-5.14-4.02-6.74-5.49 2.73-4.75 8.21-5.98 12.74M1258 239.01c1.75-3.05 3.99-5.89 4.47-9.5.35-2.58-.09-5.18-2.99-5.91-2.4-.6-2.71 1.72-3.55 3.38-.96 1.88-2.09 3.78-4.01 5.14-2.34-2.91-.25-6.45-1.69-9.71-1.61-3.64-2.59-3.69-5.28-1.45-1.22 1.01-1.66 4.31-4.45 2.06" class="heroLandscape-1"/>
<path d="M301.5 307.51c-3.31-3.02-5.36-2.65-8.54.96-2.85 3.23-3.78 7.29-5.6 11.34-2.24-2.04-4.98-2.65-8.44-2.15.82-4.95-1.59-7.12-5.42-8.16M1093 332.51c-4.74-2.28-9.96-2.16-14.99-3.08-2.44-.44-4.16 1.95-6.51 1.08M1017.5 339.51c-6.4 2.67-13.38 2.45-20 4M170.5 217.01c-.86-3.39-4.25-3.44-6.57-4.3-2.22-.82-3.64 1.26-3.98 3.79-.29 2.1 1.12 3.95.56 6.01M877 210.01c-1.35-1.65-1.9-4.1-4.68-4.66-3.66 1.75-5.21 5.02-4.17 8.61 1.3 4.52-1.15 6.49-3.9 9.31-3.76-3.08-6.4-9.4-11.74-3.27M204.5 303.01c-.89-.2-1.63-.82-2.5-.98-4.76-.85-6.63 1.44-5.01 5.98 1.26 3.51 4.68 5.75 5.51 9.5M1173.5 173.01c.71-4.15-2.44-4.16-5.01-4.45-2.74-.31-4.15 1.2-4.52 3.95-.65 4.77 1.95 7.98 5.03 11M715.5 195.01c-.04-3.48 2.48-4.99 5.05-7.08 2.27 4.04 3.67 8.27 8.57 10.01 1.88-3.15.19-8.76 4.39-10.26 3.54.61 4.78 3.12 6.95 4.3 2.2-1.27 2.18-4.35 4.3-5.58 2.45 1.74 3.35 4.18 4.25 6.61l5 3q3.88-4.44 7-1M343 218.01c1.4-3.35-.79-6.32-.54-9.58-4.38.75-7.71 5.86-7.96 11.58M1328.5 140.01c-2.25-5.72-6.03-7.52-10.61-4.94-1.77-.74-2.38-3.05-5.63-3.29-4.7 5.66-1.03 13.46-2.76 20.22M84 247.01c-.95-2.22-3.21-3.01-5.05-3.89-2.88-1.38-5.76-1.31-6.58 3.05-2.09-.72-4.47-3.34-6.37.34-.32.62-.93.55-1.5.5-6.97-.59-7.04-.54-8.07 6.5-2.76-.29-5.3-.04-5.01 4.01.18 2.55.74 5 1.09 7.53-3.69.31-8.11-4.67-11.1 1.57-2.52-.88-4.89-2.99-8.4-1.51-.01 2.22 0 4.56 0 6.91M420 224.01c-1.9.04-3.91-.03-5.47-1.05-5.29-3.48-7.17-3.19-10.53 2.05M404 222.01c-1.47-2.2-2.89-5.12-5.97-4.37-3.17.77-5.15 3.32-4.98 6.87.04.96-1.02 1.54-.41 2.57q-11.91-5.51-13.64 1.93M883.5 215.51c2.36-1.75 2.62-4.4 3.13-7.21-4.6-2.16-7.32.22-9.63 3.71M715 192.01c-1.31-1.1-2.19-2.66-2.86-4.07-.65-1.36-.97-2.37-2.64-2.45-2.17-.1-2.9 1.83-2.88 3.01.07 4.67-3.65 6.63-6.12 9.5M271.5 309.51c1.58-.38 1.78-1.89 2.51-2.99 1.34-2.02 1.7-4.43-.1-5.89-2.03-1.65-4.75-2.25-6.91.39M1121 209.01c-.42-1.91-2.76-1.91-3.44-3.92-2.06 3.17-2.66 6.62-4.48 9.49-1.85-.89-3.3-2.24-5.07-3.09 1.77-5.97 1.74-6.03-3.45-8.45.92-2.81 3.33-6.43.31-8.3-3.83-2.38-5.44 2.95-8.77 3.9-1.62-1.62-2.78-4.64-6.33-5.16-5.52 3.84-5.2 10.49-7.32 16.09-2.81-.5-4.85-4.02-7.9-2.94-3.16 1.13-2.5 4.82-3.69 7.34-5.63-1.56-6.97-.4-8.02 5.51-.31 1.71.9 3.03.18 4.53M210.5 294.51c-.56.02-1.16.11-1.5-.5-1.04-1.89-3.02-1.92-4.46-1.39-2.03.75-1.67 3.14-1.99 4.9-.26 1.45 1.23 2.99-.05 4.49M555.5 192.01q-.84-2.95-4.02-6.02c-4.1 1.1-3.74 5.53-5.98 8.02-1.52-1.22-2.16-3.13-3.95-5.1-3.63 3.86-5.61 8.47-7.55 13.1M813 215.01c1.31-1.1 1.72-2.86 2.99-4.01 3.48-3.12 6.88-2.62 10.01 1.51-.62 2.04-2.37 3.46-3.42 5.96 4.53.32 5.4 5.84 9.92 6.04M1104 286.01c-1.28-2.39-3.47-3.87-5.5-5.5-3.79-3.03-5.48-2.83-9 1M480.5 201.51c-4.18-.61-3.3-4.47-4.45-6.9-2.72-.87-4.09 1.47-5.94 2.46-2.74-.85-2.57-4.72-5.75-5.08-2.31 1.08-3.01 3.56-4.21 5.68-2.72-1-2.36-5.08-6.09-5.21-2.3 1.64-4.73 3.55-6.06 6.56M334 217.51c-3.54-2.47-5.35-1.89-8.04 1.97-2.04 2.92-1.67 6.45-2.96 9.53M1202.5 167.51c-3.06 2.48-5.91 5.24-9.39 7.05-1.9-.58-1.79-2.02-2.21-3.52-1.56-5.58-4.4-6.13-8.9-2.03M475 224.51c-1.52-.97-2.07-3.4-4.44-3.01-4.03 2.45-1.72 6.78-3.03 9.99-1.82.33-3.33-.79-4.78-1.08-2.35.88-3.71 2.61-5.25 4.1M212.5 298.51c-2.21-5.17-1.62-10.61-2.06-16.03 5.41 3.77 10.16 7.6 12.56 13.53M310 220.01c-1.72-2.8-2.09-6.4-5.07-9.02-1.66 2.06-4.07 3.11-3.93 6.02M457 237.01c.53-3.51-1.67-6.18-3.1-8.95-1.58-3.06-4.92-.95-7.43-1.68-.68-2.99-1.05-6.29-4.37-7.91-2.44.69-3.38 2.75-4.66 4.62-2.8-.46-3.91-3.13-6.31-4.73-1.24 1.77-4.06 2.52-3.63 5.64M345.5 295.51c-.7-2.83 1.64-5.67.09-8.46-1.75-1.29-3.42-.12-5.09-.04M1104.5 284.51c2.77-5.03 7.25-5.23 11.98-3.92 2.05.57 4.03.19 6.02.42M1283 309.51c-.52 6.09-5.68 8.96-9.7 11.71a86.35 86.35 0 0 0-9.8 7.79M700 197.01c-3.24-4.16-4.48.35-6.58 1.79-1.86-1.28-3.88-3.25-5.42.21M371 235.01c-.03-3.38-2.42-5.34-4.49-7.51-1.39-1.45-2.55-1.35-4.05-.04-1.26 1.1-1.59 3.09-3.83 3.67-3.44-2.75 1.21-11.83-8.74-9.44 2.66-3.96 2.68-6.67-.44-8.08-1.92-.87-3.6 1.27-5.45 1.89M852 222.01c0-.5.2-1.13-.03-1.48-1.38-2.08-1.1-5.72-4.47-5.93-3.52-.22-2.93 3.63-4.49 5.41M1336.5 131.51c-1.35-1.15-2.34-2.7-3.75-3.55-4.84.98-2.52 5.79-4.75 8.05M427 221.01c-1.29-1.4-1.58-3.59-3.63-4.92-2.96 3.39-3.38 6.98-2.37 10.92M245 262.01c1.85 1.3 3.97 2.29 5.14 4.37-2.76 5.27-7.13 7.07-12.64 6.63M441.5 317.01c2-1.13 4.07-1.62 5.98.02 2.28 1.96.2 3.69-.51 5.56 1.45 1.43 4.22 1.01 5.15 3.29-.76 3.5-4.26 4.78-5.63 7.62M420 200.01c-1.81-2.47-4.57-3.04-5.78-.4-1.13 2.46-3.8 2.72-4.72 4.9M370.5 323.51c-.48-3.15-1.81-5.37-5.61-4.4.44-2.43 2.26-4.22.12-6.11-2.32-2.05-3.6 1.12-5.51 1.01M1182 167.01c-1.39-.94-1-3.96-3.49-3.44-3.32.69-4.11 3.68-5.01 6.44M379.5 231.51c-1.11-2.22-3.25-3.42-4.62-5.17-3.04 1.06-2.37 4.06-3.88 5.67M368 325.51c6.18-3.64 7.23-3.12 9 4.5M448 196.01c-2.12-1.45.28-5.53-3.44-6-2.33.07-1.51 3.22-3.52 3.54-1.07-.34-1.74-1.01-2.11-2.18-1.59 1.05-2.89 2.26-3.47 4.15-2.05.37-2.11-2.5-4.41-2.58-1.33 1.38-1.73 3.79-3.57 5.06-1.15-1.09-2.08-2.56-4.21-2.16-1.46 0-1.43 2.02-2.77 2.68M739 233.01c-3.12-1.05-6.34-.25-9.5-.5M1240 224.01c-1.31 2.94-3.4 5.58-3.5 9M309.5 304.01c-4.95 1.56-9.05 4-10.56 9.48-.33 1.2-.73 2.75-2.44 3.02M340 286.01c-.57-2.59.07-5.58-2.56-7.54-2.18.13-3.68.96-3.44 3.54M1154.5 304.01c5.55-1.4 11.1-2.88 16.5.5M1015 219.51c-1.84-.18-3.08.38-3 2.5.05 1.13.18 2.28-1 3M311.5 220.51c.5-.5.93-1.12 1.51-1.48 3.84-2.4 4.64-2.03 4.93 2.48.06.91.87 1.57.55 2.5M65 300.01c2.14 2.03 2.69 5.12 6.4 6.32 2.97.97 5.5 4.37 7.1 7.68M843 222.01c-1.46-2.19-2.96-2.8-5.04-.54-1.43 1.55-2.67 3.78-5.46 3.04M319.5 224.51c1.52 1.12.98 3.38 2.5 4.5M261.5 294.51c3.45-.47 5.07 1.28 5.5 4.5" class="heroLandscape-1"/>
<path d="M1173.08 169.74c-8.24-5.26-16.47-10.53-24.29-16.43-4.14-3.12-8.77-5.21-14.41-5.87-8.02-.93-15.31-5.04-22.86-7.95-1.16-.45-1.78-1.73-3.43-1.52-16.54 2.14-25.68-9.87-35.78-19.44-4.56-4.32-8.64-9.34-12.63-14.32-1.5-1.88-3-3.85-6.18-3.57-11.4 1.02-19.76-5.62-28.32-11.67-9.38-6.64-16.32-15.97-25.51-22.88-5.66-4.26-11.27-7.54-18.71-7.66-6.97-.11-11.92-5.33-16.43-9.7-8.26-7.99-17.54-14.35-27.01-20.7-10.93-7.32-20.18-16.94-31.8-23.48-5.21-2.93-9.44-2.54-13.88.82-2.14 1.62-2.59 1.92-3.38.64-3.07-5.04-6.4-3.18-9.74-.62-4.41 3.38-9.09 3.98-14.55 2.88-5.17-1.04-10.56 1.69-15.87-.12-.41-.14-1.24-.18-1.33 0-3.62 7.17-12 7.56-17.42 12.3-7.67 6.72-16.46 11.8-26.12 15.41-5.01 1.87-9.82 4.43-13.87 8.17-5.72 5.27-11.31 11.25-18.7 13.65-16.87 5.49-28.53 18.56-42.79 27.8-2.25 1.46-4.69 2.62-6.89 4.17 0 0-38.99 29.92-53.67 33.85M1160.6 25.4c-4.32 2.28-8.94 3.34-13.82 3.47-29.94.77-59.89 1.85-89.83 2.44-16.52.32-33.2-.84-49.73-2.58-1.38-.15-5.02.55-3.81-3.32M1004.45 25.4c1.3-1.42 3.21-1.79 4.85-1.99 13.08-1.6 26.17-3.3 39.37-3.52 2.92-.05 5.11-.39 7.04-3.39 5.26-8.16 13.07-12.81 22.66-14.63 8.05-1.53 16.26-1.92 24.15-.45 10.59 1.97 19.9 6.73 24.22 17.76" class="heroLandscape-1"/>
<path d="M1012.99 148.19c3.17 8.11 11.09 11.08 17.3 15.86 17.69 13.61 36.91 25.06 54.59 38.68M1157.79 194.75a237.59 237.59 0 0 0-42.13-24.18c-8.95-3.98-18.12-7.45-26.95-11.74-2.05-.99-4.29-2.4-6.87-1.12-.55 2.91 1.04 5.38 2.69 8 1.6 2.54 3.61 4.87 4.84 7.58 1.33 2.91 6.13 5.47 3.29 8.75-2.39 2.75-6.21 0-9.47-1.09-17.52-5.89-33.57-14.89-49.61-23.77-5.87-3.25-13.26-2.78-18.07-8.1M898.43 166.32c16.18 2.14 158.27 38.86 173.12 44.98M888.37 7.44c-1.55 5.53-3.06 10.67-.14 16.65 10.16 20.77 22.08 40.56 33.4 60.68 1.16 2.05.54 4.74 2.67 6.27M922.92 90.35c-8.11-.22-13.65-6.37-21.11-8.96-3.65 3.3.99 8.16-2.04 12.17-7.56-3.92-13.79-.43-19.96 4.94-.91-10.31 5.77-19.69 1.69-30.01-5.16 2.03-9.07 5.82-13.86 8.03M793.72 63.4c-10.9 2.46-19.88 9.06-29.71 13.81-9.74 4.7-19.2 9.96-29.02 14.52M835.86 97.26c1.76-.15 3.13-1.3 3.38-2.78 1.83-10.84 9.38-19.54 11.22-30.37.1-.61.79-1.36.57-2.08-.72-2.26 1.57-4.94-1.32-6.97-3.31-2.32-4.54 1.4-6.13 2.34-15.37 9.04-28.02 21.5-40.88 33.65-2.54 2.4-4.96 4.9-8.3 6.21M874.56 12.27c.09 6.25-.03 12.44 1.28 18.68 2.52 11.97-.95 23.33-4.78 34.51-1.02 2.97-3.02 5.67-1.34 9M837.25 48.2c-16.19 10.31-31.2 22.28-46.9 33.28-1.74 1.22-3.21 1.12-4.92 1.27M1211.73 30.93c-10.69-.32-21.22-2.44-31.71-3.95-5.67-.82-11.3-3.25-17.34-2.96M1218.64 133.88c-13.83.52-27.63-.84-41.46-.69M1021.03 111.08c-8.47-1.89-15.41-6.99-22.73-11.18-4.38-2.51-8.64-5.26-13.2-7.48M938.12 71c21.11 14.36 35.19 35.74 53.2 53.2M892.52 6.06c3.93 2.98 7.2 6.59 10.41 10.33 4.43 5.18 9.66 9.47 15.85 12.47M961.61 89.66c6.12-.72 9.01 4.99 13.8 6.96 3.04 1.25 5.03 4.83 8.88 4.11 1.81-1.81-.22-4.44 1.5-6.23" class="heroLandscape-1"/>
<path d="M797.86 57.88c-3.26 8.52-7.67 16.55-12.67 24.03-4.37 6.54-12.22 9.81-18.43 14.66M835.17 51.66c1.37 3.22-1.31 5.16-2.91 6.76-2.02 2.03-1.88 4.08-1.93 6.36M875.94 19.18c2.84.98 4.07 3.76 6.2 5.55 2.24 1.88 2.27-1.1 3.48-1.41M841.39 92.42c3.41-.08 4.49-4.84 8.74-4.06 2.12 1.66 3.18 3.85 1.63 6.83M760.87 172.96s70.74-35.87 82.01-47.57c11.27-11.69 94.91 5.03 94.91 5.03" class="heroLandscape-1"/>
</g>
</svg>
