<svg xmlns="http://www.w3.org/2000/svg" id="Layer_1" data-name="Layer 1" viewBox="0 0 777.45 738.55">
  <defs>
    <clipPath id="clippath">
      <path d="M0 0h777.45v738.55H0z" class="loveVanGraphic-1"/>
    </clipPath>
    <style>
      .loveVanGraphic-1, .loveVanGraphic-2 {
        fill: none;
      }

      .loveVanGraphic-3 {
        fill: #fdeccc;
      }

      .loveVanGraphic-2 {
        stroke: #000;
        stroke-linecap: round;
        stroke-linejoin: round;
        stroke-width: 2px;
      }

      .loveVanGraphic-4 {
        fill: #fff;
      }

      .loveVanGraphic-5 {
        fill: #93ddef;
      }

      .loveVanGraphic-6 {
        clip-path: url(#clippath);
      }
    </style>
  </defs>
  <g class="loveVanGraphic-6">
    <path d="M.27 604.7c1.04-2.28 9.63-9.23 9.72-10.47.03-.44-1.65-3.48-1.78-5.95-1.82-34.2 3.42-51.09 30.12-71.85 10.21-7.94 38.12-28.82 48.84-33.05 5.78-2.28 9.02.07 10.97-8.5-4.51 1.44-2.02-1.47-2.2-3.49-.61-6.96-.2-16.86 1.42-23.77 1.26-5.36 10.87-9.64 15.21-6.6 1.73 1.22 1.15 4.21 3.58 2.42 8.74-10.84 17.83-21.58 26.34-32.58 7.23-9.35 16.03-24.54 23.58-32.34 1.75-1.81 6.62-4.36 6.85-4.7.33-.5-.69-2.1-.14-3.51 2.8-7.16 21.86-23.24 29.24-27.27-3.72-4.49-6.13-14.86-2.02-19.48 4.4-4.94 24.16-2.47 30.32-6.39.61-.39 7.95-11.36 8.15-12.06.4-1.42-1.29-2.89-1.44-4.54-2.07-22.72 3.88-33.26 5.93-53.89 1.43-14.4-.59-28.78 1.13-43.81.28-2.41 2.65-9.17 2.55-10.12-.1-.95-3.16-3.14-3.44-6.2-.38-4.04 1.61-11.45 1.77-15.76.28-7.3-.54-22.74-3.67-29.2-2.06-4.24-9.82-2.41-13.07-3.98-1.94-.93-2.16-3.3-3.93-4.06-4.62-1.96-39.37-7.63-45.89-8.14-1.84-.15-3.99 1-4.76.83-2.67-.59-1.06-6.27-1.61-6.85s-9.88-.2-7.95-5.03c1.68-.29 9.64.38 10 0 .45-.47-1.1-5.11 1.48-4 1.8.78 4.35 4.74 7.95 6.04 6.83 2.46 40.87 4.59 49.03 3.98 5.29-.39 9.52-2.27 14.97-2.09 5.24.18 13.02 5 11.27-3.23-.74-3.46-7.1-7.64-8.24-11.68-.51-1.82 1.26-3.2 1.12-4.54-.14-1.34-3.33-1.89-2.66-6.88.3-2.21 6.18-10.71 7.91-12.13 3.47-2.86 9.44-3.36 13.42-1.31 1.14.59 11.14 9.64 11.42 10.57.54 1.81-2.25 14.77-3.08 17.48-1.1 3.6-5.23 8.1-4.77 11.23.78 5.26 6.12.14 9.63-.38 5.15-.75 11.1.25 16.61-.36 10.32-1.15 43.36-9.21 50.3-15.66 1.48-1.37.73-3.77 3.41-3.05-.72 9.54 6.85 1.24 10.99 5.5-4.78.24-3.48 9.3-5.12 10.35-1 .64-6.1-.12-8.25.24-15.89 2.64-30.88 11.94-46.84 14.86-1.17 7.7-7.12 6.23-11.1 9.09-2.74 1.98-1.25 6.14-1.71 9.28-.76 5.2-2.88 12.14-2.95 17.1-.09 6.22 3.89 13.3 3.97 19.08.05 3.28-2.01 6.18-1.84 9.74.29 5.97 4.56 18.88 5.77 26.27 4.09 25 6.66 50.26 10.6 75.28 4.56 3.5 6.99-3.07 10.04-5.05 3.59-2.33 26.83-4.93 33.11-5.84 34.63-5.04 80.47-13.3 114.75-11.17 10.14.63 23.83 5.16 32.93 5.12 4.47-.02 6.53-3.28 10.83-3.03 4.08.23 19.18 3.59 22.57 5.49 1.2.67 2.57 3.14 3.53 3.2.74.05 2.48-1.67 4.87-1.67 4.13 0 26.08 3.93 28.97 6.06 1.37 1.01 2.13 3.43 3.21 3.7.83.2 10.48-.98 13.77-.71 13.89 1.14 29.07 6.77 42.96 8.93 1.46-3.93 3.03-5.15 7.34-5.83 7.26-1.13 21.56-2.61 28.6-2.1 5.1.37 23.18 3.62 26.92 6.03 6.56 4.22 4.74 10.68 6.85 13.61.48.67 11.32 2.56 14.32 4.17 4.59 2.45 15.93 15.67 16.44 20.59.38 3.58-3.29 8.99-2.99 9.38.25.34 5.95 2.79 7.49 4.02 19.66 15.62 27.1 68.01 31.15 92.69 3.11 18.99 7.19 43.58 7.35 62.56.16 20.1 2.28 39.78 1.64 59.83-.05 1.66-1.72 3.5-1.65 5.17.05 1.21 3.79 5.33 4.51 9.38 1.6 9.1-1.97 34.32-7.11 41.93s-13.17 6.44-19.63 10.08c-1.19.67-1.32 2.34-3.01 3.22-2.82 1.47-16.43 4.38-17.28 5.71-1.51 4.6-.87 9.98-1.53 14.49-.84 5.82-2.54 9.13-2.92 13.91-.05.68-4.24 7.82-5.89 10.41-.36.56.1 2.11-.43 2.86-4.36 6.15-14.89 12.41-22.09 13.35-5.99.78-18.22-.24-24.08-2-18.52-5.56-24.68-27.77-25.42-45-40.26 5.38-80.86 7.84-121.18 12.95-4.52 25.23-38.57 29.11-56.53 16.45-3.89-2.74-6.44-9.09-10.53-9.5l-94.41 10.06c-.95 20.88-13.39 49.68-34.41 56.97l-11.52 2.96h-14.98c-6.3-1.88-13.25-1.85-19.53-3.94-15.08-5.02-27.17-20.38-31.69-35.22-1.46-4.8-1.59-11.21-2.88-15.09-.46-1.38-1.05-1.43-2.33-1.67-8.53-1.6-24.24.44-33.95 0-18.54-.85-37.67-4.9-55.95-5.97-2.52-.15-9.63-.66-10.98.98-1.1 1.33-3.84 8.53-5.68 11.3-6.86 10.34-21.48 19.89-34.22 19.69-3.44-.05-7.31-2.28-10-2.55-4.81-.47-10.03.52-15.76-.73-18.74-4.09-29.86-22.39-32.65-40.25-18.31-2.77-29.53-.59-39.18-18.74-6.37-11.98-1.9-23.9-8.82-35.62v-5.99l-.05-.02Zm283.64-293.59c-.22-4.48.16-9.79 4.96-11.52 2.85-1.03 6.24.61 6.01-3.86-.29-5.59-6.8-17.68-8.32-24.73-1.89-8.78-1.95-16.6-4.39-25.57-1.84-6.76-6.77-22.37-9.75-28.2-.79-1.55-1.24-3.37-3.49-2.99-2.79 17.7-9.61 34.46-13.52 51.89-1.4 6.22-1.65 12.84-2.91 19.06-2.01 9.84-8.07 19.78-4.41 29.77l35.82-3.85Zm-46.95-228.7c-7.94-2.03-13.84-18.22-20.68-19.76-12.15.53-24.55 1.51-36.73.79-3.51-.21-9.48-.66-12.76-1.22-17.26-2.96-15.86-24.71-14.59-38.08C154.49.06 168.24 2.69 187.52 1.51c12.56-.77 33.6-2.62 45.44 1.52 14.98 5.23 14.77 38.44 8.81 49.74-3.15 5.98-6.58 4.69-8.82 7.16-3.35 3.69 4.96 21.43 4 22.48Zm34.45-63.46c4.36-.02 4.56 3.97 6.14 4.44 2.43.73 11.4-4.34 11.23 5.61-.07 4.19-12.32 12.99-15.55 13.32-3.92.4-14.65-23.33-1.83-23.38h.01Z" class="loveVanGraphic-4"/>
    <path d="M195.07 588.31c2.61.8 11.74-.13 13.56-1.6 1.22-.99 5.03-10.37 5.2-12.33.98-11.42-14.04-23.12-22.37-12.29-1.72 2.23-5.35 10.87-5.54 13.54-.29 4.05 5.06 11.42 9.14 12.68Zm-173.43-19.3c-2.62 4.13-1.13 9.36-1.5 13.96-5.73-3.61.99-14.62.53-18.02-.27-1.95-3.41-10.54-6.51-9.91-1.47 1.33-2.78 24.56-1.84 27.27.74 2.15 10.41 5.94 11.82 4.64-2.15-5.79.73-12.89-2.5-17.94Z" class="loveVanGraphic-3"/>
    <path d="M302.72 260c-2.49-17.43-3.69-35.19-7.42-52.44-.48-2.21-2.83-12.07-3.58-13.18-1.3-1.92-11.08 1.29-13.1-2.57h-4.99l-11.59 2.89-11.28.21c-5.33 16.52-1.85 34.27-3.11 51.26-1.2 16.21-7.71 29.85-6.97 46.88.19 4.42 1.83 8.3 1.39 12.54 1.91.25 3.82.52 5.73.8.64-5.36 4.25-13.2 5.39-18.78 4.75-23.22 9.27-50.2 17.28-72.52 2.25-6.27 3.66-2.45 5.64 1.68 7.69 15.97 10.5 32.31 13.61 49.24 2.05 11.16 6.78 19.36 9.36 29.55.35 1.38.56 2.74.71 4.04 1.72-.77 3.59-1.13 5.54-.92.8.08 1.6.16 2.41.23.09-13.05-3.18-25.99-5.03-38.9h.01Z" class="loveVanGraphic-5"/>
    <path d="M609.57 378.56c-6.9-1.68-14.02-1.57-20.99-2.59-11.31-1.66-22.7-2.44-34.04-3.67-8.61-.93-17.31-1.64-25.96-2.42-9.17-.82-18.4-1.26-27.54-2.66-4.24-.65-8.67-.91-12.98-1.01-5.54-.12-10.96-1.14-16.49-1.34-5.97-.21-9.27 1.8-8.94 8.69.33 7.1 2.17 14.06 3.63 20.96 2.4 11.32 4.23 22.76 6.79 34.05 3.86 17.03 6.74 34.3 12.07 50.98 1.23 3.85 3.04 7.48 5.91 10.55 3.58 3.83 7.58 6.06 13.04 6.03 20.67-.15 41.34.27 62-.16 17.67-.36 35.32-.99 53-.94 39.5.11 79 .04 118.5.03 4.5 0 9-.06 13.5.03 2.02.04 3.85-.06 4.98-2.11-1.49-6.51-1.97-13.26-2.96-19.92-1.22-8.19-2.66-16.35-3.82-24.53-1.04-7.32-1.94-14.68-3.23-21.97-1.31-7.41-2.71-14.78-4.88-22.03-2.32-7.77-7.84-11.28-15.11-12.39-10.95-1.67-22.01-2.7-32.96-4.25-12-1.7-24.05-3.02-36.05-4.6-7.26-.96-14.63-1.66-21.95-2.4-8.17-.82-16.43-1.18-24.52-2.83m87 213c-11.14 4.95-16.36 14.79-19.34 25.55-5.07 18.3-4.95 36.79 1.36 54.95 2.07 5.95 5.29 11.38 10.07 15.4 4.58 3.85 10 6.79 16.39 5.03M457.07 546.56c0-13.33.22-26.67-.05-40-.35-17.03-1.43-34.02-2.75-51.02-.46-5.97-.76-12.03-1.39-17.96-.88-8.34-1.56-16.71-2.58-25.05-.85-6.95-1.5-13.98-2.3-20.96-1.11-9.72-2.54-19.4-4.44-29.01-.53-2.69-.51-5.54-2.3-8.52-19.39-1.7-38.91-1.96-58.22 3.91-9.82 2.99-15.98 9.82-20.34 18.17-9.31 17.84-18.62 35.72-26.09 54.45-3.43 8.61-3.82 17.62-2.54 26.74" class="loveVanGraphic-2"/>
    <path d="M607.57 369.56c-3.7.57-7.44-.18-10.97-.7-7.83-1.16-15.73-1.61-23.52-2.86-9.81-1.57-19.7-2.48-29.54-3.71-7.43-.93-14.98-1.54-22.46-2.36-8.34-.91-16.72-1.44-25.04-2.72-4.24-.65-8.66-.86-12.98-1.05-9.86-.44-19.59-2.38-29.5-2.14-1.86.05-3.52-1.44-5.74-.84-2.38 2.87-.11 6.03.4 8.84 2.15 11.98 3.82 24.04 5.62 36.06 1.31 8.76 2.19 17.65 3.38 26.45 1.4 10.33 1.77 20.77 3.74 31.04.72 3.73.75 7.7.9 11.49.46 12.02 1.68 23.99 2.46 35.98.73 11.2.25 22.36.8 33.51.22 4.48-.37 7.73-5.52 9.12-4.11 1.11-5.75 4.33-5.63 8.88.29 10.66-.31 21.35.25 31.99.3 5.65 2.76 11.24 1.76 16.99-1.1 6.31-1.3 12.68-1.92 19.01m2.01-337.98c1.5 8.1 7.61 9.58 14.49 10.57 13.56 1.95 27.02 4.58 40.54 6.75 11.3 1.81 22.6 3.72 33.95 5.31 11.03 1.55 21.99 3.69 33.01 5.39 11.51 1.77 22.99 3.7 34.49 5.54 11.34 1.81 22.68 3.58 34.02 5.39 9.66 1.54 19.32 3.08 28.98 4.65 9.35 1.53 18.8 2.5 28.05 4.75 2.37.58 4.99.57 7.48 1.09 1.45.3 3.33-.36 3.94 1.56.61 1.9-.32 3.51-1.98 4.44-.93.52-1.72.97-1.97 2.05m16 231.01c4.38 1.93 9.13 1.45 13.47.78 5.05-.78 10.03-.69 15.03-.74 3.76-.04 7.44-.26 11.33-1.65-.89-2.54-1.05-5.12-1.02-7.9.16-13.68 1.16-27.37-1.6-41.04-1.23-6.09-.13-12.62-.64-18.96-1-12.52-2.14-25.05-3.78-37.47-1.59-12.03-3.61-24.06-5.67-36.05-2.22-12.94-4.98-25.74-7.99-38.51-.82-3.48-3.01-5.15-5.64-5.31-6.22-.39-12.33-1.45-18.48-2.22-9.19-1.15-18.38-2.31-27.54-3.71-6.09-.93-12.31-1.43-18.47-2.22-7.67-.97-15.35-2.04-23.02-2.81-6.83-.68-13.61-1.78-20.47-2.32-6.52-.5-13.06-1.23-19.49-2.47-1.53-.29-3.01-.26-4.78-.36-1.05-7.76-2.52-15.43-4.24-23.06" class="loveVanGraphic-2"/>
    <path d="M545.57 402.06c-7.76-1.59-15.68-1.18-23.51-1.87-6.65-.59-13.35-.97-19.98-1.72-7.19-.82-8.87 3.68-7.96 8.59 1.87 10.1 2.58 20.36 4.07 30.49 1.5 10.15 1.74 20.45 3.8 30.53.56 2.76.17 5.65.92 8.52.64 2.43 1.84 2.47 3.65 2.47 10.68 0 21.31 1.76 31.99.92 3.34-.26 5.78 1.94 8.97 2.35 4.38.57 8.72.82 13.03.63 11.21-.49 22.32 1.37 33.5 1.1 5.51-.13 7.17-1.52 6.95-7.02-.41-10.22-1.5-20.37-2.87-30.51-.53-3.96-.62-8.01-.92-12-.68-9.22-2.23-18.32-3.31-27.47-.42-3.59-3.16-5.95-7.35-6.05-13.05-.31-25.98-2.2-38.99-3.12-10.51-.74-21-1.99-31.5-2.98-6.5-.61-13.01-1.3-19.52-1.77-5.8-.42-8.5 3.05-7.48 8.91 2 11.43 2.65 23.01 4.12 34.49 1.38 10.83 1.92 21.76 3.83 32.52.47 2.64.04 5.28.86 8.05 1.25 4.18 3.98 5.81 7.67 5.88 11.33.2 22.67.04 34 .11 1.41 0 2.4-.68 3.5-1.29M250.07 683.06c2.83 20.9 10.44 38.91 30.54 48.92 5.7 2.84 12.13 3.7 18.46 4.6 9.74 1.38 19.53 1.53 28.97-1.13 13.21-3.72 20.99-13.91 26.94-25.43 5.32-10.29 9.05-21.71 9.19-32.96.26-21.36-2.58-42.5-17.07-60.02-5.11-6.18-11.07-11.23-19.05-12.33-10.63-1.47-19.83 2.66-27.44 9.91-9.89 9.41-15.23 21.44-18.53 34.46-2.41 9.51-3.69 19.22-2.94 28.99 1.18 15.4 4.76 30.17 13.95 42.99 5.06 7.05 12.09 11.64 19.97 15.02M146.07 573.06c-12.17 0-24.34-.26-36.5.06-19.86.53-39.66-1.08-59.5-1.31-6.14-.07-12.33-.5-18.78-.85-.58 3.67.58 4.99 3.77 5.13 12.67.55 25.34 1.37 37.99 2.18 21.85 1.4 43.68.25 65.51.79 1.68.04 3.38-.13 5 .5" class="loveVanGraphic-2"/>
    <path d="M134.07 480.56c-5.44 3.09-11.55 2.06-16.96 1.22-9.59-1.49-18.9.26-27.97 1.75-5.66.93-10.81 6.12-16.02 9.61-15.94 10.71-32.02 21.23-46.65 33.81-7.8 6.7-11.43 15.23-14.52 24.57-4.14 12.53-2.29 25.34-2.88 38.04-.15 3.14 1.58 4.79 4.49 5.51 5.88 1.44 11.43 3.34 16.6 6.85 5.07 3.45 11.39 4.11 17.41 5.13 10.12 1.71 20.33 2.85 30.52 3.83 9.25.88 18.65.18 27.98.19 11.75.02 23.42-.39 34.53-4.94 1.14-.47 2.64-.06 3.97-.06 19.17 0 38.33-.13 57.5.05 9.58.09 18.99-1.48 28.5-2.12.82-.06 2.17-.11 2.5-1.43m494.5-189.01c1.19-3.33-.26-4.59-3.46-5.61-5.29-1.68-10.72-.9-16.07-1.67-12.26-1.77-24.67-2.56-36.99-4.07-5.95-.73-11.97-1.36-17.98-1.59-3.08-.12-4.91 1.39-5.08 4.93-.23 4.74.61 9.42 1.29 13.97 1.44 9.66 2.21 19.4 3.71 29.04.97 6.2 2.97 8.67 9.08 8.45 14.86-.55 29.66 1.08 44.5 1.32 7.3.12 14.67.39 22 .76 3.04.15 4.78-1.26 4.43-4.03-1.75-13.68-2.25-27.52-5.43-41.01m-430.5 275.01c1.89 8.68 6.12 15.98 13.54 20.94 9.12 6.09 19.01 3.87 26.36-6.02 13.37-18 15.69-46.58 2.21-65.5-7.52-10.56-20.11-13.95-31.04-3.36-8.19 7.94-11.33 18.31-13.25 29.4-1.29 7.45.08 14.39 1.11 21.54.18 1.25.99 1.71 1.57 2.49m171.5-65.99c-.35 12.88-3.51 25.36-6.27 38.16 6.31 1.1 11.86-.38 17.22-1.01 4.3-.5 8.78-.88 13.07-1.35 8.44-.94 16.99-1.61 25.45-2.49 11.17-1.17 22.38-2.32 33.54-3.59 8.11-.92 16.32-1.56 24.46-2.37 8.34-.83 16.71-1.72 25.04-2.59 8.29-.86 16.62-1.76 24.97-2.34 8.01-.56 16.04-1.23 24.01-2.41M315.57 359.56c-11.62 1.46-23.35 1.37-35.02 2.29-6.29.5-12.68.76-18.97 1.33-9.84.89-19.7 1.56-29.53 2.67-6.97.79-13.99 1.44-20.97 2.25-11.74 1.36-23.42 3.08-35.01 5.42-5.1 1.03-8.65 4.33-11.39 8.11-9.23 12.74-18.15 25.85-28.43 37.64-7.38 8.47-12.95 18.22-20.71 26.25-2.06 2.13-2.02 6.17-5.96 6.54m291.99 29.5c3.67 1.72 6.64-1.21 9.96-1.74 3.32-.53 6.69-1.89 10.06-2.68 7.9-1.86 11.39-7.23 13.59-14.55 2.96-9.86 3.22-19.99 3.75-30.04.8-15.15-.21-30.33-.73-45.5-.16-4.71-1.09-9.29-1.31-13.99-.29-6.17-4.09-9.04-10.32-8.99-13.45.11-26.84.7-40.03 3.85-2.21.53-3.62 1.16-4.47 3.13m-23.5-16.49c-8.5.82-17.04-.11-25.49.23-12.5.5-25.03-.57-37.53 1.12-6.4.87-12.98.25-19.49 1.07-8.82 1.11-17.68 1.82-26.51 2.9-6.79.83-13.67 1.3-20.47 2.22-8.53 1.14-17.04 2.32-25.54 3.75-8.47 1.43-17.04 2.4-25.46 4.21-1.05.23-2.03-.12-3-.49m84.49 109.49c5.83 0 11.67-.12 17.5.02 13.55.33 22.66-5.02 28.73-17.91 11.24-23.86 22.82-47.58 34.68-71.15 3.17-6.31 6.43-12.64 8.64-19.44 1.78-5.48 1.38-6.51-4.05-7.53-7.6-1.42-15.34-1.28-23-1.99-1.86-.17-3.89.55-5.5-1m135.5 225c-5-.05-10.15-.76-14.97.18-8 1.56-16.17-.42-24.04 1.81-.31.09-.67.03-1 0-9.54-.69-18.96 1.46-28.5 1.08-4.48-.18-8.93 1.37-13.5.95-1.06-.1-2.51-.53-2.51 1.47s1.43 1.48 2.51 1.49c8.52.1 17-.84 25.49-1.23 8.49-.39 17.01-1.43 25.51-1.64 8.68-.21 17.37-.81 25.97-1.48 6.1-.48 12.14-3.01 18.53-2.64" class="loveVanGraphic-2"/>
    <path d="M402.57 478.56c5.29-.85 10.37-2.58 15.47-4.1 10.44-3.11 13.53-12.08 14.91-21.42 1.95-13.22 2.4-26.66 1.92-39.97-.44-12.16.26-24.43-1.82-36.5-1.32-7.67-3.22-8.2-8.96-9.09-8.13-1.26-16.01.75-24.01 1.1-5.91.26-11.57 2.33-17.5 2.48m-274.01 283.5c6.48-1.14 13-.19 19.5-.5 17.54-.83 34.99-2.4 51.98-7.07 5.97-1.64 11.96-3.67 16.01-8.93 3.84-4.99 3.41-12.13-1.04-14.93-.93-.59-2.21-1.41-3.45-1.03-3.82 1.16-7.69.15-11.51.49-3.31.29-7.38 5.02-7 7.98.77 6.07 3.69 8.6 8.99 7.45 2.04-.44 4.06-.84 6.09-1.76 3.02-1.37 5.5-2.82 5.85-6.19.35-3.38-2.77-4.41-4.93-5.99m413.51-279.02c-6.8-.11-13.34-2.07-20.02-2.82-5.68-.63-11.33-1.43-16.97-2.25-8.35-1.22-16.7-2.57-25.04-3.69-8.3-1.12-16.62-2.38-24.96-3.28-9.18-1-18.35-2.25-27.5-3.52-6-.83-12.03-1.61-18.03-2.29-13.43-1.53-26.92-2.75-40.49-2.17-5.01.21-10.06-.28-15 1.03M222.57 533.06c5.71-6.9 13.48-11.25 20.55-16.43 12.79-9.37 26.36-17.62 39.45-26.57 3.86-2.64 8.58-3.41 12.56-5.91 3.31-2.08 5.76-4.51 7.5-8.06 11.09-22.62 22.19-45.24 32.98-68.01 5.97-12.59 12.46-24.94 18.6-37.45 1.47-2.98 1.67-6.45 4.26-8.67-2.12-3.74-5.6-3.69-8.4-3.78-10.32-.31-20.66-.11-31-.14-1.02 0-1.75.47-2.5 1.02m447.5 159c-4.33 0-8.67.1-13-.02-25.68-.68-51.34.68-77 1.18-13.83.27-27.67 1.29-41.49 2-14.34.73-28.68 1.81-43 2.94-11.17.88-22.34 1.92-33.5 3.01-12.18 1.19-24.36 2.5-36.49 4.02-14.85 1.86-29.65 4.09-44.5 6-3.01.39-5.98.84-9.02.87m203.5 38.5c-12.67.51-25.32 1.66-38 1.43-10.53-.19-20.99.98-31.49 1.31-14.16.44-28.33 1.29-42.5 1.92-13.67.6-27.33 1.4-41 1.99-13.33.58-26.64 1.94-40.01 1.82-2.42-.02-4.54 1.17-7 1.15-2.49-.03-3.3-.6-3.03-3.12 1.21-11.48.22-23 .54-34.5.06-1.99-1.33-3.34-2.01-5m-103.5-209.5c-3.95 3.5-9.06 1.71-13.51 2.98-.46.13-1 .04-1.49.01-13.03-.75-26 .8-38.99 1.21-13.67.43-27.36 1.59-41 2.9-9.5.91-19.05 1.72-28.49 3.04-9.67 1.35-19.41 1.99-29.06 3.6-3.13.52-6.15.13-8.46 2.75m428.5 228.51c3.14 9.83 2.25 19.64.08 29.52-.52 2.36-1.76 2.64-3.58 2.47-7.55-.68-15 .8-22.49 1.2-14.34.76-28.65 2.15-43 2.96-9 .51-17.99 1.37-27 1.97-14.5.97-28.98 2.17-43.5 3.05-8.83.54-17.67 1.3-26.51 1.86-3.17.2-6.25 1.4-9.5.97m5.5-342c.59-2.5 4.92-2.5 3.91-6.05-.31-1.66-2.28-1.34-2.9-1.3-8.17.51-16.47-.54-24.47.64-5.69.84-11.39.62-17.08 1.46-9.81 1.45-19.63 3-29.48 4.08-8.35.92-16.64 2.29-24.96 3.33-8.68 1.08-17.39 2.24-26.05 3.68-5.11.85-10.33 1.43-15.49 1.97-3.45.36-5.94 1.81-7.34 4.27-2.02 3.56-4.81 3.76-8.14 3.42" class="loveVanGraphic-2"/>
    <path d="M362.07 326.56c-1.39-2.13-3.71-1.87-5.48-1.41-6.42 1.67-13.04 2.1-19.54 2.74-12.16 1.2-24.29 2.73-36.48 3.76-14.01 1.18-28.01 2.57-41.99 4.06-12.33 1.31-24.77 1.68-37.02 3.83-.97.17-2 .06-3 .02-9-.37-16.72 2.71-23.51 8.49-8.13 6.92-15.77 14.28-21.99 23.01m552.51-25c16.48 7.33 22.02 22.48 26.38 38.03 4.46 15.89 7.2 32.21 10.33 48.43 2.25 11.65 4.25 23.34 5.59 35.06 1.9 16.73 4.33 33.5 2.89 50.49-.24 2.82.05 6 .77 9 2.1 8.72 3.01 17.51 1.63 26.5-.52 3.42-.21 6.99-.05 10.49.19 4.05-1.21 6.62-5.53 7m-596.51-15c-3.59-.66-6.97.86-10.49 1.11-4.06.29-6.43-.73-6.37-5.06-1.58-.61-3.19-1.08-4.63-.98-7.89.59-15.65-1.01-23.5-1.19-20-.45-39.99-1.28-60-.86-10.5.22-20.97 1.34-31.5 1.04-4.4-.13-6.31 3.07-6 8.93m418.49-206.49c-2.09-6.17-2.47-12.7-3.97-19.01-2.63-11.04-4.47-22.35-12.19-31.29 1.71-2.13 3.88-1.27 5.66-1.13 13.57 1.08 27.07 2.51 40.55 4.68 8.08 1.3 16.29 2.34 24.44 3.42 7.69 1.02 15.4 2.24 23.07 3.55 5.72.98 11.65 1.46 17.44 2.37 9.85 1.55 19.73 2.88 29.56 4.68 6.44 1.18 12.98 2.11 19.48 3.11 2.86.44 3.83 1.57 5.14 4.04 3.23 6.11 5.7 12.41 7.35 19.08 6.94-.08 13.67 1.64 20.49 2.55 7.85 1.04 15.66 2.43 23.51 3.39 7.68.94 15.29 2.31 22.97 3.27 6 .75 12.02 1.82 18.03 2.79" class="loveVanGraphic-2"/>
    <path d="M151.07 564.06c-20.33 0-40.69.61-60.99-.18-18.83-.73-37.69-.5-56.52-1.69-2.64-.17-3.1-1.98-4.49-3.14-1.77.54-1.98 1.91-2.02 3.5-.23 7.75.83 15.43 2.16 22.98 1.64 9.27 9.03 12.41 17.36 13.49 16.26 2.1 32.55 4.84 48.98 3.87 10.34-.61 20.79-.2 31.04-2.71 4.96-1.22 7.93-4.15 10.48-8.11 5.93-9.19 10.65-19 14.92-29.04.31-.72 1.33-1.01 1.07-1.97-1.19-1.72-2.98-.96-4.5-.97-26.67-.05-53.34-.23-80 .06-11.37.12-22.64-1.7-34-1.07-1.33.07-2.78-.58-4 .47m505.51-275.49c3.33-2.1 6.63-.37 10.01-.09 5.05.42 9.91 1.84 14.98 2.21 7.07.51 10.98 4.95 11.95 11.89.1.73.57 1.28.58 1.97-3.03 2.65-6.18.37-9-.13-11.01-1.93-22.05-3.78-33.07-5.6-9.12-1.51-18.26-3.11-27.45-4.32-9.04-1.19-18.03-2.81-27-4.47-6.2-1.15-12.44-2.69-18.56-3.56-7.08-1.01-14.74 0-21.89 1.38-4.19.81-8.43.85-12.59 1.48-11.76 1.76-23.64 2.95-35.48 4.06-8.31.78-16.64 1.65-24.97 2.32-7.84.63-15.67 1.69-23.51 2.33-8.66.71-17.23 2.71-26 2.05m279 113.48c-3.71-2.16-7.84-2.58-12-3.02-11.35-1.19-22.68-2.53-34.31-3.72-2.32 2.08.09 4.49.39 6.73 2.45 17.77 1.47 35.84 4.91 53.51-2.67 5.72 1.27 12.54-3 18m184.01 152.5c-1.69-14.44-.55-29.3-6.94-43.03-2.18-4.69-4.45-9.27-8.09-12.95-9.78-9.87-17.55-9.02-26.89-.93-8.31 7.2-12.59 17.18-16.07 27.41-3.89 11.43-5.95 23.35-8.97 35.01-1.13 4.36-3 6.69-7.99 7.75-6.84 1.46-13.72 1.75-20.57 2.67-8.48 1.14-17.05 1.49-25.51 2.96-3.59.62-7.34.73-10.99.96-11.37.7-22.64 2.33-33.98 3.32-12.18 1.06-24.35 2.49-36.51 3.9-15.98 1.85-32 3.36-48 5.01-9.5.98-19 2-28.5 3.04-15.5 1.7-31.01 3.27-46.5 5-13.17 1.47-26.34 2.98-39.5 4.53-1.13.13-2.02-.78-3.02-.15m378.53-183.5c-1.25-4.36-4.34-5.02-8.5-5.09-32.67-.53-65.33-1.23-98-.96-4.15.03-8.27-1.84-12.5-.44m102.5-74.01c-3.45-3.71-8.42-2.74-12.53-3.2-5.09-.56-10.32-.95-15.45-1.45-9.5-.92-19.06-1.26-28.54-2.69-4.4-.67-9-.37-13.48-1.13-3.03-.51-3.97.87-4.11 3.97-.22 5.08.65 10.1 1.38 14.97.99 6.67 1.42 13.41 2.59 20.06 1.39 7.89 1.14 8.19 9.14 8.96.99.1 2 .05 3 0 11.86-.55 23.66.98 35.49 1.3 6.47.17 13.01.31 19.5.75 3.24.22 6.03-.19 8-3.04m-32.99-139c5.13.83 10.87 1.45 14.8 4.28 5.99 4.32 10.23 10.86 14.09 17.29.81 1.35.39 3.64.06 5.42-.79 4.34-2.93 5.99-7.43 4.93-9.94-2.33-20.03-3.95-30.06-5.7-8.62-1.5-17.32-2.78-25.95-4.31-11.01-1.95-22.05-3.74-33.05-5.69-8.61-1.52-17.25-3.22-25.97-4.18-3.14-.34-6.24-2.14-9.49-.55m-348-132.99c-3.26 6.1-3.23 12.93-3.87 19.51-.6 6.11-.4 12.34-.07 18.48.73 13.66-1.92 26.83-4.99 40.02-2.02 8.7-3.31 17.53-1.11 26.49.6 2.43-.74 5.18 1.04 7.49m370 67.51c.19 8.31 1.66 16.41 3.42 24.52 1.58 7.25 2.61 14.62 3.59 21.98 1.2 9 2.49 17.98 3.5 27 .91 8.16 1.55 16.35 2.51 24.5.81 6.84 1.14 13.69 2.28 20.54 1.75 10.52 2.02 21.26 1.7 31.97M44.57 639.06c4.12 2.04 8.79 1.54 13.01 1.7 7.67.29 15.44.58 22.95 1.59 9.17 1.23 18.46-.49 27.63 2.43 5.6 1.79 12.04.97 15.93-5.21 2.4-3.81 4.62-7.6 6.17-11.94 1.43-4 .45-5.27-3.17-6.18-.86-.22-1.7-.39-2.53-.37-11.52.24-22.96-1.29-34.5-1.17-9.48.1-19.01-.52-28.49-1.04-11.17-.61-22.31-2.21-33.51-2.79-.83-.04-1.8-.39-3 .98 1.59 8.74 5.13 16.55 13.5 21.5m253.01-504c-.33 9.11-1.42 18.09-3.4 27.02-1.12 5.04 1 10.06 2.08 14.94 1 4.52 2.24 8.27.21 13.2-1.29 3.13.77 7.96 1.79 11.79 2.44 9.08 3.12 18.39 4.86 27.54 2.61 13.75 3.24 27.76 5.7 41.55 1.38 7.71 2.69 15.57 3.23 23.46.07 1 .48 1.75 1.03 2.5" class="loveVanGraphic-2"/>
    <path d="M137.57 589.56c-5.81-1.16-11.68-.52-17.5-.43-16.52.25-33.03-.1-49.49-1.21-11.01-.74-22-1.95-33.01-2.82-.97-.08-2.14-.56-3.48.97-.45 4.01 3.04 5.04 5.99 5.36 6.47.71 12.8 2.26 19.5 1.79 9.67-.69 19.35.62 28.99 1.78 2.96.36 5.99.02 8.99.07 1.71.03 3.56-.47 5 .99m-6.99 75c4.12 2.04 8.76 1.41 13.02 1.71 6.64.47 13.34 1 19.96 1.51 11.83.92 23.72.69 35.56 2.47 7.68 1.15 15.67 1.48 23.43 2.47 18.3 2.33 36.65 2.57 55.02 2.82 10.25.14 12.7-1.99 16.05-11.96 2.6-7.73 4.15-15.72 6.43-23.52 4.33-14.86 10.85-28.68 19.54-41.48.52-.77 1.31-1.35 1.98-2.01m-17.49-391.51c-3.78 13.64-6.83 27.5-11.17 40.95-3.03 9.38-4.73 18.85-5.89 28.55-.82 6.84-3.14 13.44-5.23 19.91-1.72 5.36-.12 10.09-.21 15.09m-20 163c-1.01 1.64-2.65 1.03-4 .96-9.33-.48-18.73 1.21-28-.95-.32-.07-.7-.1-.99 0-9.57 3.36-19.34.28-29.01.86-9.63.58-19.37.7-28.97-.13-4.3-.37-8.73-.19-13.04-1.18-2.66-.61-5.34-.31-6.99 2.44m516-178.5c1.47.71 2.27 2.54 2.34 3.51.5 6.97 5.68 7.25 10.66 7.99 13.39 1.99 26.66 4.73 40.02 6.85 8.98 1.43 17.9 3.36 26.98 4.06 1.49.12 2.46 1.57 3.99 1.08M78.07 496.56c9.98 1.12 20.04.84 29.98.24 5.42-.32 9.56-4.93 13.82-8.6-1.6-1.44-3.25-1.13-4.81-1.13-5.5-.02-11.01.22-16.5-.06-9.11-.47-16.85 2.17-23 9.05m192.01-285.5c4.56 5.93 5.72 13.34 8.31 20.07 3.16 8.23 6.15 16.62 7.81 25.4.64 3.37.22 6.68.74 10.04 1.1 7.01 3.56 13.51 6.2 19.95 3.05 7.42 4.61 15.12 5.44 23.02m-255 309.02c1.82 10.04 5.87 16.36 16.52 17.89 8.26 1.18 16.64 1.57 24.97 2.25 12.5 1.01 25.02 1.37 37.51 2.36m49.5-71c-2.2 1.23-4.57 2.38-5.96 4.53-4.05 6.22-10.63 10.17-14.53 16.48-.59.95-1.47 1.76-1.65 2.68.98 1.82 2.42 1.23 3.65 1.31 11.36.71 22.67-.69 33.99-1.2 5.97-.27 12.06-.7 18.01-1.79 10.21-1.88 18.54-6.96 24.97-15.03 4.68-5.87 9.07-11.96 12.11-18.94.84-1.93 2.31-3.51.34-5.64 4.1-1.57 4.37-5.64 5.47-8.94.97-2.93-1.32-4.71-3.86-5.98-3.64-1.82-7.61-2.52-11.52-2.9-15.46-1.51-29.79 2.54-43.51 9.4-5.87 2.93-10.87 7.05-15.97 11.05-2.26 1.77-2.98 4.7-4.39 7.06-3.47 5.81-7.12 11.48-11.07 16.97-.47.66-.06 1.95-.06 2.95m-54.52 85.99c-.48-5.66.34-11.3-.75-17.05-.78-4.1-2.87-4.33-5.75-4.43-6.84-.25-13.66-.26-20.52-.81-9.32-.75-18.69-.92-27.99-2.15-2.56-.34-5.55-.88-6.99 2.44m415.5-105.5c-13.49 2.39-27.05 4.43-40.48 7.1-13.08 2.6-26.23 5.01-39.02 8.9m-37.5 9.5c-18.53-9.46-35.68-5.84-52 5.5-9.12 6.34-15.01 15.47-21 24.5" class="loveVanGraphic-2"/>
    <path d="M572.07 292.56c7.2-1.47 14.51-.79 21.46.68 12.37 2.6 24.83 4.89 37.1 8.09 2.32.61 5.29.53 7.93.81 3.88.4 8.42.99 10.35 4.51 3.97 7.27 10.89 6.54 17.17 7.32 8.33 1.04 16.66 2.22 24.94 3.4 3.95.56 5.28.25 6.1-3.3.13-.58.95-1.01 1.42-1.48-.47-.8-.9-1.53-1-2.53-.84-8.44-6.17-12.93-13.98-13.86-8.82-1.05-17.38-4.25-26.49-3.19-7.15.83-14.3 1.62-21.48 2.2-2.6.21-5.24 1.96-5.51 5.35m-177.01 323c-4.73-1.55-9.33.27-14 .49-12.54.58-25.01 1.93-37.51 2.83-9.66.7-19.3 1.84-28.99 2.18-1.51.05-3.06-.25-4.5.5m341.5 61.5c10.94-8.91 15.57-20.92 17.57-34.49 2.5-16.96.65-33.22-6.01-49.04-2.53-6.01-6.23-11.14-11.65-14.32-6.47-3.79-13.85-5.21-21.39-3.57-2.11.46-4.02.53-6.02-.08m-33.5 59.5c.23 9.62 2.23 18.9 6.56 27.47 5.52 10.94 14.26 17 26.93 17.71 5.89.33 11.68 1.35 17.51-.18m-446.5-208.5c-1.6-.8-3.33-.49-5-.49-14.83-.02-29.68.29-44.5-.12-9.76-.27-16.9 4.63-24.61 9.88 2.25 1.59 4.22 1.21 6.1 1.22 13 .02 26.03-.53 38.99.18 10.54.57 19.22-3.98 27.86-8.45 2.53-1.31 5.16-2.03 7.65-3.22m265.51 177.5c-2.77 12.55-14.37 21.93-27 22.03-6.69.05-13.09-.63-19.56-2.86-7.19-2.48-12.64-6.34-15.94-13.17m-72.5-212.5c-1.78-3.98-1.27-8.45-2.91-12.53-2.27-5.65-4.21-7.56-10.09-7.94-1.99-.13-4.02-.19-6 .01-4.83.49-7.38 2.5-7.11 7.47.42 7.81.14 15.66.08 23.49 0 1.37.67 2.99-.97 4m5 204.5c2.14-9.94 2.96-19.89 1.09-30.02-.63-3.42-.32-6.97-1-10.5-2.79-14.46-7.33-28.22-17.19-39.39-7.62-8.64-17.46-13.53-29.4-12.55-9.67.79-18.14 4.85-25.43 11.05-3.38 2.87-6.95 5.79-9.07 9.91m51.5-102.5c2.47 11.87 2.74 23.95 3.78 35.98.81 9.36-.09 18.72 1.12 28.04.41 3.18 1.15 5.71 3.54 8.04 5.98 5.85 12.16 11.52 17.56 17.94m-62-126.5c-5.82-2.93-12.3-3.29-18.52-3.8-8.12-.67-16.27-1.64-24.49-1.26-7.41.34-14.93-.63-22 2.56m9.51 36.5c-15.02 8.27-30.7 15.31-45.48 24.03-5.89 3.48-12.04 6.61-17.02 11.47m588.5 39c3.96 5.51 3.39 11.55 3.31 18-.1 8.4-3.02 16-4.47 23.97-1.36 7.51-6.49 12.06-14.34 13.03m-622.5-205.5c.72 4.11-2.78 6.3-4.64 8.9-11.14 15.57-21.76 31.5-32.94 47.04-.98 1.36-1.54 2.49-1.42 4.06m285.5-110.5c-1.29 2.95-5.37 4.08-4.58 8.51 2.97 16.69 2.71 33.63 3.58 50.49m-144 29c-.65-4.36-3.42-5.72-7.5-5.53-3.16.15-6.35.26-9.49-.02-5.52-.49-10.07.72-14.08 4.98-5.87 6.22-13.96 5.62-21.4 4.88-6.97-.69-13.79-.25-20.49.85-8 1.31-16.11 1.93-24.04 3.79-6.9 1.62-13.13 4.22-17.99 9.56m308.99-177.01c-2.33-2.82-4.55.51-7.02.17-5.93-.81-11.88-1.48-17.99-.77-10.45 1.2-21.02.06-31.48.76-6.68.45-13.37 1.74-20.04 2.62-6.94.92-13.98 1.47-20.97 2.19-3.69.38-7.32 1.13-11 1.53m-176 368.5c-5.96 16.22-16.85 27.37-34.03 30.86-11.91 2.42-20.94-3.9-28.43-12.4-5.7-6.46-9.05-14.27-11.55-22.46-.38-1.25.58-2.3.5-3.5" class="loveVanGraphic-2"/>
    <path d="M360.07 324.81c.98-6.2-1.52-12.12-1.51-18.28-12.38.34-24.56 3.3-37.3 3.59 1.07-3.92-1.5-4.39-3.7-5.04-4.29-1.27-7.95-3.3-9.99-7.52m318.5 225c3.23 12.83 3.64 25.95 2.75 38.98-.35 5.14-.08 10.42-1.25 15.52m-282-85c6.73.3 13.29.13 20.08-1.02 4.62-.78 10.2.95 15.42 1.05 5.65.11 10.33-2.49 14.93-5.15 1.02-.59 2.06-2.13 2.1-3.88.27-14.52-.5-28.91-4.46-43.02-1.78-6.35-6.31-8.51-12.07-8.92-4.84-.34-9.7-.37-14.51.89-3.53.93-5.26 2.83-6.1 6.52-1.72 7.54-.33 15.03-.3 22.53.02 3.87-1.12 5.47-5.1 5.05-2.64-.28-5.33-.11-7.99-.03-2.25.07-3.91.71-2.5 3.48m-47-156.5c-3.2 2.27-7.14 1.37-10.53 1.7-9.84.97-19.62 2.52-29.44 3.58-3.59.39-7.59-.37-11.06 1.67-.81.48-1.72-.4-2.47-.95m-48.5 159c14.32-4.47 27.81-10.97 42.9-16.26-2.13-1.16-2.42-2.53-3.39-2.2-17.31 5.76-34.55 11.72-51.5 18.48-.4.16-.68.64-1.01.98m75-1c-6.33 0-12.67-.02-19 0-10.86.04-21.66-1.24-32.5-1.48-.33 0-.67-.02-1-.52m36.5-335c2.41 10.37 5.47 20.6 3.13 31.53-.79 3.69-.33 7.64-1.02 11.49-.79 4.4 1.66 7.3 6.4 7.92 5.05.66 10.13-.09 14.95-1.58 1.72-.53 3.32-.82 5.04-.86 2.51-.06 4.66-.55 7.13-1.73 3.85-1.85 8.54-1.1 12.87-.27m-32.5-67c-6.8-1.45-13.68-2.47-20.48-.43-4.34 1.31-8.73 1.29-13.01.83-11.49-1.23-23.01-2.18-34.52-2.7-6.64-.3-10.98-3.02-15.55-7.56l.99 4.84s-11.22-1.54-11 0 9.79 3.52 9.79 3.52c-.78.56-3.63 5.83-.33 5.5 9.07-.91 18.42 2.72 26.57 3.79 7.16.94 14.42 2.09 21.54 3.68 1.2.27 2.67-.47 3.49 1.02 2.11 3.86 5.48 4.28 9.51 4.14 2.62-.1 4.7 2.6 7.49 2.86m523.51 432.51c.03 4.22 1.65 8.22 1.58 12.5-.05 3.14-.87 6.08-1.69 8.97-.68 2.4-2.1 3.92-5.32 4.79-8.35 2.25-16.82 4.11-25.57 6.8 0 5.93.06 11.94-.04 17.94-.03 1.68.87 3.63-.96 5m-361.5-247.5c2.97 2.6 2 6.58 2.17 9.52.39 6.49 1.73 12.94 1.33 19.48-.41 6.71 1.67 13.28 1 20m-102-309c.98-.31 1.86 1.26 3.1-.42 2.13-2.87 5.6-2.66 8.9-2.61 5.87.1 11.69-.19 17.52-1.39 10.9-2.26 21.4-6.07 32.47-7.69 5.46-.8 12.84-5.38 16-10.33 0 0-.11 4.95 1.43 4.84 1.54-.11 9.24-.22 9.24-.22-6.1 1.75-1.98 10.01-6.27 10.01-12.21-1.87-37.37 11.85-54.38 15.32m26.49 541.99c-.61-1.85-1.09-3.78-2.02-5.49-2.87-5.25-6.62-5.49-9.94-.49-2.53 3.82-3.63 8.07-1.49 12.45 1.12 2.28 2.19 5.01 5.45 5 3.36-.01 4.99-2.2 6.62-4.9 1.24-2.04.2-4.24 1.38-6.07m3.5-209.5c-6.61 13.3-13.62 26.41-18.59 40.47-.38 1.09-.14 2.05-.5 3.25 1.92.94 3.47.57 5.64-.02 6.37-1.74 12.48-4.31 18.95-5.7m-104-180.5c-3.33-2.78-6.83-.13-9.97.27-6.67.85-13.37 1.81-20.05 2.57-3.12.36-5.16 1.83-5.31 4.17-.33 5.12-1.12 10.58 2.83 14.99" class="loveVanGraphic-2"/>
    <path d="M398.57 484.06c3.16-.27 3.19-3.12 3.36-5.01.32-3.46.56-7.02-.34-10.5-4.04.08-8.1-.29-12.06.91-.82 2.53-1.52 4.94-1.5 7.61.05 7.46-2.67 10.37-10.46 10.91-2.28.16-4.6.35-7.09-.68-1.82-.76-6.1-1.87-5.4 3.27M102.57 597.06c-4.71 2.19-9.78 1.29-14.47.76-4.87-.55-9.7-.37-14.52-.82-5.02-.47-10.12-.43-15.01-1.94m176-275c-4.12 3.56-9.42 1.43-14.04 2.87-3.64 1.13-7.67.87-11.45 1.66-6.65 1.4-7.3 2.38-6.49 8.96.27 2.18.77 4.33 2.98 5.5m-91.5 106.51c-.87-3.38-2.69-5.04-6.51-4.58-3.99.48-9.06 3.12-9.35 6.59-.67 7.98-3.23 15.86-1.64 23.99m322.5-170c-3.86 2.29-8.4 2.44-12.51 3.96-8.49 3.14-15.83 7.92-21.99 14.54-1.89 2.04-3.73 4.21-7 3.5m-264 341c6.81 1.09 13.68.05 20.5.54 7.43.54 13.67 3.69 18.5 9.46m352-393.5c2.24 4.94 6.37 6.36 11.48 7.15 6.5 1 12.96 2.24 19.49 3.03 1.11-5.93-3.11-11.04-9.97-12.17-5.04-.83-10.08-1.52-15.02-2.93-1.53-.43-3.46-.52-4.96.44-6.27 4-12.82.92-18.98.2-7.66-.89-15.2-2.95-23.03-2.73m-164.51 36.01c-2-2.65-4.09-.02-5.99.15-15.07 1.41-30.03 3.74-45.02 5.78-1.63.22-2.48 1.13-3.49 2.07m422.5 288c-3.94 2.69-8.86 2.61-13.01 2.67-8.17.14-16.29 2.69-24.49.83m72.5 24.5c-5.48 4.05-5.72 11.92-.5 17 5.81-2.86 6.5-10.61 1.5-17m-692.5-39.5c-2 2-4.02 3.98-6 6-4.23 4.34-4.41 6.83-2.06 13.02 2.12 5.58 3.26 11.47 3.02 17.48-.28 7.23 2.88 13.29 6.66 18.92 2.32 3.45 5.63 6.4 8.95 8.98 2.6 2.02 5.65 2.78 9.41 2.89 8.38.26 16.67 2.4 25.01 3.7 11.61 1.81 23.31 2.9 35.01 3.9 4.48.39 9.07-.32 13.48-1.43 2.97-.75 3.85-2.99 4.08-5.96.42-5.42-1.66-10.61-1.07-16.01m197.01 5.01c3.2 1.79 6.27 3.88 10.74 4.61 4.4-5.88 1.19-12.75 2.74-19.93-12.68 6.01-15.54 16.94-18.66 27.97 2.13 2.72 5.71 3.18 8.23 5.29 4.18 3.5 4.75 5.87 1.97 10.57-2 3.37-4.13 6.55-8.02 7.99m-50.5-12c-10.68.53-21.36 1.41-32.01-.47-1.29-.23-2.66-.03-3.99-.03m253.5-88c3.86 11.35 3.07 22.91 1.5 34.5m-147.5-18.5c-.84-1.48-2.27-1.03-3.5-.98-9.85.45-19.85-1.42-29.5 1.97-1.06.37-1.62-.76-2.5-.99m-111 19c-.33-.5-.68-.5-1-.52-11-.82-22-.78-33 .02m486-10c1.38 10.46-2.5 19.75-6.53 28.99-.66 1.5-2.1 2.66-1.97 4.51" class="loveVanGraphic-2"/>
    <path d="M6.07 631.06c8.85 9.73 20.52 13.26 33 15m260 19.5c-2.96 12.8.26 24.6 8.21 34.33 7.31 8.93 19.8 9.11 27.76-1.34 7.93-10.4 10.06-22.04 8.19-35.01-1.44-9.98-4.41-18.87-12.24-25.39-3.78-3.14-8.46-4.54-13.42-2.09m-297.5-70.5c1.87 1.66 1.15 4.09 1.33 6.02.46 4.84-.11 9.78 2.41 14.96-5.92 1.48-9.63-2.01-13.75-3.98m696.51-28.5c-8.51-2.87-15.94-.05-22.4 5.13-3.52 2.83-7.67 5.76-7.69 11.37 0 1.77-2.71 2.47-2.91 4.5m-623.5 91c-.92 6.57 2.44 12.04 5.14 17.43 3.32 6.61 8.34 12.58 14.55 16.25 4.7 2.78 10.42 5.03 16.31 5.28 3.01.12 5.9 2.18 9 .54m77-74.5c-1.4 3.02-2.32 6.16-1.94 9.4-8.03 2.95-15.7 5.1-23.56 6.6m201-213c1.02 1.33 1.68 2.69 1.53 4.5-.62 7.37 1.78 14.62.93 21.99-.21 1.85 1 3.28 1.03 5" class="loveVanGraphic-2"/>
    <path d="M722.57 574.56c3.84.18 4.51-.55 2.98-3.49-3.11-5.98-7.38-10.91-13.49-14-5.95-3.01-20.43-.74-26.54 5.45-2.48 2.51-4.49 5.63-7.96 7.04m13.51 95.5c.9 5 4.97 8.85 9.5 9 5.28.17 8.87-2.68 9.99-8 .48-2.28 2.22-3.91 2.99-6 3.64-9.88 4-20.01 1.96-30.23-.68-3.42-2.2-6.5-2.15-10.27.06-4.1-6.66-9.3-10.79-9.5-4.06-.19-10.25 3.99-11.48 8.01-2.64 8.64-5.67 17.16-5.12 26.5.32 5.53.75 10.99 3.18 15.96 2.21 4.52 6.29 7.08 10.87 9.16 2.53 1.14 3.64-1.08 5.52-1.34 1.4-.19 2.5-2.4 4.53-2.28m-468-114.01c-4.62 6.03-6.83 13.7-12.55 18.95-3.33 3.06-5.53 7.8-10.95 8.05m45 20.5c-9.2.46-18.3 2.72-27.49 2.37-10.81-.42-10.44-1.58-11.49-11.37-.2-1.87.39-3.86-1.02-5.5m-56.5-19c.67 0 1.66.29 1.95-.04 4.66-5.33 11-7.36 17.57-8.33 5.14-.77 10.26-1.86 15.75-2.14 4.34 3.77 9.12 6.83 10.11 13.97.58 4.23-.88 7.14-1.92 10.54-.54 1.77-2.7 2.81-2.46 5.01m334.5-183.01c1.38 8.47 2.9 16.92 3.51 25.5.08 1.07.33 2.11.99 3m-220 206.5c1.2 6.12.52 12.49 2.5 18.75 4.41 1.12 7.09-1.84 10-4.25m28.5-55c-.19 2.33.41 4.38 1.43 6.53 3.56 7.44 6.34 15.15 7.07 23.47.83 9.5 3.23 18.86 2.51 28.5-.34 4.49-1.96 8.94-.56 13.7 5.76 1.36 11.5-.33 17.01-1 7.83-.96 15.74-1.4 23.53-2.72 4.98-.85 10.03-.87 15.03-1.82 4.58-.87 6.98-3.23 9.04-7.12 5.51-10.41 7.97-21.71 10.42-33.04m309.52-24c.1 10.33-3.71 19.8-6.28 29.53-6.95 2.86-14.34 3.28-21.34 5-3.64.89-3.99 1.9-4.38 4.48" class="loveVanGraphic-2"/>
    <path d="M183.07 576.56c.51 1.41 1.44 2.6 2.09 3.96 3.94 8.27 9.01 8.42 17.4 6.99 2.57-.44 4.91-1.82 7.47-2.58 9.11-2.69 19-21.37 11.04-30.87m107.5 149c-1.11-3.19-2.05-6.43-3.48-9.51-2.38-5.14-4.38-5.37-8.05-1.01-2.31 2.74-4.05 5.89-6.47 8.53m32.5-34.01c-11.89 3.8-11.01 18.48-4.5 25.5m102.5-177.5c-1.09 3.45-3.51 5.96-6.99 5.82-3.07-.12-5.66-2.17-5.95-6.2 7.67-2.56 16.73 2.46 24.33-3.42-1.43-1.9-2.66-3.4-4.89-3.19-4.22.4-7.5-.26-10.18-4.4-2.14-3.31-7.58-2.52-9.82 4.38m-51.5-181.99c.18 2.32.2 4.41-1.43 6.55-4.86 6.38-8.74 13.41-12.57 20.45m-1 117.5c-5.17-1.12-10.33.04-16.06-.67.2 5.49 1.14 10.11 2.46 15.23 4.92-.2 9.51-1.4 14.09-2.24 1.82-5.86 1.32-11.2-1.49-16.31m307-160.01c5.29 3.61 11.68 2.98 17.54 4.34 2.53.59 5.17 1.85 7.96 1.16m-566 283.5c-7.65.76-15.35.3-23 1" class="loveVanGraphic-2"/>
    <path d="M190.57 558.06c-3.89 4.47-5.86 9.56-7.38 15.4-1.18 4.55-1.22 10.33-6.09 13.64-4.05 2.75-7.59 1.42-8.52-3.54-.48-2.59-.4-5.14.99-7.5 3.02-5.13 6.67-5.44 11.5-1m215.5-269c-7.27 1.56-12.77 6.23-18.48 10.52-.59.44-1.21 1.31-.97 1.96 2.38 6.48-3.79 8.23-6.68 11.4-5.39 5.91-8.98 12.82-12.87 19.62m-113.5 193c-.18 1.48-1.18 1.57-2.43 2.15-6.36 2.94-12.64 5.79-19.52 7.52-5.32 1.34-10.76 1.56-16.05 2.78-.94.22-1.74.5-2.49 1.05m97.99-76.5c5.3 1.1 10.67.16 16 .52 1.67.11 3.42-.58 5 .48m406 98c1.86 7.04 4.69 13.8 6 21m-480.5-432c8.03 5.36 16.33 10.25 25.04 14.42.68.33 1.01 1.32 1.96 1.08m39.5 127c-6.86-.13-13.66.88-20.5 1m-28-225c7.41 3.23 8.03 14.77 4.97 21.48-.86 1.89-2.04 3.65-3.07 5.46-2.65 4.65-10.62 4.92-14.35.51-2.68-3.17-6.06-5.87-7.55-9.96" class="loveVanGraphic-2"/>
    <path d="M279.13 95.42c3.18-3.14 2.51-7.18-2.08-10.33-2.09-1.43-4.15-2.65-5.56-4.98-1.75-2.9-10.96-3.01-13.37-.5-3.04 3.17-5.96 6.68-7.83 10.56-1.1 2.28-1.1 6.02 2.27 7.89m451.51 570.5c-.95-1.9-1-3.92-1.05-6-.05-2.23-1.11-4.13-3.09-5.6-3.43.83-3.34 4.92-5.86 6.6m-588.5-219c1-.29 1.81.44 2.49.52 3.68 11.35-4.4 18.21-10.1 25.9-.88 1.19-2.01 1.97-1.88 3.59m590.99 167.49c3.16-.49 5.98.63 6.84 3.55.74 2.52.74 5.66-1.38 7.91-1.2 1.28-2.15 2.92-3.96 3.54m-422-57.5c6.38 1.84 13.26.88 19.5 3.5m-26-488c-2.54 7.62.74 12.25 8.5 12 4.36-.14 6.49-3.23 4.94-7.48-.49-1.34.04-2.85-.94-4.02m-16.5 530c-1 6.51-3.93 12.51-5 19m444.5-46c2.21 4.26 2.45 8.44-.14 12.63-2.54-.93-4.63-1.97-6.86-2.63" class="loveVanGraphic-2"/>
    <path d="M273.07 84.06c-3.38 2.07-6.68 4.18-11.01 3.04-2.56-.67-4.6.57-5.44 2.98-1.46 4.19-3.73 7.98-5.55 11.98m-232 435c1.91 2.54 2.21 5.48 1.98 8.5-.46 5.99 1.49 12.12-.98 18m728.5 68c-.26 3.17-3.3 2.62-5.05 3.38-4.63 2.01-9.61 3.14-14.45 4.62m-469-483.5c3.67 5.48 10.77 6.04 15.21 10.81 2.81 3.02 6.17 5.81 9.29 8.69m22 121c-3.57 2.05-7.6 2.01-11.5 2.48-6.65.8-10.95 1.65-10 11.02m376-14c-5.07 2.47.49 6.13-1 9 1.33.56.57 2.51 2.46 2.99 1.31-.38 2.75-1.61 4.6-2-.1-4.19-2.48-7.04-5.57-9.48m-207.49-12.51c-4.35 4.33-5.11 12.01-.5 17.5m-92.5 2c1.47 1.86 2.9 3.73 4.99 5.02 4.04 2.51 6.39 6.1 6.51 10.98m-247 153.5c-6.36.61-11.99 2.82-16.5 7.5m595.5 135.5c-.23 3.44 1.04 6.73 1.75 9.95 1.03 4.66 3.75.94 5.75.05m-446.5-437c-5.65-2.1-11.11-1.08-16.5 1m-229.5 444.5c-4.14-2.94-3.82-7.94-5.44-12.02-.77-1.94-.96-4.18-2.1-5.95-2.12-3.28-5.16-4.41-8.96-3.03m354-32c.54-1 .7-2.09-.02-2.98-3.12-3.88-6.62-7.39-10.52-10.46-.37-.29-1.46-.37-1.96.45m-325.5-3.01c-2.38 4.77-1.98 9.91-2 15m536-113c2.24 4.62-.19 9.88 2 14.5m160.5 155c-4.11-.11-5.81 2.23-5.98 6-.08 1.84-.2 3.71.48 5.5m-409.5-530.5c.85 3.13.88 6.38 1.82 9.55.87 2.97-.03 6.32-3.83 7.42-2.25.65-4.23 1.94-6.49 2.53m60.5 356.5c-4.38 2.57-9.72 2.7-14 5.5m-298.5 155c-2.63.67-5.09-.3-7.48-1.06-1.93-.61-3.69-.54-5.52.06-.37 3.05 2.77 4.69 3 7.5m482-374.5c-.2-2.19.64-4.53-.73-6.17-3.17-1.56-6.61 2.06-9.27-1.33m-225.5-89c4.02 2.2 8.35.44 12.5 1m-276.5 361.5c5.43 1.74 4.35 7.32 6.5 11m255-390c-4.44-.54-8.4-3.14-13-3m91 300.5c-.12 4.04 1.72 7.91 1 12m74.5 31c-.81-2.21-3.74.34-4.47-2.69.51-2.51 2.96-3.25 5.45-2.71 3.81.82 7.37-.1 11.02-.59m-201.5-202.01c-1.69 4.23-5.67 7.06-7 11.5m484.5 330c-8.09 1.05-9.21 3.69-5.5 13" class="loveVanGraphic-2"/>
    <path d="M257.07 81.56c3.39 1.25 8.54-.86 9.5 5m-40.5 35.5c1.01 3.63 1.6 7.28.5 11m40 29c.66 4.62 5.6 6.38 7 10.5m102.5 147.5c-1.88-.73-3.56-.82-5.02.98-1.45 1.79-3.47 2.89-5.46 4.04-4.42 2.55-4.7 5.67-1.01 9.98m347.99 287c-3.45-1.35-3.94-5.71-8.38-6.93-3.55-.98-5.38-.42-7.6 1.46-1.63 1.38-3.07 3-5.02 3.97m-684.5 5.5c2.8 2.71 5.24 5.93 9.5 6.5m272-153.5c2.59 2.52 6.41-.52 9 2m-254 157.5c-3.7 1.79-5.05 3.88-3.77 8.57 1.29 4.75 1.78 9.9 2.27 14.93m321-66c-2.51.81-5.46.29-7.5 2.5m-114.5-466c-.39 2.68 3.57 4.49 1.5 7.5m121.5 338c2.17 1.63.2 5.48 3.5 6.5m-361 139c2.33-.2 4.67 1.44 7 0m450.5-84.5c-2.33-.72-4.2 1.53-6.5 1m-95.5 49c.92 3.98 1.62 8.07 5.5 10.5m402.5-103c-2.1 1.07-3.92-1.32-6-.5m9 52.5c-1.94-.9-4-.35-6-.5m-524-3v5.5m119-67c1.23.88 1.03 2.79 2.5 3.5M236.41 81.27c-3.38-6.08-3.85-13.05-5.92-19.53-.62-1.95 1.07-2.85 2.9-3.52 6.92-2.52 9.05-8.17 10.12-14.94 1.27-8.07 1.24-16.04-.14-24.01-1.91-11.09-6.06-15.61-15.97-16.94-16.12-2.16-32.32-1.22-48.49-.46-3.48.16-7.03.51-10.52 1.34-9.03 2.15-12.69 5.96-14.11 13.04-1.94 9.67-2.7 19.34-1.28 29.01 1.61 10.96 7.45 15.33 18.9 16.07 13.68.88 27.34 1.56 41-.05 3.78-.45 6.51.51 9.17 3.86 3.55 4.48 8.9 13.34 14.33 16.13" class="loveVanGraphic-2"/>
    <path d="M194.91 21.27c-1.55-1.28-2.68-2.97-4.48-4.04-4.56-2.7-9.77-2.77-13.02.04-3.03 2.62-4.37 10.54-1.93 14.46 2.82 4.54 6.69 8.22 10.88 11.6 3.73 3 7.77 5.53 11.5 8.58 5.36-7.71 11.95-14.38 15.59-23.12 2.54-6.1 1.6-11.68-3.06-14.49-3.47-2.1-6.88-.93-9.95 1.02-2.24 1.42-3.39 3.94-5.03 5.95m81.11 2.67c-1.55-3.12-3.46-5.95-7.48-3.92-3.37 1.69-3.81 4.65-2.73 8.17 1.38 4.49 3.34 8.67 5.81 12.92 4.23-2.31 8.6-3.97 12.33-7.23 3.17-2.78 4.05-5.86 2.19-8.92-2.02-3.31-5.5-2.59-8.55-.75" class="loveVanGraphic-5"/>
    <path d="M194.91 21.27c-1.55-1.28-2.68-2.97-4.48-4.04-4.56-2.7-9.77-2.77-13.02.04-3.03 2.62-4.37 10.54-1.93 14.46 2.82 4.54 6.69 8.22 10.88 11.6 3.73 3 7.77 5.53 11.5 8.58 5.36-7.71 11.95-14.38 15.59-23.12 2.54-6.1 1.6-11.68-3.06-14.49-3.47-2.1-6.88-.93-9.95 1.02-2.24 1.42-3.39 3.94-5.03 5.95m81.11 2.67c-1.55-3.12-3.46-5.95-7.48-3.92-3.37 1.69-3.81 4.65-2.73 8.17 1.38 4.49 3.34 8.67 5.81 12.92 4.23-2.31 8.6-3.97 12.33-7.23 3.17-2.78 4.05-5.86 2.19-8.92-2.02-3.31-5.5-2.59-8.55-.75" class="loveVanGraphic-2"/>
  </g>
</svg>