<svg xmlns="http://www.w3.org/2000/svg" id="Layer_1" data-name="Layer 1" viewBox="0 0 1053.13 823.53">
  <defs>
    <style>
      .mapGraphic-1 {
        fill: none;
        stroke: #000;
        stroke-linecap: round;
        stroke-linejoin: round;
        stroke-width: 2px;
      }

      .mapGraphic-2 {
        fill: #fff;
      }

      .mapGraphic-3 {
        fill: #93ddef;
      }
    </style>
  </defs>
  <path id="Bc7KTY.tif" d="M925.54 814.54c-3 0-6.16 4.39-8.17 4.73-1.37.23-3.36-1.79-5.78-1.83-7.13-.12-19.89 3.36-28.02 4.02-20.71 1.67-39.14-1.18-58.93-.98-2.58.03-14.97 3.58-15.48 2.99l-5.01-124.85 72.91 10.97c1.52-38.51 44.43-64.06 75.43-35.91 1.51 1.37 11.07 13.35 12.51 11.95l-21.39-31.04c-14.57-25.62-34.4-50.57-25.07-81.83 6.16-20.64 23.6-39.6 45.46-42.94 2.35-2.18-12.1-7.66-13.43-8.04-51.86-14.84-52.99 44.81-71.68 72.27-18.1 26.6-33.99 7.04-54.74 1.17-26.24-7.42-46.21 17.2-67.69 25.25-11.04 4.14-19.53 3.81-30.68 5.28-1.87.25-3.56 1.96-5.07 1.94-3.92-.06-20.17-22.26-23.27-26.64-10.26-14.49-33.45-51.08-35.14-67.74-.29-2.85.68-10.69-.23-12.26-.48-.83-13.65-9.19-15.85-10.61-6.33-4.11-31.61-20.73-36.85-22.09-13.81-3.59-34.79-1.46-49.42-4.41-18.11 6.85-35.83 17.34-53.84 24.1-8.56 3.21-8.16 3.59-17.17.84-18.77-5.74-41.49-18.03-59.61-22.3-2.1-.49-4.1-1.04-6.3-.72l-62.45 21-20.48-67.93c-.92-1.11-12.54-1.61-15.72-2.26-34.64-7.03-59.21-40.46-66.76-73.08-.27-1.15-.36-1.86-1.47-2.55-20.94 12-41.83 12.97-58.39 32.49-16.86 19.88-28.28 43.6-48.51 61.37-66.6 58.47-117.02-2.83-142.51-64.22-29.89-71.98 58.64-117.42 99.49-60.51 18.36 25.57 12.24 46-1.24 71.5-11.9 22.51-27.73 44.05-43.13 64.23 51.86 31.15 95.41-16.63 121.8-56.56-9.67-11.54-18.17-23.83-26.07-36.64-7.4-12-15.72-26.19-22.33-38.6-18.08-33.96-28.48-69.2-13.47-106.89-19.4.86-39.36 5.86-58.66 4.21-1.75-1.24-3.73-2.2-5.26-3.73-7.61-7.56-16.75-22.77-24.03-31.91-3.81-4.79-27.4-31.41-27.85-34.11-.53-3.26 3.09-1.34 4.27-1.49 19.55-2.56 42.45 1.99 63.06.09 4.06-.37 8.32-2.73 11.09-3.03 1.99-.21.43 2.25 3.81 2.1 7.03-.31 12.31-4.8 18.36-6.77 9.68-3.15 17.53-1.78 26.56-2.61 9.22-.85 18.94-5.02 28.61-1.66-.22-3.79-1.99-8.15-4.46-11.01-6.5-7.53-35.88-16.39-46.16-17.87-4.51-.65-9.35 1.71-13.83-2.06-4.72-3.97-16.08-21.08-19.88-27.07-13.94-21.96-27.24-44.02-11.4-69.15 18.64-29.57 64.16-24.97 77.61 6.96 9.21 21.86-.23 37.61-11.42 56.21-3.33 5.53-16.45 26.1-20.35 29.38-1.89 1.59-3.83-.74-3.06 3.65 13.76.96 46.31 9.65 53.16 22.27 1.8 3.33 1.93 8.18 3.76 11.22 6.79 11.32 24.84 28.28 33.97 39.95 3.39 4.33 16.57 17.16 6.57 18.5-20.09 2.69-41.77-1.77-61.48 3.46-6.65 1.76-14.89 3.7-18.15 9.81-18.11 33.93-8.43 73.01 7.98 105.21 9.92 19.47 24.63 44.94 37.32 62.57 1.62 2.25 10.61 14.59 11.78 15.24 1.4.77 1.53.23 2.56-.5 2.53-1.79 5.82-8.59 8.42-11.58 16.55-18.99 26.65-18.95 47.96-27.96 1.49-.63 10.6-5.03 11-5.5 1.76-2.08-3.46-2.35-4.94-3.52-6.02-4.77-23.18-31.27-27.83-39.1-13.09-22.05-23.98-40.82-13.04-66.59 18.1-42.6 78.97-40.69 95.95 1.68 8.32 20.76 2.15 35.3-7.65 53.64-10.17 19.02-23.59 36.25-36.47 53.44 4 38.37 39.46 74.91 78.91 76.37l-15.37-58.03 56.86-18.72c24.63 9.2 48.61 20.37 72.91 30.45L499 370.09c3.05-.46 30.66 3.01 33.75 4.12 1.8.64 1.15 3.98 4.64 2.81-15.58-33.09 31.2-59.99 52.39-29.89 13.2 18.76-1.14 36.63-10.23 53.18.19 3.22 3.17 5.25 4.11 6.93 15.06 26.88 29.74 54.29 43.65 81.64-3.32 1.11-6.16 1.53-9.48 0l-.51 2 45.47 27.97c2.82.46.26-2.49.88-4.97 18.56-73.84 133.4-46.15 112.51 28.47-7.85 28.06-32.33 56.13-47.97 80.38 30 3.28 47.63-21.35 73.94-28.97-2.99-4.56-.98-8.18-.96-12.43.02-4.79 1.13-21.76-.01-24.87-.48-1.32-7.65-.39-8.83-4.32-1.04-3.45-.57-20.25 1.35-23.24 4.46-6.95 11.32-1.33 13-5.02.74-1.64-5.4-7.28-.13-13.07 6.28-6.89 15.6 1.33 11.02 9.01-1.43 2.4-3.62 2.06-4.83 2.99-2.48 1.9.97 2.18 1.86 3.04 4.43 4.27 4.36 6.17 11.34 4.34.68-.18 6.76-2.66 7.09-2.88 2.07-1.4 1.58-5.18 7-1.88 2.8 1.7 1.91 6.01.79 8.68-2.24 5.36-7.24 1.32-10.97 1.92-.92.15-8.67 4.02-8.78 4.5-.48 2-.3 14.28.01 16.84.51 4.13 3.38 8.41 3.92 13.07s-.68 10.66.13 14.85c.47 2.42 3.05 3.49 3.57 5.47.39 1.47-.87 3.74-.61 4.03.13.14 2.49.25 3.69.8 15.79 7.15 29.41 17.35 43.25-.31 21.69-27.68 17.12-83.49 70.35-77.27 9.48 1.11 15.7 7.95 22.33 9.64 4.49 1.14 11.53-.16 16.62.37 26.32 2.73 52.19 29.03 54.56 55.33 2.28 25.34-17.01 55.43-30.73 76.12-4.92 7.42-20.35 30-26.69 34.23-7.35 4.91-7.98-2.15-12.76-4.23-2.27-.99-4.98-.53-7.13-1.86-2.94-1.82-9.94-11.6-14.11-14.86-29.01-22.66-69.03 3.21-67.42 37.93 24.15-1.98 48.23-8.66 72.45-9.98 5-.27 20.43-.79 24.21.75 1.29.53 9.59 7.85 10.68 9.3 1.2 1.59 1.62 3.77 2.74 5.25 21.97 29.3 42.78 59.37 62.76 90.07-3 .44-5.37 2.53-8.46 2.6-8.14.17-21.59-3.7-30.96-4.14-12.21-.58-28.69.15-40.99 1.05-10.11.74-32.51 2.81-41.21 6.75-1.04.47-2.6.92-1.26 2.22" class="mapGraphic-2"/>
  <path d="m804.96 697.74 78.62 12.54s82.04-15.18 93.66-9.24 75.89 104.29 75.89 104.29-112.12-7.92-135.37 13.2c-26.66-13.2-108.02 3.96-108.02 3.96l-4.79-124.75ZM811.04 574.39c-1.66 1.59-1.06 3.6-1.34 5.61-1.29 2.43-.52 3.99-1.69 7.65 4.83 1.58 1.17 3.91 1.17 3.91-6.95 3.29-8.01.19-8.11-6.29 1.35-8.12.73-16.46 1.22-24.69l-1.05-6.58c-1.4.72-3.4.17-4.96-.08-2.13-.19-3.12-1.53-3.64-3.5-.25-.8-.27-1.64-.25-2.48.17-5.57.14-11.17.44-16.72.38-2.19 2.14-4.12 4.21-4.84 1.16-.4 2.4-.4 3.64-.24 2.54.53 3.46.91 5.41-1.11 2.57-2.49.48-4.41-.64-6.89-.46-1.4-.41-3.16-.16-4.68.43-1.95 2.08-3.68 4.06-4 3.24-.61 6.35 1.21 6.72 4.6.11 1.54.1 3.14-.67 4.48-1.63 2.71-.7 2.51-3.36 3.53 0 0-1.49 3.44 0 4.28 1.28.78 2.14 2.09 3.15 3.18 2.53 2.59 4.71 2.99 8.1 1.91l3.44-.48c.49-1.03 1.41-1.7 2.46-1.99 1.19-.44 1.9-.37 3.04.12l2.69-3.49c1.83.01 4.48.15 4.6 2.41.04.94-.27 1.88-.41 2.8-.16.95-.1 1.94-.47 2.84-.47 1.14-1.63 2.2-2.85 2.26-1.19 0-2.31-.78-3.07-1.64l-.3-.03-12.09 4.1-1.88 1.04c0 1.51-.16 3.07.07 4.55.17 1.16.43 2.32.41 3.5-.03 2.15-.08 4.31-.12 6.46-.04 1.1-.02 2.3-.46 3.32l-.34 1.15c5.7 8.4.94 28.99 4.8 28.67s8.7 5.74 2.72 5.94c-16.21.54-6.32-11.19-13.22-19.52l-1.28.92Z" class="mapGraphic-3"/>
  <path d="M877.82 712.61c-7.65-1.28-15.26-2.72-22.99-3.56-13.81-1.5-27.62-2.86-41.43-3.57-.77 1.92-.58 3.78-.58 5.63 0 16.83.46 33.68-.15 50.49-.52 14.34-.53 49.77 2.94 56.01M163.78 148.11c-.94-4.25-1.92-8.6-4.64-12.11-6.88-8.83-44.52-20.95-55.66-19.29" class="mapGraphic-1"/>
  <path d="M3.35 355.1c-1.93 14.88 4.03 25.49 10.73 38.29 8.15 15.55 17.22 30.56 27.95 44.51 5.1 6.63 9.62 13.74 16.09 18.93 3.51-.87 5.81-2.95 7.58-5.44 15.45-21.66 31.25-43.11 42.08-67.64 4.01-9.09 6.84-18.31 5.37-28.52-2.84-19.72-12.97-34.61-30.59-43.33-25.3-12.52-53.89-3.19-68.66 17.64-4.39 6.19-6.21 13.35-9.56 19.89M540.5 360.19c-.96 7.38 2 12.65 5.33 19 4.04 7.72 8.55 15.17 13.87 22.09 2.53 3.29 4.77 6.82 7.98 9.39 1.74-.43 2.88-1.46 3.76-2.7 7.67-10.75 15.51-21.4 20.89-33.57 1.99-4.51 3.4-9.09 2.67-14.16-1.41-9.79-6.44-17.18-15.18-21.5-12.56-6.21-26.75-1.59-34.08 8.76-2.18 3.07-3.08 6.63-4.74 9.87" class="mapGraphic-3"/>
  <path d="M610.33 486.21c13.5 8.01 53.73 32.04 53.44 34.27-2 15.39 4.17 26.37 11.1 39.61 8.43 16.09 17.81 31.61 28.92 46.05 5.27 6.86 9.95 14.21 16.64 19.58 3.64-.9 6.01-3.05 7.85-5.62 15.99-22.4 32.32-44.6 43.53-69.98 4.15-9.4 7.08-18.94 5.56-29.51-2.94-20.4-13.42-35.8-31.64-44.82-26.17-12.95-55.75-3.3-71.03 18.25-4.54 6.4-6.42 13.81-9.89 20.58M184.82 408.61c-10.95 14.92-21.11 30.48-35.01 42.99-12.72 11.45-26.6 20.61-43.98 23.58-15.8 2.7-30.17-.89-43.48-9.13-13.21-8.18-21.22-21.34-29.85-33.57-8.72-12.36-16.42-25.52-22.61-39.4-3.71-8.33-7.71-16.6-8.63-25.96-1.4-14.36 2.92-26.99 11.08-38.49 11.45-16.15 27.39-23.93 46.98-23.92 10.59 0 20.8 2.88 29.42 9.01 17.74 12.61 29.56 31.11 27.46 54.88-.57 6.46-3.21 12.59-5.93 18.49-9.15 19.86-21.11 38.07-33.51 55.98-5 7.23-10.14 14.4-15.95 21.03M986.32 632.11c-16.69 4.41-31.02-.67-42.33-12.66-11.07-11.75-15.19-26.14-10.7-42.35 4.57-16.52 15.49-27.35 31.59-31.24 24.61-5.95 46.91 6 54.74 30.31 3.06 9.52 2.14 19.1-1.93 29.09-5.26 12.91-14.11 20.51-26.37 25.35" class="mapGraphic-1"/>
  <path d="M967.32 686.11c-.17-.83.24-1.66-.47-2.52-14.52-17.66-26.45-37.1-37.3-57.1-5.03-9.27-9.5-19.06-11.39-29.85-1.63-9.28-.39-17.93 2.69-26.52 6.29-17.57 17.56-31.14 35.05-37.82 23.28-8.89 44.63-3.69 62.85 12.9 14.1 12.84 20.39 29.37 19.51 48.41-.33 7.06-2.96 13.61-5.91 20.01-12.38 26.76-28.38 51.2-46.93 74.06-1.4 1.72-3.02 3.05-4.65 4.35-2.02 1.62-4.66 1.81-6.38-.47-2.46-3.26-5.5-4.72-9.55-5.06-2.68-.23-3.85-3-5.54-4.87-5.18-5.74-10.29-11.44-17.44-15.1-18.14-9.28-39.84-2.24-50.64 10.49-10.09 11.89-12.97 25.66-12.91 40.58.05 11 .09 22-.03 33-.05 4.3 1.2 7.26 5.5 9.09 6.45 2.74 12.05 7.13 18.47 10.06 2 .92 4.1 1.44 6.07 2.35M910.32 785.11c.91 9.3 3.29 18.25 6.43 27.22" class="mapGraphic-1"/>
  <path d="M968.32 528.11c-6.7-3.99-13.65-7.96-21.33-9.48-20.8-3.74-35.01 3.95-46.08 22.5-11.55 17.79-13.36 44.14-29.09 58.97-15.15 12.67-30.66-.97-45.49-6.37-15.74-5.97-38.48 4.72-50.86 13.94-6.06 4.39-12.52 8.27-19.52 10.94-9.27 3.69-19.25 4.47-29.13 4.99M680.82 529.61c-2.87-7.97.09-15.33 3.66-21.91 7.69-14.17 20.39-21.79 36.34-21.87 15.85-.08 28.58 7.23 36.42 21.33 7.99 14.36 6.98 28.82-1.99 42.41-9.16 13.88-22.9 19.7-38.91 17.82-18.98-2.22-31.29-14.21-35.89-32.81-.37-1.5-1.9-4.86 2.36-5.11.82-.05 1.87-1.61 2.57-2.82 2.26-3.92 5.26-3.64 8.44-1.03M183.82 406.11c-11.04-12.94-20.54-26.9-28.67-41.75-15.26-29.19-58.57-81.31-29.33-143.69 2.8-6.15 5.72-5.98 11.37-7.71 1.69-.63 3.34-1.34 5.05-1.93 6.69-2.27 13.59-3.64 20.8-3.54 3.32.03 6.64.19 9.96.18 9.77.02 19.58-.65 29.35-.61 2.16-.18 6.14.65 6.93-1.95-.06-3.27-4.39-7.24-6.97-9.51" class="mapGraphic-1"/>
  <path d="M7.32 159.61c4.61 7.1 10.05 13.61 15.6 19.91 12.25 13.93 23.11 28.94 34.25 43.7 4.31 5.71 8.25 7.85 15.69 6.64 16.22-2.63 35.23-3 51.45-5.98M226.32 268.11c-1.31-10.77 4.43-18.72 12.14-24.3 18.06-13.07 41.72-5.65 49.7 14.86 6.42 16.49.29 32.03-16.43 40.26-17.39 8.56-35.38-.58-42.36-13.85-.31-.58-.79-.94-1.05-1.48-1.58-3.33-2.28-6.92-3-10.5-1.13-5.68 4.8-6.22 6.42-9.34 2.84-.7 3.3 2.01 5.07 2.34M915.82 813.11c-6.08 4.03-13.22 3.98-20.01 4.92-17.91 2.46-35.97 2.35-53.98 1.92-5.29-.13-10.72.24-16.05-1.17-2.14-.57-3.95-1.11-5.73-2.94 5.47-4.71 12.25-6.45 18.77-8.73 13.39-4.68 27.53-6.56 41.03-10.92 2.75-.89 5.43.85 7.97 1.94 7.48 3.21 14.88 6.62 22.51 9.47 1.12.42 2.13 1.75 3.5.51M932.82 712.11c10.72 13.29 21.09 26.86 31.93 40.06 3.01 3.66 6.39 5.3 11.05 6.08 12.8 2.14 25.82 2.6 38.53 5.32 1.28.27 2.72.24 3.99-.46M880.82 792.61c-.41-8.5-1.78-16.96-1.42-26.62 6.86 3.03 13.6 4.32 18.41 9.63q10 11.04 22 3.48c9.18-5.82 18.27-11.76 27.48-17.53 6.34-3.98 8.76-3.89 14.56 1.01 3.79 3.2 5.93 7.51 8.43 11.56 4.49 7.29 9.31 14.35 14.11 21.43.71 1.04 1 1.91.93 3.05M815.32 743.11c8.84-.96 17.85-3.09 26.46-2.44 6.15.46 12.36.59 18.54 1.01 2.39.16 4 1.66 4.03 4.43.06 6.03.94 12.01 1.52 18 .65 6.7-3.27 12.04-5.07 18-1.98 6.56-5.05 12.76-6.47 19.51" class="mapGraphic-1"/>
  <path d="M878.82 713.11c4.42 1.62 9.07 2.69 13.57 3.7 4.43.99 9.32-.8 13.96-2.11 10.89-3.07 21.74-6.39 32.98-8.09 11.96-1.81 24.02-.35 35.99-1.09 7.78-.48 11.2 3.7 14.1 10.05 7.18 15.74 17.3 29.75 26.94 44.02 9.84 14.56 20.62 28.46 30.45 43.03.62.92 1.48 1.76 1.77 3.26-3.6 1.21-7.03.13-10.25-.38-14.78-2.35-29.72-3.23-44.54-5.22-8.23-1.11-16.66-.92-24.98-1.65-5.27-.47-10.09 1-15.05 2.84-7.75 2.87-15.51 5.77-23.43 8.19-1.62.49-3.14 1.4-4.51 2.46" class="mapGraphic-1"/>
  <path d="M949.82 707.11c6.63 10.3 13.73 20.29 20.43 30.55 1.05 1.61 2.23 1.34 3.57 1.46 9.25.84 18.5.81 27.75 0M972.74 595.56c-2.28 3.15-1.55 5.9.6 8.54 2.92 3.6 4.8 6.99.56 11.09-1.51 1.46-1.61 3.45.31 5.53 1.62 1.76 3.11 3.76 5.15 4.83 12.39 6.52 14.95 16.79 12.01 29.58-2.99 13-7.23 25.14-19.04 32.99M859.82 710.61c-.52 4.52-1.16 9.03-2.01 13.5-.43 2.25-.86 4.57-3.99 4.51-11.68-.25-23.34.55-35 1.03-.65.03-.86-.8-1.5-.53M843.82 741.61c-2.68 5.42.29 10.7.73 15.98.31 3.64.02 5.14-3.72 5.57-4.18.49-7.4 3.13-9.41 6.5-4.17 7-11.31 8.56-18.1 10.94M133.32 150.11c8.76-3.41 17.93-2.6 27-2.4 2.44.05 4.35 1.88 6.04 3.87 12.1 14.25 24.2 28.5 35.96 43.07-.62 1.22-1.01 2.16-3.03 1.56-4.54-1.34-7.19.54-12.02.54-15.02 0-39.24-32.88-53.86-45.74-1.19-1.05-2.2-2.01-3.59-1.84-9.3 1.12-18.89.64-27.54 5.39-4.79 2.63-10.06 4.15-15.47 5.05M689.32 539.61c17.9-1.1 35.68 1 53.5 2.02 4.2.24 8.32-.6 12.5-.52M993.32 799.61c.22-3.95-2.2-6.86-4.01-10-4.25-7.37-8.16-14.92-12.84-23 5.5 0 10.2-.31 14.84.07 9.52.78 19.07 1.32 28.5 2.95.93.16 1.67-.31 2.5-.51M81.82 192.61c1.16-3.28-.49-6.07-1.48-9.01-1.49-4.47-.37-5.9 4.46-7.06 2.66-.64 5.49-.39 7.98-1.29 3.24-1.17 5.37.2 6.99 2.39 8.15 11.01 16.29 22.03 24.48 33.02 1.48 1.98 2.73 3.96 5.07 4.95M893.82 718.11c5.39 5.19 6.52 11.98 7.58 18.99 1.72 11.41 4.54 22.62 6.42 34.01M899.82 726.61c3.45.7 6.61-1.03 9.41-2.21 5.65-2.38 11.59-4.05 17.62-7.06 8.83 11.41 16.83 23.58 26.28 35.33-7.9 3.83-15.59 6.37-22.93 9.68-6.41 2.89-12.52 6.33-18.85 9.32-1.09.52-1.82 1.56-3.03.43M973.32 596.11c2.31 1.69 4.62 3.4 6.98 5.03 3.97 2.74 7.42 4.41 12.17.66 2.78-2.19 6.91-2.46 10.89-.81 4.16 1.73 8.68 2.59 12.95 4.11M43.82 161.61c4.32-2.1 9.01-.78 13.52-1.35 5.92-.75 11.98-.07 17.99-.52 3.31-.25 6.27-.8 9.28-3.06 2.88 6.3 8.97 10.37 10.21 17.43M8.32 160.11c6.98-1.11 14.01-.47 21-.37 2.64.04 5.22.84 8.02.5 2.57-.32 4.78.49 7.17 2.68 5.07 4.65 10.05 9.29 14.35 14.68 2.4 3.02 5.89 4.29 9.45 5.59 6.99 2.54 37.58 34.99 40.2 42.03M976.82 568.61c3.77.78 7.13 2.26 9.51 5.49 2.43 3.3 2.67 8.26.49 12.01-2.25 3.87-7 6.24-11 5.5-4.38-.81-10-7.56-10-12 0-5.13 3.69-9.22 9.51-10.47.28-.06.66-.03.99-.53M689.32 532.11c6.27-6.25 12.22-12.79 18.01-19.49.61-.71 1.36-1.31 1.99-2.01 2.96-3.35 4.81-3.45 8.02-.51 1.49 1.37 2.7 3 3.93 4.56 2.54 3.21 5.08 5.91 9.54 6.58 3.08.46 4.86 3.28 6.54 5.86 3.15 4.82 7.95 7.58 12.98 10.02" class="mapGraphic-1"/>
  <path d="M34.32 161.11c1.5 5.32 6.53 7.83 9.58 11.94 1.68 2.25 14.81 15.01 10.33 17.9-4.48 2.9-19.32-6.35-24.41-5.34M972.32 596.11c-6.76-5.8-7.91-4.21-12 .5-4.81 5.55-12.02 6.96-18 10.5M258.82 277.11c1.79 1.51 3.04-.31 3.94-1.08 6.3-5.38 13.24-2.91 20.05-1.83.5.08.82 1.52 1.02 2.4M739.32 528.11c2.09-2.09 4.17-4.18 6.3-6.3 6.05 2.34 10.18 7.21 15.7 9.8M707.32 518.11c1.48.37 3.22-1.65 4.58.66-1.5 4.38-5.82 7.02-7.73 11.72 2.28 2.03 7.6-1.93 8.15 3.62-.35 2.18-2.58 2.99-3.5 4.75M270.32 261.61c1.31-2.49 3.67-3.73 5.96-5.31 2.6 1.47 4.57 3.4 6.54 5.31" class="mapGraphic-1"/>
  <path d="M281.82 273.61c-3.99-7.15-10.89-10.95-17.54-14.93-1.98-1.18-2.95 1.21-3.37 2.45-2.58 7.51-8.88 12.13-13.58 17.97M249.82 272.11c-4.92-1.53-8.83 1.33-12.99 3.02-1.86.76-3.57 1.87-5.51 2.48M287.82 263.11c-4.06-.48-6.92 2.02-10 4" class="mapGraphic-1"/>
  <path d="M229.82 275.61c4.29-5.85 9.68-10.64 14.72-15.72 4.68 1.92 5.79 7.09 9.78 9.22M908.82 773.11c.63 3.51 1.04 7.06 2 10.5M713.32 508.61c.23 3.3-1.05 6.17-2.5 9M256.82 270.11c1.45 2.76 2.45 5.54.5 8.5M489.41 488.17c-6.38 1.29-14.18-2.11-14.85-6.28-1.21-7.57-6.68-11.98-11.6-16.84-3.58-3.54-7.6-6.61-11.06-10.3-.99-1.06-2.37-2.02-3.95-2.47-3.08-.89-5.58-.02-6.47 3.54-.66 2.63-.92 5.35-2.03 7.9-2.87 6.57-7.34 8.33-14.16 5.71-1.58-.61-3.02-1.99-4.96-1.53M470.71 445.13c-7.15-1.63-8.95-3.62-9.78-10.83-.42-3.64-2.73-5.81-7.59-6.93-4.02-.93-7.93-1.94-11.68-3.94-5.2-2.77-9.76-6.26-12.58-11.26-3.68-6.54-9.49-9.67-16.14-11.66-4.6-1.38-9.03-3.53-14.01-3.54-1.21 0-2.36.04-3.49.43" class="mapGraphic-1"/>
  <path d="M476.2 451.24c-5.05-15.21-10.82-30.15-16.33-45.19-1.72-4.69-3.73-9.27-5.31-14.01-.52-1.58-1.5-2.34-3.12-3.03-14.58-6.15-29.17-12.3-43.72-18.53-7.52-3.22-15.12-6.25-22.53-9.73-2.9-1.36-5.74-1.68-9.02-.53-16.38 5.77-32.89 11.2-49.41 16.58-1.04.34-1.77 1.28-3.02 1.31 12.49 42.05 25.05 84.04 37.96 126.34 4.19-2.21 8.65-3.61 12.89-4.87 7.22-2.15 14.27-4.74 21.42-7.04 8.38-2.68 16.76-5.41 24.96-8.61 2.59-1.01 4.94-.99 7.58.09 13.05 5.31 26.35 9.96 39.61 14.7 8.79 3.14 17.45 6.65 26.32 9.58 2.07.68 3.78.87 5.69 0 18.97-8.59 38.14-16.74 57-25.57 2.93-1.37 5.8-.92 8.53-.62 18.9 2.08 37.89 3.19 56.77 5.4 1.24.15 2.35-.14 3.78-.48-3.19-6.52-6.78-12.75-10.18-19.08-8.23-15.34-16.6-30.6-24.92-45.89-3-5.52-5.52-11.33-9.28-16.43" class="mapGraphic-1"/>
  <path d="M540.74 447.05c-1.02-.04-2.01.19-3.05.15-5.81-.25-10.21 2.09-12.98 7.35-1.99 3.77-4.69 7.26-8.46 9.05-7.92 3.76-12.88 10.26-17.65 17.1-2.23 3.19-4.72 6.12-8.47 7.63M586.44 468.69c.92-1.74 1.24-3.75 3.61-4.57 6.32-2.17 7.41-7.46 7-13.18-.38-5.2-3.48-8.62-8.27-10.51-6.53-2.57-13.41-3.5-20.34-3.98-3.55-.25-6.61 1.37-8.82 4.11-3.84 4.78-8.21 8.15-14.81 7.01-.74-.13-1.34.5-2.04.68M417.89 465.1c-2.27.3-3.97-1.32-6.06-1.77-9.29-1.99-19.29 3.62-22.46 11.89-1.83 4.77-4.5 8.45-8.03 11.89-3.32 3.24-6.25 6.84-6.76 11.75M480.39 379.46c1.65 2.45 1.79 5.37 2.34 8.11.79 3.95 1.95 7.75 4.17 11.04 2.63 3.9 6.96 5.15 11.33 5.04 3.82-.1 6.94 1.05 9.98 3.03 9.9 6.46 18.45 5.51 26.91-1.71.57-.49 1.17-1.17 2.1-1.08M519.32 420.08c-.02-2.78-2.11-3.25-4.16-3.52-2.52-.33-4.83.72-5.8 2.9-.78 1.77-2 2.3-3.42 3.06-.91.48-1.9.91-2.45 2.06-.47.99-.94 1.83-.56 2.93.47 1.35 1.87 1.44 2.72 1.28 5.42-1.03 10.91-1.9 16.03-4.07 1.41-.6 3.23-1.41 2.31-3.61-.95-2.3-2.74-1.29-4.33-.95" class="mapGraphic-1"/>
  <path d="M374.11 401.48c6.4-1.02 12.4-3.63 18.8-4.69.56-.09 1.03-.02 1.69 0 9.79 28.61 20.15 57.08 30.14 85.69M501.95 370.88c.27 3.95 3.05 6.76 4.72 10.05a870.96 870.96 0 0 0 14.74 27.85c.33.6.06 1.03.02 1.54M381.51 360.31c3.78 12.06 8.49 23.79 12.71 35.69.04.1-.04.24-.07.36M477.41 452.64c-.28 2.54 1.15 4.61 1.93 6.85 5.28 15.12 11.08 30.06 16.28 45.21.41 1.19 1.91 2.07 1.16 3.63" class="mapGraphic-1"/>
  <path d="M533.33 374.66c-10.71-2-21.56-3-32.31-4.75-.74-.12-1.29 0-1.98.32-14.38 6.42-29.1 12.04-43.43 18.6-.68.31-1.39.43-1.74 1.17M535.83 436.53c7.39 14.21 15.25 28.17 22.67 42.36.49.95.77 1.85.86 2.86M433.29 401.05c1.45.31 2.9.59 4.34.95 1.13.28 2.42.65 3.07-.5.59-1.06.24-2.1-.69-3.23-2.19-2.64-4.85-3.6-9.2-2.57-.2-2.46-.42-4.89-2.45-6.74-1.8-1.65-3.6-3.06-6.07-3.57-5.86-1.2-8.64 1.3-8.04 7.37M571.71 417.8c5.16 7.7 13.11 8.33 21.29 8.4M522.72 411.35c4.11 8.13 8.35 16.2 12.54 24.3M583.21 466.1c1.71 2.32 4.2 3.8 6.43 5.47 2.65 1.98 5.12 4.12 7.19 6.63 1.48 1.8 3.14 3.17 5.22 4.1M345.89 435.29c-46.35 6.34-87.58-45.45-87.58-79.17-7.45 7.21-17.22 10.28-26.57 13.27-17.82 5.7-31.72 15.77-41.48 31.69-1.21 1.98-2.7 3.9-4.44 5.54M456.18 445.76c1 2.43 3.38 2.35 5.37 3.14 1.42.56 2.87.8 4.29 1.23M420.55 421.39c-2.78-.59-5.54-1.26-8.4-1.47-.81-.06-1.38-.02-1.68.8M428.27 424.2c3.27 1.69 6.19 3.94 9.35 5.81M564.22 436.62c-.99-2.45-3.1-2.19-5.19-2.32-1.38-.09-2.97.34-4.16-.84M413.56 390.72c-5.09-1.1-7.3.08-8.57 4.58M500.15 447.34c-3.47 1.54-7.19 2.17-10.87 2.95M402.19 420.44c-3.31.89-7.01.1-9.99 2.38M566.85 448.93c-3.79-2.27-5.51-6.75-9.44-8.86M369.53 428.91c-1.66 1.78-3.79 1.85-5.71 2.71M518.11 441.39c-2.99 1.66-6.58 1.77-9.5 3.62M442.99 434.96c2.1 2.54 4.56 4.73 6.78 7.15M570.98 454.36c2.5 1.91 4.57 4.25 6.5 6.71M384.63 424.58c-2.99.43-5.55 2.23-8.54 2.69M541.44 435.09c-1.92.59-3.91.81-5.9.99M482.95 451.57c-3.78.47-7.56.32-11.32-.18M588.59 381.37c2.02-4.71 4.53-9.33 5.1-14.44 1.3-11.59-2.84-20.91-12.49-27.76-17.07-12.11-41.07-1.31-44.95 18.86-1.45 7.52.58 13.96 3.53 20.35 6.45 13.97 15.61 26.24 25.09 39.08 9.25-11.22 16.44-23.5 23.73-35.72" class="mapGraphic-1"/>
  <path d="M582.29 368.79c3.83-6.35 1.55-15.57-5.18-21.09-6.14-5.04-12.85-5.89-19.98-2.56-7.63 3.56-11.84 9.66-11.39 18.1.42 7.97 4.8 14.03 12.17 16.88 6.9 2.67 13.8 1.59 19.54-3.58 2.22-2 4.64-3.99 4.84-7.37" class="mapGraphic-1"/>
  <path d="M576.37 371.38c-4.88-5.39-9.68-10.84-14.26-16.87-4.94 4.73-8.58 10.66-13.87 15.02M570.08 363.24c1.18-1.17 2.35-2.35 3.48-3.48 3.26 2.81 5.24 6.44 8.36 9.03M574.52 349.92h-6.66" class="mapGraphic-1"/>
  <path d="M567.49 362.5c-1.12 1.52-2.91 2.05-4.11 3.08-1.68-.45-1.7-1.94-2.6-2.75-2.61.35-4.27 1.65-4.39 4.49M356.6 426.99c.71.43 1.57.73 2.08 1.33 1.32 1.54 2.23 3.16 0 4.82-1.69 1.26-4.45 1.19-5.5-.53-1.07-1.76-.44-3.16 1.05-4.76 7.33-7.84 14.32-16.05 18.98-25.79 3.88-8.11.32-17.26-6.46-22.17-6.38-4.62-15.39-3.85-20.84-.25-6.3 4.17-10.06 12.8-7.43 20.54 3.47 10.21 8.67 19.4 15.25 27.87" class="mapGraphic-1"/>
  <path d="M354.72 384.86c-9.16 3.03-11.47 11.3-4.87 17.4 2.83 2.62 8.08 3.25 11.4 1.37 3.4-1.93 5.65-6.44 4.96-9.96-.96-4.94-4.05-8.03-8.54-8.55-.86-.1-1.72-.15-2.58-.23M89.68 390.1c-8.59 8.03-18.44 13.39-30.49 13.16-16.05-.3-28.49-6.89-36.66-21.25-7.75-13.63-7.68-27.34-.3-40.62 7.88-14.19 20.55-21.71 36.96-21.32 16.13.38 28.58 7.57 36.06 22.27 6.45 12.66 6.83 25.32.18 38.19-.95 1.83-3.02 2.81-3.21 5" class="mapGraphic-1"/>
  <path d="M76.98 333.7c1.91 1.67 5.11 2 5.19 5.59.03 1.1 1.56 1.43 2.91 1.68 1.23.23 2.4 1.45 2.14 3.42-.24 1.78-.63 2.84-2.62 3.07-6.61.76-13.23.92-19.81-.09-2.28-.35-3.9-2.02-3.5-4.51.38-2.35 1.41-4.46 4.51-4.09 1.58.19 2.99 0 4.1-1.49 1.6-2.17 4.13-2.85 6.57-3.58M41.91 382.48c7-7.91 10.39-18.12 16.44-26.67 11.09 10.02 23.07 18.38 33.36 28.7M48.52 368.76c-2.17-1.34-4.1-3-6.28-4.7-6.83 5.07-11.92 12.11-18.62 17.4" class="mapGraphic-1"/>
  <path d="M68.34 366.22c-2.19.86-4.09 2.33-4.46 4.59-.36 2.23-1.76 3.73-2.71 5.71-3.44-.95-3.19-4.95-5.64-6.79-1.49-.53-2.85 1.12-4.46.55M43.44 345.89c2.22 1.6 6.13 2.19 4.98 6.07-1.13 3.81-4.79 2.3-7.52 2.56-.5.05-1.09.17-1.51-.02-2.06-.96-5.73.94-6.06-3.03-.3-3.66 2.44-3.46 5.02-3.63 1.62-.11 2.44-2.67 4.58-1.96M103.64 24.14c.66 13.13.37 26.27.43 39.41" class="mapGraphic-1"/>
  <path d="M113.92 55.41c-2.83-.77-5.04-2.55-6.79-4.76-.88-1.11-1.56-2.08-3.06-2.09M103.21 48.55c-3.36 2.18-5.44 6.2-9.86 6.85M112.64 46.41c-2.65-2.64-5.29-5.29-8.06-8.06-3.94 2-6.24 5.76-9.94 7.63M112.21 34.84c-2.58-.49-3.9-2.65-5.52-4.33-.79-.82-1.32-1.76-2.62-1.67M103.21 28.85c-2.8 1.72-4.52 4.67-7.29 6.43" class="mapGraphic-1"/>
  <circle cx="104.1" cy="44.11" r="27.72" class="mapGraphic-1"/>
  <path d="M103.47 116.71c-2.41.15-4.39-.57-5.95-2.54-13.7-17.22-26.09-35.27-34.75-55.61-6.76-15.88-.46-36.27 12.19-47.19C97.58-8.14 134.47.49 144.54 31.87c3.37 10.51 2.09 20.84-2.79 30.99-8.42 17.53-19.22 33.45-31.06 48.76M255.89 356.3c-2.85.18-5.19-.68-7.03-3-16.18-20.33-30.82-41.66-41.05-65.69-7.99-18.76-.55-42.85 14.4-55.74 26.72-23.05 70.3-12.85 82.19 24.21 3.98 12.41 2.47 24.62-3.29 36.61-9.95 20.7-22.71 39.51-36.69 57.59" class="mapGraphic-1"/>
  <g id="ePUSbr.tif">
    <path d="M809.32 521.45c2.67-1.02 6.14-.98 7.77-3.69.77-1.34.77-2.94.67-4.48-.37-3.4-3.48-5.22-6.72-4.6-1.97.32-3.62 2.05-4.06 4-.24 1.51-.3 3.27.16 4.68 1.11 2.48 3.21 4.4.64 6.89-1.95 2.02-2.87 1.64-5.41 1.11-1.24-.15-2.48-.15-3.64.24-2.08.72-3.83 2.65-4.21 4.84-.31 5.55-.28 11.15-.44 16.72-.02.84 0 1.68.25 2.48.52 1.97 1.51 3.31 3.64 3.5 1.56.25 3.56.8 4.96.08 1.24-.7 1.27-2.31 1.33-3.58l.12-5.15c.26-6.03 0-12.1.63-18.11M816.12 558.77c-2.59-.62-12.56-3.38-12.14 1.03-.49 8.23.14 16.57-1.22 24.69.1 6.48 1.16 9.58 8.11 6.29M819.71 557.6c5.7 8.4 5 18.97 4.8 28.67M814.02 572.69c6.89 8.33-2.96 20.64 13.22 19.52" class="mapGraphic-1"/>
    <path d="M809.28 523.02c1.32 1.15 2.96 1.7 4.46 2.55 1.28.78 2.14 2.09 3.15 3.18 2.53 2.59 4.71 2.99 8.1 1.91 1.12-.3 2.64-.69 3.37.4.4.59.45 1.41.2 2.07-.85 2.3-4.61 3.09-6.53 4.42-1.85 1.25-2.81.42-4.55-.44-1.42-.65-2.82-1.25-4.13-2.08-1.22-.76-2.45-1.52-3.88-1.83M820.15 538.6c0 1.51-.16 3.07.07 4.55.17 1.16.43 2.32.41 3.5-.03 2.15-.08 4.31-.12 6.46-.04 1.1-.02 2.3-.46 3.32-.7 1.79-3.22 1.44-4.11 3.05-1.03 4.2-2.56 8.56-2.03 12.98M836.31 524.8c1.83.01 4.48.15 4.6 2.41.04.94-.27 1.88-.41 2.8-.16.95-.1 1.94-.47 2.84-.47 1.14-1.63 2.2-2.85 2.26-1.19 0-2.31-.78-3.07-1.64-1.29-1.59-.38-3.69.19-5.42.49-1.26 1.21-2.42 1.9-3.56M812.74 573.6c-1.66 1.59-1.06 3.6-1.34 5.61-1.29 2.43-1.26 5-1.69 7.65" class="mapGraphic-1"/>
    <path d="M803.61 587.36c9.33-3.67 5.1 7.99 14.4 3.59M827.84 591.96c.77-6.45-5.59-5.7-9.87-4.37M828.42 530.18c.49-1.03 1.41-1.7 2.46-1.99 1.19-.44 1.9-.37 3.04.12M828.89 532.5c1.5.03 3.01.07 4.51.1" class="mapGraphic-1"/>
  </g>
</svg>