<?xml version="1.0" encoding="UTF-8"?>
<svg id="Layer_2" data-name="Layer 2" xmlns="http://www.w3.org/2000/svg" viewBox="0 0 606.26 93.81">
  <defs>
    <style>
      .cls-1 {
        fill: #0e75bc;
      }

      .cls-1, .cls-2 {
        stroke-width: 0px;
      }

      .cls-2 {
        fill: #676767;
      }
    </style>
  </defs>
  <g id="Ebene_1" data-name="Ebene 1">
    <path class="cls-2" d="M0,49.01v-16.38c0-5.05,2.64-7.65,7.82-7.65h9.72c5.19,0,7.82,2.59,7.82,7.6,0,.35,0,.48-.04.65l-7.73.91v-.26c0-1.73-.61-2.29-2.38-2.29h-5.06c-1.77,0-2.38.56-2.38,2.29v13.87c0,1.68.61,2.29,2.38,2.29h5.06c1.77,0,2.38-.61,2.38-2.29v-.3l7.73.95c.04.17.04.26.04.61,0,5.05-2.63,7.65-7.82,7.65H7.82c-5.18,0-7.82-2.59-7.82-7.65ZM69.64,49.62h-10.89l-1.99,6.61h-7.95l9.72-30.81h11.36l9.72,30.81h-7.99l-1.99-6.61ZM67.65,42.96l-3.41-11.41-3.46,11.41h6.87ZM136.64,25.42v30.81h-7.78v-17.93l-6.74,10.63h-2.72l-6.74-10.67v17.97h-7.78v-30.81h7.52l8.38,13.22,8.34-13.22h7.52ZM188.61,33.07v4.79c0,5.06-2.64,7.65-7.82,7.65h-8.86v10.71h-7.78v-30.81h16.63c5.19,0,7.82,2.59,7.82,7.65ZM180.84,34.32c0-1.73-.61-2.29-2.38-2.29h-6.52v6.87h6.52c1.77,0,2.38-.61,2.38-2.29v-2.29ZM222.05,32.03v5.14h12.27v6.61h-12.27v5.83h14.08v6.61h-21.86v-30.81h21.86v6.61h-14.08ZM274.1,45.3h-3.54v10.93h-7.78v-30.81h16.72c5.23,0,7.86,2.59,7.86,7.65v4.62c0,3.8-1.47,6.18-4.45,7.13l7.78,11.41h-9.07l-7.52-10.93ZM270.56,38.69h6.61c1.82,0,2.42-.56,2.42-2.25v-2.12c0-1.73-.61-2.29-2.42-2.29h-6.61v6.65ZM341.15,25.42l-9.33,30.81h-10.76l-9.38-30.81h7.95l6.78,23.25,6.78-23.25h7.95ZM381.11,49.62h-10.89l-1.99,6.61h-7.95l9.72-30.81h11.36l9.72,30.81h-7.99l-1.99-6.61ZM379.12,42.96l-3.41-11.41-3.46,11.41h6.87ZM442.71,25.42v30.81h-7.56l-11.02-17.93v17.93h-7.78v-30.81h7.52l11.06,17.93v-17.93h7.78Z"/>
    <path class="cls-1" d="M529.94,1.11v79.28h-22.28v-30.6h-23.73v30.6h-22.28V1.11h22.28v29.83h23.73V1.11h22.28ZM588.38,64.04l11.69,13.44c4.08-3.26,6.19-8.44,6.19-15.49V19.52c0-12.75-6.91-19.52-19.94-19.52h-26.41c-13.04,0-19.94,6.76-19.94,19.52v42.47c0,12.75,6.91,19.52,19.94,19.52h13.48l7.35,12.31h25.51l-17.89-29.77ZM583.98,58.96c0,2.04-1.66,3.69-3.7,3.69h-14.32c-2.05,0-3.7-1.65-3.7-3.69V22.54c0-2.04,1.66-3.69,3.7-3.69h14.32c2.05,0,3.7,1.65,3.7,3.69v36.43Z"/>
  </g>
</svg>