<svg xmlns="http://www.w3.org/2000/svg" id="Layer_1" data-name="Layer 1" viewBox="0 0 1015.24 743.74">
  <defs>
    <style>
      .expertGraphic-1 {
        fill: #fdeccc;
      }

      .expertGraphic-2 {
        stroke-linecap: round;
        stroke-linejoin: round;
      }

      .expertGraphic-2, .expertGraphic-3 {
        fill: none;
        stroke: #000;
        stroke-width: 2px;
      }

      .expertGraphic-4 {
        fill: #fff;
      }

      .expertGraphic-3 {
        stroke-miterlimit: 10;
      }

      .expertGraphic-5 {
        fill: #b2b1b3;
      }
    </style>
  </defs>
  <path id="XD3mEa.tif" d="M938.75 696.72c-6.23-4.38-7.88-2.14-13.89-2.01-17.56.08-36.44 1.7-51.65-7.82a.953.953 0 0 0-.75-.12c-42.23 10.48-88.28 3.36-131.38 6.85-.08 0-.15.02-.23.05-39.16 12.82-78.1-2.43-119.78-1.04-3.43.16-17.53 3.77-19.3.9-.62-1-.1-8.83-.91-12.06-.11-.45-.55-.75-1.01-.73-7.26.38-14.03 4.34-21.43 4.09-1.29-.04-1.45 1.9-.16 1.99 1.46.1 3.52-.37 4.83-.09 2.61.56 9.8 2.4 11.02 3.95 3.47 4.38.62 11.56-4.41 13.45-.04.02-.09.03-.14.04-56.7 14.68-115.5 23.78-171.61 39.38-.1.03-.2.04-.3.03-5.18-.29-10.71.43-15.83 0-40.81-3.39-89.85-14.27-131.02-21.28-.02 0-.04 0-.07-.01-17.81-4.48-133-17.92-138.02-29.15-.14-.31-.75-.56-.75-.56l.82-5.43c.71 0 1.19-.74.92-1.4-1.82-4.31-8.2-4.36-9.38-9.8L49.58 457.98c-1.34-4.36 2.15-9.2 5.63-11.46 7-4.54 12.18-1.13 19.44-.56 85.96 6.9 172.4 14.09 257.92 22.47.23.02.44.12.6.27 7.11 6.79 33.64 106.13 42.51 123.82.29.58 1.03.72 1.54.31 2.03-1.67 5.95-3.09 6.45-4.75.28-.93-.56-2.27-.23-3.34s5.63-10.92 6.55-12.28c4.88-7.17 17.44-13.42 20.77-18.9.07-.12.11-.25.13-.39 1.57-12.35 12.27-19.27 18.27-30.38.01-.02.02-.05.03-.07 6.24-13.29 7.58-17.34 15.81-30.08 7.6-11.76 8.66-24.47 14.56-36.38 3.59-7.25 9.65-13.02 13.36-20.59 6.69-13.62 8.19-29.02 13.94-42.99 8.38-20.36 33.57-62.12 51.89-73.96 4.66-3.01 13.25-5.48 16.83-8.15 1.75-1.3 1.92-3.6 4.8-5.19 4.67-2.57 15.23-6.19 20.73-8.24 9.86-3.68 20.32-3.97 27.7-12.52a.98.98 0 0 0-.27-1.49c-6.94-3.99-8.33-13.31-15.68-16.5a.92.92 0 0 1-.49-.46c-1.69-3.65-9.58-32.07-10.28-35.88-1.75-9.59.15-14.98-.59-23.38-.89-10.07-6.34-21.08-6.85-32.08-.68-4.19-1.4-31.27-1.27-33.93 0-.13-.02-.25-.06-.37-3.41-9.09-.69-19.21.2-28.75.06-.62-.47-1.1-1.09-1.08-3.23.09-4.94-5.06-6.29-8.26-7.22-16.53-10.78-37.36 6-48.27.29-.19.48-.51.46-.86-.19-2.95-6.2-6.49 0-15.23l.07-.1c13.26-15.54 48.08-33.3 68.88-33.4.27 0 .52-.1.7-.3.77-.85 2.07-3.21 6.8-3.71 24.5-2.15 66.74.29 78.72 25.66.1.22.28.39.5.49 26.51 11.24 27.98 25.53 29.23 52.03 0 .09.02.18.05.26 4.15 12.25 3.1 30.06.86 42.88-.26 1.41-1.02 2.22-1.91 3.03a.99.99 0 0 0 .2 1.6c25.4 13.61 15.75 68.48-12.78 70.52-.16.01-.31.06-.45.14-1.14.75-5.64 4.29-7.13 5.61-.29.26-.39.68-.27 1.05 3.18 9.64 1.04 21.24 3.21 31.64.09.45.48.76.94.79 12.87 1.06 21.73 23.14 28.99 31.22.14.16.33.26.54.3 26.1 5.26 63.28 28.59 87.6 40.82 13.31 6.55 18.18 14.98 30.25 22.3.16.09.29.23.37.39 8.92 17.28 20.79 51.81 23.43 72.8.05.42.35.75.76.85 14.64 3.37 37.07 2.47 44.54 17.86.04.09.08.19.09.29 14.81 81.86-6.99 177.44-17.84 259.74-.84 4.93-4.99 11.18.74 11.83" class="expertGraphic-4"/>
  <path d="M639.27 6.53c80.06 1.64 99.1 49.48 108.59 119.56 20.82 12.02 19.84 40.7 6.65 59.06-3.23 4.66-6.93 10.16-13.4 9.07l-.48-1.98c-5.06 5.83-15.35 9.28-17.66 16.79-.77.49-3.65.13-5.57.92-4.05 1.67-14.09 10.29-19.55 13.4-6.31 3.6-32.3 13.96-34.91 16.74s-.65 5.12-7.02 8.22c-6.01 2.92-16.76 6.05-16.71-3.73.02-3.82 12.29-8.95 15.79-9.25 2.52-.22 3.4 1.7 6.01 1.17 15.51-5.01 56.37-24.83 65.21-39.72 2.41-2.09 6.98-2.65 8.91-6.06-23.57-4.03-21.7-54.01-1.48-62.38l2.47 4.97C734.39 49.68 691.2 1.45 605.32 16.5c-1.8-1.96 1.61-1.96 2.19-2.25 9.56-4.69 21-9.06 31.76-7.73Z" class="expertGraphic-5"/>
  <path d="M413.94 612.89c-3.1 7.9-24.02 9.94-29.23 5.07-21.85-44.93-28.17-100.28-48.23-145.46-1-2.11-1.64-3.95-4.02-4.96L68.09 445.83c1.48-21.61 5.63-42.91 7.98-64.41 1.23-11.28-2.5-20.53 12.94-23 21.43-3.43 70.97 11.59 95.56 15.38 57.52 9.12 122.09 13.41 178.66-.89 2.05-.04 3.77.25 5.39 1.58 29.54 34.47 60.78 69 85.74 106.96 3.28 5.21 12.4 18.36 9.21 23.84-8.14 9.25-22.66 19.94-27.9 31-2.9 6.11-3.27 8.09.07 13.7 3.29 5.52 16.31 20.18 14.63 25.91-11.25 13.63-23.26 25.36-36.43 37.01Z" class="expertGraphic-1"/>
  <g id="IkvWtR">
    <path d="M391.01 648.41c-1.93-.37-2.57-2.06-2.94-3.51-3.87-15.19-9.06-29.99-13.72-44.93-4.81-15.43-10.33-30.67-15.25-46.08-8.22-25.71-16.39-51.42-25.14-76.96-2.95-8.62-3.26-8.14-12.44-8.62-10.19-.53-20.39-1.34-30.52-2.82-3.95-.58-8.03-.67-12-.86-9.69-.47-19.35-1.49-28.97-2.41-12.84-1.23-25.71-2.18-38.54-3.58-5.42-.59-10.99-.94-16.46-1.38-9.68-.78-19.4-1.18-29.03-2.74-4.25-.69-8.69-.73-12.99-.91-10.03-.42-19.97-1.75-29.98-2.36-11.51-.7-23.01-1.95-34.49-3.06-8.66-.84-17.41-1.11-26.04-2.65-4.58-.82-8.8 1.1-12 4.84-2.37 2.78-2.46 6.07-1.39 8.99C62.54 496 74.73 533.06 87.46 569.92c12.01 34.77 24.27 69.46 35.54 104.48 1.46 4.52 4.36 7.41 9.03 7.95 12.76 1.47 25.36 3.98 37.96 6.24 16.18 2.91 32.41 5.59 48.57 8.62 12.42 2.33 24.96 4.24 37.44 6.31 10.21 1.7 20.38 3.81 30.56 5.64 9.97 1.79 19.97 3.51 29.95 5.26 18.9 3.3 37.69 7.22 56.46 11.18 3.64.77 7.94.36 11.04 3.29M911.51 434.41c2.02 2.57 1.25 5.61 1.53 8.5.83 8.65 2.53 17.15 1.19 26.04-.83 5.5.88 11.31 1.15 16.97.29 6.15 1.98 12.59.34 18.41-1.47 5.2-1.76 10.41-2.76 15.57-2.38 12.24-4.21 24.54-4.41 37.01-.25 15.46-3.75 30.41-6.33 45.53-1.17 6.86-1.56 13.97-2.28 20.96-1.09 10.47-4.01 20.56-7.39 30.52-3.18 9.38-8.2 17.78-13.61 25.94-2.92 4.41-7.94 5.45-12.9 6.63-31.22 7.43-62.97 4.07-94.52 5.01-10.83.32-21.67.72-32.5 1.1-6.6.23-12.96 3.11-19.52 4.22-8.75 1.48-17.7 1.03-26.47.38-7.5-.55-15.04-1.6-22.51-2.82-5.35-.88-10.83-1.12-16.01-2.97" class="expertGraphic-3"/>
    <path d="M933.01 692.91c2.84-6.02 2.8-12.64 3.95-19.01 1.79-9.95 3.29-19.95 4.57-29.99 1.08-8.51 2.5-16.97 3.57-25.49 1.12-8.84 2.3-17.67 3.43-26.51.9-6.99 1.67-14 2.45-21.01 1.3-11.65 2.35-23.33 3.6-34.99.96-8.99 1.55-18.01 2.34-27.02 1.64-18.62.93-37.32 1.14-55.99.09-7.76-.74-15.43-2.15-22.98-1.62-8.67-6.57-14.66-15.37-17.62-10.28-3.46-20.86-4.79-31.53-5.9M385.26 729.41c-1.41 1.74-5.8 2.81-8.75 1.99-8.69-2.42-17.7-3.14-26.51-4.94-12.13-2.49-24.37-4.48-36.53-6.83-9.93-1.91-19.96-3.52-29.95-5.28-8.37-1.47-16.69-3.39-25.04-4.73-10.01-1.61-20.01-3.35-29.95-5.28-10.01-1.95-20.03-4.02-30.06-5.67-10.17-1.67-20.28-3.67-30.43-5.42-10.03-1.73-20.21-2.91-30.04-5.78-1.57-.46-3.38.26-4.99-.53-2.89 6.92-1.58 9.13 5.5 10.53 15.33 3.02 30.68 6.01 46.04 8.76 14.28 2.55 28.65 4.84 42.93 7.39 14.18 2.53 28.39 5.02 42.57 7.6 10.92 1.99 21.96 3.6 32.93 5.39 10.86 1.77 21.74 3.57 32.58 5.56 7.06 1.3 14.28 2.27 21.45 3.3 7.86 1.13 15.69 2.77 23.53 3.73 8.33 1.02 16.57 2.8 24.97 3.21 1.75.09 2.93.23 3.71-2.42 1.28-4.33 5.51-7.81 2.43-13.15-.62-1.08.26-3.02 2.82-3.56 5.48-1.17 11.04-1.85 16.54-2.79 13.34-2.28 26.7-4.46 40.03-6.82 10.45-1.85 20.91-3.83 31.44-5.36 7.38-1.08 14.67-2.95 22.02-4.35 11.01-2.1 22.06-4.08 32.97-6.62 9.52-2.22 19.52-2.36 28.56-6.83 4.05-2 6.25.17 6 4.92-.23 4.39-1.91 6.91-6.51 8.1-15.75 4.07-31.7 7.2-47.54 10.83-10.96 2.51-22.03 4.6-32.94 7.24-15.8 3.83-31.76 6.95-47.55 10.79-13.28 3.23-26.75 5.63-40.04 8.82-2.53.61-5.51 2.39-8.45.72M56.01 454.41c11.74.2 23.35 1.8 35.02 2.79 5.3.45 10.66.89 15.97 1.34 9.34.8 18.73 1.26 28.03 2.76 4.09.66 8.35.69 12.49.91 9.36.49 18.68 1.48 27.97 2.4 12.17 1.2 24.39 2 36.55 3.57 5.22.67 10.66.82 15.96 1.34 9.5.93 19.05 1.33 28.54 2.69 4.4.63 8.97.99 13.47 1.14 9.36.32 18.62 1.77 27.99 2.24 7.32.36 14.61 1.86 22.01 1.81M590.51 295.91c-.89 1.44-1.88 2.69-3.48 3.53-8.36 4.41-17 9.09-26.09 10.51-8.16 1.27-14.64 4.69-21.45 8.42-8.74 4.79-14.42 12.41-20.67 19.87-12.57 14.98-20.85 32.4-30.22 49.21-5.51 9.9-7.31 21.22-10.53 31.97-3.3 11.06-7.74 21.51-15.11 30.44-6.07 7.37-7.99 16.47-10.76 25.1-2.43 7.57-5.08 15-10.33 20.81-5.63 6.24-9.17 13.28-11.32 21.14-2.45 8.95-8.52 15.5-13.99 22.53-2.92 3.76-6.57 7.42-5.56 12.95" class="expertGraphic-3"/>
    <path d="M324.51 481.41c6.33 19 12.8 37.96 18.97 57.01 8.17 25.22 16.83 50.28 25.01 75.5 9.83 30.33 19.92 60.58 29.58 90.98 2.06 6.49 3.89 13.03 5.94 19.52.61 1.94 1.33 3.82 2.51 5.5M916.51 505.91c1.59.92 1.46 2.44 1.52 4 .67 17.02-.45 34.03-1.27 50.99-.84 17.33-3.54 34.51-7.5 51.57-4.76 20.52-11.43 40.3-18.72 59.95-1.65 4.44-3.32 8.88-4.58 13.48-1.28 4.66-.74 5.88 4.05 6.49 11.13 1.42 22.33 1.22 33.49.89 4.14-.12 8.34-2.61 11.58 2.08.27.39 1.59.05 2.43.05 25 0 50 0 75 .03.92 0 1.67-.33 2.5-.53M753.51 124.41c3.26-3.11 1.8-7.53 2.13-11.04.62-6.59 1.84-13.26 1.36-19.96-.31-4.43-.58-8.86-2.47-13.01-1.17-2.56-.59-5.35-.46-7.99.48-9.2-1.18-17.91-5.59-25.99-4.79-8.77-11.63-15.3-21.51-17.88-1.56-.41-2.47-1.22-2.89-2.17-6.22-13.91-18.54-18.64-32.06-22.04-13.05-3.29-26.3-3.41-39.5-2.64-3.67.21-8.14-.71-11.52 2.21M436.01 546.91c2.75 2.31 6.39 1.72 9.54 2.91 11.01 4.17 20 11.25 28.43 19.13 5.85 5.47 11.37 11.29 17.03 16.96 1.7 1.7 3.3 3.54 6.3 3.51 2-4.82.02-9.24-1.84-13.5-7.42-16.92-21.87-25.24-38.49-30.41-7.56-2.35-14.98-2.71-23.14.46-6.26 2.43-13.29 3.52-19.89 5.76-4.44 1.51-6.97 4.77-9.85 7.76-1.4 1.45-3.15 2.09-4.43 3.12-6.09 4.91-12.59 9.79-14.17 18.29M876.51 339.41c-1.41 2.59-4.1 3.43-6.52 4.46-15.43 6.54-27.25 17.45-38.1 29.94-7.61 8.76-14.38 17.97-19.84 28.13-6.65 12.37-10.69 25.6-13.15 39.46-2.42 13.6-4.49 27.26-3.66 41.01.51 8.54-.66 16.71-1.73 25.01" class="expertGraphic-3"/>
    <path d="M881.01 338.41c-.83.86-2.26 1.07-2.98.9-14.36-3.36-25.82 3.6-36.41 11.26-19.14 13.84-30.17 33.84-38.57 55.36-5.41 13.85-8.99 28.18-11.28 42.95-1.01 6.49-.43 13.34-3.27 19.54M741.51 242.41c-4.54 10.85-10.91 20.5-18.42 29.57-6.88 8.3-14.1 16.18-22.03 23.48-9.16 8.43-18.49 16.63-28.63 23.84-2.75 1.96-2.56 4.85-3.76 7.19-4.36 8.56-8.31 17.35-10.24 26.9-.69 3.43-3.35 6.12-3.65 10-.22 2.81 1.71 4.72 1.35 7.53-1.1 8.65-1.96 17.34-2.94 26.01-1.02 9-2.11 18-3.32 26.96-1.37 10.16-1.94 20.42-3.76 30.54-.73 4.06-.57 8.31-1 12.49-1.67 16.61-1.35 33.32-.98 49.98.14 6.18.9 12.47 2.75 18.54.54 1.79.51 4.03-.39 5.97M695.51 44.41c-.44 1.11-1.02 1.84-2.17 2.62-4.62 3.11-9.47 5.91-13.82 9.4-6.3 5.05-14.12 6.03-21.54 7.87-6.13 1.52-12.2 3.08-17.96 5.64-12.44 5.54-24.64 5-37.05-.42-7.17-3.13-14.72-3.87-20.91 2.45-4.01 4.09-6.01 9.36-7.04 14.96-1.91 10.41-1.92 21.01-3.04 31.49-.55 5.16-2.21 10.15-1.11 15.53.45 2.19.92 4.16 2.15 5.97" class="expertGraphic-3"/>
    <path d="M643.01 513.41c-12 0-24.03-.48-35.99.15-9.38.49-18.89.82-28.05 3.72-1.77.56-2.88 1.38-4.34 2.38 2.83 5.61 8.36 6.16 12.92 7.61 12.73 4.04 25.86 6.6 38.97 9.05 5.91 1.1 11.56 3.08 17.46 4.19 3.03.57 4.24 2.99 4.11 6.39-.28 7.32.27 14.69-.18 21.99-.51 8.39-1.97 16.71-3.34 25.02-1.09 6.6-2.91 13.17-2.06 19.99M534.51 376.41c-1.19 5.87.37 11.68.42 17.5.2 23.83-.28 47.67.23 71.5.27 12.54.91 25.17 3.83 37.51.71 2.98-.16 6.01-1.98 7.75M131.01 690.41c-43.65-2.09-87.33-.51-131-1M627.01 290.41c1.5 0 3.07-.29 4.49.05 10.68 2.52 20.66 1.34 29.46-5.61 1.44-1.14 3.08-2.33 4.51-1.82 3.84 1.38 6.51-.8 8.98-2.7 5.4-4.15 10.71-8.35 16.47-12.06 4.2-2.7 8.09-5.97 11.29-10.21a86.63 86.63 0 0 1 9.18-10.27c10.1-9.67 14.73-22.12 15.44-35.88.15-2.96.92-5.6 2.79-6.82 3.66-2.37 6.54-5.54 9.81-8.26 1.31-1.09 3.08-1.95 4.04-1.75 6.27 1.27 9.91-2.74 12.93-6.73 9.6-12.71 14.21-26.97 10.49-42.9-1.7-7.29-4.6-14.28-12.39-17.52-2.46-1.02-3.13-3.37-3.42-5.51-1-7.17-1.96-14.34-2.99-21.5-1.62-11.26-4.53-22.1-9.14-32.46 0 0-11.97-33.14-29.46-44-12.56-7.8-25.37-13.81-39.97-16.07-8.3-1.28-16.76-1.1-24.97-2.25-10.8-1.51-20.8.94-29.9 5.1-13.97 6.39-28.29 12.7-39.64 23.69-7.44 7.2-7.54 9.21-2.88 19.25-4.69 3.12-9.11 6.61-11.12 12.25-2.18 6.08-2.39 12.35-.89 18.48 1.53 6.28 3.12 12.6 5.8 18.57.42.94 1.08 1.31 1.6 1.95M532.51 387.91c-3.14 4.36-2.68 9.66-3.35 14.52-1.7 12.24-1.3 24.72-2.53 36.94-1.27 12.67 2.01 24.4 3.29 36.55 1.09 10.29 3.84 20.26 5.05 30.5.15 1.3 1.12 1.96 1.55 2.99M883.51 335.41c-4.92-10.65-13.77-17.5-23.56-22.9-22.46-12.39-45.83-22.99-68.95-34.08-6.65-3.19-13.3-6.41-19.95-9.61-1.92-.92-2.12.54-3.05 1.09" class="expertGraphic-3"/>
    <path d="M607.01 16.41c1.86 1.17 4.36 1.76 5.91.85 2.96-1.73 6.24-1.23 9.12-1.57 14.01-1.66 28.04-1.55 41.98 1.66 20.8 4.78 37.62 11.64 50.84 32.19s21 48.19 22.22 58.37c1.02 8.49.92 17.04 1.92 25.51M663.26 574.91c.21 3.45 2.86 2.46 4.75 2.47 16.33.06 32.69-.49 48.99.17 19.21.77 38.45 2 57.02 7.82 1.64.51 2.94 1.25 3.99 2.54M678.51 133.91c-2.36-5.85-7.91-6.67-12.97-8.58-10.14-3.82-20.35-2.98-30.49-.77-3.25.71-6.85 2.35-7.93 7.04 2.55 4.5 6.77 6.05 12.4 5.12 3.61-.59 7.32-1.14 10.98-.77 9.74.97 19.27-2.53 29-1.29M572.51 146.41c2.65 5.95 2.54 12.35 1.86 18.48-1.36 12.15 1.49 23.61 4.78 34.98 1.57 5.43 2.11 10.41 1.07 16.08-1.15 6.31.93 12.68 2.22 18.98 1.35 6.57 4.23 12.6 6.17 18.96.72 2.34.27 4.7 1.17 7.12 1.02 2.73 1.04 5.37 4.7 6.04 1.2.22 1.74 2.16 2.56 3.35 5.34 7.79 11.52 14.66 20.97 17.49 2.89.86 6.01 1.02 8.49 3.04M499.51 605.91c7.55-.41 11.67-5.62 14.36-11.56 4.11-9.08 10.3-16.48 16.54-24.02 3.27-3.95 5.91-8.5 8.53-12.96 1.98-3.35-.56-6.82-1.21-9.91-5.17-24.73-16.84-46.24-34.28-64.51-5.03-5.27-10.4-10.36-17.95-12.06-5.15-1.16-8.48 2.34-6.99 7.51 2.64 9.18 8.25 16.75 13.51 24.49 8.23 12.13 17.17 23.77 24.49 36.51 5.54 9.65 10.22 19.57 10.58 31 .01.32.29 1.2.92 1.5M729.01 195.41c7.2-1.92 11.46-7.71 16.51-12.48 2.2-2.08 3.53-4.67 7.43-5.35 3.61-.63 5.62-4.94 7.07-8.66 3.01-7.68 2.59-15.46-.13-22.96-1.91-5.28-5.6-9.39-11.89-9.5-4.78-.08-10.56 4.95-11.89 10.98-1.44 6.56-1.93 13.3-.11 19.98 1.72 6.3 5.64 10.37 12.01 12M505.01 699.91c-4.52 2.48-9.66 2.44-14.51 3.43-13.99 2.86-27.98 5.76-41.98 8.6-11.18 2.26-22.44 4.13-33.52 6.9-.2.05-.65-.6-.98-.43" class="expertGraphic-3"/>
    <path d="M713.51 151.41c-1.48-1.37-1.61-3.13-1.51-5 .39-7.03-1.61-13.71-2.88-20.52-1.12-6-3.93-10.37-9.06-13.55-1.38-.86-2.75-1.86-4.07-2.89-5.88-4.59-7-9.12-5.63-16.57 1.02-5.52 3.15-11.15.71-16.99-2.56-6.13-6.9-9.41-13.55-9.45-2.01-.01-3.85-.35-5.5-1.53M791.01 591.41c-.03 1.39 1.14 2 2.02 2.45 15.21 7.91 28.35 18.71 41.53 29.48 2.26 1.85 4.57 4.16 8.43 4.12.23-6.48-3.97-10.71-7.54-15.01-9.51-11.48-22.76-16.69-36.44-21.05-5.57-1.78-11.71-.26-17.17-3.73-1.83-1.17-5.23 1.58-7.89 2.6-4.23 1.62-8.99 1.82-13.45 1.98-11.88.42-22.95 3.82-34 7.64-6.73 2.33-13.07 5.51-19.53 8.45-5.4 2.46-11.04 3.78-16.98 1.11-12.44-5.6-24.78-2.4-36.95 1.1-2.51.72-5.14 1.51-7.57 2.8-4.35 2.31-9.4 1.62-13.98 1.79-7.84.29-15.72.72-23.46 1.54-7.34.78-14.79-.16-22.05 1.66-1.86.47-2.84 2-4.69 2.65 1.86 4.03 8.25 5.11 7.17 10.91 3.98 1.33 5.74 4.46 7.68 7.94 3.69 6.64 5.67 13.56 5.87 21.07.04 1.7.04 3.35-1.51 4.5" class="expertGraphic-3"/>
    <path d="M737.01 121.91c-11.39 1.87-16.39 9.79-19 20-.98 3.84-.68 8.05-3.03 11.48-1.26 1.82.06 3.16.6 4.5 1.9 4.74 1.8 8.74-.77 13.67-2.75 5.28-3.18 11.75-5.78 17.36-4.7 10.16-8.99 20.51-18.94 27.1-2.43 1.61-5.06 2.36-7.62 3.25-1.66.58-4.25.94-5.42-1.37-6.29-12.42-18.35-18.7-28.53-26.99M790.01 388.91c-2.21 9.16-5.7 17.95-6.82 27.46-.32 2.76 1.28 4.47 1.03 7.06-.64 6.77-.26 13.65-.2 20.48.03 3.35-.08 6.66.8 10.05.6 2.3 1.11 5.34-1.33 7.45M517.01 646.91c-.5 0-1.06-.15-1.49.02-14.44 5.53-29.93 8.62-42.53 18.45-2.91 2.27-5.57 4.7-8.05 7.46-4.18 4.65-8.39 9.5-14.92 11.07-2.71.65-5.28.93-8.03-.42-4.34-2.14-5.61-6.09-2.45-9.55 8.81-9.67 17.23-19.74 27-28.5 7.11-6.37 16.21-9.23 24.53-13.42 3.84-1.94 7.61-4.25 11.95-5.09M796.51 487.41c3.9-3.66 4.32-9.02 6.39-13.55 6.6-14.44 14.81-27.66 26.59-38.47 1.62-1.49 3.19-2.89 5.55-3.03 2.45 2.57.36 4.93-.61 7.01-4.27 9.18-10.17 17.42-15.35 26.08-1.18 1.97-3.71 4.2-1.15 6.97 12.26-3.83 22.9-11.93 36.1-13.34-1.91 4.34-5.2 7.09-8.52 9.82-12.14 9.99-24.14 20.14-33.99 32.51-4.54 5.71-7.79 12.26-11.69 18.37-3.94 6.18-5.08 13.29-8.32 19.61" class="expertGraphic-3"/>
    <path d="M737.01 127.91c-3.7.02-5.89 2.26-8.05 4.96-5.07 6.34-7.04 13.77-7.9 21.54-.8 7.25.23 14.49 2.07 21.46 1.24 4.7 3.6 9.11 7.35 12.56 1.29 1.19 2.9 2.17 3.53 3.97M517.01 374.41c.57 12.04 1.54 24.02 2.78 36.02.98 9.5 2.72 18.93 3.16 28.48.07 1.51 1.01 2.35 1.56 3.5M538.01 511.41c2.23 10.86 4.47 21.71 6.9 32.52 3.07 13.62 6.11 27.24 5.25 41.49-.64 10.57 1.86 21.03 3.43 31.48.19 1.25-.56 1.99-.58 3.01M664.01 574.91c6.52-4.01 13.97-5.74 21-8.5 8.21-3.23 16.62-5.94 24.54-9.91 1.92-.97 3.47-2.17 5.05-3.34-1.32-3.63-4.92-3.28-7.12-3.48-3.99-.36-7.96-1.1-11.96-1.42-11.17-.88-22.34-.84-33.51-.85-17.44-.03-34.75 1.32-52.02 3.85-5.94.87-11.7 2.18-17.49 3.62-2.65.66-4.83 1.88-6.63 4.38 5.46 6.1 13.4 7.68 20.68 10.02 11.55 3.72 23.58 5.65 35.46 8.1 1.28.26 2.66.04 3.99.04M765.51 278.91c-3.63 3.04-4.65 7.68-6.94 11.53-9.15 15.39-19.1 30.27-28.56 45.47-1.63 2.61-3.96 4.97-3 8.5" class="expertGraphic-3"/>
    <path d="M738.01 237.91c3.69-1.73 6.03.98 7.92 3.07 8.02 8.89 15 18.59 21.18 28.86.39.64.39 1.15.35 1.56-.82 7.79-.81 15.78-4.46 23-8.47 16.73-18.73 32.49-31.32 46.2-6.29 6.86-11.95 14.33-18.37 21.23-3.16-2.01-4.51-4.91-6.3-7.42-7.23-10.17-14.94-19.86-24.95-27.56-3.68-2.83-7.38-3.2-11.55-1.94M405.01 680.41c9.71 3.76 19.94 5.59 30.02 7.93 10.36 2.41 20.98 3.48 31.5 4.93 10.18 1.4 19.5-1.56 27.5-8.34 10.12-8.59 22.36-12.51 34.98-15.52M614.51 287.41c-13.61 19.57-16.26 42.1-17.93 64.97 9.36-8.15 14.86-19.37 24.22-27.08 8.82 4.29 13.7 11.96 18.77 19.57 3.96 5.94 8.39 11.59 14.94 15.04M716.51 170.41c2.36 2.74 2.02 6.33 2.98 9.5 1.82 6.01 6.03 10.65 8.95 16.17-2.74 7.18-9.53 10.43-15.5 14.22-14.88 9.46-30 18.58-46.93 24.12-.77.25-.95 1.49-2.01 1.48M656.01 688.41c-.05-3.96 3.81-5.61 5.14-8.94 6.2-15.57 1.36-29.67-5.25-43.5-1.78-3.73-4.27-7.23-6.83-10.6-1-1.32-1.81-2.44-3.57-2.45M888.01 344.91c3.28 1.43 3.61 4.86 4.96 7.52 7.09 14.05 11.18 29.14 13.91 44.5 2.02 11.36 3.49 22.96 3.3 34.47-.08 5.05-1.23 10.3-1.14 15.5.11 5.76 1.23 11.39 2.42 17.01.31 1.49.77 2.67 2.05 3.49" class="expertGraphic-3"/>
    <path d="M641.01 615.91c6 13.13 11.41 26.5 14.94 40.52 1.68 6.69 1.01 13.64 1.07 20.48.02 2.18-.16 4.37.5 6.5M726.01 209.91c-1.71.1-3.43-.3-5.02.98-15.63 12.59-33.77 20.63-52.03 28.4-1.09.46-1.66 1.71-2.95 1.63M627.51 297.41c2.42 4.35 1.71 9.52 3.54 13.98 3.51 8.56 7.34 16.97 11.93 25.04 2.36 4.15 3.96 8.7 6.13 12.93 1.16 2.24.84 4.34.9 6.55M395.01 661.91c-.64 6.69 2.83 12.39 4.57 18.48 3.75 13.07 8.32 25.9 11.93 39.02M658.51 215.91c-4.1 7.19-11.12 10.13-18.53 11.9-9.52 2.27-19.13 3.51-28.53-1.3-2.74-1.4-4.56-3.4-6.49-5.56-3.04-3.41-7.24-2.74-7.81 1.49-.61 4.58-1.71 9.27-.66 13.98M845.01 585.41c-.84 1.48-2.3 1.14-3.49.96-9.63-1.41-19.39-2.03-29.03-2.56-6.63-.37-12.73-4.45-19.47-2.37-3.79 1.17-7.81 2.08-10.01 5.97M589.01 632.91c-.69 2.02.09 3.74.98 5.51 3.71 7.3 5.45 15.35 8.39 22.84 2.68 6.81 2.96 13.01 1.53 19.63-.75 3.45 2.53 6.3.46 10.21-.8 1.5 3.67 2.79 6.12 2.25 15.59-3.39 31.33-1.35 48.07-2.08-.08.05-.02-1.27.94-1.87M497.01 604.41c3.6 3.33 4.57 4.01 15.51 5.92 12.39 2.17 24.32 6.11 36.44 9.24 13.15 3.39 26.09 7.67 39.04 11.83M661.01 201.91c-8.68.75-17.33.58-26.01-.4-4.27-.48-9.29-2.23-12.82.16-3.71 2.51-6.74 3.18-10.68 1.76-8.76-3.17-12.33-6.08-9.61-15.55 2.05-7.15 4.23-14.29 5.95-21.51 1.11-4.65 2.77-9.39 1.77-14.48-.47-2.42-2.67-4.03-2.57-6.48.25-6.33-.51-6.82-6.52-7.6-7.42-.96-14.68.32-22.01.53-4.29.12-12.82 3.9-6.97 22.1" class="expertGraphic-3"/>
    <path d="M666.01 233.91c-1.12-3.59-1.07-7.37-1.97-11.01-1.74-7.01-6.09-9.8-12.51-7.44-5.05 1.85-10.32 2.08-15.51 2.98-9.13 1.57-18.33.82-27.5.93-1.35.02-2.3.83-3.5 1.05M449.01 637.91c-.61-.35-.65-.98-.48-1.49 7.5-22.42-11.96-43.02-30.02-48-.31-.09-.67-.04-1 0-9.55 1.13-18.94-2.09-28.51-1.08-1.39.15-2.17.72-2.99 1.58M585.51 690.41c-2.25-3.52-6.04-1.66-9.04-2.34-4.19-.94-7.97-2.89-12.42-3.48-6.87-.9-13.77.27-20.54-1.17-8.26-1.76-16.78-1.88-25.01-3.95-3.41-.86-7.31 1.22-10.49-1.56M499.26 607.91c-14.69 5.91-29.21 12.18-42.75 20.5-1.73 1.06-3.23 2.63-5.5 2.5M847.01 585.41c-6.41-5.73-14.45-6.58-22.46-8.2-7.81-1.59-15.05.62-22.54 1.19-1.05.08-1.29 1.07-2 1.51M666.01 136.91c3.19 2.1 7.79 2.3 8.8 7.44.18.9 3.89 1.96 6.73 1.19 9.83-2.66 19.5-5.96 29.46-8.13" class="expertGraphic-3"/>
    <path d="M394.01 601.41c-2.22 11.07-4.15 22.08-2.19 33.53.74 4.29.83 8.96-.24 13.48-.83 3.52 3.21 12.08 5.93 13.48 6.44 3.31 11.95.14 13.61-6.97 1.89-8.14-.33-16.46 1.85-24.54 1.7-6.28 3.76-12.49 4.54-18.99M493.01 615.91c-12.78 5.96-25.77 11.32-37.68 19.22-7.37 4.89-12.83 11.23-18.78 17.32-2.57 2.63-4.52 5.89-8.05 7.44-.96.42-1.36 1.41-1.41 2.03-.28 3.53-2.12 6.22-3.98 9.06-.95 1.44-2.11 3.52-.58 5.42 1.5 1.87 3.74 2.45 5.98 2.47 3.28.04 5.86-2.38 9-2.95M792.51 508.41c-3.91 8.99-6.1 19.11-3 27.82 3.51 9.84 1.22 17.91-1.45 26.7-1.18 3.87-1.38 7.99-2.06 11.98-.21 1.24.97 1.45 1.37 2.09 1 1.59 3.17 2.43 3.13 4.67M781.51 419.41c-2.5 5.07-2.1 10.67-2.33 16.01-.26 5.99 1.1 12.03 1.56 18.01.33 4.41 2.42 7.74 3.87 11.44 2.22 5.69 3.29 11.54 3.91 17.54M643.51 250.91c5.65 2.49 17.93-1.11 21.56-5.95 2.36-3.14-.32-5.24-1.21-7.49-.86-2.17-3.45-3.65-5.82-2.95-4.65 1.36-9.11 3.35-13.55 5.36-3.69 1.68-2.87 5.03-2.27 7.48.48 1.96 1.56 3.67-.76 4.44-2.05.68-4.15-.23-4.41-2.89-.09-.93-1.18-1.02-1.08-2 .39-3.59-.34-6.82-4.49-7.41-2.76-.39-5.6-2.64-8.54-.15-.48.41-1.62.11-2.45.05-3.95-.27-5.41 1.95-5.49 5.51-.04 1.83 0 3.67 0 5.5M605.01 138.41c1.95-5.73-1.57-11.51-8.01-11.89-8.89-.52-17.97-.99-25.49 5.39M504.01 652.41c-.73 1.94-2.45 2.86-3.99 4.01-12.21 9.12-23.14 19.52-32.05 31.92.94 1.18 2 2.19 2.54 3.57M628.01 287.41c-4.71 12.8-3.48 25.49 1.15 37.94.73 1.97.76 3.68.85 5.56M581.01 68.41c-7.41 3.71-9.07 10.85-11.08 17.98-1.79 6.37.23 12.99-1.87 19.29-.53 1.59 1.28 3.01.95 4.73M582.01 49.41c6.88 1.78 12.41 6.19 18.51 9.47 6.64 3.57 12.91 7.97 20.49 9.53M413.01 590.91c2.48 1.83 4.91 3.7 7.01 5.99 9.02 9.84 19.7 17.95 28.99 27.51M594.01 34.41c17.66 2.19 31.19 12.37 44.53 22.97.9.72 1.56 1.35 1.47 2.53M608.51 284.41c-5.1 4.84-11.3 9.61-17.57 10.51-10.78 1.55-19.54 7.33-29.43 10.48-2.54.81-4.88 1.83-6 4.51" class="expertGraphic-3"/>
    <path d="M605.01 38.41c11.84 11.77 24.61 21.94 42 24M732.51 204.41c1.41 1.58 1.68 3.44 1.52 5.5-.62 8.26 1.32 16.36 2.33 24.45.41 3.31-.03 7.72 3.15 10.54M432.51 623.41c-2.39 8.15-7.02 15.38-9.52 23.49-1.93 6.25-1.12 9.23 4.02 13.51M481.01 693.91c.78.58 1.16 1.7 2.5 1.52 5.56-.75 10.99.79 16.48 1.18 4.64.33 9.14 2.61 14.01 1.8M530.01 668.41c-.53 2.14 1.12 2.28 2.47 3.06 6.24 3.6 12.71 6.71 19.57 8.82 2.03.63 3.14 1.86 4.46 3.12M599.01 679.41c-2.48-.68-4.71.25-7.01.98-5.04 1.58-10.07 3.33-15.49 3.02-1.7-.1-3.11.66-4.5 1.5M604.01 152.91c-3.17-.88-9.36-3.43-13.58-3.43s-7.89 1.03-11.42 2.43M401.51 562.91c.31 3.07-1.62 4.91-3.43 7.06-3.55 4.21-6.41 9.03-12.05 10.99-2.19.76-1.79 3.68-3.65 4.56.31 2.48 2.27 3.57 2.88 5.4M386.01 730.41c4.92 2.56 10.36 1.05 15.52 1.91 3.87.64 6.13-3.29 9.48-4.41M669.01 151.91c-3.51-2.23-16.39-3.92-19.46-3.92-5.46 0-10.73 1.87-12.04 3.42M792.51 507.66c3.38.24 2.32 2.83 2.5 4.75.4 4.33-.9 8.79 1 13M637.01 186.91c3.18 2.58 4.15 7.03 1.96 9.97-1.11 1.5-2.63 2.69-3.96 4.03M624.01 143.41h-15.5M595.01 207.91c-3.99 2.36-5.05 6.47-5.89 10.52-.27 1.31-.75 2.16-1.61 2.98M624.51 147.91c-3.12 1.04-6.34.27-9.5.49-1.65.11-3.46-.38-4.5 1.51M752.51 178.91c1.53 2.63 0 4.45-1.45 6.54-2.25 3.24-5.94 5.22-7.55 8.96M607.51 203.41c-3.63 2.45-8.36 1.6-11.73 4.15-5.02-2.27-1.71-5.39-1.27-8.15M582.51 214.41c.74 4.2 5.64 7.01 4 12M412.01 656.41c3.63.69 7.27 1.37 11 1M629.01 159.41c-2.12-3.92-2.56-8.37-3.86-12.54-1.55-5-.78-5.52 4.83-7.53.64-.23 1.44-.81 2.03-1.42M384.01 589.41c-3.72 1.13-7.03 2.9-9.5 6M683.01 201.91c1.08 2.79.97 6.18 4 8M394.01 595.41c-2.76-1.34-5.39-2.9-8-4.5M406.51 589.91c-2.47 2.12-5.83 2.95-8 5.5" class="expertGraphic-3"/>
  </g>
  <path d="M728.77 408.49c-.48-2.25-.55-3.1-2.31-5.27-1.03-1.25-2.48-2.21-4.11-2.54-2.67-.5-4.7 1.05-4.04 3.9.73 3.65 4 5.87 7.53 6.29 1.38.22 2.9.55 4.32.64 1.48.1 2.94-.03 4.38-.08 2.1-.07 4.36-.2 6.31-.98 2.28-.94 4.48-2.26 5.44-4.75 1.45-3.3.02-6.05-3.82-5.05-5.11 1.56-6.21 6.34-6.49 11.13-.11 3.85-.18 7.75 1.15 11.45.73 2.01 1.98 4 3.98 4.96 2.07 1.14 5.74 1.27 5.89-1.8.04-1.73-.74-3.57-1.85-4.83-1.73-1.91-4.56-2.66-7.13-3.12-2.49-.49-4.98-.52-7.52-.24-2.09.13-4.25.37-6.25 1.09-1.77.64-3.26 1.43-4.34 2.9-.97 1.43-1.69 3.25-1.43 5.01.91 3.52 5.61 1.78 7.43 0 2.33-2.17 3.06-5.4 3.23-8.48.21-2.73.14-8.02-.11-10.71" class="expertGraphic-3"/>
  <ellipse cx="588.69" cy="152.62" class="expertGraphic-2" rx="3.97" ry="3.18"/>
  <ellipse cx="648.38" cy="151.45" class="expertGraphic-2" rx="3.97" ry="3.18"/>
</svg>