<svg xmlns="http://www.w3.org/2000/svg" id="Layer_1" data-name="Layer 1" viewBox="0 0 696.48 845.57">
  <defs>
    <style>
      .phoneHelpGraphic-1 {
        fill: #fdeccc;
      }

      .phoneHelpGraphic-2 {
        stroke-linecap: round;
        stroke-linejoin: round;
      }

      .phoneHelpGraphic-2, .phoneHelpGraphic-3 {
        fill: none;
        stroke: #000;
        stroke-width: 2px;
      }

      .phoneHelpGraphic-4 {
        fill: #fff;
      }

      .phoneHelpGraphic-3 {
        stroke-miterlimit: 10;
      }
    </style>
  </defs>
  <path id="oghR50.tif" d="M373.86 845.3c-19.4-1.65-37.08-11.27-50.97-24.42C218.94 705.96 112.78 592.19 8.85 477.8c-10.82-12.63-9.69-30.38-6.35-45.4 4.49-20.21 23.18-24.19 40.62-29.29l157.85-41.38c.79-9.53.88-11.93-8.07-15.12-173.11-53.9-70.26-213.09 77.11-191.5C186.81 7.19 455.47-43.99 534.63 44.74c18.26 17.23 33.73 45.79 28.69 71.71-.8 4.13-3.05 2.2-3.61 2.79.38 19.55-21.76 48.17-35.61 60.83-15.86 13.34-34.73 20.63-54.36 26.55-1.49.45-4.14.14-4.86.61-.42.27-2.91 8.15-3.08 9.41-3.12 29.11 26.31 63.25-20.07 23.9-19.5-19.17-23.01-33.34-52.45-29.44-2.7-.15-15.47-2.88-16.43-2.03 42.9 65.34-30.61 126.09-92.5 131.71-6.55.83-21.43.17-25.84 3.12-.89.6-2.15 1.93-2.49 2.99 8.91.07 17.53-3.55 26.47-3.97 17.53-.83 40.8 5.47 54.89 15.99l347.55 310.58c12.56 12.42 14.42 19.62 15.45 36.98.89 21.64-4.73 39.78-26.98 47.43-81.8 31.04-170.23 57.12-253.1 86.44-13.64 4.87-28.14 5.82-42.46 4.97Z" class="phoneHelpGraphic-4"/>
  <path id="Z9vBI8.tif" d="M389.09 251.32c2.27 59.12-64.82 88.64-114.1 93.6-6.3.68-13-1.75-18.01 3.93-12.2 13.8-25.45 28.3-38.34 42.32-3.6.75-11.82 10.56-14.39 10.5-3.7-1.27 5.09-20.17 4.47-25.39.36-4.34.69-18.65-1.09-21.78-2.67-4.69-22.75-8.5-29.03-10.82-53.02-19.6-90.29-76.58-52.4-128.55 61.25-77.61 246.52-82.3 262.89 36.18Z" class="phoneHelpGraphic-1"/>
  <g id="Uo76SA">
    <path d="M30.18 416.54c-2.9 1.29-5.69 3.11-8.05 5.38-5.17 4.98-5.42 11.11-1.93 16.96 4.46 7.48 11.07 13.23 16.98 19.5 28.54 30.29 56.93 60.73 85.41 91.09 34.45 36.72 68.66 73.67 103 110.5 35.31 37.87 70.49 75.85 105.46 114.03 6.91 7.55 13.57 15.12 23.09 19.42 8.74 3.95 17.91 5.78 27.49 6.62 16.8 1.47 32.17-4.09 47.46-9.25 45.6-15.38 91.4-30.12 137.08-45.26 29.67-9.83 59.38-19.54 88.96-29.61 7.04-2.4 13.66-5.61 17.97-12.01 6.2-9.2 3.01-20.04-3.52-26.93-9.35-9.84-19.92-18.41-29.99-27.5-25.31-22.86-50.6-45.74-75.98-68.52-24.51-21.99-49.02-43.98-73.52-65.98-30.66-27.51-61.3-55.04-92-82.5-25.16-22.51-50.13-45.22-75.51-67.49-8.73-7.66-19.55-10.89-30.95-11.98-2.69-.26-5.23-1.08-7.99-1.19-13.02-.55-25.22 3.22-37.5 6.62-1.98.55-3.89 1.64-6 .5" class="phoneHelpGraphic-2"/>
    <path d="M476.14 818.47c29.2-10.54 58.69-20.28 88.04-30.37 30.45-10.47 60.99-20.7 91.44-31.17 8-2.75 16.16-5.06 23.52-9.47 7.88-4.72 11.92-12.15 13.8-20.57 1.19-5.34 2.94-10.98 2.04-16.44-1.63-9.89.56-20.42-5.74-29.6-5.01-7.29-11.78-12.63-18.17-18.36-48.54-43.45-96.77-87.26-145.48-130.52-41.05-36.45-81.79-73.24-122.9-109.61-22.45-19.86-44.65-40.02-67.08-59.91-10.54-9.35-23.14-14.36-36.97-16.56-5.65-.9-11.25-2.1-17-1.96-8.14.2-16.11 1.65-23.97 3.6-1.05.26-2.06.43-3.02.35-7.97-.66-11.11 5.09-15.18 10.41-3.31 4.34-7.85 7.8-11.32 12.14-7.13 8.92-15.63 16.39-24.47 23.54-2.63 2.13-5.69 3.31-8.54 4.95M466.13 255.93c.49-5.7-2.54-10.62-3.51-16-1.63-8.94-4.3-17.91-1.4-26.98 1.91-5.97 4.3-11.68 10.88-14.61 10.68-4.76 21.15-10.01 31.6-15.28 9.17-4.62 17.25-10.88 26.04-15.95 13.14-7.58 19.32-19.82 25.55-32.6 3.74-7.68 3.06-15.2 2.38-23.08-2.42-28.29-18.68-47.78-40.59-63.43-19.24-13.75-41.04-22-63.99-26.88-8.79-1.87-17.85-2.86-26.94-3.43-7.01-.44-14.05-1.1-21.01-.65-22.48 1.46-44.48 5.21-65.54 13.82-18.8 7.69-35.88 17.7-50.01 32.53-11.01 11.55-18.38 25-21.35 40.56-3.04 15.91.06 31.12 7.43 45.46.78 1.52 1.43 3.2 2.52 4.47 1.09 1.26-.78 3.37 1.99 3.94 2.44-3.63 6.31-1.13 9.42-.72 22.73 3.01 44.29 9.11 62.07 24.77 5.75 5.07 10.58 10.69 14.01 17.58-.4 1.38-1.79 1.91-2.56 2.97" class="phoneHelpGraphic-2"/>
    <path d="M560.63 117.93c2.03-1.21 1.38-3.21 1.51-5 2.14-29.61-11.23-52.32-32.59-70.9-21.44-18.66-47.03-29.57-74.46-35.91-10.25-2.37-20.79-3.74-31.44-4.47-8.36-.57-16.69-.72-25.02-.62-11.43.13-22.83 1.73-33.97 4.06-18.32 3.83-36.07 9.7-52.52 18.86-21.9 12.19-40.58 27.74-51.45 51.01-3.89 8.32-6.12 17.14-6.65 26.47-1.09 19.24 4.48 36.14 16.59 51 .61.75.59 1.7.99 2.51M197.13 363.93c-18.26 4.29-36.33 9.36-54.47 14.1-19.52 5.1-39.06 10.12-58.52 15.41-17.13 4.65-34.43 8.63-51.48 13.55-7.21 2.08-14.07 5.04-20.07 9.87-5.72 4.61-9.66 9.84-8.92 17.56.12 1.26-.9 2.26-.82 2.52 4.69 7.19 8.82 13.62 14.31 18.97 1.68 1.63.78 3.03-.02 4.52-3.05 5.62-2.82 12.01-4.14 18.02-.45 2.05 1.1 3.89 2.62 5.5 11.17 11.84 22.01 23.99 33.04 35.96 16.39 17.79 32.6 35.73 49.04 53.46 27.9 30.11 55.6 60.4 83.4 90.59 24.61 26.73 49.15 53.53 73.58 80.42 18.4 20.26 37.03 40.31 55.61 60.4 4.48 4.85 8.67 9.97 13.33 14.66 11.48 11.55 24.69 19.58 41 22.62 9.68 1.8 19.36 2.4 29.01 1.68 8.36-.63 16.49-3.09 24.54-5.73 12.73-4.17 25.3-8.76 38-13" class="phoneHelpGraphic-2"/>
    <path d="M210.13 387.93c-1.8-3.36-1.21-7.04-.9-10.49.8-8.83.42-17.58-2.21-25.98-3.12-9.95-9.46-17.37-19.37-21.57-15.06-6.38-29.97-13.03-42.55-23.93-12.21-10.58-21.08-23.04-25.07-39.01-4.57-18.29-.07-34.67 10.24-49.42 11.49-16.44 27.55-27.46 45.79-35.74 11.81-5.36 24.03-9.2 36.59-11.71 14.62-2.92 29.53-3.78 44.47-3.14 2.09.09 4.03-.29 6.02-.96 2.78-.94 4.33-2.21 4.08-5.56-.26-3.52-2.4-4.01-5.09-4.52-9.13-1.73-18.37-1.31-27.5-.86-40.65 1.98-77.01 14.69-106.51 43.89-11.59 11.47-19.42 25.24-22.83 41.04-2.9 13.44-1.65 27.06 3.39 39.94 12.39 31.64 36.84 50.18 67.98 60.88 5.99 2.06 12.43 2.97 18.44 5.18 6.1 2.24 6.53 3.58 7.09 9.96 1.14 13.15-1.88 25.62-5.66 37.98-.47 1.54-.23 2.45.59 3.53M18.63 458.93c3.66 1.19 5.6 4.48 7.92 7.07 14.44 16.05 29.42 31.59 44.09 47.42 18.43 19.89 36.95 39.72 55.56 59.44 17.4 18.44 34.62 37.05 51.91 55.58 23.41 25.09 46.78 50.23 70.06 75.44 20.08 21.75 40.23 43.43 60.49 65.01 7.19 7.65 13.84 15.79 21.44 23.05 10.61 10.13 23.05 16.28 37.49 19.13 8.68 1.71 17.34 2.22 26.02 1.71 6.23-.36 12.43-1.65 18.52-3.32 16.24-4.45 31.94-10.52 47.96-15.64 16.06-5.13 32.11-10.36 48-15.99 38.31-13.56 77.11-25.69 115.51-38.98 12.15-4.21 24.26-8.57 36.55-12.35 13.16-4.05 24.82-10.04 32.97-21.59M370.63 208.43c1.55 4.91 4.95 8.83 7.06 13.47 4.28 9.42 6.84 19.31 6.29 29.52-.88 16.3-6.82 30.86-17.33 43.52-17.29 20.83-40.01 32.74-65.54 39.92-10.91 3.07-22.06 4.71-33.47 5.35-4.9.27-10.73-.93-15 3.23-1.14 1.11-2.65 2.05-2.51 3.99" class="phoneHelpGraphic-2"/>
    <path d="M196.13 371.93c-17.39 4.27-34.69 8.92-51.99 13.54-27.15 7.24-54.41 14.04-81.52 21.41M467.13 257.43c-17.47-9.42-30.59-23.89-43.97-38.03-4.76-5.02-9.29-10.44-17.02-9.88-4.54.33-9.03-.07-13.5.06-7.43.21-14.57-2.64-22-1.66-.33.04-.77.15-.98-.01-10.09-7.57-22.93-7.59-34.05-12.4-15.8-6.83-30.9-14.67-44.03-26.01-1.6-1.38-3.05-2.67-3.94-4.57M102.63 577.43c7.6-4.06 8.45-8.82 3.02-15.02-13.52-15.45-28.97-29.09-42.06-44.95-2.45-2.96-6.74-2.04-8.47 1.46-.64 1.29-1.13 2.62-1.49 4.01" class="phoneHelpGraphic-2"/>
    <path d="M358.63 201.43c.17-2.14-.35-3.85-1.95-5.54-14.22-14.96-31.82-23.9-51.57-28.88-5.69-1.44-11.21-3.71-17.51-2.8-3.33.48-5.81-2.73-7.47-5.78M534.63 165.43c.19 1.59-.33 2.85-1.48 4.02-11.15 11.29-23.69 20.35-38.42 26.7-8.07 3.48-16.44 5.74-24.62 8.71-1.15.42-2.64 1.28-3.97.07M524.63 787.93c-1.76 1.67-1.09 3.5.06 4.96 1.38 1.74 3.87 1.58 5.4.94 11.94-5.02 24.63-7.87 36.53-12.92 3.13-1.33 5.47-3.23 6.72-6.9.91-2.68.74-4.69-.78-6.51-1.47-1.77-3.59-1.57-5.95-1.17-8.15 1.39-15.7 4.61-23.47 7.16-4.76 1.56-9.62 2.79-14.07 5.36-3.53 2.04-5.34 4.55-4.95 8.59M146.13 428.43c-1.4-4.46-5.35-4.71-9-5.51-4.6-1.01-8.97-.52-13 2.02-3.75 2.36-4.19 5.36-.98 7.97 6 4.88 20.54 3.73 22.97-2.98.11-.29.01-.66.01-1" class="phoneHelpGraphic-2"/>
    <path d="M565.63 767.43c2.97 5.87 2.02 8.59-4.01 10.47-10.82 3.38-21.71 6.53-32.5 10-1.26.4-2.66 0-3.99.03M3.13 439.43c-3.29 3.75-1.6 8.29-2 12.5-.81 8.62 2.25 16.07 7 23 1.17 1.7 2.08 3.71 4.5 4M418.13 809.43c3.44 7.08 2.8 14.55 1.95 21.99-.19 1.7-.96 3.34.05 5.01M664.63 725.93c3.68 8.48 2.49 17.25 1.5 26M321.63 785.43c-3.99 3.81-4.79 9.08-5.83 14.04-.5 2.39-1.34 4.63-1.92 6.96M266.63 156.93c3.83-3.45 7.67.35 11.5 0" class="phoneHelpGraphic-2"/>
    <path d="M128.35 455.44c-3.17-4.87-10.19-10.4-16.97-15.76-5.86-4.62-11.91-9.4-15.46-13.74l-.09-.18c-2.21-7.88-7.93-12.95-17.47-15.51-.09-.02-12.82-2.36-26.35.8-4.66 1.09-8.99 2.86-13.23 5.42-5.09 5.61-7.19 10.1-3.74 17.67 2.33 5.1 30.46 34.37 36.55 39.12 15.46 12.04 43.18 10.53 54.19.89 5.18-4.54 6.33-12.93 2.57-18.71Zm-11.07 20.33c-4.67 2.08-10.55 2.97-16.5 2.97-7.22 0-14.53-1.31-19.89-3.41-8.02-3.15-23.47-19.31-35.02-32.31-3.48-3.92-7.42-8.79-6.45-9.7l.23-.22.3.12c1.71.69 3.37 1.54 4.98 2.35 2.71 1.38 5.52 2.8 8.55 3.5 12.1 2.83 32.83 2.33 40.34-10.65l.32-.55 21.45 20.85-3.07-1.62c-7.4-3.9-30.71-1.51-38.28 7.01-3.06 3.45-3.09 7.41-.08 11.77 3.87 5.61 12.59 9.15 23.32 9.48 12.29.4 23.89-3.65 28.86-10l2-2.55-1.14 3.03c-1.64 4.37-4.98 7.71-9.94 9.92Z"/>
    <path d="M112.47 407.89c10.21-3 14.51 6.31 5.73 7.71-10.25 1.64-12.18-5.82-5.73-7.71Z" class="phoneHelpGraphic-3"/>
  </g>
  <path d="M339.34 531.69c3.79-.52 13.1-.7 16.26 1.23 1.97 1.2-3.55 5.48-2.01 7.92.5 4.89 7.43 8.64 11.73 9.35 9.65 1.6 16.25-3.03 15.26 11.72-1.13 16.89-13.52 11.22-23.82 14.19-4.32 1.25-7.58 6.22-11.9 7.1-13.78 2.81-46.7-9.33-50.58-23.95-4.63-17.46 16.28-15.78 25.87-18.76 6.61-2.05 10.22-7.58 19.2-8.8Z"/>
  <path d="M319.31 521.58c7.07-1.4 10.13 12.1 1 16.1-9.97 4.37-11.73-13.98-1-16.1Z"/>
  <path d="M231.85 298.14c-2.82-3.6-2.35-5.5 1.57-7.98 2.77-1.75 5.4-2.23 8.79-1.72 4.53.68 9.25.28 13.87.11 2.23-.08 3.77-1.36 4-3.91.69-7.91 3.44-14.8 9.05-20.72 7.33-7.73 9.69-17.43 8.3-27.73-1.38-10.19-7.13-17.92-15.78-23.44-12.61-8.05-30.09-5.44-40.2 4.67-9.63 9.63-12.07 20.77-8.94 33.43 1.04 4.24 3.25 8.29 6.3 11.5 6.2 6.51 9.15 14.24 9.46 23.08.09 2.59 1.36 4.17 3.6 5.16" class="phoneHelpGraphic-2"/>
  <path d="M269.18 239.76c1.07-3.48-.7-6.61-2.12-9.26-5.16-9.61-13.21-14.63-24.49-13.38M257.66 248.89c-7.54 5.79-7.02 14.57-8.31 22.64-.84 5.29-.52 10.61.36 15.88M231.85 249.29c7.32 4.45 6.39 12.24 7.46 19.08.98 6.29.64 12.7.09 19.05M251.31 308.47c-.23 3.83-3.26 6.35-7.15 5.96-3.89-.39-5.82-2.26-5.56-5.31 5.17-.64 10.33-1.28 15.49-1.86 2.05-.23 3.63-.99 3.61-3.55-.03-3.18-2.87-2.23-4-2.23-6.52.04-12.88 2.01-19.46 1.88-1.05-.02-2.32.58-2.34 1.93-.01 1.39 1.22 1.6 2.31 2.05 1.18.49 2.7-.13 3.6 1.13M256.47 289.41c.4 1.12 1.21 2.02 1.64 3.16.67 1.79.28 2.44-1.63 2.85-3.96.86-7.95.88-11.92.7-4.16-.19-8.05.94-11.89 2.11-3.05.93-2.65 3.04-.82 5.09" class="phoneHelpGraphic-2"/>
  <path d="M234.23 291c.56.35.75 1.22 1.59 1.19 7.15-.24 14.31.5 21.45-.4M236.21 298.94c2.08 1.71 4.51.43 6.75.78 1.72.27 3.61-.53 5.16.81M220.72 192.89c1.42 4.01 2.46 8.22 5.96 11.12M204.44 238.17c-4.05.38-7.93-.91-11.92-1.19M244.95 188.12c.21 3.7-.45 7.44.4 11.12M295.79 234.99c-3.71.41-7.43.66-11.12 1.19M281.49 256.84c3.69 1.18 7.21 2.75 10.72 4.37M200.47 209.97c3.75 1.28 6.44 4.54 10.33 5.56M289.44 209.97c-3.7 1.7-6.63 4.65-10.33 6.35M269.97 193.69c-1.92 3.35-2.74 7.36-5.96 9.93M208.01 260.81c-3.4 1.41-6.37 3.71-9.93 4.77M244.55 252.07c2.44 1.76 5.27 1 7.94 1.19M242.17 251.28c-1.57 1.02-3.22 1.78-5.16 1.59M257.66 295.76c.82.76 1.5 1.6 1.28 2.94-.34 1-1.55 1.75-2.07 3.01M408.54 142.91c-5.48 2.64-9.22 6.09-9.67 12.99-.62 9.36 9.83 14.3 17.22 11.11 5.37-2.32 8.28-6.53 8.71-11.62.4-4.7-2.33-8.96-6.77-11.46-2.81-1.59-5.96-.93-8.99-1.02M394.49 51.77c-12.44 4.37-19.78 18.83-19.52 27.64.11 3.67 1.67 5.33 5.01 6.64 2.87 1.13 5.75.68 8.58 1.23 3.36.65 4.65-2.16 5.46-4.88 1.51-5.09 3.46-9.66 8.47-12.57 7.01-4.06 13.47-3.43 19.06 3.05 4.08 4.74 4.02 11.94-.54 17.5-4.21 5.14-9.68 9-14.57 13.42-7.44 6.72-7.95 15.19-7.34 24.09.18 2.64 1.8 4.44 4.93 4.03 1.15-.15 2.33-.02 3.5-.03 10.71-.06 9.65 1.03 11.45-9.51 1.1-6.4 5.79-10.14 10.17-13.84 2.54-2.14 4.81-4.56 7.38-6.65 17.63-14.37 9.78-46.52-13.01-52.47 0 0-16.02-2.24-29.04 2.33Z" class="phoneHelpGraphic-2"/>
</svg>